G04 #@! TF.GenerationSoftware,KiCad,Pcbnew,(5.1.2)-2*
G04 #@! TF.CreationDate,2019-09-23T11:47:28+02:00*
G04 #@! TF.ProjectId,BusinessSynth,42757369-6e65-4737-9353-796e74682e6b,rev?*
G04 #@! TF.SameCoordinates,Original*
G04 #@! TF.FileFunction,Copper,L2,Bot*
G04 #@! TF.FilePolarity,Positive*
%FSLAX46Y46*%
G04 Gerber Fmt 4.6, Leading zero omitted, Abs format (unit mm)*
G04 Created by KiCad (PCBNEW (5.1.2)-2) date 2019-09-23 11:47:28*
%MOMM*%
%LPD*%
G04 APERTURE LIST*
%ADD10C,1.700000*%
%ADD11O,1.700000X1.700000*%
%ADD12R,1.700000X1.700000*%
%ADD13C,1.524000*%
%ADD14C,0.100000*%
%ADD15R,5.000000X13.000000*%
%ADD16C,0.600000*%
%ADD17C,0.800000*%
%ADD18C,0.400000*%
%ADD19C,0.200000*%
%ADD20C,0.254000*%
G04 APERTURE END LIST*
D10*
X193500000Y-74500000D03*
X186250000Y-86000000D03*
D11*
X187400000Y-100320000D03*
X187400000Y-102860000D03*
D12*
X187400000Y-105400000D03*
D13*
X180730987Y-83939666D03*
D14*
G36*
X180389050Y-82917723D02*
G01*
X181752930Y-83597729D01*
X181072924Y-84961609D01*
X179709044Y-84281603D01*
X180389050Y-82917723D01*
X180389050Y-82917723D01*
G37*
D13*
X180711750Y-72043074D03*
D14*
G36*
X181051903Y-71020536D02*
G01*
X181734288Y-72383227D01*
X180371597Y-73065612D01*
X179689212Y-71702921D01*
X181051903Y-71020536D01*
X181051903Y-71020536D01*
G37*
D13*
X168269013Y-72060334D03*
D14*
G36*
X168610950Y-73082277D02*
G01*
X167247070Y-72402271D01*
X167927076Y-71038391D01*
X169290956Y-71718397D01*
X168610950Y-73082277D01*
X168610950Y-73082277D01*
G37*
D13*
X168288250Y-83956926D03*
D14*
G36*
X167948097Y-84979464D02*
G01*
X167265712Y-83616773D01*
X168628403Y-82934388D01*
X169310788Y-84297079D01*
X167948097Y-84979464D01*
X167948097Y-84979464D01*
G37*
D15*
X114350000Y-92100000D03*
D16*
X171250000Y-90985000D03*
X185500000Y-97700000D03*
X181750000Y-96250000D03*
X179750000Y-88000000D03*
D17*
X171250000Y-85000000D03*
X177750000Y-85000000D03*
D16*
X193500000Y-120750000D03*
X182500000Y-99200000D03*
D18*
X171250000Y-85000000D02*
X169250000Y-85000000D01*
X168250000Y-84000000D02*
X169250000Y-85000000D01*
X169250000Y-71000000D02*
X179750000Y-71000000D01*
X180750000Y-72000000D02*
X179750000Y-71000000D01*
X168250000Y-72000000D02*
X169250000Y-71000000D01*
X177750000Y-85000000D02*
X179750000Y-85000000D01*
X180750000Y-84000000D02*
X179750000Y-85000000D01*
X193500000Y-74500000D02*
X193500000Y-121300000D01*
X193500000Y-119050000D02*
X193500000Y-120750000D01*
D19*
X183620000Y-100320000D02*
X187400000Y-100320000D01*
X182500000Y-99200000D02*
X183620000Y-100320000D01*
D20*
G36*
X195598000Y-120905100D02*
G01*
X194751551Y-122598000D01*
X192248449Y-122598000D01*
X191402000Y-120905102D01*
X191402000Y-119127000D01*
X195598000Y-119127000D01*
X195598000Y-120905100D01*
X195598000Y-120905100D01*
G37*
X195598000Y-120905100D02*
X194751551Y-122598000D01*
X192248449Y-122598000D01*
X191402000Y-120905102D01*
X191402000Y-119127000D01*
X195598000Y-119127000D01*
X195598000Y-120905100D01*
G36*
X188319768Y-70385042D02*
G01*
X188627361Y-70477908D01*
X188911057Y-70628753D01*
X189160048Y-70831826D01*
X189364855Y-71079393D01*
X189517674Y-71362028D01*
X189612686Y-71668961D01*
X189648001Y-72004963D01*
X189648000Y-86982708D01*
X189646297Y-87000000D01*
X189653093Y-87069004D01*
X189673221Y-87135356D01*
X189705907Y-87196507D01*
X189749894Y-87250106D01*
X189783240Y-87277472D01*
X189803493Y-87294093D01*
X189864644Y-87326779D01*
X189873000Y-87329314D01*
X189873000Y-90670686D01*
X189864644Y-90673221D01*
X189803493Y-90705907D01*
X189749894Y-90749894D01*
X189705907Y-90803493D01*
X189673221Y-90864644D01*
X189653093Y-90930996D01*
X189646297Y-91000000D01*
X189648001Y-91017302D01*
X189648000Y-110982708D01*
X189646297Y-111000000D01*
X189653093Y-111069004D01*
X189673221Y-111135356D01*
X189705907Y-111196507D01*
X189749894Y-111250106D01*
X189803493Y-111294093D01*
X189864644Y-111326779D01*
X189873000Y-111329314D01*
X189873000Y-114670686D01*
X189864644Y-114673221D01*
X189803493Y-114705907D01*
X189749894Y-114749894D01*
X189705907Y-114803493D01*
X189673221Y-114864644D01*
X189653093Y-114930996D01*
X189646297Y-115000000D01*
X189648001Y-115017302D01*
X189648000Y-122982784D01*
X189614958Y-123319768D01*
X189522091Y-123627361D01*
X189371250Y-123911052D01*
X189168176Y-124160046D01*
X188920607Y-124364854D01*
X188637974Y-124517673D01*
X188331039Y-124612685D01*
X187995046Y-124648000D01*
X102017216Y-124648000D01*
X101680232Y-124614958D01*
X101372639Y-124522091D01*
X101088948Y-124371250D01*
X100839954Y-124168176D01*
X100635146Y-123920607D01*
X100482327Y-123637974D01*
X100387315Y-123331039D01*
X100352000Y-122995046D01*
X100352000Y-103216890D01*
X185958524Y-103216890D01*
X186003175Y-103364099D01*
X186128359Y-103626920D01*
X186302412Y-103860269D01*
X186518645Y-104055178D01*
X186768748Y-104204157D01*
X186817408Y-104221418D01*
X186550000Y-104221418D01*
X186485897Y-104227732D01*
X186424257Y-104246430D01*
X186367450Y-104276794D01*
X186317657Y-104317657D01*
X186276794Y-104367450D01*
X186246430Y-104424257D01*
X186227732Y-104485897D01*
X186221418Y-104550000D01*
X186221418Y-106250000D01*
X186227732Y-106314103D01*
X186246430Y-106375743D01*
X186276794Y-106432550D01*
X186317657Y-106482343D01*
X186367450Y-106523206D01*
X186424257Y-106553570D01*
X186485897Y-106572268D01*
X186550000Y-106578582D01*
X188250000Y-106578582D01*
X188314103Y-106572268D01*
X188375743Y-106553570D01*
X188432550Y-106523206D01*
X188482343Y-106482343D01*
X188523206Y-106432550D01*
X188553570Y-106375743D01*
X188572268Y-106314103D01*
X188578582Y-106250000D01*
X188578582Y-104550000D01*
X188572268Y-104485897D01*
X188553570Y-104424257D01*
X188523206Y-104367450D01*
X188482343Y-104317657D01*
X188432550Y-104276794D01*
X188375743Y-104246430D01*
X188314103Y-104227732D01*
X188250000Y-104221418D01*
X187982592Y-104221418D01*
X188031252Y-104204157D01*
X188281355Y-104055178D01*
X188497588Y-103860269D01*
X188671641Y-103626920D01*
X188796825Y-103364099D01*
X188841476Y-103216890D01*
X188720155Y-102987000D01*
X187527000Y-102987000D01*
X187527000Y-103007000D01*
X187273000Y-103007000D01*
X187273000Y-102987000D01*
X186079845Y-102987000D01*
X185958524Y-103216890D01*
X100352000Y-103216890D01*
X100352000Y-99138246D01*
X181873000Y-99138246D01*
X181873000Y-99261754D01*
X181897095Y-99382889D01*
X181944360Y-99496996D01*
X182012977Y-99599689D01*
X182100311Y-99687023D01*
X182203004Y-99755640D01*
X182317111Y-99802905D01*
X182438246Y-99827000D01*
X182523131Y-99827000D01*
X183303241Y-100607111D01*
X183316605Y-100623395D01*
X183332889Y-100636759D01*
X183332898Y-100636768D01*
X183381623Y-100676755D01*
X183421273Y-100697948D01*
X183455804Y-100716405D01*
X183536293Y-100740822D01*
X183599022Y-100747000D01*
X183599032Y-100747000D01*
X183619999Y-100749065D01*
X183640966Y-100747000D01*
X186299568Y-100747000D01*
X186307333Y-100772597D01*
X186416626Y-100977070D01*
X186563709Y-101156291D01*
X186742930Y-101303374D01*
X186947403Y-101412667D01*
X187007885Y-101431014D01*
X186768748Y-101515843D01*
X186518645Y-101664822D01*
X186302412Y-101859731D01*
X186128359Y-102093080D01*
X186003175Y-102355901D01*
X185958524Y-102503110D01*
X186079845Y-102733000D01*
X187273000Y-102733000D01*
X187273000Y-102713000D01*
X187527000Y-102713000D01*
X187527000Y-102733000D01*
X188720155Y-102733000D01*
X188841476Y-102503110D01*
X188796825Y-102355901D01*
X188671641Y-102093080D01*
X188497588Y-101859731D01*
X188281355Y-101664822D01*
X188031252Y-101515843D01*
X187792115Y-101431014D01*
X187852597Y-101412667D01*
X188057070Y-101303374D01*
X188236291Y-101156291D01*
X188383374Y-100977070D01*
X188492667Y-100772597D01*
X188559969Y-100550732D01*
X188582694Y-100320000D01*
X188559969Y-100089268D01*
X188492667Y-99867403D01*
X188383374Y-99662930D01*
X188236291Y-99483709D01*
X188057070Y-99336626D01*
X187852597Y-99227333D01*
X187630732Y-99160031D01*
X187457812Y-99143000D01*
X187342188Y-99143000D01*
X187169268Y-99160031D01*
X186947403Y-99227333D01*
X186742930Y-99336626D01*
X186563709Y-99483709D01*
X186416626Y-99662930D01*
X186307333Y-99867403D01*
X186299568Y-99893000D01*
X183796870Y-99893000D01*
X183127000Y-99223131D01*
X183127000Y-99138246D01*
X183102905Y-99017111D01*
X183055640Y-98903004D01*
X182987023Y-98800311D01*
X182899689Y-98712977D01*
X182796996Y-98644360D01*
X182682889Y-98597095D01*
X182561754Y-98573000D01*
X182438246Y-98573000D01*
X182317111Y-98597095D01*
X182203004Y-98644360D01*
X182100311Y-98712977D01*
X182012977Y-98800311D01*
X181944360Y-98903004D01*
X181897095Y-99017111D01*
X181873000Y-99138246D01*
X100352000Y-99138246D01*
X100352000Y-74083452D01*
X103513000Y-74083452D01*
X103513001Y-97616549D01*
X103514454Y-97631305D01*
X103514411Y-97637525D01*
X103514870Y-97642208D01*
X103535271Y-97836305D01*
X103541416Y-97866240D01*
X103547136Y-97896227D01*
X103548496Y-97900731D01*
X103606208Y-98087169D01*
X103618044Y-98115325D01*
X103629486Y-98143646D01*
X103631695Y-98147801D01*
X103724520Y-98319478D01*
X103741617Y-98344826D01*
X103758326Y-98370359D01*
X103761299Y-98374005D01*
X103885703Y-98524383D01*
X103907390Y-98545920D01*
X103928747Y-98567728D01*
X103932366Y-98570722D01*
X103932372Y-98570728D01*
X103932379Y-98570732D01*
X104083614Y-98694077D01*
X104109027Y-98710961D01*
X104134258Y-98728237D01*
X104138396Y-98730475D01*
X104310719Y-98822100D01*
X104338967Y-98833743D01*
X104367032Y-98845771D01*
X104371526Y-98847163D01*
X104558363Y-98903572D01*
X104588339Y-98909507D01*
X104618201Y-98915855D01*
X104622880Y-98916347D01*
X104817114Y-98935392D01*
X104817126Y-98935392D01*
X104833451Y-98937000D01*
X110866549Y-98937000D01*
X110881314Y-98935546D01*
X110887525Y-98935589D01*
X110892208Y-98935130D01*
X111086305Y-98914729D01*
X111116240Y-98908584D01*
X111146227Y-98902864D01*
X111150729Y-98901505D01*
X111150735Y-98901503D01*
X111337169Y-98843792D01*
X111365325Y-98831956D01*
X111393646Y-98820514D01*
X111397801Y-98818305D01*
X111569478Y-98725480D01*
X111594826Y-98708383D01*
X111620359Y-98691674D01*
X111624005Y-98688701D01*
X111774383Y-98564297D01*
X111795920Y-98542610D01*
X111817728Y-98521253D01*
X111820722Y-98517634D01*
X111820728Y-98517628D01*
X111820732Y-98517621D01*
X111944077Y-98366386D01*
X111960961Y-98340973D01*
X111978237Y-98315742D01*
X111980475Y-98311604D01*
X112072100Y-98139281D01*
X112083743Y-98111033D01*
X112095771Y-98082968D01*
X112097163Y-98078474D01*
X112153572Y-97891637D01*
X112159512Y-97861639D01*
X112165855Y-97831799D01*
X112166347Y-97827120D01*
X112185392Y-97632886D01*
X112185392Y-97632874D01*
X112187000Y-97616549D01*
X112187000Y-86116484D01*
X112191690Y-86068651D01*
X112200793Y-86038501D01*
X112215578Y-86010693D01*
X112235485Y-85986285D01*
X112259756Y-85966206D01*
X112287463Y-85951225D01*
X112317548Y-85941912D01*
X112364285Y-85937000D01*
X116333516Y-85937000D01*
X116381349Y-85941690D01*
X116411499Y-85950793D01*
X116439307Y-85965578D01*
X116463715Y-85985485D01*
X116483794Y-86009756D01*
X116498775Y-86037463D01*
X116508088Y-86067548D01*
X116513001Y-86114295D01*
X116513000Y-97616548D01*
X116514454Y-97631313D01*
X116514411Y-97637525D01*
X116514870Y-97642208D01*
X116535271Y-97836305D01*
X116541416Y-97866240D01*
X116547136Y-97896227D01*
X116548496Y-97900731D01*
X116606208Y-98087169D01*
X116618044Y-98115325D01*
X116629486Y-98143646D01*
X116631695Y-98147801D01*
X116724520Y-98319478D01*
X116741617Y-98344826D01*
X116758326Y-98370359D01*
X116761299Y-98374005D01*
X116885703Y-98524383D01*
X116907390Y-98545920D01*
X116928747Y-98567728D01*
X116932366Y-98570722D01*
X116932372Y-98570728D01*
X116932379Y-98570732D01*
X117083614Y-98694077D01*
X117109027Y-98710961D01*
X117134258Y-98728237D01*
X117138396Y-98730475D01*
X117310719Y-98822100D01*
X117338967Y-98833743D01*
X117367032Y-98845771D01*
X117371526Y-98847163D01*
X117558363Y-98903572D01*
X117588339Y-98909507D01*
X117618201Y-98915855D01*
X117622880Y-98916347D01*
X117817114Y-98935392D01*
X117817126Y-98935392D01*
X117833451Y-98937000D01*
X123866549Y-98937000D01*
X123881314Y-98935546D01*
X123887525Y-98935589D01*
X123892208Y-98935130D01*
X124086305Y-98914729D01*
X124116240Y-98908584D01*
X124146227Y-98902864D01*
X124150729Y-98901505D01*
X124150735Y-98901503D01*
X124337169Y-98843792D01*
X124365325Y-98831956D01*
X124393646Y-98820514D01*
X124397801Y-98818305D01*
X124569478Y-98725480D01*
X124594826Y-98708383D01*
X124620359Y-98691674D01*
X124624005Y-98688701D01*
X124774383Y-98564297D01*
X124795920Y-98542610D01*
X124817728Y-98521253D01*
X124820722Y-98517634D01*
X124820728Y-98517628D01*
X124820732Y-98517621D01*
X124944077Y-98366386D01*
X124960961Y-98340973D01*
X124978237Y-98315742D01*
X124980475Y-98311604D01*
X125072100Y-98139281D01*
X125083743Y-98111033D01*
X125095771Y-98082968D01*
X125097163Y-98078474D01*
X125153572Y-97891637D01*
X125159512Y-97861639D01*
X125165855Y-97831799D01*
X125166347Y-97827120D01*
X125185392Y-97632886D01*
X125185392Y-97632874D01*
X125187000Y-97616549D01*
X125187000Y-87028397D01*
X185401208Y-87028397D01*
X185478843Y-87277472D01*
X185742883Y-87403371D01*
X186026411Y-87475339D01*
X186318531Y-87490611D01*
X186608019Y-87448599D01*
X186883747Y-87350919D01*
X187021157Y-87277472D01*
X187098792Y-87028397D01*
X186250000Y-86179605D01*
X185401208Y-87028397D01*
X125187000Y-87028397D01*
X125187000Y-86068531D01*
X184759389Y-86068531D01*
X184801401Y-86358019D01*
X184899081Y-86633747D01*
X184972528Y-86771157D01*
X185221603Y-86848792D01*
X186070395Y-86000000D01*
X186429605Y-86000000D01*
X187278397Y-86848792D01*
X187527472Y-86771157D01*
X187653371Y-86507117D01*
X187714752Y-86265297D01*
X187767123Y-86391731D01*
X187857628Y-86527181D01*
X187972819Y-86642372D01*
X188108269Y-86732877D01*
X188258773Y-86795218D01*
X188418548Y-86827000D01*
X188581452Y-86827000D01*
X188741227Y-86795218D01*
X188891731Y-86732877D01*
X189027181Y-86642372D01*
X189142372Y-86527181D01*
X189232877Y-86391731D01*
X189295218Y-86241227D01*
X189327000Y-86081452D01*
X189327000Y-85918548D01*
X189295218Y-85758773D01*
X189232877Y-85608269D01*
X189142372Y-85472819D01*
X189027181Y-85357628D01*
X188891731Y-85267123D01*
X188741227Y-85204782D01*
X188581452Y-85173000D01*
X188418548Y-85173000D01*
X188258773Y-85204782D01*
X188108269Y-85267123D01*
X187972819Y-85357628D01*
X187857628Y-85472819D01*
X187767123Y-85608269D01*
X187712755Y-85739524D01*
X187698599Y-85641981D01*
X187600919Y-85366253D01*
X187527472Y-85228843D01*
X187278397Y-85151208D01*
X186429605Y-86000000D01*
X186070395Y-86000000D01*
X185221603Y-85151208D01*
X184972528Y-85228843D01*
X184846629Y-85492883D01*
X184774661Y-85776411D01*
X184759389Y-86068531D01*
X125187000Y-86068531D01*
X125187000Y-78385616D01*
X161097998Y-78385616D01*
X161098811Y-78396183D01*
X161098404Y-78406783D01*
X161102595Y-78445354D01*
X161251660Y-79336133D01*
X161254332Y-79346391D01*
X161255808Y-79356893D01*
X161266762Y-79394113D01*
X161571215Y-80244417D01*
X161575662Y-80254041D01*
X161578974Y-80264115D01*
X161596341Y-80298794D01*
X161596347Y-80298807D01*
X161596350Y-80298812D01*
X162046564Y-81081758D01*
X162052642Y-81090438D01*
X162057688Y-81099771D01*
X162080914Y-81130817D01*
X162080929Y-81130838D01*
X162080935Y-81130844D01*
X162662680Y-81821689D01*
X162670204Y-81829161D01*
X162676819Y-81837447D01*
X162705194Y-81863907D01*
X163400089Y-82440819D01*
X163408810Y-82446836D01*
X163416794Y-82453825D01*
X163449407Y-82474842D01*
X164235483Y-82919583D01*
X164245141Y-82923964D01*
X164254228Y-82929424D01*
X164290047Y-82944334D01*
X165142456Y-83242843D01*
X165152734Y-83245444D01*
X165162646Y-83249209D01*
X165200510Y-83257533D01*
X165200540Y-83257541D01*
X165200551Y-83257542D01*
X166092337Y-83400383D01*
X166102908Y-83401122D01*
X166113337Y-83403074D01*
X166152105Y-83404563D01*
X166152107Y-83404563D01*
X167032087Y-83387666D01*
X167017352Y-83401637D01*
X166980153Y-83454223D01*
X166953928Y-83513056D01*
X166939685Y-83575875D01*
X166937971Y-83640266D01*
X166948852Y-83703754D01*
X166971909Y-83763899D01*
X167654294Y-85126590D01*
X167688642Y-85181081D01*
X167732961Y-85227824D01*
X167785547Y-85265023D01*
X167844380Y-85291248D01*
X167907199Y-85305491D01*
X167971590Y-85307205D01*
X168035078Y-85296324D01*
X168095223Y-85273267D01*
X168550161Y-85045451D01*
X168859053Y-85354344D01*
X168875552Y-85374448D01*
X168955798Y-85440304D01*
X169047350Y-85489239D01*
X169146690Y-85519374D01*
X169200300Y-85524654D01*
X169250000Y-85529549D01*
X169275881Y-85527000D01*
X170748866Y-85527000D01*
X170786564Y-85564698D01*
X170905636Y-85644259D01*
X171037942Y-85699062D01*
X171178397Y-85727000D01*
X171321603Y-85727000D01*
X171462058Y-85699062D01*
X171594364Y-85644259D01*
X171713436Y-85564698D01*
X171814698Y-85463436D01*
X171894259Y-85344364D01*
X171949062Y-85212058D01*
X171977000Y-85071603D01*
X171977000Y-84928397D01*
X171949062Y-84787942D01*
X171894259Y-84655636D01*
X171814698Y-84536564D01*
X171713436Y-84435302D01*
X171594364Y-84355741D01*
X171462058Y-84300938D01*
X171321603Y-84273000D01*
X171178397Y-84273000D01*
X171037942Y-84300938D01*
X170905636Y-84355741D01*
X170786564Y-84435302D01*
X170748866Y-84473000D01*
X169586888Y-84473000D01*
X169589208Y-84469720D01*
X169594943Y-84469873D01*
X169660372Y-84458659D01*
X169722356Y-84434897D01*
X169742728Y-84422055D01*
X170264693Y-84131117D01*
X170266865Y-84129681D01*
X170269221Y-84128548D01*
X170298797Y-84109326D01*
X171140240Y-83497535D01*
X171146296Y-83492386D01*
X171152860Y-83487897D01*
X171179189Y-83464422D01*
X171918411Y-82732393D01*
X171923619Y-82726387D01*
X171929428Y-82720957D01*
X171951903Y-82693770D01*
X172571892Y-81858348D01*
X172576130Y-81851626D01*
X172581053Y-81845377D01*
X172599157Y-81815103D01*
X173085645Y-80895514D01*
X173088818Y-80888226D01*
X173092738Y-80881307D01*
X173106054Y-80848642D01*
X173447847Y-79866047D01*
X173449880Y-79858368D01*
X173452710Y-79850931D01*
X173460932Y-79816629D01*
X173650165Y-78793641D01*
X173651014Y-78785736D01*
X173652685Y-78777962D01*
X173655624Y-78742810D01*
X173687940Y-77702968D01*
X173687584Y-77695032D01*
X173688060Y-77687089D01*
X173685648Y-77651897D01*
X173560306Y-76619133D01*
X173558752Y-76611335D01*
X173558022Y-76603419D01*
X173550315Y-76568997D01*
X173270198Y-75567073D01*
X173267485Y-75559607D01*
X173265564Y-75551885D01*
X173252739Y-75519025D01*
X172824293Y-74571001D01*
X172820477Y-74564023D01*
X172817414Y-74556689D01*
X172799766Y-74526146D01*
X172232852Y-73653838D01*
X172228028Y-73647522D01*
X172223888Y-73640731D01*
X172201823Y-73613209D01*
X171509485Y-72836689D01*
X171503758Y-72831172D01*
X171498641Y-72825089D01*
X171472668Y-72801221D01*
X170670839Y-72138359D01*
X170664341Y-72133770D01*
X170658365Y-72128533D01*
X170629080Y-72108869D01*
X169739356Y-71576800D01*
X169714504Y-71561177D01*
X169652491Y-71537491D01*
X169590827Y-71527000D01*
X179413112Y-71527000D01*
X179410792Y-71530280D01*
X179405057Y-71530127D01*
X179339628Y-71541341D01*
X179277644Y-71565103D01*
X179257286Y-71577936D01*
X178735307Y-71868883D01*
X178733135Y-71870319D01*
X178730779Y-71871452D01*
X178701202Y-71890674D01*
X177859760Y-72502465D01*
X177853704Y-72507614D01*
X177847140Y-72512103D01*
X177820811Y-72535578D01*
X177081589Y-73267607D01*
X177076381Y-73273613D01*
X177070572Y-73279043D01*
X177048097Y-73306230D01*
X176428108Y-74141652D01*
X176423868Y-74148378D01*
X176418947Y-74154624D01*
X176400843Y-74184898D01*
X175914355Y-75104486D01*
X175911182Y-75111773D01*
X175907262Y-75118693D01*
X175893946Y-75151357D01*
X175552153Y-76133953D01*
X175550120Y-76141632D01*
X175547290Y-76149069D01*
X175539068Y-76183371D01*
X175349835Y-77206359D01*
X175348986Y-77214264D01*
X175347315Y-77222038D01*
X175344376Y-77257190D01*
X175312060Y-78297032D01*
X175312416Y-78304967D01*
X175311940Y-78312910D01*
X175314352Y-78348102D01*
X175439694Y-79380867D01*
X175441248Y-79388664D01*
X175441978Y-79396582D01*
X175449685Y-79431004D01*
X175729802Y-80432927D01*
X175732515Y-80440393D01*
X175734436Y-80448115D01*
X175747261Y-80480975D01*
X176175707Y-81428999D01*
X176179523Y-81435978D01*
X176182586Y-81443311D01*
X176200224Y-81473835D01*
X176200234Y-81473854D01*
X176200238Y-81473860D01*
X176767147Y-82346162D01*
X176771972Y-82352480D01*
X176776112Y-82359270D01*
X176798177Y-82386791D01*
X177490515Y-83163311D01*
X177496242Y-83168828D01*
X177501359Y-83174911D01*
X177527332Y-83198779D01*
X178329161Y-83861640D01*
X178335654Y-83866226D01*
X178341635Y-83871467D01*
X178370920Y-83891131D01*
X179260644Y-84423200D01*
X179285496Y-84438823D01*
X179347509Y-84462509D01*
X179409173Y-84473000D01*
X178251134Y-84473000D01*
X178213436Y-84435302D01*
X178094364Y-84355741D01*
X177962058Y-84300938D01*
X177821603Y-84273000D01*
X177678397Y-84273000D01*
X177537942Y-84300938D01*
X177405636Y-84355741D01*
X177286564Y-84435302D01*
X177185302Y-84536564D01*
X177105741Y-84655636D01*
X177050938Y-84787942D01*
X177023000Y-84928397D01*
X177023000Y-85071603D01*
X177050938Y-85212058D01*
X177105741Y-85344364D01*
X177185302Y-85463436D01*
X177286564Y-85564698D01*
X177405636Y-85644259D01*
X177537942Y-85699062D01*
X177678397Y-85727000D01*
X177821603Y-85727000D01*
X177962058Y-85699062D01*
X178094364Y-85644259D01*
X178213436Y-85564698D01*
X178251134Y-85527000D01*
X179724119Y-85527000D01*
X179750000Y-85529549D01*
X179775881Y-85527000D01*
X179853310Y-85519374D01*
X179952650Y-85489239D01*
X180044202Y-85440304D01*
X180124448Y-85374448D01*
X180140955Y-85354334D01*
X180468085Y-85027205D01*
X180926311Y-85255668D01*
X180986497Y-85278621D01*
X181050003Y-85289391D01*
X181114391Y-85287564D01*
X181177185Y-85273211D01*
X181235972Y-85246884D01*
X181288493Y-85209593D01*
X181332730Y-85162773D01*
X181366983Y-85108222D01*
X181435098Y-84971603D01*
X185401208Y-84971603D01*
X186250000Y-85820395D01*
X187098792Y-84971603D01*
X187021157Y-84722528D01*
X186757117Y-84596629D01*
X186473589Y-84524661D01*
X186181469Y-84509389D01*
X185891981Y-84551401D01*
X185616253Y-84649081D01*
X185478843Y-84722528D01*
X185401208Y-84971603D01*
X181435098Y-84971603D01*
X182046989Y-83744342D01*
X182069942Y-83684156D01*
X182080712Y-83620650D01*
X182078885Y-83556262D01*
X182064532Y-83493468D01*
X182038205Y-83434681D01*
X182000914Y-83382160D01*
X181998782Y-83380145D01*
X182715744Y-83411449D01*
X182726333Y-83410968D01*
X182736914Y-83411708D01*
X182775596Y-83408731D01*
X182775599Y-83408731D01*
X183670620Y-83287719D01*
X183680951Y-83285372D01*
X183691500Y-83284226D01*
X183729038Y-83274447D01*
X183729046Y-83274445D01*
X183729049Y-83274444D01*
X184588493Y-82996851D01*
X184598248Y-82992710D01*
X184608425Y-82989715D01*
X184643645Y-82973441D01*
X185440352Y-82548039D01*
X185449222Y-82542235D01*
X185458705Y-82537486D01*
X185490487Y-82515232D01*
X186199270Y-81955468D01*
X186206971Y-81948186D01*
X186215464Y-81941832D01*
X186242802Y-81914302D01*
X186841258Y-81237871D01*
X186847548Y-81229339D01*
X186854782Y-81221582D01*
X186876813Y-81189646D01*
X187346025Y-80417927D01*
X187350706Y-80408414D01*
X187356450Y-80399501D01*
X187372471Y-80364181D01*
X187372478Y-80364167D01*
X187372480Y-80364161D01*
X187697614Y-79521557D01*
X187700535Y-79511370D01*
X187704612Y-79501576D01*
X187714129Y-79463963D01*
X187884913Y-78577091D01*
X187885984Y-78566548D01*
X187888262Y-78556187D01*
X187890968Y-78517483D01*
X187902002Y-77614385D01*
X187901189Y-77603817D01*
X187901596Y-77593217D01*
X187897405Y-77554646D01*
X187748340Y-76663867D01*
X187745668Y-76653609D01*
X187744192Y-76643107D01*
X187733238Y-76605887D01*
X187428785Y-75755583D01*
X187424338Y-75745959D01*
X187421026Y-75735885D01*
X187403653Y-75701194D01*
X187403653Y-75701193D01*
X187403650Y-75701188D01*
X186953436Y-74918242D01*
X186947359Y-74909563D01*
X186942312Y-74900229D01*
X186919070Y-74869162D01*
X186337319Y-74178311D01*
X186329800Y-74170844D01*
X186323181Y-74162553D01*
X186294805Y-74136093D01*
X185599911Y-73559180D01*
X185591187Y-73553162D01*
X185583206Y-73546175D01*
X185550593Y-73525158D01*
X184764517Y-73080417D01*
X184754859Y-73076036D01*
X184745772Y-73070576D01*
X184709953Y-73055666D01*
X183857544Y-72757157D01*
X183847269Y-72754557D01*
X183837353Y-72750790D01*
X183799460Y-72742459D01*
X182907662Y-72599617D01*
X182897091Y-72598878D01*
X182886663Y-72596926D01*
X182847893Y-72595437D01*
X181967913Y-72612334D01*
X181982648Y-72598363D01*
X182019847Y-72545777D01*
X182046072Y-72486944D01*
X182060315Y-72424125D01*
X182062029Y-72359734D01*
X182051148Y-72296246D01*
X182028091Y-72236101D01*
X181345706Y-70873410D01*
X181311358Y-70818919D01*
X181267039Y-70772176D01*
X181214453Y-70734977D01*
X181155620Y-70708752D01*
X181092801Y-70694509D01*
X181028410Y-70692795D01*
X180964922Y-70703676D01*
X180904777Y-70726733D01*
X180449839Y-70954549D01*
X180140955Y-70645666D01*
X180124448Y-70625552D01*
X180044202Y-70559696D01*
X179952650Y-70510761D01*
X179853310Y-70480626D01*
X179775881Y-70473000D01*
X179750000Y-70470451D01*
X179724119Y-70473000D01*
X169275881Y-70473000D01*
X169250000Y-70470451D01*
X169224119Y-70473000D01*
X169146690Y-70480626D01*
X169047350Y-70510761D01*
X168955798Y-70559696D01*
X168875552Y-70625552D01*
X168859053Y-70645656D01*
X168531915Y-70972795D01*
X168073689Y-70744332D01*
X168013503Y-70721379D01*
X167949997Y-70710609D01*
X167885609Y-70712436D01*
X167822815Y-70726789D01*
X167764028Y-70753116D01*
X167711507Y-70790407D01*
X167667270Y-70837227D01*
X167633017Y-70891778D01*
X166953011Y-72255658D01*
X166930058Y-72315844D01*
X166919288Y-72379350D01*
X166921115Y-72443738D01*
X166935468Y-72506532D01*
X166961795Y-72565319D01*
X166999086Y-72617840D01*
X167001218Y-72619855D01*
X166284256Y-72588551D01*
X166273668Y-72589032D01*
X166263087Y-72588292D01*
X166224404Y-72591269D01*
X166224401Y-72591269D01*
X165329381Y-72712281D01*
X165319044Y-72714630D01*
X165308500Y-72715775D01*
X165270962Y-72725553D01*
X165270954Y-72725555D01*
X165270951Y-72725556D01*
X164411507Y-73003149D01*
X164401752Y-73007290D01*
X164391575Y-73010285D01*
X164356355Y-73026559D01*
X163559648Y-73451961D01*
X163550778Y-73457765D01*
X163541295Y-73462514D01*
X163509514Y-73484768D01*
X162800730Y-74044531D01*
X162793029Y-74051813D01*
X162784536Y-74058167D01*
X162757198Y-74085698D01*
X162158742Y-74762129D01*
X162152455Y-74770656D01*
X162145218Y-74778417D01*
X162123187Y-74810354D01*
X161653975Y-75582073D01*
X161649294Y-75591586D01*
X161643550Y-75600499D01*
X161627529Y-75635819D01*
X161627522Y-75635833D01*
X161627520Y-75635839D01*
X161302386Y-76478443D01*
X161299465Y-76488630D01*
X161295388Y-76498424D01*
X161285871Y-76536037D01*
X161115087Y-77422909D01*
X161114016Y-77433452D01*
X161111738Y-77443813D01*
X161109032Y-77482517D01*
X161097998Y-78385616D01*
X125187000Y-78385616D01*
X125187000Y-74083451D01*
X125185580Y-74069031D01*
X125185601Y-74065967D01*
X125185142Y-74061284D01*
X125174942Y-73964235D01*
X125168800Y-73934313D01*
X125163077Y-73904312D01*
X125161717Y-73899808D01*
X125132861Y-73806589D01*
X125121012Y-73778401D01*
X125109581Y-73750109D01*
X125107373Y-73745955D01*
X125060960Y-73660117D01*
X125043868Y-73634777D01*
X125027155Y-73609238D01*
X125024181Y-73605591D01*
X124961980Y-73530403D01*
X124940294Y-73508868D01*
X124918938Y-73487060D01*
X124915313Y-73484060D01*
X124839692Y-73422384D01*
X124814250Y-73405481D01*
X124789045Y-73388223D01*
X124784906Y-73385985D01*
X124698745Y-73340173D01*
X124670535Y-73328546D01*
X124642435Y-73316502D01*
X124637940Y-73315111D01*
X124544522Y-73286906D01*
X124514565Y-73280974D01*
X124484681Y-73274622D01*
X124480007Y-73274131D01*
X124480004Y-73274130D01*
X124480001Y-73274130D01*
X124382884Y-73264608D01*
X124382874Y-73264608D01*
X124366549Y-73263000D01*
X123833451Y-73263000D01*
X123819031Y-73264420D01*
X123815967Y-73264399D01*
X123811284Y-73264858D01*
X123714235Y-73275058D01*
X123684313Y-73281200D01*
X123654312Y-73286923D01*
X123649808Y-73288283D01*
X123556589Y-73317139D01*
X123528401Y-73328988D01*
X123500109Y-73340419D01*
X123495955Y-73342627D01*
X123410117Y-73389040D01*
X123384777Y-73406132D01*
X123359238Y-73422845D01*
X123355591Y-73425819D01*
X123280403Y-73488020D01*
X123258868Y-73509706D01*
X123237060Y-73531062D01*
X123234060Y-73534687D01*
X123172384Y-73610308D01*
X123155481Y-73635750D01*
X123138223Y-73660955D01*
X123135985Y-73665094D01*
X123090173Y-73751255D01*
X123078546Y-73779465D01*
X123066502Y-73807565D01*
X123065111Y-73812060D01*
X123036906Y-73905478D01*
X123030974Y-73935435D01*
X123024622Y-73965319D01*
X123024130Y-73969999D01*
X123014608Y-74067116D01*
X123014608Y-74067127D01*
X123013000Y-74083452D01*
X123013001Y-96583506D01*
X123008310Y-96631349D01*
X122999207Y-96661499D01*
X122984422Y-96689305D01*
X122964512Y-96713717D01*
X122940244Y-96733793D01*
X122912537Y-96748775D01*
X122882451Y-96758088D01*
X122835715Y-96763000D01*
X118866484Y-96763000D01*
X118818651Y-96758310D01*
X118788501Y-96749207D01*
X118760695Y-96734422D01*
X118736283Y-96714512D01*
X118716207Y-96690244D01*
X118701225Y-96662537D01*
X118691912Y-96632451D01*
X118687000Y-96585715D01*
X118687000Y-74583451D01*
X118685546Y-74568686D01*
X118685589Y-74562474D01*
X118685130Y-74557792D01*
X118664729Y-74363695D01*
X118658583Y-74333753D01*
X118652864Y-74303773D01*
X118651505Y-74299273D01*
X118651504Y-74299267D01*
X118651502Y-74299261D01*
X118593792Y-74112831D01*
X118581962Y-74084688D01*
X118570514Y-74056353D01*
X118568305Y-74052199D01*
X118475480Y-73880522D01*
X118458398Y-73855197D01*
X118441674Y-73829641D01*
X118438700Y-73825994D01*
X118314297Y-73675617D01*
X118292626Y-73654097D01*
X118271253Y-73632272D01*
X118267628Y-73629273D01*
X118116386Y-73505923D01*
X118090942Y-73489018D01*
X118065743Y-73471764D01*
X118061604Y-73469526D01*
X117889282Y-73377900D01*
X117861020Y-73366252D01*
X117832968Y-73354229D01*
X117828474Y-73352837D01*
X117641638Y-73296428D01*
X117611647Y-73290490D01*
X117581799Y-73284145D01*
X117577119Y-73283653D01*
X117382886Y-73264608D01*
X117382874Y-73264608D01*
X117366549Y-73263000D01*
X111333451Y-73263000D01*
X111318686Y-73264454D01*
X111312474Y-73264411D01*
X111307792Y-73264870D01*
X111113695Y-73285271D01*
X111083753Y-73291417D01*
X111053773Y-73297136D01*
X111049273Y-73298495D01*
X111049267Y-73298496D01*
X111049261Y-73298498D01*
X110862831Y-73356208D01*
X110834688Y-73368038D01*
X110806353Y-73379486D01*
X110802199Y-73381695D01*
X110630522Y-73474520D01*
X110605197Y-73491602D01*
X110579641Y-73508326D01*
X110575994Y-73511300D01*
X110425617Y-73635703D01*
X110404097Y-73657374D01*
X110382272Y-73678747D01*
X110379273Y-73682372D01*
X110255923Y-73833614D01*
X110239018Y-73859058D01*
X110221764Y-73884257D01*
X110219526Y-73888396D01*
X110127900Y-74060718D01*
X110116252Y-74088980D01*
X110104229Y-74117032D01*
X110102837Y-74121526D01*
X110046428Y-74308362D01*
X110040490Y-74338353D01*
X110034145Y-74368201D01*
X110033653Y-74372881D01*
X110014608Y-74567114D01*
X110014608Y-74567136D01*
X110013001Y-74583451D01*
X110013000Y-96583516D01*
X110008310Y-96631349D01*
X109999207Y-96661499D01*
X109984422Y-96689305D01*
X109964512Y-96713717D01*
X109940244Y-96733793D01*
X109912537Y-96748775D01*
X109882451Y-96758088D01*
X109835715Y-96763000D01*
X105866484Y-96763000D01*
X105818651Y-96758310D01*
X105788501Y-96749207D01*
X105760695Y-96734422D01*
X105736283Y-96714512D01*
X105716207Y-96690244D01*
X105701225Y-96662537D01*
X105691912Y-96632451D01*
X105687000Y-96585715D01*
X105687000Y-74083451D01*
X105685580Y-74069031D01*
X105685601Y-74065967D01*
X105685142Y-74061284D01*
X105674942Y-73964235D01*
X105668800Y-73934313D01*
X105663077Y-73904312D01*
X105661717Y-73899808D01*
X105632861Y-73806589D01*
X105621012Y-73778401D01*
X105609581Y-73750109D01*
X105607373Y-73745955D01*
X105560960Y-73660117D01*
X105543868Y-73634777D01*
X105527155Y-73609238D01*
X105524181Y-73605591D01*
X105461980Y-73530403D01*
X105440294Y-73508868D01*
X105418938Y-73487060D01*
X105415313Y-73484060D01*
X105339692Y-73422384D01*
X105314250Y-73405481D01*
X105289045Y-73388223D01*
X105284906Y-73385985D01*
X105198745Y-73340173D01*
X105170535Y-73328546D01*
X105142435Y-73316502D01*
X105137940Y-73315111D01*
X105044522Y-73286906D01*
X105014565Y-73280974D01*
X104984681Y-73274622D01*
X104980007Y-73274131D01*
X104980004Y-73274130D01*
X104980001Y-73274130D01*
X104882884Y-73264608D01*
X104882874Y-73264608D01*
X104866549Y-73263000D01*
X104333451Y-73263000D01*
X104319031Y-73264420D01*
X104315967Y-73264399D01*
X104311284Y-73264858D01*
X104214235Y-73275058D01*
X104184313Y-73281200D01*
X104154312Y-73286923D01*
X104149808Y-73288283D01*
X104056589Y-73317139D01*
X104028401Y-73328988D01*
X104000109Y-73340419D01*
X103995955Y-73342627D01*
X103910117Y-73389040D01*
X103884777Y-73406132D01*
X103859238Y-73422845D01*
X103855591Y-73425819D01*
X103780403Y-73488020D01*
X103758868Y-73509706D01*
X103737060Y-73531062D01*
X103734060Y-73534687D01*
X103672384Y-73610308D01*
X103655481Y-73635750D01*
X103638223Y-73660955D01*
X103635985Y-73665094D01*
X103590173Y-73751255D01*
X103578546Y-73779465D01*
X103566502Y-73807565D01*
X103565111Y-73812060D01*
X103536906Y-73905478D01*
X103530974Y-73935435D01*
X103524622Y-73965319D01*
X103524130Y-73969999D01*
X103514608Y-74067116D01*
X103514608Y-74067127D01*
X103513000Y-74083452D01*
X100352000Y-74083452D01*
X100352000Y-72017215D01*
X100385042Y-71680232D01*
X100477908Y-71372639D01*
X100628753Y-71088943D01*
X100831826Y-70839952D01*
X101079393Y-70635145D01*
X101362028Y-70482326D01*
X101668961Y-70387314D01*
X102004954Y-70352000D01*
X187982785Y-70352000D01*
X188319768Y-70385042D01*
X188319768Y-70385042D01*
G37*
X188319768Y-70385042D02*
X188627361Y-70477908D01*
X188911057Y-70628753D01*
X189160048Y-70831826D01*
X189364855Y-71079393D01*
X189517674Y-71362028D01*
X189612686Y-71668961D01*
X189648001Y-72004963D01*
X189648000Y-86982708D01*
X189646297Y-87000000D01*
X189653093Y-87069004D01*
X189673221Y-87135356D01*
X189705907Y-87196507D01*
X189749894Y-87250106D01*
X189783240Y-87277472D01*
X189803493Y-87294093D01*
X189864644Y-87326779D01*
X189873000Y-87329314D01*
X189873000Y-90670686D01*
X189864644Y-90673221D01*
X189803493Y-90705907D01*
X189749894Y-90749894D01*
X189705907Y-90803493D01*
X189673221Y-90864644D01*
X189653093Y-90930996D01*
X189646297Y-91000000D01*
X189648001Y-91017302D01*
X189648000Y-110982708D01*
X189646297Y-111000000D01*
X189653093Y-111069004D01*
X189673221Y-111135356D01*
X189705907Y-111196507D01*
X189749894Y-111250106D01*
X189803493Y-111294093D01*
X189864644Y-111326779D01*
X189873000Y-111329314D01*
X189873000Y-114670686D01*
X189864644Y-114673221D01*
X189803493Y-114705907D01*
X189749894Y-114749894D01*
X189705907Y-114803493D01*
X189673221Y-114864644D01*
X189653093Y-114930996D01*
X189646297Y-115000000D01*
X189648001Y-115017302D01*
X189648000Y-122982784D01*
X189614958Y-123319768D01*
X189522091Y-123627361D01*
X189371250Y-123911052D01*
X189168176Y-124160046D01*
X188920607Y-124364854D01*
X188637974Y-124517673D01*
X188331039Y-124612685D01*
X187995046Y-124648000D01*
X102017216Y-124648000D01*
X101680232Y-124614958D01*
X101372639Y-124522091D01*
X101088948Y-124371250D01*
X100839954Y-124168176D01*
X100635146Y-123920607D01*
X100482327Y-123637974D01*
X100387315Y-123331039D01*
X100352000Y-122995046D01*
X100352000Y-103216890D01*
X185958524Y-103216890D01*
X186003175Y-103364099D01*
X186128359Y-103626920D01*
X186302412Y-103860269D01*
X186518645Y-104055178D01*
X186768748Y-104204157D01*
X186817408Y-104221418D01*
X186550000Y-104221418D01*
X186485897Y-104227732D01*
X186424257Y-104246430D01*
X186367450Y-104276794D01*
X186317657Y-104317657D01*
X186276794Y-104367450D01*
X186246430Y-104424257D01*
X186227732Y-104485897D01*
X186221418Y-104550000D01*
X186221418Y-106250000D01*
X186227732Y-106314103D01*
X186246430Y-106375743D01*
X186276794Y-106432550D01*
X186317657Y-106482343D01*
X186367450Y-106523206D01*
X186424257Y-106553570D01*
X186485897Y-106572268D01*
X186550000Y-106578582D01*
X188250000Y-106578582D01*
X188314103Y-106572268D01*
X188375743Y-106553570D01*
X188432550Y-106523206D01*
X188482343Y-106482343D01*
X188523206Y-106432550D01*
X188553570Y-106375743D01*
X188572268Y-106314103D01*
X188578582Y-106250000D01*
X188578582Y-104550000D01*
X188572268Y-104485897D01*
X188553570Y-104424257D01*
X188523206Y-104367450D01*
X188482343Y-104317657D01*
X188432550Y-104276794D01*
X188375743Y-104246430D01*
X188314103Y-104227732D01*
X188250000Y-104221418D01*
X187982592Y-104221418D01*
X188031252Y-104204157D01*
X188281355Y-104055178D01*
X188497588Y-103860269D01*
X188671641Y-103626920D01*
X188796825Y-103364099D01*
X188841476Y-103216890D01*
X188720155Y-102987000D01*
X187527000Y-102987000D01*
X187527000Y-103007000D01*
X187273000Y-103007000D01*
X187273000Y-102987000D01*
X186079845Y-102987000D01*
X185958524Y-103216890D01*
X100352000Y-103216890D01*
X100352000Y-99138246D01*
X181873000Y-99138246D01*
X181873000Y-99261754D01*
X181897095Y-99382889D01*
X181944360Y-99496996D01*
X182012977Y-99599689D01*
X182100311Y-99687023D01*
X182203004Y-99755640D01*
X182317111Y-99802905D01*
X182438246Y-99827000D01*
X182523131Y-99827000D01*
X183303241Y-100607111D01*
X183316605Y-100623395D01*
X183332889Y-100636759D01*
X183332898Y-100636768D01*
X183381623Y-100676755D01*
X183421273Y-100697948D01*
X183455804Y-100716405D01*
X183536293Y-100740822D01*
X183599022Y-100747000D01*
X183599032Y-100747000D01*
X183619999Y-100749065D01*
X183640966Y-100747000D01*
X186299568Y-100747000D01*
X186307333Y-100772597D01*
X186416626Y-100977070D01*
X186563709Y-101156291D01*
X186742930Y-101303374D01*
X186947403Y-101412667D01*
X187007885Y-101431014D01*
X186768748Y-101515843D01*
X186518645Y-101664822D01*
X186302412Y-101859731D01*
X186128359Y-102093080D01*
X186003175Y-102355901D01*
X185958524Y-102503110D01*
X186079845Y-102733000D01*
X187273000Y-102733000D01*
X187273000Y-102713000D01*
X187527000Y-102713000D01*
X187527000Y-102733000D01*
X188720155Y-102733000D01*
X188841476Y-102503110D01*
X188796825Y-102355901D01*
X188671641Y-102093080D01*
X188497588Y-101859731D01*
X188281355Y-101664822D01*
X188031252Y-101515843D01*
X187792115Y-101431014D01*
X187852597Y-101412667D01*
X188057070Y-101303374D01*
X188236291Y-101156291D01*
X188383374Y-100977070D01*
X188492667Y-100772597D01*
X188559969Y-100550732D01*
X188582694Y-100320000D01*
X188559969Y-100089268D01*
X188492667Y-99867403D01*
X188383374Y-99662930D01*
X188236291Y-99483709D01*
X188057070Y-99336626D01*
X187852597Y-99227333D01*
X187630732Y-99160031D01*
X187457812Y-99143000D01*
X187342188Y-99143000D01*
X187169268Y-99160031D01*
X186947403Y-99227333D01*
X186742930Y-99336626D01*
X186563709Y-99483709D01*
X186416626Y-99662930D01*
X186307333Y-99867403D01*
X186299568Y-99893000D01*
X183796870Y-99893000D01*
X183127000Y-99223131D01*
X183127000Y-99138246D01*
X183102905Y-99017111D01*
X183055640Y-98903004D01*
X182987023Y-98800311D01*
X182899689Y-98712977D01*
X182796996Y-98644360D01*
X182682889Y-98597095D01*
X182561754Y-98573000D01*
X182438246Y-98573000D01*
X182317111Y-98597095D01*
X182203004Y-98644360D01*
X182100311Y-98712977D01*
X182012977Y-98800311D01*
X181944360Y-98903004D01*
X181897095Y-99017111D01*
X181873000Y-99138246D01*
X100352000Y-99138246D01*
X100352000Y-74083452D01*
X103513000Y-74083452D01*
X103513001Y-97616549D01*
X103514454Y-97631305D01*
X103514411Y-97637525D01*
X103514870Y-97642208D01*
X103535271Y-97836305D01*
X103541416Y-97866240D01*
X103547136Y-97896227D01*
X103548496Y-97900731D01*
X103606208Y-98087169D01*
X103618044Y-98115325D01*
X103629486Y-98143646D01*
X103631695Y-98147801D01*
X103724520Y-98319478D01*
X103741617Y-98344826D01*
X103758326Y-98370359D01*
X103761299Y-98374005D01*
X103885703Y-98524383D01*
X103907390Y-98545920D01*
X103928747Y-98567728D01*
X103932366Y-98570722D01*
X103932372Y-98570728D01*
X103932379Y-98570732D01*
X104083614Y-98694077D01*
X104109027Y-98710961D01*
X104134258Y-98728237D01*
X104138396Y-98730475D01*
X104310719Y-98822100D01*
X104338967Y-98833743D01*
X104367032Y-98845771D01*
X104371526Y-98847163D01*
X104558363Y-98903572D01*
X104588339Y-98909507D01*
X104618201Y-98915855D01*
X104622880Y-98916347D01*
X104817114Y-98935392D01*
X104817126Y-98935392D01*
X104833451Y-98937000D01*
X110866549Y-98937000D01*
X110881314Y-98935546D01*
X110887525Y-98935589D01*
X110892208Y-98935130D01*
X111086305Y-98914729D01*
X111116240Y-98908584D01*
X111146227Y-98902864D01*
X111150729Y-98901505D01*
X111150735Y-98901503D01*
X111337169Y-98843792D01*
X111365325Y-98831956D01*
X111393646Y-98820514D01*
X111397801Y-98818305D01*
X111569478Y-98725480D01*
X111594826Y-98708383D01*
X111620359Y-98691674D01*
X111624005Y-98688701D01*
X111774383Y-98564297D01*
X111795920Y-98542610D01*
X111817728Y-98521253D01*
X111820722Y-98517634D01*
X111820728Y-98517628D01*
X111820732Y-98517621D01*
X111944077Y-98366386D01*
X111960961Y-98340973D01*
X111978237Y-98315742D01*
X111980475Y-98311604D01*
X112072100Y-98139281D01*
X112083743Y-98111033D01*
X112095771Y-98082968D01*
X112097163Y-98078474D01*
X112153572Y-97891637D01*
X112159512Y-97861639D01*
X112165855Y-97831799D01*
X112166347Y-97827120D01*
X112185392Y-97632886D01*
X112185392Y-97632874D01*
X112187000Y-97616549D01*
X112187000Y-86116484D01*
X112191690Y-86068651D01*
X112200793Y-86038501D01*
X112215578Y-86010693D01*
X112235485Y-85986285D01*
X112259756Y-85966206D01*
X112287463Y-85951225D01*
X112317548Y-85941912D01*
X112364285Y-85937000D01*
X116333516Y-85937000D01*
X116381349Y-85941690D01*
X116411499Y-85950793D01*
X116439307Y-85965578D01*
X116463715Y-85985485D01*
X116483794Y-86009756D01*
X116498775Y-86037463D01*
X116508088Y-86067548D01*
X116513001Y-86114295D01*
X116513000Y-97616548D01*
X116514454Y-97631313D01*
X116514411Y-97637525D01*
X116514870Y-97642208D01*
X116535271Y-97836305D01*
X116541416Y-97866240D01*
X116547136Y-97896227D01*
X116548496Y-97900731D01*
X116606208Y-98087169D01*
X116618044Y-98115325D01*
X116629486Y-98143646D01*
X116631695Y-98147801D01*
X116724520Y-98319478D01*
X116741617Y-98344826D01*
X116758326Y-98370359D01*
X116761299Y-98374005D01*
X116885703Y-98524383D01*
X116907390Y-98545920D01*
X116928747Y-98567728D01*
X116932366Y-98570722D01*
X116932372Y-98570728D01*
X116932379Y-98570732D01*
X117083614Y-98694077D01*
X117109027Y-98710961D01*
X117134258Y-98728237D01*
X117138396Y-98730475D01*
X117310719Y-98822100D01*
X117338967Y-98833743D01*
X117367032Y-98845771D01*
X117371526Y-98847163D01*
X117558363Y-98903572D01*
X117588339Y-98909507D01*
X117618201Y-98915855D01*
X117622880Y-98916347D01*
X117817114Y-98935392D01*
X117817126Y-98935392D01*
X117833451Y-98937000D01*
X123866549Y-98937000D01*
X123881314Y-98935546D01*
X123887525Y-98935589D01*
X123892208Y-98935130D01*
X124086305Y-98914729D01*
X124116240Y-98908584D01*
X124146227Y-98902864D01*
X124150729Y-98901505D01*
X124150735Y-98901503D01*
X124337169Y-98843792D01*
X124365325Y-98831956D01*
X124393646Y-98820514D01*
X124397801Y-98818305D01*
X124569478Y-98725480D01*
X124594826Y-98708383D01*
X124620359Y-98691674D01*
X124624005Y-98688701D01*
X124774383Y-98564297D01*
X124795920Y-98542610D01*
X124817728Y-98521253D01*
X124820722Y-98517634D01*
X124820728Y-98517628D01*
X124820732Y-98517621D01*
X124944077Y-98366386D01*
X124960961Y-98340973D01*
X124978237Y-98315742D01*
X124980475Y-98311604D01*
X125072100Y-98139281D01*
X125083743Y-98111033D01*
X125095771Y-98082968D01*
X125097163Y-98078474D01*
X125153572Y-97891637D01*
X125159512Y-97861639D01*
X125165855Y-97831799D01*
X125166347Y-97827120D01*
X125185392Y-97632886D01*
X125185392Y-97632874D01*
X125187000Y-97616549D01*
X125187000Y-87028397D01*
X185401208Y-87028397D01*
X185478843Y-87277472D01*
X185742883Y-87403371D01*
X186026411Y-87475339D01*
X186318531Y-87490611D01*
X186608019Y-87448599D01*
X186883747Y-87350919D01*
X187021157Y-87277472D01*
X187098792Y-87028397D01*
X186250000Y-86179605D01*
X185401208Y-87028397D01*
X125187000Y-87028397D01*
X125187000Y-86068531D01*
X184759389Y-86068531D01*
X184801401Y-86358019D01*
X184899081Y-86633747D01*
X184972528Y-86771157D01*
X185221603Y-86848792D01*
X186070395Y-86000000D01*
X186429605Y-86000000D01*
X187278397Y-86848792D01*
X187527472Y-86771157D01*
X187653371Y-86507117D01*
X187714752Y-86265297D01*
X187767123Y-86391731D01*
X187857628Y-86527181D01*
X187972819Y-86642372D01*
X188108269Y-86732877D01*
X188258773Y-86795218D01*
X188418548Y-86827000D01*
X188581452Y-86827000D01*
X188741227Y-86795218D01*
X188891731Y-86732877D01*
X189027181Y-86642372D01*
X189142372Y-86527181D01*
X189232877Y-86391731D01*
X189295218Y-86241227D01*
X189327000Y-86081452D01*
X189327000Y-85918548D01*
X189295218Y-85758773D01*
X189232877Y-85608269D01*
X189142372Y-85472819D01*
X189027181Y-85357628D01*
X188891731Y-85267123D01*
X188741227Y-85204782D01*
X188581452Y-85173000D01*
X188418548Y-85173000D01*
X188258773Y-85204782D01*
X188108269Y-85267123D01*
X187972819Y-85357628D01*
X187857628Y-85472819D01*
X187767123Y-85608269D01*
X187712755Y-85739524D01*
X187698599Y-85641981D01*
X187600919Y-85366253D01*
X187527472Y-85228843D01*
X187278397Y-85151208D01*
X186429605Y-86000000D01*
X186070395Y-86000000D01*
X185221603Y-85151208D01*
X184972528Y-85228843D01*
X184846629Y-85492883D01*
X184774661Y-85776411D01*
X184759389Y-86068531D01*
X125187000Y-86068531D01*
X125187000Y-78385616D01*
X161097998Y-78385616D01*
X161098811Y-78396183D01*
X161098404Y-78406783D01*
X161102595Y-78445354D01*
X161251660Y-79336133D01*
X161254332Y-79346391D01*
X161255808Y-79356893D01*
X161266762Y-79394113D01*
X161571215Y-80244417D01*
X161575662Y-80254041D01*
X161578974Y-80264115D01*
X161596341Y-80298794D01*
X161596347Y-80298807D01*
X161596350Y-80298812D01*
X162046564Y-81081758D01*
X162052642Y-81090438D01*
X162057688Y-81099771D01*
X162080914Y-81130817D01*
X162080929Y-81130838D01*
X162080935Y-81130844D01*
X162662680Y-81821689D01*
X162670204Y-81829161D01*
X162676819Y-81837447D01*
X162705194Y-81863907D01*
X163400089Y-82440819D01*
X163408810Y-82446836D01*
X163416794Y-82453825D01*
X163449407Y-82474842D01*
X164235483Y-82919583D01*
X164245141Y-82923964D01*
X164254228Y-82929424D01*
X164290047Y-82944334D01*
X165142456Y-83242843D01*
X165152734Y-83245444D01*
X165162646Y-83249209D01*
X165200510Y-83257533D01*
X165200540Y-83257541D01*
X165200551Y-83257542D01*
X166092337Y-83400383D01*
X166102908Y-83401122D01*
X166113337Y-83403074D01*
X166152105Y-83404563D01*
X166152107Y-83404563D01*
X167032087Y-83387666D01*
X167017352Y-83401637D01*
X166980153Y-83454223D01*
X166953928Y-83513056D01*
X166939685Y-83575875D01*
X166937971Y-83640266D01*
X166948852Y-83703754D01*
X166971909Y-83763899D01*
X167654294Y-85126590D01*
X167688642Y-85181081D01*
X167732961Y-85227824D01*
X167785547Y-85265023D01*
X167844380Y-85291248D01*
X167907199Y-85305491D01*
X167971590Y-85307205D01*
X168035078Y-85296324D01*
X168095223Y-85273267D01*
X168550161Y-85045451D01*
X168859053Y-85354344D01*
X168875552Y-85374448D01*
X168955798Y-85440304D01*
X169047350Y-85489239D01*
X169146690Y-85519374D01*
X169200300Y-85524654D01*
X169250000Y-85529549D01*
X169275881Y-85527000D01*
X170748866Y-85527000D01*
X170786564Y-85564698D01*
X170905636Y-85644259D01*
X171037942Y-85699062D01*
X171178397Y-85727000D01*
X171321603Y-85727000D01*
X171462058Y-85699062D01*
X171594364Y-85644259D01*
X171713436Y-85564698D01*
X171814698Y-85463436D01*
X171894259Y-85344364D01*
X171949062Y-85212058D01*
X171977000Y-85071603D01*
X171977000Y-84928397D01*
X171949062Y-84787942D01*
X171894259Y-84655636D01*
X171814698Y-84536564D01*
X171713436Y-84435302D01*
X171594364Y-84355741D01*
X171462058Y-84300938D01*
X171321603Y-84273000D01*
X171178397Y-84273000D01*
X171037942Y-84300938D01*
X170905636Y-84355741D01*
X170786564Y-84435302D01*
X170748866Y-84473000D01*
X169586888Y-84473000D01*
X169589208Y-84469720D01*
X169594943Y-84469873D01*
X169660372Y-84458659D01*
X169722356Y-84434897D01*
X169742728Y-84422055D01*
X170264693Y-84131117D01*
X170266865Y-84129681D01*
X170269221Y-84128548D01*
X170298797Y-84109326D01*
X171140240Y-83497535D01*
X171146296Y-83492386D01*
X171152860Y-83487897D01*
X171179189Y-83464422D01*
X171918411Y-82732393D01*
X171923619Y-82726387D01*
X171929428Y-82720957D01*
X171951903Y-82693770D01*
X172571892Y-81858348D01*
X172576130Y-81851626D01*
X172581053Y-81845377D01*
X172599157Y-81815103D01*
X173085645Y-80895514D01*
X173088818Y-80888226D01*
X173092738Y-80881307D01*
X173106054Y-80848642D01*
X173447847Y-79866047D01*
X173449880Y-79858368D01*
X173452710Y-79850931D01*
X173460932Y-79816629D01*
X173650165Y-78793641D01*
X173651014Y-78785736D01*
X173652685Y-78777962D01*
X173655624Y-78742810D01*
X173687940Y-77702968D01*
X173687584Y-77695032D01*
X173688060Y-77687089D01*
X173685648Y-77651897D01*
X173560306Y-76619133D01*
X173558752Y-76611335D01*
X173558022Y-76603419D01*
X173550315Y-76568997D01*
X173270198Y-75567073D01*
X173267485Y-75559607D01*
X173265564Y-75551885D01*
X173252739Y-75519025D01*
X172824293Y-74571001D01*
X172820477Y-74564023D01*
X172817414Y-74556689D01*
X172799766Y-74526146D01*
X172232852Y-73653838D01*
X172228028Y-73647522D01*
X172223888Y-73640731D01*
X172201823Y-73613209D01*
X171509485Y-72836689D01*
X171503758Y-72831172D01*
X171498641Y-72825089D01*
X171472668Y-72801221D01*
X170670839Y-72138359D01*
X170664341Y-72133770D01*
X170658365Y-72128533D01*
X170629080Y-72108869D01*
X169739356Y-71576800D01*
X169714504Y-71561177D01*
X169652491Y-71537491D01*
X169590827Y-71527000D01*
X179413112Y-71527000D01*
X179410792Y-71530280D01*
X179405057Y-71530127D01*
X179339628Y-71541341D01*
X179277644Y-71565103D01*
X179257286Y-71577936D01*
X178735307Y-71868883D01*
X178733135Y-71870319D01*
X178730779Y-71871452D01*
X178701202Y-71890674D01*
X177859760Y-72502465D01*
X177853704Y-72507614D01*
X177847140Y-72512103D01*
X177820811Y-72535578D01*
X177081589Y-73267607D01*
X177076381Y-73273613D01*
X177070572Y-73279043D01*
X177048097Y-73306230D01*
X176428108Y-74141652D01*
X176423868Y-74148378D01*
X176418947Y-74154624D01*
X176400843Y-74184898D01*
X175914355Y-75104486D01*
X175911182Y-75111773D01*
X175907262Y-75118693D01*
X175893946Y-75151357D01*
X175552153Y-76133953D01*
X175550120Y-76141632D01*
X175547290Y-76149069D01*
X175539068Y-76183371D01*
X175349835Y-77206359D01*
X175348986Y-77214264D01*
X175347315Y-77222038D01*
X175344376Y-77257190D01*
X175312060Y-78297032D01*
X175312416Y-78304967D01*
X175311940Y-78312910D01*
X175314352Y-78348102D01*
X175439694Y-79380867D01*
X175441248Y-79388664D01*
X175441978Y-79396582D01*
X175449685Y-79431004D01*
X175729802Y-80432927D01*
X175732515Y-80440393D01*
X175734436Y-80448115D01*
X175747261Y-80480975D01*
X176175707Y-81428999D01*
X176179523Y-81435978D01*
X176182586Y-81443311D01*
X176200224Y-81473835D01*
X176200234Y-81473854D01*
X176200238Y-81473860D01*
X176767147Y-82346162D01*
X176771972Y-82352480D01*
X176776112Y-82359270D01*
X176798177Y-82386791D01*
X177490515Y-83163311D01*
X177496242Y-83168828D01*
X177501359Y-83174911D01*
X177527332Y-83198779D01*
X178329161Y-83861640D01*
X178335654Y-83866226D01*
X178341635Y-83871467D01*
X178370920Y-83891131D01*
X179260644Y-84423200D01*
X179285496Y-84438823D01*
X179347509Y-84462509D01*
X179409173Y-84473000D01*
X178251134Y-84473000D01*
X178213436Y-84435302D01*
X178094364Y-84355741D01*
X177962058Y-84300938D01*
X177821603Y-84273000D01*
X177678397Y-84273000D01*
X177537942Y-84300938D01*
X177405636Y-84355741D01*
X177286564Y-84435302D01*
X177185302Y-84536564D01*
X177105741Y-84655636D01*
X177050938Y-84787942D01*
X177023000Y-84928397D01*
X177023000Y-85071603D01*
X177050938Y-85212058D01*
X177105741Y-85344364D01*
X177185302Y-85463436D01*
X177286564Y-85564698D01*
X177405636Y-85644259D01*
X177537942Y-85699062D01*
X177678397Y-85727000D01*
X177821603Y-85727000D01*
X177962058Y-85699062D01*
X178094364Y-85644259D01*
X178213436Y-85564698D01*
X178251134Y-85527000D01*
X179724119Y-85527000D01*
X179750000Y-85529549D01*
X179775881Y-85527000D01*
X179853310Y-85519374D01*
X179952650Y-85489239D01*
X180044202Y-85440304D01*
X180124448Y-85374448D01*
X180140955Y-85354334D01*
X180468085Y-85027205D01*
X180926311Y-85255668D01*
X180986497Y-85278621D01*
X181050003Y-85289391D01*
X181114391Y-85287564D01*
X181177185Y-85273211D01*
X181235972Y-85246884D01*
X181288493Y-85209593D01*
X181332730Y-85162773D01*
X181366983Y-85108222D01*
X181435098Y-84971603D01*
X185401208Y-84971603D01*
X186250000Y-85820395D01*
X187098792Y-84971603D01*
X187021157Y-84722528D01*
X186757117Y-84596629D01*
X186473589Y-84524661D01*
X186181469Y-84509389D01*
X185891981Y-84551401D01*
X185616253Y-84649081D01*
X185478843Y-84722528D01*
X185401208Y-84971603D01*
X181435098Y-84971603D01*
X182046989Y-83744342D01*
X182069942Y-83684156D01*
X182080712Y-83620650D01*
X182078885Y-83556262D01*
X182064532Y-83493468D01*
X182038205Y-83434681D01*
X182000914Y-83382160D01*
X181998782Y-83380145D01*
X182715744Y-83411449D01*
X182726333Y-83410968D01*
X182736914Y-83411708D01*
X182775596Y-83408731D01*
X182775599Y-83408731D01*
X183670620Y-83287719D01*
X183680951Y-83285372D01*
X183691500Y-83284226D01*
X183729038Y-83274447D01*
X183729046Y-83274445D01*
X183729049Y-83274444D01*
X184588493Y-82996851D01*
X184598248Y-82992710D01*
X184608425Y-82989715D01*
X184643645Y-82973441D01*
X185440352Y-82548039D01*
X185449222Y-82542235D01*
X185458705Y-82537486D01*
X185490487Y-82515232D01*
X186199270Y-81955468D01*
X186206971Y-81948186D01*
X186215464Y-81941832D01*
X186242802Y-81914302D01*
X186841258Y-81237871D01*
X186847548Y-81229339D01*
X186854782Y-81221582D01*
X186876813Y-81189646D01*
X187346025Y-80417927D01*
X187350706Y-80408414D01*
X187356450Y-80399501D01*
X187372471Y-80364181D01*
X187372478Y-80364167D01*
X187372480Y-80364161D01*
X187697614Y-79521557D01*
X187700535Y-79511370D01*
X187704612Y-79501576D01*
X187714129Y-79463963D01*
X187884913Y-78577091D01*
X187885984Y-78566548D01*
X187888262Y-78556187D01*
X187890968Y-78517483D01*
X187902002Y-77614385D01*
X187901189Y-77603817D01*
X187901596Y-77593217D01*
X187897405Y-77554646D01*
X187748340Y-76663867D01*
X187745668Y-76653609D01*
X187744192Y-76643107D01*
X187733238Y-76605887D01*
X187428785Y-75755583D01*
X187424338Y-75745959D01*
X187421026Y-75735885D01*
X187403653Y-75701194D01*
X187403653Y-75701193D01*
X187403650Y-75701188D01*
X186953436Y-74918242D01*
X186947359Y-74909563D01*
X186942312Y-74900229D01*
X186919070Y-74869162D01*
X186337319Y-74178311D01*
X186329800Y-74170844D01*
X186323181Y-74162553D01*
X186294805Y-74136093D01*
X185599911Y-73559180D01*
X185591187Y-73553162D01*
X185583206Y-73546175D01*
X185550593Y-73525158D01*
X184764517Y-73080417D01*
X184754859Y-73076036D01*
X184745772Y-73070576D01*
X184709953Y-73055666D01*
X183857544Y-72757157D01*
X183847269Y-72754557D01*
X183837353Y-72750790D01*
X183799460Y-72742459D01*
X182907662Y-72599617D01*
X182897091Y-72598878D01*
X182886663Y-72596926D01*
X182847893Y-72595437D01*
X181967913Y-72612334D01*
X181982648Y-72598363D01*
X182019847Y-72545777D01*
X182046072Y-72486944D01*
X182060315Y-72424125D01*
X182062029Y-72359734D01*
X182051148Y-72296246D01*
X182028091Y-72236101D01*
X181345706Y-70873410D01*
X181311358Y-70818919D01*
X181267039Y-70772176D01*
X181214453Y-70734977D01*
X181155620Y-70708752D01*
X181092801Y-70694509D01*
X181028410Y-70692795D01*
X180964922Y-70703676D01*
X180904777Y-70726733D01*
X180449839Y-70954549D01*
X180140955Y-70645666D01*
X180124448Y-70625552D01*
X180044202Y-70559696D01*
X179952650Y-70510761D01*
X179853310Y-70480626D01*
X179775881Y-70473000D01*
X179750000Y-70470451D01*
X179724119Y-70473000D01*
X169275881Y-70473000D01*
X169250000Y-70470451D01*
X169224119Y-70473000D01*
X169146690Y-70480626D01*
X169047350Y-70510761D01*
X168955798Y-70559696D01*
X168875552Y-70625552D01*
X168859053Y-70645656D01*
X168531915Y-70972795D01*
X168073689Y-70744332D01*
X168013503Y-70721379D01*
X167949997Y-70710609D01*
X167885609Y-70712436D01*
X167822815Y-70726789D01*
X167764028Y-70753116D01*
X167711507Y-70790407D01*
X167667270Y-70837227D01*
X167633017Y-70891778D01*
X166953011Y-72255658D01*
X166930058Y-72315844D01*
X166919288Y-72379350D01*
X166921115Y-72443738D01*
X166935468Y-72506532D01*
X166961795Y-72565319D01*
X166999086Y-72617840D01*
X167001218Y-72619855D01*
X166284256Y-72588551D01*
X166273668Y-72589032D01*
X166263087Y-72588292D01*
X166224404Y-72591269D01*
X166224401Y-72591269D01*
X165329381Y-72712281D01*
X165319044Y-72714630D01*
X165308500Y-72715775D01*
X165270962Y-72725553D01*
X165270954Y-72725555D01*
X165270951Y-72725556D01*
X164411507Y-73003149D01*
X164401752Y-73007290D01*
X164391575Y-73010285D01*
X164356355Y-73026559D01*
X163559648Y-73451961D01*
X163550778Y-73457765D01*
X163541295Y-73462514D01*
X163509514Y-73484768D01*
X162800730Y-74044531D01*
X162793029Y-74051813D01*
X162784536Y-74058167D01*
X162757198Y-74085698D01*
X162158742Y-74762129D01*
X162152455Y-74770656D01*
X162145218Y-74778417D01*
X162123187Y-74810354D01*
X161653975Y-75582073D01*
X161649294Y-75591586D01*
X161643550Y-75600499D01*
X161627529Y-75635819D01*
X161627522Y-75635833D01*
X161627520Y-75635839D01*
X161302386Y-76478443D01*
X161299465Y-76488630D01*
X161295388Y-76498424D01*
X161285871Y-76536037D01*
X161115087Y-77422909D01*
X161114016Y-77433452D01*
X161111738Y-77443813D01*
X161109032Y-77482517D01*
X161097998Y-78385616D01*
X125187000Y-78385616D01*
X125187000Y-74083451D01*
X125185580Y-74069031D01*
X125185601Y-74065967D01*
X125185142Y-74061284D01*
X125174942Y-73964235D01*
X125168800Y-73934313D01*
X125163077Y-73904312D01*
X125161717Y-73899808D01*
X125132861Y-73806589D01*
X125121012Y-73778401D01*
X125109581Y-73750109D01*
X125107373Y-73745955D01*
X125060960Y-73660117D01*
X125043868Y-73634777D01*
X125027155Y-73609238D01*
X125024181Y-73605591D01*
X124961980Y-73530403D01*
X124940294Y-73508868D01*
X124918938Y-73487060D01*
X124915313Y-73484060D01*
X124839692Y-73422384D01*
X124814250Y-73405481D01*
X124789045Y-73388223D01*
X124784906Y-73385985D01*
X124698745Y-73340173D01*
X124670535Y-73328546D01*
X124642435Y-73316502D01*
X124637940Y-73315111D01*
X124544522Y-73286906D01*
X124514565Y-73280974D01*
X124484681Y-73274622D01*
X124480007Y-73274131D01*
X124480004Y-73274130D01*
X124480001Y-73274130D01*
X124382884Y-73264608D01*
X124382874Y-73264608D01*
X124366549Y-73263000D01*
X123833451Y-73263000D01*
X123819031Y-73264420D01*
X123815967Y-73264399D01*
X123811284Y-73264858D01*
X123714235Y-73275058D01*
X123684313Y-73281200D01*
X123654312Y-73286923D01*
X123649808Y-73288283D01*
X123556589Y-73317139D01*
X123528401Y-73328988D01*
X123500109Y-73340419D01*
X123495955Y-73342627D01*
X123410117Y-73389040D01*
X123384777Y-73406132D01*
X123359238Y-73422845D01*
X123355591Y-73425819D01*
X123280403Y-73488020D01*
X123258868Y-73509706D01*
X123237060Y-73531062D01*
X123234060Y-73534687D01*
X123172384Y-73610308D01*
X123155481Y-73635750D01*
X123138223Y-73660955D01*
X123135985Y-73665094D01*
X123090173Y-73751255D01*
X123078546Y-73779465D01*
X123066502Y-73807565D01*
X123065111Y-73812060D01*
X123036906Y-73905478D01*
X123030974Y-73935435D01*
X123024622Y-73965319D01*
X123024130Y-73969999D01*
X123014608Y-74067116D01*
X123014608Y-74067127D01*
X123013000Y-74083452D01*
X123013001Y-96583506D01*
X123008310Y-96631349D01*
X122999207Y-96661499D01*
X122984422Y-96689305D01*
X122964512Y-96713717D01*
X122940244Y-96733793D01*
X122912537Y-96748775D01*
X122882451Y-96758088D01*
X122835715Y-96763000D01*
X118866484Y-96763000D01*
X118818651Y-96758310D01*
X118788501Y-96749207D01*
X118760695Y-96734422D01*
X118736283Y-96714512D01*
X118716207Y-96690244D01*
X118701225Y-96662537D01*
X118691912Y-96632451D01*
X118687000Y-96585715D01*
X118687000Y-74583451D01*
X118685546Y-74568686D01*
X118685589Y-74562474D01*
X118685130Y-74557792D01*
X118664729Y-74363695D01*
X118658583Y-74333753D01*
X118652864Y-74303773D01*
X118651505Y-74299273D01*
X118651504Y-74299267D01*
X118651502Y-74299261D01*
X118593792Y-74112831D01*
X118581962Y-74084688D01*
X118570514Y-74056353D01*
X118568305Y-74052199D01*
X118475480Y-73880522D01*
X118458398Y-73855197D01*
X118441674Y-73829641D01*
X118438700Y-73825994D01*
X118314297Y-73675617D01*
X118292626Y-73654097D01*
X118271253Y-73632272D01*
X118267628Y-73629273D01*
X118116386Y-73505923D01*
X118090942Y-73489018D01*
X118065743Y-73471764D01*
X118061604Y-73469526D01*
X117889282Y-73377900D01*
X117861020Y-73366252D01*
X117832968Y-73354229D01*
X117828474Y-73352837D01*
X117641638Y-73296428D01*
X117611647Y-73290490D01*
X117581799Y-73284145D01*
X117577119Y-73283653D01*
X117382886Y-73264608D01*
X117382874Y-73264608D01*
X117366549Y-73263000D01*
X111333451Y-73263000D01*
X111318686Y-73264454D01*
X111312474Y-73264411D01*
X111307792Y-73264870D01*
X111113695Y-73285271D01*
X111083753Y-73291417D01*
X111053773Y-73297136D01*
X111049273Y-73298495D01*
X111049267Y-73298496D01*
X111049261Y-73298498D01*
X110862831Y-73356208D01*
X110834688Y-73368038D01*
X110806353Y-73379486D01*
X110802199Y-73381695D01*
X110630522Y-73474520D01*
X110605197Y-73491602D01*
X110579641Y-73508326D01*
X110575994Y-73511300D01*
X110425617Y-73635703D01*
X110404097Y-73657374D01*
X110382272Y-73678747D01*
X110379273Y-73682372D01*
X110255923Y-73833614D01*
X110239018Y-73859058D01*
X110221764Y-73884257D01*
X110219526Y-73888396D01*
X110127900Y-74060718D01*
X110116252Y-74088980D01*
X110104229Y-74117032D01*
X110102837Y-74121526D01*
X110046428Y-74308362D01*
X110040490Y-74338353D01*
X110034145Y-74368201D01*
X110033653Y-74372881D01*
X110014608Y-74567114D01*
X110014608Y-74567136D01*
X110013001Y-74583451D01*
X110013000Y-96583516D01*
X110008310Y-96631349D01*
X109999207Y-96661499D01*
X109984422Y-96689305D01*
X109964512Y-96713717D01*
X109940244Y-96733793D01*
X109912537Y-96748775D01*
X109882451Y-96758088D01*
X109835715Y-96763000D01*
X105866484Y-96763000D01*
X105818651Y-96758310D01*
X105788501Y-96749207D01*
X105760695Y-96734422D01*
X105736283Y-96714512D01*
X105716207Y-96690244D01*
X105701225Y-96662537D01*
X105691912Y-96632451D01*
X105687000Y-96585715D01*
X105687000Y-74083451D01*
X105685580Y-74069031D01*
X105685601Y-74065967D01*
X105685142Y-74061284D01*
X105674942Y-73964235D01*
X105668800Y-73934313D01*
X105663077Y-73904312D01*
X105661717Y-73899808D01*
X105632861Y-73806589D01*
X105621012Y-73778401D01*
X105609581Y-73750109D01*
X105607373Y-73745955D01*
X105560960Y-73660117D01*
X105543868Y-73634777D01*
X105527155Y-73609238D01*
X105524181Y-73605591D01*
X105461980Y-73530403D01*
X105440294Y-73508868D01*
X105418938Y-73487060D01*
X105415313Y-73484060D01*
X105339692Y-73422384D01*
X105314250Y-73405481D01*
X105289045Y-73388223D01*
X105284906Y-73385985D01*
X105198745Y-73340173D01*
X105170535Y-73328546D01*
X105142435Y-73316502D01*
X105137940Y-73315111D01*
X105044522Y-73286906D01*
X105014565Y-73280974D01*
X104984681Y-73274622D01*
X104980007Y-73274131D01*
X104980004Y-73274130D01*
X104980001Y-73274130D01*
X104882884Y-73264608D01*
X104882874Y-73264608D01*
X104866549Y-73263000D01*
X104333451Y-73263000D01*
X104319031Y-73264420D01*
X104315967Y-73264399D01*
X104311284Y-73264858D01*
X104214235Y-73275058D01*
X104184313Y-73281200D01*
X104154312Y-73286923D01*
X104149808Y-73288283D01*
X104056589Y-73317139D01*
X104028401Y-73328988D01*
X104000109Y-73340419D01*
X103995955Y-73342627D01*
X103910117Y-73389040D01*
X103884777Y-73406132D01*
X103859238Y-73422845D01*
X103855591Y-73425819D01*
X103780403Y-73488020D01*
X103758868Y-73509706D01*
X103737060Y-73531062D01*
X103734060Y-73534687D01*
X103672384Y-73610308D01*
X103655481Y-73635750D01*
X103638223Y-73660955D01*
X103635985Y-73665094D01*
X103590173Y-73751255D01*
X103578546Y-73779465D01*
X103566502Y-73807565D01*
X103565111Y-73812060D01*
X103536906Y-73905478D01*
X103530974Y-73935435D01*
X103524622Y-73965319D01*
X103524130Y-73969999D01*
X103514608Y-74067116D01*
X103514608Y-74067127D01*
X103513000Y-74083452D01*
X100352000Y-74083452D01*
X100352000Y-72017215D01*
X100385042Y-71680232D01*
X100477908Y-71372639D01*
X100628753Y-71088943D01*
X100831826Y-70839952D01*
X101079393Y-70635145D01*
X101362028Y-70482326D01*
X101668961Y-70387314D01*
X102004954Y-70352000D01*
X187982785Y-70352000D01*
X188319768Y-70385042D01*
M02*
