G04 #@! TF.GenerationSoftware,KiCad,Pcbnew,(5.1.2)-2*
G04 #@! TF.CreationDate,2019-09-23T11:47:28+02:00*
G04 #@! TF.ProjectId,BusinessSynth,42757369-6e65-4737-9353-796e74682e6b,rev?*
G04 #@! TF.SameCoordinates,Original*
G04 #@! TF.FileFunction,Legend,Top*
G04 #@! TF.FilePolarity,Positive*
%FSLAX46Y46*%
G04 Gerber Fmt 4.6, Leading zero omitted, Abs format (unit mm)*
G04 Created by KiCad (PCBNEW (5.1.2)-2) date 2019-09-23 11:47:28*
%MOMM*%
%LPD*%
G04 APERTURE LIST*
%ADD10C,0.300000*%
%ADD11C,0.200000*%
G04 APERTURE END LIST*
D10*
X193000000Y-106000000D02*
G75*
G02X192500000Y-104792893I0J707107D01*
G01*
X193000000Y-92000000D02*
G75*
G02X192500000Y-90792893I0J707107D01*
G01*
X194500000Y-92000000D02*
X194000000Y-91500000D01*
X194000000Y-92500000D02*
X194500000Y-92000000D01*
X193000000Y-92000000D02*
X194500000Y-92000000D01*
X194000000Y-106500000D02*
X194500000Y-106000000D01*
X194500000Y-106000000D02*
X194000000Y-105500000D01*
X193000000Y-106000000D02*
X194500000Y-106000000D01*
X194007142Y-103218571D02*
X194078571Y-103013214D01*
X194078571Y-102656071D01*
X194007142Y-102504285D01*
X193935714Y-102423928D01*
X193792857Y-102334642D01*
X193650000Y-102316785D01*
X193507142Y-102370357D01*
X193435714Y-102432857D01*
X193364285Y-102566785D01*
X193292857Y-102843571D01*
X193221428Y-102977500D01*
X193150000Y-103040000D01*
X193007142Y-103093571D01*
X192864285Y-103075714D01*
X192721428Y-102986428D01*
X192650000Y-102906071D01*
X192578571Y-102754285D01*
X192578571Y-102397142D01*
X192650000Y-102191785D01*
X193078571Y-101602500D02*
X194078571Y-101727500D01*
X193221428Y-101620357D02*
X193150000Y-101540000D01*
X193078571Y-101388214D01*
X193078571Y-101173928D01*
X193150000Y-101040000D01*
X193292857Y-100986428D01*
X194078571Y-101084642D01*
X194078571Y-99727500D02*
X193292857Y-99629285D01*
X193150000Y-99682857D01*
X193078571Y-99816785D01*
X193078571Y-100102500D01*
X193150000Y-100254285D01*
X194007142Y-99718571D02*
X194078571Y-99870357D01*
X194078571Y-100227500D01*
X194007142Y-100361428D01*
X193864285Y-100415000D01*
X193721428Y-100397142D01*
X193578571Y-100307857D01*
X193507142Y-100156071D01*
X193507142Y-99798928D01*
X193435714Y-99647142D01*
X193078571Y-98888214D02*
X194578571Y-99075714D01*
X193150000Y-98897142D02*
X193078571Y-98745357D01*
X193078571Y-98459642D01*
X193150000Y-98325714D01*
X193221428Y-98263214D01*
X193364285Y-98209642D01*
X193792857Y-98263214D01*
X193935714Y-98352500D01*
X194007142Y-98432857D01*
X194078571Y-98584642D01*
X194078571Y-98870357D01*
X194007142Y-99004285D01*
X194078571Y-96298928D02*
X194007142Y-96432857D01*
X193935714Y-96495357D01*
X193792857Y-96548928D01*
X193364285Y-96495357D01*
X193221428Y-96406071D01*
X193150000Y-96325714D01*
X193078571Y-96173928D01*
X193078571Y-95959642D01*
X193150000Y-95825714D01*
X193221428Y-95763214D01*
X193364285Y-95709642D01*
X193792857Y-95763214D01*
X193935714Y-95852500D01*
X194007142Y-95932857D01*
X194078571Y-96084642D01*
X194078571Y-96298928D01*
X193078571Y-95245357D02*
X193078571Y-94673928D01*
X194078571Y-95156071D02*
X192792857Y-94995357D01*
X192650000Y-94906071D01*
X192578571Y-94754285D01*
X192578571Y-94611428D01*
X193078571Y-94388214D02*
X193078571Y-93816785D01*
X194078571Y-94298928D02*
X192792857Y-94138214D01*
X192650000Y-94048928D01*
X192578571Y-93897142D01*
X192578571Y-93754285D01*
X161355714Y-100607142D02*
X161570000Y-100678571D01*
X161927142Y-100678571D01*
X162070000Y-100607142D01*
X162141428Y-100535714D01*
X162212857Y-100392857D01*
X162212857Y-100250000D01*
X162141428Y-100107142D01*
X162070000Y-100035714D01*
X161927142Y-99964285D01*
X161641428Y-99892857D01*
X161498571Y-99821428D01*
X161427142Y-99750000D01*
X161355714Y-99607142D01*
X161355714Y-99464285D01*
X161427142Y-99321428D01*
X161498571Y-99250000D01*
X161641428Y-99178571D01*
X161998571Y-99178571D01*
X162212857Y-99250000D01*
X162855714Y-100678571D02*
X162855714Y-99178571D01*
X163498571Y-100678571D02*
X163498571Y-99892857D01*
X163427142Y-99750000D01*
X163284285Y-99678571D01*
X163070000Y-99678571D01*
X162927142Y-99750000D01*
X162855714Y-99821428D01*
X164855714Y-100678571D02*
X164855714Y-99892857D01*
X164784285Y-99750000D01*
X164641428Y-99678571D01*
X164355714Y-99678571D01*
X164212857Y-99750000D01*
X164855714Y-100607142D02*
X164712857Y-100678571D01*
X164355714Y-100678571D01*
X164212857Y-100607142D01*
X164141428Y-100464285D01*
X164141428Y-100321428D01*
X164212857Y-100178571D01*
X164355714Y-100107142D01*
X164712857Y-100107142D01*
X164855714Y-100035714D01*
X165570000Y-100678571D02*
X165570000Y-99178571D01*
X165712857Y-100107142D02*
X166141428Y-100678571D01*
X166141428Y-99678571D02*
X165570000Y-100250000D01*
X167355714Y-100607142D02*
X167212857Y-100678571D01*
X166927142Y-100678571D01*
X166784285Y-100607142D01*
X166712857Y-100464285D01*
X166712857Y-99892857D01*
X166784285Y-99750000D01*
X166927142Y-99678571D01*
X167212857Y-99678571D01*
X167355714Y-99750000D01*
X167427142Y-99892857D01*
X167427142Y-100035714D01*
X166712857Y-100178571D01*
X161927142Y-94392857D02*
X161427142Y-94392857D01*
X161427142Y-95178571D02*
X161427142Y-93678571D01*
X162141428Y-93678571D01*
X162712857Y-95178571D02*
X162712857Y-94178571D01*
X162712857Y-93678571D02*
X162641428Y-93750000D01*
X162712857Y-93821428D01*
X162784285Y-93750000D01*
X162712857Y-93678571D01*
X162712857Y-93821428D01*
X163641428Y-95178571D02*
X163498571Y-95107142D01*
X163427142Y-94964285D01*
X163427142Y-93678571D01*
X163998571Y-94178571D02*
X164570000Y-94178571D01*
X164212857Y-93678571D02*
X164212857Y-94964285D01*
X164284285Y-95107142D01*
X164427142Y-95178571D01*
X164570000Y-95178571D01*
X165641428Y-95107142D02*
X165498571Y-95178571D01*
X165212857Y-95178571D01*
X165070000Y-95107142D01*
X164998571Y-94964285D01*
X164998571Y-94392857D01*
X165070000Y-94250000D01*
X165212857Y-94178571D01*
X165498571Y-94178571D01*
X165641428Y-94250000D01*
X165712857Y-94392857D01*
X165712857Y-94535714D01*
X164998571Y-94678571D01*
X166355714Y-95178571D02*
X166355714Y-94178571D01*
X166355714Y-94464285D02*
X166427142Y-94321428D01*
X166498571Y-94250000D01*
X166641428Y-94178571D01*
X166784285Y-94178571D01*
X161427142Y-97928571D02*
X161427142Y-96428571D01*
X161427142Y-97142857D02*
X162284285Y-97142857D01*
X162284285Y-97928571D02*
X162284285Y-96428571D01*
X162998571Y-97928571D02*
X162998571Y-96928571D01*
X162998571Y-96428571D02*
X162927142Y-96500000D01*
X162998571Y-96571428D01*
X163070000Y-96500000D01*
X162998571Y-96428571D01*
X162998571Y-96571428D01*
X163498571Y-96928571D02*
X164070000Y-96928571D01*
X163712857Y-96428571D02*
X163712857Y-97714285D01*
X163784285Y-97857142D01*
X163927142Y-97928571D01*
X164070000Y-97928571D01*
X164570000Y-97785714D02*
X164641428Y-97857142D01*
X164570000Y-97928571D01*
X164498571Y-97857142D01*
X164570000Y-97785714D01*
X164570000Y-97928571D01*
X164570000Y-97357142D02*
X164498571Y-96500000D01*
X164570000Y-96428571D01*
X164641428Y-96500000D01*
X164570000Y-97357142D01*
X164570000Y-96428571D01*
X161427142Y-92428571D02*
X161427142Y-90928571D01*
X162284285Y-92428571D01*
X162284285Y-90928571D01*
X163212857Y-92428571D02*
X163070000Y-92357142D01*
X162998571Y-92285714D01*
X162927142Y-92142857D01*
X162927142Y-91714285D01*
X162998571Y-91571428D01*
X163070000Y-91500000D01*
X163212857Y-91428571D01*
X163427142Y-91428571D01*
X163570000Y-91500000D01*
X163641428Y-91571428D01*
X163712857Y-91714285D01*
X163712857Y-92142857D01*
X163641428Y-92285714D01*
X163570000Y-92357142D01*
X163427142Y-92428571D01*
X163212857Y-92428571D01*
X164355714Y-91428571D02*
X164355714Y-92428571D01*
X164355714Y-91571428D02*
X164427142Y-91500000D01*
X164570000Y-91428571D01*
X164784285Y-91428571D01*
X164927142Y-91500000D01*
X164998571Y-91642857D01*
X164998571Y-92428571D01*
X166284285Y-92357142D02*
X166141428Y-92428571D01*
X165855714Y-92428571D01*
X165712857Y-92357142D01*
X165641428Y-92214285D01*
X165641428Y-91642857D01*
X165712857Y-91500000D01*
X165855714Y-91428571D01*
X166141428Y-91428571D01*
X166284285Y-91500000D01*
X166355714Y-91642857D01*
X166355714Y-91785714D01*
X165641428Y-91928571D01*
D11*
X160750000Y-91500000D02*
X160750000Y-90750000D01*
X160000000Y-90750000D02*
X160000000Y-91500000D01*
X160000000Y-91500000D02*
X160750000Y-91500000D01*
G36*
X160750000Y-99750000D02*
G01*
X160000000Y-99750000D01*
X160000000Y-99000000D01*
X160750000Y-99000000D01*
X160750000Y-99750000D01*
G37*
X160750000Y-99750000D02*
X160000000Y-99750000D01*
X160000000Y-99000000D01*
X160750000Y-99000000D01*
X160750000Y-99750000D01*
X160750000Y-90750000D02*
X160000000Y-90750000D01*
X160750000Y-92750000D02*
X160750000Y-92000000D01*
X160000000Y-92000000D02*
X160000000Y-92750000D01*
X160000000Y-92750000D02*
X160750000Y-92750000D01*
G36*
X160750000Y-101000000D02*
G01*
X160000000Y-101000000D01*
X160000000Y-100250000D01*
X160750000Y-100250000D01*
X160750000Y-101000000D01*
G37*
X160750000Y-101000000D02*
X160000000Y-101000000D01*
X160000000Y-100250000D01*
X160750000Y-100250000D01*
X160750000Y-101000000D01*
X160750000Y-92000000D02*
X160000000Y-92000000D01*
X160000000Y-96250000D02*
X160000000Y-97000000D01*
X160000000Y-97000000D02*
X160750000Y-97000000D01*
X160750000Y-97000000D02*
X160750000Y-96250000D01*
X160750000Y-96250000D02*
X160000000Y-96250000D01*
G36*
X160750000Y-98250000D02*
G01*
X160000000Y-98250000D01*
X160000000Y-97500000D01*
X160750000Y-97500000D01*
X160750000Y-98250000D01*
G37*
X160750000Y-98250000D02*
X160000000Y-98250000D01*
X160000000Y-97500000D01*
X160750000Y-97500000D01*
X160750000Y-98250000D01*
X160750000Y-95500000D02*
X160750000Y-94750000D01*
X160750000Y-94750000D02*
X160000000Y-94750000D01*
X160000000Y-94750000D02*
X160000000Y-95500000D01*
X160000000Y-95500000D02*
X160750000Y-95500000D01*
G36*
X160750000Y-94250000D02*
G01*
X160000000Y-94250000D01*
X160000000Y-93500000D01*
X160750000Y-93500000D01*
X160750000Y-94250000D01*
G37*
X160750000Y-94250000D02*
X160000000Y-94250000D01*
X160000000Y-93500000D01*
X160750000Y-93500000D01*
X160750000Y-94250000D01*
D10*
X151850000Y-90300000D02*
X152550000Y-90300000D01*
X152553504Y-90297770D02*
G75*
G03X153653291Y-91261268I2196496J1397770D01*
G01*
X153654644Y-91261955D02*
G75*
G03X154650000Y-91500000I995356J1961955D01*
G01*
X150250000Y-90300000D02*
X150550000Y-90300000D01*
X151050000Y-90300000D02*
X151350000Y-90300000D01*
X150250000Y-90050000D02*
X150250000Y-91750000D01*
X150000000Y-91500000D02*
X154750000Y-91500000D01*
X143431422Y-91386730D02*
G75*
G02X144453291Y-90538732I2118578J-1513270D01*
G01*
X144453291Y-90538732D02*
G75*
G02X145450000Y-90300000I996709J-1961268D01*
G01*
X143000000Y-91500000D02*
X147750000Y-91500000D01*
X143250000Y-90050000D02*
X143250000Y-91750000D01*
X146650000Y-90300000D02*
X146950000Y-90300000D01*
X147450000Y-90300000D02*
X147750000Y-90300000D01*
X145450000Y-90300000D02*
X146150000Y-90300000D01*
X158000000Y-101500000D02*
X158000000Y-83500000D01*
D11*
X160000000Y-101500000D02*
X159500000Y-101500000D01*
X159500000Y-90250000D02*
X160000000Y-90250000D01*
X159500000Y-90250000D02*
X159500000Y-101500000D01*
X159000000Y-97000000D02*
X159500000Y-97000000D01*
X157000000Y-97000000D02*
X157500000Y-97000000D01*
X158000000Y-97000000D02*
X158500000Y-97000000D01*
X156000000Y-97000000D02*
X156500000Y-97000000D01*
X139500000Y-103500000D02*
X138000000Y-103500000D01*
X138000000Y-104500000D02*
X138000000Y-103500000D01*
X139500000Y-103500000D02*
X139500000Y-105500000D01*
X141000000Y-105500000D02*
X139500000Y-105500000D01*
X141000000Y-105500000D02*
X141000000Y-104500000D01*
X132000000Y-104500000D02*
X133500000Y-103500000D01*
X133500000Y-105500000D02*
X135000000Y-104500000D01*
X133500000Y-103500000D02*
X133500000Y-105500000D01*
X140250000Y-102500000D02*
X140250000Y-103000000D01*
X140250000Y-101500000D02*
X140250000Y-102000000D01*
X140250000Y-99500000D02*
X140250000Y-100000000D01*
X140250000Y-100500000D02*
X140250000Y-101000000D01*
X140250000Y-98500000D02*
X140250000Y-99000000D01*
X140250000Y-96500000D02*
X140250000Y-97000000D01*
X140250000Y-97500000D02*
X140250000Y-98000000D01*
X140250000Y-95500000D02*
X140250000Y-96000000D01*
X140250000Y-93500000D02*
X140250000Y-94000000D01*
X140250000Y-94500000D02*
X140250000Y-95000000D01*
X140250000Y-92500000D02*
X140250000Y-93000000D01*
X140250000Y-90500000D02*
X140250000Y-91000000D01*
X140250000Y-91500000D02*
X140250000Y-92000000D01*
X140250000Y-89500000D02*
X140250000Y-90000000D01*
X140250000Y-88500000D02*
X140250000Y-89000000D01*
X140250000Y-87500000D02*
X140250000Y-88000000D01*
D10*
X142000000Y-101500000D02*
X142000000Y-83500000D01*
X158000000Y-101500000D02*
X127000000Y-101500000D01*
X158000000Y-83500000D02*
X127000000Y-83500000D01*
X134909285Y-90678571D02*
X135195000Y-91678571D01*
X135480714Y-90964285D01*
X135766428Y-91678571D01*
X136052142Y-90678571D01*
X137266428Y-91678571D02*
X137266428Y-90892857D01*
X137195000Y-90750000D01*
X137052142Y-90678571D01*
X136766428Y-90678571D01*
X136623571Y-90750000D01*
X137266428Y-91607142D02*
X137123571Y-91678571D01*
X136766428Y-91678571D01*
X136623571Y-91607142D01*
X136552142Y-91464285D01*
X136552142Y-91321428D01*
X136623571Y-91178571D01*
X136766428Y-91107142D01*
X137123571Y-91107142D01*
X137266428Y-91035714D01*
X137837857Y-90678571D02*
X138195000Y-91678571D01*
X138552142Y-90678571D01*
X139695000Y-91607142D02*
X139552142Y-91678571D01*
X139266428Y-91678571D01*
X139123571Y-91607142D01*
X139052142Y-91464285D01*
X139052142Y-90892857D01*
X139123571Y-90750000D01*
X139266428Y-90678571D01*
X139552142Y-90678571D01*
X139695000Y-90750000D01*
X139766428Y-90892857D01*
X139766428Y-91035714D01*
X139052142Y-91178571D01*
D11*
X141500000Y-103500000D02*
X141500000Y-103000000D01*
X131500000Y-104875000D02*
X131500000Y-104125000D01*
X131500000Y-104125000D02*
X130750000Y-104125000D01*
X130750000Y-104875000D02*
X131500000Y-104875000D01*
X130750000Y-104125000D02*
X130750000Y-104875000D01*
G36*
X137500000Y-104875000D02*
G01*
X136750000Y-104875000D01*
X136750000Y-104125000D01*
X137500000Y-104125000D01*
X137500000Y-104875000D01*
G37*
X137500000Y-104875000D02*
X136750000Y-104875000D01*
X136750000Y-104125000D01*
X137500000Y-104125000D01*
X137500000Y-104875000D01*
X130000000Y-103000000D02*
X130000000Y-103500000D01*
X130000000Y-103000000D02*
X141500000Y-103000000D01*
D10*
X158000000Y-92500000D02*
X127000000Y-92500000D01*
X127000000Y-101500000D02*
X127000000Y-83500000D01*
X150623571Y-100607142D02*
X150480714Y-100678571D01*
X150195000Y-100678571D01*
X150052142Y-100607142D01*
X149980714Y-100464285D01*
X149980714Y-99892857D01*
X150052142Y-99750000D01*
X150195000Y-99678571D01*
X150480714Y-99678571D01*
X150623571Y-99750000D01*
X150695000Y-99892857D01*
X150695000Y-100035714D01*
X149980714Y-100178571D01*
X151123571Y-99678571D02*
X151695000Y-99678571D01*
X151337857Y-100678571D02*
X151337857Y-99392857D01*
X151409285Y-99250000D01*
X151552142Y-99178571D01*
X151695000Y-99178571D01*
X151980714Y-99678571D02*
X152552142Y-99678571D01*
X152195000Y-100678571D02*
X152195000Y-99392857D01*
X152266428Y-99250000D01*
X152409285Y-99178571D01*
X152552142Y-99178571D01*
X153623571Y-100607142D02*
X153480714Y-100678571D01*
X153195000Y-100678571D01*
X153052142Y-100607142D01*
X152980714Y-100464285D01*
X152980714Y-99892857D01*
X153052142Y-99750000D01*
X153195000Y-99678571D01*
X153480714Y-99678571D01*
X153623571Y-99750000D01*
X153695000Y-99892857D01*
X153695000Y-100035714D01*
X152980714Y-100178571D01*
X154980714Y-100607142D02*
X154837857Y-100678571D01*
X154552142Y-100678571D01*
X154409285Y-100607142D01*
X154337857Y-100535714D01*
X154266428Y-100392857D01*
X154266428Y-99964285D01*
X154337857Y-99821428D01*
X154409285Y-99750000D01*
X154552142Y-99678571D01*
X154837857Y-99678571D01*
X154980714Y-99750000D01*
X155409285Y-99678571D02*
X155980714Y-99678571D01*
X155623571Y-99178571D02*
X155623571Y-100464285D01*
X155695000Y-100607142D01*
X155837857Y-100678571D01*
X155980714Y-100678571D01*
X142980714Y-100607142D02*
X143123571Y-100678571D01*
X143409285Y-100678571D01*
X143552142Y-100607142D01*
X143623571Y-100464285D01*
X143623571Y-100392857D01*
X143552142Y-100250000D01*
X143409285Y-100178571D01*
X143195000Y-100178571D01*
X143052142Y-100107142D01*
X142980714Y-99964285D01*
X142980714Y-99892857D01*
X143052142Y-99750000D01*
X143195000Y-99678571D01*
X143409285Y-99678571D01*
X143552142Y-99750000D01*
X144480714Y-100678571D02*
X144337857Y-100607142D01*
X144266428Y-100464285D01*
X144266428Y-99178571D01*
X145052142Y-100678571D02*
X145052142Y-99678571D01*
X145052142Y-99178571D02*
X144980714Y-99250000D01*
X145052142Y-99321428D01*
X145123571Y-99250000D01*
X145052142Y-99178571D01*
X145052142Y-99321428D01*
X146409285Y-100678571D02*
X146409285Y-99178571D01*
X146409285Y-100607142D02*
X146266428Y-100678571D01*
X145980714Y-100678571D01*
X145837857Y-100607142D01*
X145766428Y-100535714D01*
X145695000Y-100392857D01*
X145695000Y-99964285D01*
X145766428Y-99821428D01*
X145837857Y-99750000D01*
X145980714Y-99678571D01*
X146266428Y-99678571D01*
X146409285Y-99750000D01*
X147695000Y-100607142D02*
X147552142Y-100678571D01*
X147266428Y-100678571D01*
X147123571Y-100607142D01*
X147052142Y-100464285D01*
X147052142Y-99892857D01*
X147123571Y-99750000D01*
X147266428Y-99678571D01*
X147552142Y-99678571D01*
X147695000Y-99750000D01*
X147766428Y-99892857D01*
X147766428Y-100035714D01*
X147052142Y-100178571D01*
X128052142Y-99678571D02*
X128052142Y-101178571D01*
X128052142Y-99750000D02*
X128195000Y-99678571D01*
X128480714Y-99678571D01*
X128623571Y-99750000D01*
X128695000Y-99821428D01*
X128766428Y-99964285D01*
X128766428Y-100392857D01*
X128695000Y-100535714D01*
X128623571Y-100607142D01*
X128480714Y-100678571D01*
X128195000Y-100678571D01*
X128052142Y-100607142D01*
X129409285Y-100678571D02*
X129409285Y-99678571D01*
X129409285Y-99178571D02*
X129337857Y-99250000D01*
X129409285Y-99321428D01*
X129480714Y-99250000D01*
X129409285Y-99178571D01*
X129409285Y-99321428D01*
X129909285Y-99678571D02*
X130480714Y-99678571D01*
X130123571Y-99178571D02*
X130123571Y-100464285D01*
X130195000Y-100607142D01*
X130337857Y-100678571D01*
X130480714Y-100678571D01*
X131623571Y-100607142D02*
X131480714Y-100678571D01*
X131195000Y-100678571D01*
X131052142Y-100607142D01*
X130980714Y-100535714D01*
X130909285Y-100392857D01*
X130909285Y-99964285D01*
X130980714Y-99821428D01*
X131052142Y-99750000D01*
X131195000Y-99678571D01*
X131480714Y-99678571D01*
X131623571Y-99750000D01*
X132266428Y-100678571D02*
X132266428Y-99178571D01*
X132909285Y-100678571D02*
X132909285Y-99892857D01*
X132837857Y-99750000D01*
X132695000Y-99678571D01*
X132480714Y-99678571D01*
X132337857Y-99750000D01*
X132266428Y-99821428D01*
X134909285Y-99678571D02*
X135195000Y-100678571D01*
X135480714Y-99964285D01*
X135766428Y-100678571D01*
X136052142Y-99678571D01*
X137266428Y-100678571D02*
X137266428Y-99892857D01*
X137195000Y-99750000D01*
X137052142Y-99678571D01*
X136766428Y-99678571D01*
X136623571Y-99750000D01*
X137266428Y-100607142D02*
X137123571Y-100678571D01*
X136766428Y-100678571D01*
X136623571Y-100607142D01*
X136552142Y-100464285D01*
X136552142Y-100321428D01*
X136623571Y-100178571D01*
X136766428Y-100107142D01*
X137123571Y-100107142D01*
X137266428Y-100035714D01*
X137837857Y-99678571D02*
X138195000Y-100678571D01*
X138552142Y-99678571D01*
X139695000Y-100607142D02*
X139552142Y-100678571D01*
X139266428Y-100678571D01*
X139123571Y-100607142D01*
X139052142Y-100464285D01*
X139052142Y-99892857D01*
X139123571Y-99750000D01*
X139266428Y-99678571D01*
X139552142Y-99678571D01*
X139695000Y-99750000D01*
X139766428Y-99892857D01*
X139766428Y-100035714D01*
X139052142Y-100178571D01*
X128052142Y-90678571D02*
X128052142Y-92178571D01*
X128052142Y-90750000D02*
X128195000Y-90678571D01*
X128480714Y-90678571D01*
X128623571Y-90750000D01*
X128695000Y-90821428D01*
X128766428Y-90964285D01*
X128766428Y-91392857D01*
X128695000Y-91535714D01*
X128623571Y-91607142D01*
X128480714Y-91678571D01*
X128195000Y-91678571D01*
X128052142Y-91607142D01*
X129409285Y-91678571D02*
X129409285Y-90678571D01*
X129409285Y-90178571D02*
X129337857Y-90250000D01*
X129409285Y-90321428D01*
X129480714Y-90250000D01*
X129409285Y-90178571D01*
X129409285Y-90321428D01*
X129909285Y-90678571D02*
X130480714Y-90678571D01*
X130123571Y-90178571D02*
X130123571Y-91464285D01*
X130195000Y-91607142D01*
X130337857Y-91678571D01*
X130480714Y-91678571D01*
X131623571Y-91607142D02*
X131480714Y-91678571D01*
X131195000Y-91678571D01*
X131052142Y-91607142D01*
X130980714Y-91535714D01*
X130909285Y-91392857D01*
X130909285Y-90964285D01*
X130980714Y-90821428D01*
X131052142Y-90750000D01*
X131195000Y-90678571D01*
X131480714Y-90678571D01*
X131623571Y-90750000D01*
X132266428Y-91678571D02*
X132266428Y-90178571D01*
X132909285Y-91678571D02*
X132909285Y-90892857D01*
X132837857Y-90750000D01*
X132695000Y-90678571D01*
X132480714Y-90678571D01*
X132337857Y-90750000D01*
X132266428Y-90821428D01*
X143052142Y-84892857D02*
X143552142Y-84892857D01*
X143766428Y-85678571D02*
X143052142Y-85678571D01*
X143052142Y-84178571D01*
X143766428Y-84178571D01*
X144409285Y-85678571D02*
X144409285Y-84178571D01*
X145266428Y-85678571D01*
X145266428Y-84178571D01*
X145766428Y-84178571D02*
X146266428Y-85678571D01*
X146766428Y-84178571D01*
X147266428Y-84892857D02*
X147766428Y-84892857D01*
X147980714Y-85678571D02*
X147266428Y-85678571D01*
X147266428Y-84178571D01*
X147980714Y-84178571D01*
X149337857Y-85678571D02*
X148623571Y-85678571D01*
X148623571Y-84178571D01*
X150123571Y-84178571D02*
X150409285Y-84178571D01*
X150552142Y-84250000D01*
X150695000Y-84392857D01*
X150766428Y-84678571D01*
X150766428Y-85178571D01*
X150695000Y-85464285D01*
X150552142Y-85607142D01*
X150409285Y-85678571D01*
X150123571Y-85678571D01*
X149980714Y-85607142D01*
X149837857Y-85464285D01*
X149766428Y-85178571D01*
X149766428Y-84678571D01*
X149837857Y-84392857D01*
X149980714Y-84250000D01*
X150123571Y-84178571D01*
X151409285Y-85678571D02*
X151409285Y-84178571D01*
X151980714Y-84178571D01*
X152123571Y-84250000D01*
X152195000Y-84321428D01*
X152266428Y-84464285D01*
X152266428Y-84678571D01*
X152195000Y-84821428D01*
X152123571Y-84892857D01*
X151980714Y-84964285D01*
X151409285Y-84964285D01*
X152909285Y-84892857D02*
X153409285Y-84892857D01*
X153623571Y-85678571D02*
X152909285Y-85678571D01*
X152909285Y-84178571D01*
X153623571Y-84178571D01*
X128337857Y-93178571D02*
X128623571Y-93178571D01*
X128766428Y-93250000D01*
X128909285Y-93392857D01*
X128980714Y-93678571D01*
X128980714Y-94178571D01*
X128909285Y-94464285D01*
X128766428Y-94607142D01*
X128623571Y-94678571D01*
X128337857Y-94678571D01*
X128195000Y-94607142D01*
X128052142Y-94464285D01*
X127980714Y-94178571D01*
X127980714Y-93678571D01*
X128052142Y-93392857D01*
X128195000Y-93250000D01*
X128337857Y-93178571D01*
X129552142Y-94607142D02*
X129766428Y-94678571D01*
X130123571Y-94678571D01*
X130266428Y-94607142D01*
X130337857Y-94535714D01*
X130409285Y-94392857D01*
X130409285Y-94250000D01*
X130337857Y-94107142D01*
X130266428Y-94035714D01*
X130123571Y-93964285D01*
X129837857Y-93892857D01*
X129695000Y-93821428D01*
X129623571Y-93750000D01*
X129552142Y-93607142D01*
X129552142Y-93464285D01*
X129623571Y-93321428D01*
X129695000Y-93250000D01*
X129837857Y-93178571D01*
X130195000Y-93178571D01*
X130409285Y-93250000D01*
X131909285Y-94535714D02*
X131837857Y-94607142D01*
X131623571Y-94678571D01*
X131480714Y-94678571D01*
X131266428Y-94607142D01*
X131123571Y-94464285D01*
X131052142Y-94321428D01*
X130980714Y-94035714D01*
X130980714Y-93821428D01*
X131052142Y-93535714D01*
X131123571Y-93392857D01*
X131266428Y-93250000D01*
X131480714Y-93178571D01*
X131623571Y-93178571D01*
X131837857Y-93250000D01*
X131909285Y-93321428D01*
X132480714Y-93321428D02*
X132552142Y-93250000D01*
X132695000Y-93178571D01*
X133052142Y-93178571D01*
X133195000Y-93250000D01*
X133266428Y-93321428D01*
X133337857Y-93464285D01*
X133337857Y-93607142D01*
X133266428Y-93821428D01*
X132409285Y-94678571D01*
X133337857Y-94678571D01*
X128337857Y-84178571D02*
X128623571Y-84178571D01*
X128766428Y-84250000D01*
X128909285Y-84392857D01*
X128980714Y-84678571D01*
X128980714Y-85178571D01*
X128909285Y-85464285D01*
X128766428Y-85607142D01*
X128623571Y-85678571D01*
X128337857Y-85678571D01*
X128195000Y-85607142D01*
X128052142Y-85464285D01*
X127980714Y-85178571D01*
X127980714Y-84678571D01*
X128052142Y-84392857D01*
X128195000Y-84250000D01*
X128337857Y-84178571D01*
X129552142Y-85607142D02*
X129766428Y-85678571D01*
X130123571Y-85678571D01*
X130266428Y-85607142D01*
X130337857Y-85535714D01*
X130409285Y-85392857D01*
X130409285Y-85250000D01*
X130337857Y-85107142D01*
X130266428Y-85035714D01*
X130123571Y-84964285D01*
X129837857Y-84892857D01*
X129695000Y-84821428D01*
X129623571Y-84750000D01*
X129552142Y-84607142D01*
X129552142Y-84464285D01*
X129623571Y-84321428D01*
X129695000Y-84250000D01*
X129837857Y-84178571D01*
X130195000Y-84178571D01*
X130409285Y-84250000D01*
X131909285Y-85535714D02*
X131837857Y-85607142D01*
X131623571Y-85678571D01*
X131480714Y-85678571D01*
X131266428Y-85607142D01*
X131123571Y-85464285D01*
X131052142Y-85321428D01*
X130980714Y-85035714D01*
X130980714Y-84821428D01*
X131052142Y-84535714D01*
X131123571Y-84392857D01*
X131266428Y-84250000D01*
X131480714Y-84178571D01*
X131623571Y-84178571D01*
X131837857Y-84250000D01*
X131909285Y-84321428D01*
X133337857Y-85678571D02*
X132480714Y-85678571D01*
X132909285Y-85678571D02*
X132909285Y-84178571D01*
X132766428Y-84392857D01*
X132623571Y-84535714D01*
X132480714Y-84607142D01*
M02*
