G04 #@! TF.GenerationSoftware,KiCad,Pcbnew,(5.1.2)-2*
G04 #@! TF.CreationDate,2019-09-23T11:47:28+02:00*
G04 #@! TF.ProjectId,BusinessSynth,42757369-6e65-4737-9353-796e74682e6b,rev?*
G04 #@! TF.SameCoordinates,Original*
G04 #@! TF.FileFunction,Profile,NP*
%FSLAX46Y46*%
G04 Gerber Fmt 4.6, Leading zero omitted, Abs format (unit mm)*
G04 Created by KiCad (PCBNEW (5.1.2)-2) date 2019-09-23 11:47:28*
%MOMM*%
%LPD*%
G04 APERTURE LIST*
%ADD10C,0.150000*%
%ADD11C,0.120000*%
G04 APERTURE END LIST*
D10*
X191000000Y-91000000D02*
X190000000Y-91000000D01*
X191000000Y-87000000D02*
X190000000Y-87000000D01*
X191000000Y-115000000D02*
X190000000Y-115000000D01*
X191000000Y-111000000D02*
X190000000Y-111000000D01*
X191000000Y-111000000D02*
X191000000Y-91000000D01*
X190000000Y-111000000D02*
X190000000Y-91000000D01*
X191000000Y-87000000D02*
X191000000Y-72000000D01*
X191000000Y-121000000D02*
X191000000Y-115000000D01*
X190000000Y-87000000D02*
X190000000Y-72000000D01*
X192000000Y-123000000D02*
X191000000Y-121000000D01*
X195000000Y-123000000D02*
X192000000Y-123000000D01*
X196000000Y-121000000D02*
X195000000Y-123000000D01*
X193000000Y-70000000D02*
X194000000Y-70000000D01*
X191000000Y-72000000D02*
G75*
G02X193000000Y-70000000I2000000J0D01*
G01*
X194000000Y-70000000D02*
G75*
G02X196000000Y-72000000I0J-2000000D01*
G01*
X196000000Y-121000000D02*
X196000000Y-72000000D01*
X102000000Y-125000000D02*
G75*
G02X100000000Y-123000000I0J2000000D01*
G01*
X190000000Y-123000000D02*
G75*
G02X188000000Y-125000000I-2000000J0D01*
G01*
X188000000Y-70000000D02*
G75*
G02X190000000Y-72000000I0J-2000000D01*
G01*
X100000000Y-72000000D02*
G75*
G02X102000000Y-70000000I2000000J0D01*
G01*
X188000000Y-70000000D02*
X102000000Y-70000000D01*
X190000000Y-123000000D02*
X190000000Y-115000000D01*
X102000000Y-125000000D02*
X188000000Y-125000000D01*
X100000000Y-72000000D02*
X100000000Y-123000000D01*
D11*
X180230927Y-82545075D02*
X179436751Y-84135851D01*
X180225384Y-73457696D02*
X179429268Y-71867890D01*
X180225384Y-73457697D02*
G75*
G02X180230927Y-82545075I2274616J-4542303D01*
G01*
X179436751Y-84135851D02*
G75*
G02X179429268Y-71867890I3063249J6135851D01*
G01*
X168769073Y-73454925D02*
X169563249Y-71864149D01*
X168774616Y-82542304D02*
X169570732Y-84132110D01*
X168774616Y-82542303D02*
G75*
G02X168769073Y-73454925I-2274616J4542303D01*
G01*
X169563249Y-71864149D02*
G75*
G02X169570732Y-84132110I-3063249J-6135851D01*
G01*
X123350000Y-74100000D02*
G75*
G02X123850000Y-73600000I500000J0D01*
G01*
X124350000Y-73600000D02*
G75*
G02X124850000Y-74100000I0J-500000D01*
G01*
X117350000Y-73600000D02*
G75*
G02X118350000Y-74600000I0J-1000000D01*
G01*
X104850000Y-73600000D02*
G75*
G02X105350000Y-74100000I0J-500000D01*
G01*
X103850000Y-74100000D02*
G75*
G02X104350000Y-73600000I500000J0D01*
G01*
X110350000Y-74600000D02*
G75*
G02X111350000Y-73600000I1000000J0D01*
G01*
X111850000Y-97600000D02*
G75*
G02X110850000Y-98600000I-1000000J0D01*
G01*
X104850000Y-98600000D02*
G75*
G02X103850000Y-97600000I0J1000000D01*
G01*
X124850000Y-97600000D02*
G75*
G02X123850000Y-98600000I-1000000J0D01*
G01*
X117850000Y-98600000D02*
G75*
G02X116850000Y-97600000I0J1000000D01*
G01*
X123350000Y-96600000D02*
G75*
G02X122850000Y-97100000I-500000J0D01*
G01*
X118850000Y-97100000D02*
G75*
G02X118350000Y-96600000I0J500000D01*
G01*
X105850000Y-97100000D02*
G75*
G02X105350000Y-96600000I0J500000D01*
G01*
X110350000Y-96600000D02*
G75*
G02X109850000Y-97100000I-500000J0D01*
G01*
X116350000Y-85600000D02*
G75*
G02X116850000Y-86100000I0J-500000D01*
G01*
X111850000Y-86100000D02*
G75*
G02X112350000Y-85600000I500000J0D01*
G01*
X110850000Y-98600000D02*
X104850000Y-98600000D01*
X111850000Y-86100000D02*
X111850000Y-97600000D01*
X116350000Y-85600000D02*
X112350000Y-85600000D01*
X116850000Y-97600000D02*
X116850000Y-86100000D01*
X123850000Y-98600000D02*
X117850000Y-98600000D01*
X118850000Y-97100000D02*
X122850000Y-97100000D01*
X118350000Y-74600000D02*
X118350000Y-96600000D01*
X111350000Y-73600000D02*
X117350000Y-73600000D01*
X110350000Y-96600000D02*
X110350000Y-74600000D01*
X105850000Y-97100000D02*
X109850000Y-97100000D01*
X105350000Y-74100000D02*
X105350000Y-96600000D01*
X104350000Y-73600000D02*
X104850000Y-73600000D01*
X123350000Y-74100000D02*
X123350000Y-96600000D01*
X124350000Y-73600000D02*
X123850000Y-73600000D01*
X103850000Y-74100000D02*
X103850000Y-97600000D01*
X124850000Y-74100000D02*
X124850000Y-97600000D01*
M02*
