G04 #@! TF.GenerationSoftware,KiCad,Pcbnew,(5.1.2)-2*
G04 #@! TF.CreationDate,2019-09-23T11:47:28+02:00*
G04 #@! TF.ProjectId,BusinessSynth,42757369-6e65-4737-9353-796e74682e6b,rev?*
G04 #@! TF.SameCoordinates,Original*
G04 #@! TF.FileFunction,Soldermask,Bot*
G04 #@! TF.FilePolarity,Negative*
%FSLAX46Y46*%
G04 Gerber Fmt 4.6, Leading zero omitted, Abs format (unit mm)*
G04 Created by KiCad (PCBNEW (5.1.2)-2) date 2019-09-23 11:47:28*
%MOMM*%
%LPD*%
G04 APERTURE LIST*
%ADD10C,0.800000*%
%ADD11C,0.100000*%
G04 APERTURE END LIST*
D10*
X184622857Y-105821428D02*
X183980000Y-106035714D01*
X182908571Y-106035714D01*
X182480000Y-105821428D01*
X182265714Y-105607142D01*
X182051428Y-105178571D01*
X182051428Y-104750000D01*
X182265714Y-104321428D01*
X182480000Y-104107142D01*
X182908571Y-103892857D01*
X183765714Y-103678571D01*
X184194285Y-103464285D01*
X184408571Y-103250000D01*
X184622857Y-102821428D01*
X184622857Y-102392857D01*
X184408571Y-101964285D01*
X184194285Y-101750000D01*
X183765714Y-101535714D01*
X182694285Y-101535714D01*
X182051428Y-101750000D01*
X179480000Y-106035714D02*
X179908571Y-105821428D01*
X180122857Y-105607142D01*
X180337142Y-105178571D01*
X180337142Y-103892857D01*
X180122857Y-103464285D01*
X179908571Y-103250000D01*
X179480000Y-103035714D01*
X178837142Y-103035714D01*
X178408571Y-103250000D01*
X178194285Y-103464285D01*
X177980000Y-103892857D01*
X177980000Y-105178571D01*
X178194285Y-105607142D01*
X178408571Y-105821428D01*
X178837142Y-106035714D01*
X179480000Y-106035714D01*
X176051428Y-103035714D02*
X176051428Y-106035714D01*
X176051428Y-103464285D02*
X175837142Y-103250000D01*
X175408571Y-103035714D01*
X174765714Y-103035714D01*
X174337142Y-103250000D01*
X174122857Y-103678571D01*
X174122857Y-106035714D01*
X170051428Y-106035714D02*
X170051428Y-101535714D01*
X170051428Y-105821428D02*
X170480000Y-106035714D01*
X171337142Y-106035714D01*
X171765714Y-105821428D01*
X171980000Y-105607142D01*
X172194285Y-105178571D01*
X172194285Y-103892857D01*
X171980000Y-103464285D01*
X171765714Y-103250000D01*
X171337142Y-103035714D01*
X170480000Y-103035714D01*
X170051428Y-103250000D01*
X167908571Y-106035714D02*
X167908571Y-103035714D01*
X167908571Y-103892857D02*
X167694285Y-103464285D01*
X167480000Y-103250000D01*
X167051428Y-103035714D01*
X166622857Y-103035714D01*
X163408571Y-105821428D02*
X163837142Y-106035714D01*
X164694285Y-106035714D01*
X165122857Y-105821428D01*
X165337142Y-105392857D01*
X165337142Y-103678571D01*
X165122857Y-103250000D01*
X164694285Y-103035714D01*
X163837142Y-103035714D01*
X163408571Y-103250000D01*
X163194285Y-103678571D01*
X163194285Y-104107142D01*
X165337142Y-104535714D01*
X157837142Y-106035714D02*
X157837142Y-101535714D01*
X155265714Y-106035714D01*
X155265714Y-101535714D01*
X153122857Y-106035714D02*
X153122857Y-103035714D01*
X153122857Y-101535714D02*
X153337142Y-101750000D01*
X153122857Y-101964285D01*
X152908571Y-101750000D01*
X153122857Y-101535714D01*
X153122857Y-101964285D01*
X150980000Y-103035714D02*
X150980000Y-106035714D01*
X150980000Y-103464285D02*
X150765714Y-103250000D01*
X150337142Y-103035714D01*
X149694285Y-103035714D01*
X149265714Y-103250000D01*
X149051428Y-103678571D01*
X149051428Y-106035714D01*
X146908571Y-106035714D02*
X146908571Y-103035714D01*
X146908571Y-101535714D02*
X147122857Y-101750000D01*
X146908571Y-101964285D01*
X146694285Y-101750000D01*
X146908571Y-101535714D01*
X146908571Y-101964285D01*
X145194285Y-103035714D02*
X144122857Y-106035714D01*
X143051428Y-103035714D01*
X139622857Y-105821428D02*
X140051428Y-106035714D01*
X140908571Y-106035714D01*
X141337142Y-105821428D01*
X141551428Y-105392857D01*
X141551428Y-103678571D01*
X141337142Y-103250000D01*
X140908571Y-103035714D01*
X140051428Y-103035714D01*
X139622857Y-103250000D01*
X139408571Y-103678571D01*
X139408571Y-104107142D01*
X141551428Y-104535714D01*
X134265714Y-104750000D02*
X132122857Y-104750000D01*
X134694285Y-106035714D02*
X133194285Y-101535714D01*
X131694285Y-106035714D01*
X130194285Y-103035714D02*
X130194285Y-106035714D01*
X130194285Y-103464285D02*
X129980000Y-103250000D01*
X129551428Y-103035714D01*
X128908571Y-103035714D01*
X128480000Y-103250000D01*
X128265714Y-103678571D01*
X128265714Y-106035714D01*
X124194285Y-106035714D02*
X124194285Y-101535714D01*
X124194285Y-105821428D02*
X124622857Y-106035714D01*
X125480000Y-106035714D01*
X125908571Y-105821428D01*
X126122857Y-105607142D01*
X126337142Y-105178571D01*
X126337142Y-103892857D01*
X126122857Y-103464285D01*
X125908571Y-103250000D01*
X125480000Y-103035714D01*
X124622857Y-103035714D01*
X124194285Y-103250000D01*
X120337142Y-105821428D02*
X120765714Y-106035714D01*
X121622857Y-106035714D01*
X122051428Y-105821428D01*
X122265714Y-105392857D01*
X122265714Y-103678571D01*
X122051428Y-103250000D01*
X121622857Y-103035714D01*
X120765714Y-103035714D01*
X120337142Y-103250000D01*
X120122857Y-103678571D01*
X120122857Y-104107142D01*
X122265714Y-104535714D01*
X118194285Y-106035714D02*
X118194285Y-103035714D01*
X118194285Y-103892857D02*
X117980000Y-103464285D01*
X117765714Y-103250000D01*
X117337142Y-103035714D01*
X116908571Y-103035714D01*
X115622857Y-105821428D02*
X115194285Y-106035714D01*
X114337142Y-106035714D01*
X113908571Y-105821428D01*
X113694285Y-105392857D01*
X113694285Y-105178571D01*
X113908571Y-104750000D01*
X114337142Y-104535714D01*
X114980000Y-104535714D01*
X115408571Y-104321428D01*
X115622857Y-103892857D01*
X115622857Y-103678571D01*
X115408571Y-103250000D01*
X114980000Y-103035714D01*
X114337142Y-103035714D01*
X113908571Y-103250000D01*
X110051428Y-105821428D02*
X110480000Y-106035714D01*
X111337142Y-106035714D01*
X111765714Y-105821428D01*
X111980000Y-105392857D01*
X111980000Y-103678571D01*
X111765714Y-103250000D01*
X111337142Y-103035714D01*
X110480000Y-103035714D01*
X110051428Y-103250000D01*
X109837142Y-103678571D01*
X109837142Y-104107142D01*
X111980000Y-104535714D01*
X107908571Y-103035714D02*
X107908571Y-106035714D01*
X107908571Y-103464285D02*
X107694285Y-103250000D01*
X107265714Y-103035714D01*
X106622857Y-103035714D01*
X106194285Y-103250000D01*
X105980000Y-103678571D01*
X105980000Y-106035714D01*
D11*
G36*
X196000000Y-121000000D02*
G01*
X195000000Y-123000000D01*
X192000000Y-123000000D01*
X191000000Y-121000000D01*
X191000000Y-119000000D01*
X196000000Y-119000000D01*
X196000000Y-121000000D01*
X196000000Y-121000000D01*
G37*
G36*
X190587802Y-113710567D02*
G01*
X190642574Y-113733255D01*
X190691875Y-113766197D01*
X190733803Y-113808125D01*
X190766745Y-113857426D01*
X190789433Y-113912198D01*
X190801000Y-113970354D01*
X190801000Y-114029646D01*
X190789433Y-114087802D01*
X190766745Y-114142574D01*
X190733803Y-114191875D01*
X190691875Y-114233803D01*
X190642574Y-114266745D01*
X190587802Y-114289433D01*
X190529646Y-114301000D01*
X190470354Y-114301000D01*
X190412198Y-114289433D01*
X190357426Y-114266745D01*
X190308125Y-114233803D01*
X190266197Y-114191875D01*
X190233255Y-114142574D01*
X190210567Y-114087802D01*
X190199000Y-114029646D01*
X190199000Y-113970354D01*
X190210567Y-113912198D01*
X190233255Y-113857426D01*
X190266197Y-113808125D01*
X190308125Y-113766197D01*
X190357426Y-113733255D01*
X190412198Y-113710567D01*
X190470354Y-113699000D01*
X190529646Y-113699000D01*
X190587802Y-113710567D01*
X190587802Y-113710567D01*
G37*
G36*
X190587802Y-112710567D02*
G01*
X190642574Y-112733255D01*
X190691875Y-112766197D01*
X190733803Y-112808125D01*
X190766745Y-112857426D01*
X190789433Y-112912198D01*
X190801000Y-112970354D01*
X190801000Y-113029646D01*
X190789433Y-113087802D01*
X190766745Y-113142574D01*
X190733803Y-113191875D01*
X190691875Y-113233803D01*
X190642574Y-113266745D01*
X190587802Y-113289433D01*
X190529646Y-113301000D01*
X190470354Y-113301000D01*
X190412198Y-113289433D01*
X190357426Y-113266745D01*
X190308125Y-113233803D01*
X190266197Y-113191875D01*
X190233255Y-113142574D01*
X190210567Y-113087802D01*
X190199000Y-113029646D01*
X190199000Y-112970354D01*
X190210567Y-112912198D01*
X190233255Y-112857426D01*
X190266197Y-112808125D01*
X190308125Y-112766197D01*
X190357426Y-112733255D01*
X190412198Y-112710567D01*
X190470354Y-112699000D01*
X190529646Y-112699000D01*
X190587802Y-112710567D01*
X190587802Y-112710567D01*
G37*
G36*
X190587802Y-111710567D02*
G01*
X190642574Y-111733255D01*
X190691875Y-111766197D01*
X190733803Y-111808125D01*
X190766745Y-111857426D01*
X190789433Y-111912198D01*
X190801000Y-111970354D01*
X190801000Y-112029646D01*
X190789433Y-112087802D01*
X190766745Y-112142574D01*
X190733803Y-112191875D01*
X190691875Y-112233803D01*
X190642574Y-112266745D01*
X190587802Y-112289433D01*
X190529646Y-112301000D01*
X190470354Y-112301000D01*
X190412198Y-112289433D01*
X190357426Y-112266745D01*
X190308125Y-112233803D01*
X190266197Y-112191875D01*
X190233255Y-112142574D01*
X190210567Y-112087802D01*
X190199000Y-112029646D01*
X190199000Y-111970354D01*
X190210567Y-111912198D01*
X190233255Y-111857426D01*
X190266197Y-111808125D01*
X190308125Y-111766197D01*
X190357426Y-111733255D01*
X190412198Y-111710567D01*
X190470354Y-111699000D01*
X190529646Y-111699000D01*
X190587802Y-111710567D01*
X190587802Y-111710567D01*
G37*
G36*
X188301000Y-106301000D02*
G01*
X186499000Y-106301000D01*
X186499000Y-104499000D01*
X188301000Y-104499000D01*
X188301000Y-106301000D01*
X188301000Y-106301000D01*
G37*
G36*
X187576627Y-101972037D02*
G01*
X187746466Y-102023557D01*
X187746468Y-102023558D01*
X187902992Y-102107222D01*
X188040186Y-102219814D01*
X188152778Y-102357008D01*
X188236442Y-102513532D01*
X188236443Y-102513534D01*
X188287963Y-102683373D01*
X188305359Y-102860000D01*
X188287963Y-103036627D01*
X188236443Y-103206466D01*
X188236442Y-103206468D01*
X188152778Y-103362992D01*
X188040186Y-103500186D01*
X187902992Y-103612778D01*
X187746468Y-103696442D01*
X187746466Y-103696443D01*
X187576627Y-103747963D01*
X187444258Y-103761000D01*
X187355742Y-103761000D01*
X187223373Y-103747963D01*
X187053534Y-103696443D01*
X187053532Y-103696442D01*
X186897008Y-103612778D01*
X186759814Y-103500186D01*
X186647222Y-103362992D01*
X186563558Y-103206468D01*
X186563557Y-103206466D01*
X186512037Y-103036627D01*
X186494641Y-102860000D01*
X186512037Y-102683373D01*
X186563557Y-102513534D01*
X186563558Y-102513532D01*
X186647222Y-102357008D01*
X186759814Y-102219814D01*
X186897008Y-102107222D01*
X187053532Y-102023558D01*
X187053534Y-102023557D01*
X187223373Y-101972037D01*
X187355742Y-101959000D01*
X187444258Y-101959000D01*
X187576627Y-101972037D01*
X187576627Y-101972037D01*
G37*
G36*
X187576627Y-99432037D02*
G01*
X187746466Y-99483557D01*
X187746468Y-99483558D01*
X187902992Y-99567222D01*
X188040186Y-99679814D01*
X188152778Y-99817008D01*
X188236442Y-99973532D01*
X188236443Y-99973534D01*
X188287963Y-100143373D01*
X188305359Y-100320000D01*
X188287963Y-100496627D01*
X188236443Y-100666466D01*
X188236442Y-100666468D01*
X188152778Y-100822992D01*
X188040186Y-100960186D01*
X187902992Y-101072778D01*
X187746468Y-101156442D01*
X187746466Y-101156443D01*
X187576627Y-101207963D01*
X187444258Y-101221000D01*
X187355742Y-101221000D01*
X187223373Y-101207963D01*
X187053534Y-101156443D01*
X187053532Y-101156442D01*
X186897008Y-101072778D01*
X186759814Y-100960186D01*
X186647222Y-100822992D01*
X186563558Y-100666468D01*
X186563557Y-100666466D01*
X186512037Y-100496627D01*
X186494641Y-100320000D01*
X186512037Y-100143373D01*
X186563557Y-99973534D01*
X186563558Y-99973532D01*
X186647222Y-99817008D01*
X186759814Y-99679814D01*
X186897008Y-99567222D01*
X187053532Y-99483558D01*
X187053534Y-99483557D01*
X187223373Y-99432037D01*
X187355742Y-99419000D01*
X187444258Y-99419000D01*
X187576627Y-99432037D01*
X187576627Y-99432037D01*
G37*
G36*
X116901000Y-98651000D02*
G01*
X111799000Y-98651000D01*
X111799000Y-85549000D01*
X116901000Y-85549000D01*
X116901000Y-98651000D01*
X116901000Y-98651000D01*
G37*
G36*
X190587802Y-89710567D02*
G01*
X190642574Y-89733255D01*
X190691875Y-89766197D01*
X190733803Y-89808125D01*
X190766745Y-89857426D01*
X190789433Y-89912198D01*
X190801000Y-89970354D01*
X190801000Y-90029646D01*
X190789433Y-90087802D01*
X190766745Y-90142574D01*
X190733803Y-90191875D01*
X190691875Y-90233803D01*
X190642574Y-90266745D01*
X190587802Y-90289433D01*
X190529646Y-90301000D01*
X190470354Y-90301000D01*
X190412198Y-90289433D01*
X190357426Y-90266745D01*
X190308125Y-90233803D01*
X190266197Y-90191875D01*
X190233255Y-90142574D01*
X190210567Y-90087802D01*
X190199000Y-90029646D01*
X190199000Y-89970354D01*
X190210567Y-89912198D01*
X190233255Y-89857426D01*
X190266197Y-89808125D01*
X190308125Y-89766197D01*
X190357426Y-89733255D01*
X190412198Y-89710567D01*
X190470354Y-89699000D01*
X190529646Y-89699000D01*
X190587802Y-89710567D01*
X190587802Y-89710567D01*
G37*
G36*
X190587802Y-88710567D02*
G01*
X190642574Y-88733255D01*
X190691875Y-88766197D01*
X190733803Y-88808125D01*
X190766745Y-88857426D01*
X190789433Y-88912198D01*
X190801000Y-88970354D01*
X190801000Y-89029646D01*
X190789433Y-89087802D01*
X190766745Y-89142574D01*
X190733803Y-89191875D01*
X190691875Y-89233803D01*
X190642574Y-89266745D01*
X190587802Y-89289433D01*
X190529646Y-89301000D01*
X190470354Y-89301000D01*
X190412198Y-89289433D01*
X190357426Y-89266745D01*
X190308125Y-89233803D01*
X190266197Y-89191875D01*
X190233255Y-89142574D01*
X190210567Y-89087802D01*
X190199000Y-89029646D01*
X190199000Y-88970354D01*
X190210567Y-88912198D01*
X190233255Y-88857426D01*
X190266197Y-88808125D01*
X190308125Y-88766197D01*
X190357426Y-88733255D01*
X190412198Y-88710567D01*
X190470354Y-88699000D01*
X190529646Y-88699000D01*
X190587802Y-88710567D01*
X190587802Y-88710567D01*
G37*
G36*
X190587802Y-87710567D02*
G01*
X190642574Y-87733255D01*
X190691875Y-87766197D01*
X190733803Y-87808125D01*
X190766745Y-87857426D01*
X190789433Y-87912198D01*
X190801000Y-87970354D01*
X190801000Y-88029646D01*
X190789433Y-88087802D01*
X190766745Y-88142574D01*
X190733803Y-88191875D01*
X190691875Y-88233803D01*
X190642574Y-88266745D01*
X190587802Y-88289433D01*
X190529646Y-88301000D01*
X190470354Y-88301000D01*
X190412198Y-88289433D01*
X190357426Y-88266745D01*
X190308125Y-88233803D01*
X190266197Y-88191875D01*
X190233255Y-88142574D01*
X190210567Y-88087802D01*
X190199000Y-88029646D01*
X190199000Y-87970354D01*
X190210567Y-87912198D01*
X190233255Y-87857426D01*
X190266197Y-87808125D01*
X190308125Y-87766197D01*
X190357426Y-87733255D01*
X190412198Y-87710567D01*
X190470354Y-87699000D01*
X190529646Y-87699000D01*
X190587802Y-87710567D01*
X190587802Y-87710567D01*
G37*
G36*
X186512812Y-85133624D02*
G01*
X186512814Y-85133625D01*
X186512815Y-85133625D01*
X186676784Y-85201544D01*
X186824354Y-85300147D01*
X186949853Y-85425646D01*
X187048456Y-85573216D01*
X187116376Y-85737188D01*
X187151000Y-85911259D01*
X187151000Y-86088741D01*
X187116376Y-86262812D01*
X187048456Y-86426784D01*
X186949853Y-86574354D01*
X186824354Y-86699853D01*
X186676784Y-86798456D01*
X186512815Y-86866375D01*
X186512814Y-86866375D01*
X186512812Y-86866376D01*
X186338741Y-86901000D01*
X186161259Y-86901000D01*
X185987188Y-86866376D01*
X185987186Y-86866375D01*
X185987185Y-86866375D01*
X185823216Y-86798456D01*
X185675646Y-86699853D01*
X185550147Y-86574354D01*
X185451544Y-86426784D01*
X185383624Y-86262812D01*
X185349000Y-86088741D01*
X185349000Y-85911259D01*
X185383624Y-85737188D01*
X185451544Y-85573216D01*
X185550147Y-85425646D01*
X185675646Y-85300147D01*
X185823216Y-85201544D01*
X185987185Y-85133625D01*
X185987186Y-85133625D01*
X185987188Y-85133624D01*
X186161259Y-85099000D01*
X186338741Y-85099000D01*
X186512812Y-85133624D01*
X186512812Y-85133624D01*
G37*
G36*
X188589753Y-85456058D02*
G01*
X188660723Y-85470175D01*
X188760996Y-85511710D01*
X188851242Y-85572010D01*
X188927990Y-85648758D01*
X188927993Y-85648763D01*
X188988290Y-85739004D01*
X189029825Y-85839277D01*
X189051000Y-85945732D01*
X189051000Y-86054268D01*
X189029825Y-86160723D01*
X188988290Y-86260996D01*
X188927990Y-86351242D01*
X188851242Y-86427990D01*
X188760996Y-86488290D01*
X188660723Y-86529825D01*
X188589753Y-86543942D01*
X188554269Y-86551000D01*
X188445731Y-86551000D01*
X188410247Y-86543942D01*
X188339277Y-86529825D01*
X188239004Y-86488290D01*
X188148758Y-86427990D01*
X188072010Y-86351242D01*
X188011710Y-86260996D01*
X187970175Y-86160723D01*
X187949000Y-86054268D01*
X187949000Y-85945732D01*
X187970175Y-85839277D01*
X188011710Y-85739004D01*
X188072007Y-85648763D01*
X188072010Y-85648758D01*
X188148758Y-85572010D01*
X188239004Y-85511710D01*
X188339277Y-85470175D01*
X188410247Y-85456058D01*
X188445731Y-85449000D01*
X188554269Y-85449000D01*
X188589753Y-85456058D01*
X188589753Y-85456058D01*
G37*
G36*
X169379226Y-84319845D02*
G01*
X167925331Y-85047902D01*
X167197274Y-83594007D01*
X168651169Y-82865950D01*
X169379226Y-84319845D01*
X169379226Y-84319845D01*
G37*
G36*
X181821328Y-83574843D02*
G01*
X181095810Y-85030007D01*
X179640646Y-84304489D01*
X180366164Y-82849325D01*
X181821328Y-83574843D01*
X181821328Y-83574843D01*
G37*
G36*
X193762812Y-73633624D02*
G01*
X193762814Y-73633625D01*
X193762815Y-73633625D01*
X193926784Y-73701544D01*
X194074354Y-73800147D01*
X194199853Y-73925646D01*
X194298456Y-74073216D01*
X194366376Y-74237188D01*
X194401000Y-74411259D01*
X194401000Y-74588741D01*
X194366376Y-74762812D01*
X194298456Y-74926784D01*
X194199853Y-75074354D01*
X194074354Y-75199853D01*
X193926784Y-75298456D01*
X193762815Y-75366375D01*
X193762814Y-75366375D01*
X193762812Y-75366376D01*
X193588741Y-75401000D01*
X193411259Y-75401000D01*
X193237188Y-75366376D01*
X193237186Y-75366375D01*
X193237185Y-75366375D01*
X193073216Y-75298456D01*
X192925646Y-75199853D01*
X192800147Y-75074354D01*
X192701544Y-74926784D01*
X192633624Y-74762812D01*
X192599000Y-74588741D01*
X192599000Y-74411259D01*
X192633624Y-74237188D01*
X192701544Y-74073216D01*
X192800147Y-73925646D01*
X192925646Y-73800147D01*
X193073216Y-73701544D01*
X193237185Y-73633625D01*
X193237186Y-73633625D01*
X193237188Y-73633624D01*
X193411259Y-73599000D01*
X193588741Y-73599000D01*
X193762812Y-73633624D01*
X193762812Y-73633624D01*
G37*
G36*
X169359354Y-71695511D02*
G01*
X168633836Y-73150675D01*
X167178672Y-72425157D01*
X167904190Y-70969993D01*
X169359354Y-71695511D01*
X169359354Y-71695511D01*
G37*
G36*
X181802726Y-72405993D02*
G01*
X180348831Y-73134050D01*
X179620774Y-71680155D01*
X181074669Y-70952098D01*
X181802726Y-72405993D01*
X181802726Y-72405993D01*
G37*
G36*
X193589753Y-71706058D02*
G01*
X193660723Y-71720175D01*
X193760996Y-71761710D01*
X193851242Y-71822010D01*
X193927990Y-71898758D01*
X193927993Y-71898763D01*
X193988290Y-71989004D01*
X194029825Y-72089277D01*
X194051000Y-72195732D01*
X194051000Y-72304268D01*
X194029825Y-72410723D01*
X193988290Y-72510996D01*
X193927990Y-72601242D01*
X193851242Y-72677990D01*
X193760996Y-72738290D01*
X193660723Y-72779825D01*
X193589753Y-72793942D01*
X193554269Y-72801000D01*
X193445731Y-72801000D01*
X193410247Y-72793942D01*
X193339277Y-72779825D01*
X193239004Y-72738290D01*
X193148758Y-72677990D01*
X193072010Y-72601242D01*
X193011710Y-72510996D01*
X192970175Y-72410723D01*
X192949000Y-72304268D01*
X192949000Y-72195732D01*
X192970175Y-72089277D01*
X193011710Y-71989004D01*
X193072007Y-71898763D01*
X193072010Y-71898758D01*
X193148758Y-71822010D01*
X193239004Y-71761710D01*
X193339277Y-71720175D01*
X193410247Y-71706058D01*
X193445731Y-71699000D01*
X193554269Y-71699000D01*
X193589753Y-71706058D01*
X193589753Y-71706058D01*
G37*
M02*
