G04 #@! TF.GenerationSoftware,KiCad,Pcbnew,(5.1.2)-2*
G04 #@! TF.CreationDate,2019-09-23T11:47:28+02:00*
G04 #@! TF.ProjectId,BusinessSynth,42757369-6e65-4737-9353-796e74682e6b,rev?*
G04 #@! TF.SameCoordinates,Original*
G04 #@! TF.FileFunction,Legend,Bot*
G04 #@! TF.FilePolarity,Positive*
%FSLAX46Y46*%
G04 Gerber Fmt 4.6, Leading zero omitted, Abs format (unit mm)*
G04 Created by KiCad (PCBNEW (5.1.2)-2) date 2019-09-23 11:47:28*
%MOMM*%
%LPD*%
G04 APERTURE LIST*
%ADD10C,0.400000*%
G04 APERTURE END LIST*
D10*
X185168571Y-111314285D02*
X184882857Y-111457142D01*
X184311428Y-111457142D01*
X184025714Y-111314285D01*
X183882857Y-111028571D01*
X183882857Y-110885714D01*
X184025714Y-110600000D01*
X184311428Y-110457142D01*
X184740000Y-110457142D01*
X185025714Y-110314285D01*
X185168571Y-110028571D01*
X185168571Y-109885714D01*
X185025714Y-109600000D01*
X184740000Y-109457142D01*
X184311428Y-109457142D01*
X184025714Y-109600000D01*
X182168571Y-111457142D02*
X182454285Y-111314285D01*
X182597142Y-111171428D01*
X182740000Y-110885714D01*
X182740000Y-110028571D01*
X182597142Y-109742857D01*
X182454285Y-109600000D01*
X182168571Y-109457142D01*
X181740000Y-109457142D01*
X181454285Y-109600000D01*
X181311428Y-109742857D01*
X181168571Y-110028571D01*
X181168571Y-110885714D01*
X181311428Y-111171428D01*
X181454285Y-111314285D01*
X181740000Y-111457142D01*
X182168571Y-111457142D01*
X179882857Y-109457142D02*
X179882857Y-111457142D01*
X179882857Y-109742857D02*
X179740000Y-109600000D01*
X179454285Y-109457142D01*
X179025714Y-109457142D01*
X178740000Y-109600000D01*
X178597142Y-109885714D01*
X178597142Y-111457142D01*
X175882857Y-111457142D02*
X175882857Y-108457142D01*
X175882857Y-111314285D02*
X176168571Y-111457142D01*
X176740000Y-111457142D01*
X177025714Y-111314285D01*
X177168571Y-111171428D01*
X177311428Y-110885714D01*
X177311428Y-110028571D01*
X177168571Y-109742857D01*
X177025714Y-109600000D01*
X176740000Y-109457142D01*
X176168571Y-109457142D01*
X175882857Y-109600000D01*
X174454285Y-111457142D02*
X174454285Y-109457142D01*
X174454285Y-110028571D02*
X174311428Y-109742857D01*
X174168571Y-109600000D01*
X173882857Y-109457142D01*
X173597142Y-109457142D01*
X171454285Y-111314285D02*
X171739999Y-111457142D01*
X172311428Y-111457142D01*
X172597142Y-111314285D01*
X172739999Y-111028571D01*
X172739999Y-109885714D01*
X172597142Y-109600000D01*
X172311428Y-109457142D01*
X171739999Y-109457142D01*
X171454285Y-109600000D01*
X171311428Y-109885714D01*
X171311428Y-110171428D01*
X172739999Y-110457142D01*
X170025714Y-111457142D02*
X170025714Y-109457142D01*
X170025714Y-108457142D02*
X170168571Y-108600000D01*
X170025714Y-108742857D01*
X169882857Y-108600000D01*
X170025714Y-108457142D01*
X170025714Y-108742857D01*
X168882857Y-111457142D02*
X167311428Y-109457142D01*
X168882857Y-109457142D02*
X167311428Y-111457142D01*
X166168571Y-111457142D02*
X166168571Y-109457142D01*
X166168571Y-108457142D02*
X166311428Y-108600000D01*
X166168571Y-108742857D01*
X166025714Y-108600000D01*
X166168571Y-108457142D01*
X166168571Y-108742857D01*
X165025714Y-111457142D02*
X163454285Y-109457142D01*
X165025714Y-109457142D02*
X163454285Y-111457142D01*
X160454285Y-110028571D02*
X160597142Y-109885714D01*
X160882857Y-109742857D01*
X161168571Y-109742857D01*
X161454285Y-109885714D01*
X161597142Y-110028571D01*
X161739999Y-110314285D01*
X161739999Y-110600000D01*
X161597142Y-110885714D01*
X161454285Y-111028571D01*
X161168571Y-111171428D01*
X160882857Y-111171428D01*
X160597142Y-111028571D01*
X160454285Y-110885714D01*
X160454285Y-109742857D02*
X160454285Y-110885714D01*
X160311428Y-111028571D01*
X160168571Y-111028571D01*
X159882857Y-110885714D01*
X159739999Y-110600000D01*
X159739999Y-109885714D01*
X160025714Y-109457142D01*
X160454285Y-109171428D01*
X161025714Y-109028571D01*
X161597142Y-109171428D01*
X162025714Y-109457142D01*
X162311428Y-109885714D01*
X162454285Y-110457142D01*
X162311428Y-111028571D01*
X162025714Y-111457142D01*
X161597142Y-111742857D01*
X161025714Y-111885714D01*
X160454285Y-111742857D01*
X160025714Y-111457142D01*
X157168571Y-109457142D02*
X157168571Y-111885714D01*
X157311428Y-112171428D01*
X157454285Y-112314285D01*
X157739999Y-112457142D01*
X158168571Y-112457142D01*
X158454285Y-112314285D01*
X157168571Y-111314285D02*
X157454285Y-111457142D01*
X158025714Y-111457142D01*
X158311428Y-111314285D01*
X158454285Y-111171428D01*
X158597142Y-110885714D01*
X158597142Y-110028571D01*
X158454285Y-109742857D01*
X158311428Y-109600000D01*
X158025714Y-109457142D01*
X157454285Y-109457142D01*
X157168571Y-109600000D01*
X155739999Y-111457142D02*
X155739999Y-109457142D01*
X155739999Y-109742857D02*
X155597142Y-109600000D01*
X155311428Y-109457142D01*
X154882857Y-109457142D01*
X154597142Y-109600000D01*
X154454285Y-109885714D01*
X154454285Y-111457142D01*
X154454285Y-109885714D02*
X154311428Y-109600000D01*
X154025714Y-109457142D01*
X153597142Y-109457142D01*
X153311428Y-109600000D01*
X153168571Y-109885714D01*
X153168571Y-111457142D01*
X150454285Y-111457142D02*
X150454285Y-109885714D01*
X150597142Y-109600000D01*
X150882857Y-109457142D01*
X151454285Y-109457142D01*
X151739999Y-109600000D01*
X150454285Y-111314285D02*
X150739999Y-111457142D01*
X151454285Y-111457142D01*
X151739999Y-111314285D01*
X151882857Y-111028571D01*
X151882857Y-110742857D01*
X151739999Y-110457142D01*
X151454285Y-110314285D01*
X150739999Y-110314285D01*
X150454285Y-110171428D01*
X149025714Y-111457142D02*
X149025714Y-109457142D01*
X149025714Y-108457142D02*
X149168571Y-108600000D01*
X149025714Y-108742857D01*
X148882857Y-108600000D01*
X149025714Y-108457142D01*
X149025714Y-108742857D01*
X147168571Y-111457142D02*
X147454285Y-111314285D01*
X147597142Y-111028571D01*
X147597142Y-108457142D01*
X146025714Y-111171428D02*
X145882857Y-111314285D01*
X146025714Y-111457142D01*
X146168571Y-111314285D01*
X146025714Y-111171428D01*
X146025714Y-111457142D01*
X143311428Y-111314285D02*
X143597142Y-111457142D01*
X144168571Y-111457142D01*
X144454285Y-111314285D01*
X144597142Y-111171428D01*
X144739999Y-110885714D01*
X144739999Y-110028571D01*
X144597142Y-109742857D01*
X144454285Y-109600000D01*
X144168571Y-109457142D01*
X143597142Y-109457142D01*
X143311428Y-109600000D01*
X141597142Y-111457142D02*
X141882857Y-111314285D01*
X142025714Y-111171428D01*
X142168571Y-110885714D01*
X142168571Y-110028571D01*
X142025714Y-109742857D01*
X141882857Y-109600000D01*
X141597142Y-109457142D01*
X141168571Y-109457142D01*
X140882857Y-109600000D01*
X140739999Y-109742857D01*
X140597142Y-110028571D01*
X140597142Y-110885714D01*
X140739999Y-111171428D01*
X140882857Y-111314285D01*
X141168571Y-111457142D01*
X141597142Y-111457142D01*
X139311428Y-111457142D02*
X139311428Y-109457142D01*
X139311428Y-109742857D02*
X139168571Y-109600000D01*
X138882857Y-109457142D01*
X138454285Y-109457142D01*
X138168571Y-109600000D01*
X138025714Y-109885714D01*
X138025714Y-111457142D01*
X138025714Y-109885714D02*
X137882857Y-109600000D01*
X137597142Y-109457142D01*
X137168571Y-109457142D01*
X136882857Y-109600000D01*
X136739999Y-109885714D01*
X136739999Y-111457142D01*
X183740000Y-114357142D02*
X183740000Y-116785714D01*
X183882857Y-117071428D01*
X184025714Y-117214285D01*
X184311428Y-117357142D01*
X184740000Y-117357142D01*
X185025714Y-117214285D01*
X183740000Y-116214285D02*
X184025714Y-116357142D01*
X184597142Y-116357142D01*
X184882857Y-116214285D01*
X185025714Y-116071428D01*
X185168571Y-115785714D01*
X185168571Y-114928571D01*
X185025714Y-114642857D01*
X184882857Y-114500000D01*
X184597142Y-114357142D01*
X184025714Y-114357142D01*
X183740000Y-114500000D01*
X182311428Y-116357142D02*
X182311428Y-114357142D01*
X182311428Y-113357142D02*
X182454285Y-113500000D01*
X182311428Y-113642857D01*
X182168571Y-113500000D01*
X182311428Y-113357142D01*
X182311428Y-113642857D01*
X181311428Y-114357142D02*
X180168571Y-114357142D01*
X180882857Y-113357142D02*
X180882857Y-115928571D01*
X180740000Y-116214285D01*
X180454285Y-116357142D01*
X180168571Y-116357142D01*
X179168571Y-116357142D02*
X179168571Y-113357142D01*
X177882857Y-116357142D02*
X177882857Y-114785714D01*
X178025714Y-114500000D01*
X178311428Y-114357142D01*
X178740000Y-114357142D01*
X179025714Y-114500000D01*
X179168571Y-114642857D01*
X175168571Y-114357142D02*
X175168571Y-116357142D01*
X176454285Y-114357142D02*
X176454285Y-115928571D01*
X176311428Y-116214285D01*
X176025714Y-116357142D01*
X175597142Y-116357142D01*
X175311428Y-116214285D01*
X175168571Y-116071428D01*
X173740000Y-116357142D02*
X173740000Y-113357142D01*
X173740000Y-114500000D02*
X173454285Y-114357142D01*
X172882857Y-114357142D01*
X172597142Y-114500000D01*
X172454285Y-114642857D01*
X172311428Y-114928571D01*
X172311428Y-115785714D01*
X172454285Y-116071428D01*
X172597142Y-116214285D01*
X172882857Y-116357142D01*
X173454285Y-116357142D01*
X173740000Y-116214285D01*
X171025714Y-116071428D02*
X170882857Y-116214285D01*
X171025714Y-116357142D01*
X171168571Y-116214285D01*
X171025714Y-116071428D01*
X171025714Y-116357142D01*
X168311428Y-116214285D02*
X168597142Y-116357142D01*
X169168571Y-116357142D01*
X169454285Y-116214285D01*
X169597142Y-116071428D01*
X169740000Y-115785714D01*
X169740000Y-114928571D01*
X169597142Y-114642857D01*
X169454285Y-114500000D01*
X169168571Y-114357142D01*
X168597142Y-114357142D01*
X168311428Y-114500000D01*
X166597142Y-116357142D02*
X166882857Y-116214285D01*
X167025714Y-116071428D01*
X167168571Y-115785714D01*
X167168571Y-114928571D01*
X167025714Y-114642857D01*
X166882857Y-114500000D01*
X166597142Y-114357142D01*
X166168571Y-114357142D01*
X165882857Y-114500000D01*
X165740000Y-114642857D01*
X165597142Y-114928571D01*
X165597142Y-115785714D01*
X165740000Y-116071428D01*
X165882857Y-116214285D01*
X166168571Y-116357142D01*
X166597142Y-116357142D01*
X164311428Y-116357142D02*
X164311428Y-114357142D01*
X164311428Y-114642857D02*
X164168571Y-114500000D01*
X163882857Y-114357142D01*
X163454285Y-114357142D01*
X163168571Y-114500000D01*
X163025714Y-114785714D01*
X163025714Y-116357142D01*
X163025714Y-114785714D02*
X162882857Y-114500000D01*
X162597142Y-114357142D01*
X162168571Y-114357142D01*
X161882857Y-114500000D01*
X161740000Y-114785714D01*
X161740000Y-116357142D01*
X158168571Y-113214285D02*
X160740000Y-117071428D01*
X157311428Y-116214285D02*
X157025714Y-116357142D01*
X156454285Y-116357142D01*
X156168571Y-116214285D01*
X156025714Y-115928571D01*
X156025714Y-115785714D01*
X156168571Y-115500000D01*
X156454285Y-115357142D01*
X156882857Y-115357142D01*
X157168571Y-115214285D01*
X157311428Y-114928571D01*
X157311428Y-114785714D01*
X157168571Y-114500000D01*
X156882857Y-114357142D01*
X156454285Y-114357142D01*
X156168571Y-114500000D01*
X154311428Y-116357142D02*
X154597142Y-116214285D01*
X154740000Y-116071428D01*
X154882857Y-115785714D01*
X154882857Y-114928571D01*
X154740000Y-114642857D01*
X154597142Y-114500000D01*
X154311428Y-114357142D01*
X153882857Y-114357142D01*
X153597142Y-114500000D01*
X153454285Y-114642857D01*
X153311428Y-114928571D01*
X153311428Y-115785714D01*
X153454285Y-116071428D01*
X153597142Y-116214285D01*
X153882857Y-116357142D01*
X154311428Y-116357142D01*
X152025714Y-114357142D02*
X152025714Y-116357142D01*
X152025714Y-114642857D02*
X151882857Y-114500000D01*
X151597142Y-114357142D01*
X151168571Y-114357142D01*
X150882857Y-114500000D01*
X150740000Y-114785714D01*
X150740000Y-116357142D01*
X148025714Y-116357142D02*
X148025714Y-113357142D01*
X148025714Y-116214285D02*
X148311428Y-116357142D01*
X148882857Y-116357142D01*
X149168571Y-116214285D01*
X149311428Y-116071428D01*
X149454285Y-115785714D01*
X149454285Y-114928571D01*
X149311428Y-114642857D01*
X149168571Y-114500000D01*
X148882857Y-114357142D01*
X148311428Y-114357142D01*
X148025714Y-114500000D01*
X146597142Y-116357142D02*
X146597142Y-114357142D01*
X146597142Y-114928571D02*
X146454285Y-114642857D01*
X146311428Y-114500000D01*
X146025714Y-114357142D01*
X145740000Y-114357142D01*
X143597142Y-116214285D02*
X143882857Y-116357142D01*
X144454285Y-116357142D01*
X144740000Y-116214285D01*
X144882857Y-115928571D01*
X144882857Y-114785714D01*
X144740000Y-114500000D01*
X144454285Y-114357142D01*
X143882857Y-114357142D01*
X143597142Y-114500000D01*
X143454285Y-114785714D01*
X143454285Y-115071428D01*
X144882857Y-115357142D01*
X142025714Y-116357142D02*
X141454285Y-116357142D01*
X141168571Y-116214285D01*
X141025714Y-116071428D01*
X140740000Y-115642857D01*
X140597142Y-115071428D01*
X140597142Y-113928571D01*
X140740000Y-113642857D01*
X140882857Y-113500000D01*
X141168571Y-113357142D01*
X141740000Y-113357142D01*
X142025714Y-113500000D01*
X142168571Y-113642857D01*
X142311428Y-113928571D01*
X142311428Y-114642857D01*
X142168571Y-114928571D01*
X142025714Y-115071428D01*
X141740000Y-115214285D01*
X141168571Y-115214285D01*
X140882857Y-115071428D01*
X140740000Y-114928571D01*
X140597142Y-114642857D01*
X139168571Y-116357142D02*
X138597142Y-116357142D01*
X138311428Y-116214285D01*
X138168571Y-116071428D01*
X137882857Y-115642857D01*
X137740000Y-115071428D01*
X137740000Y-113928571D01*
X137882857Y-113642857D01*
X138025714Y-113500000D01*
X138311428Y-113357142D01*
X138882857Y-113357142D01*
X139168571Y-113500000D01*
X139311428Y-113642857D01*
X139454285Y-113928571D01*
X139454285Y-114642857D01*
X139311428Y-114928571D01*
X139168571Y-115071428D01*
X138882857Y-115214285D01*
X138311428Y-115214285D01*
X138025714Y-115071428D01*
X137882857Y-114928571D01*
X137740000Y-114642857D01*
X136740000Y-114357142D02*
X136025714Y-116357142D01*
X135311428Y-114357142D01*
X185025714Y-120114285D02*
X182740000Y-120114285D01*
X183882857Y-121257142D02*
X183882857Y-118971428D01*
X180025714Y-119257142D02*
X180025714Y-121257142D01*
X180740000Y-118114285D02*
X181454285Y-120257142D01*
X179597142Y-120257142D01*
X178740000Y-118257142D02*
X176740000Y-118257142D01*
X178025714Y-121257142D01*
X172025714Y-119257142D02*
X172025714Y-121257142D01*
X172740000Y-118114285D02*
X173454285Y-120257142D01*
X171597142Y-120257142D01*
X169168571Y-118257142D02*
X169740000Y-118257142D01*
X170025714Y-118400000D01*
X170168571Y-118542857D01*
X170454285Y-118971428D01*
X170597142Y-119542857D01*
X170597142Y-120685714D01*
X170454285Y-120971428D01*
X170311428Y-121114285D01*
X170025714Y-121257142D01*
X169454285Y-121257142D01*
X169168571Y-121114285D01*
X169025714Y-120971428D01*
X168882857Y-120685714D01*
X168882857Y-119971428D01*
X169025714Y-119685714D01*
X169168571Y-119542857D01*
X169454285Y-119400000D01*
X170025714Y-119400000D01*
X170311428Y-119542857D01*
X170454285Y-119685714D01*
X170597142Y-119971428D01*
X166311428Y-119257142D02*
X166311428Y-121257142D01*
X167025714Y-118114285D02*
X167740000Y-120257142D01*
X165882857Y-120257142D01*
X162597142Y-118542857D02*
X162454285Y-118400000D01*
X162168571Y-118257142D01*
X161454285Y-118257142D01*
X161168571Y-118400000D01*
X161025714Y-118542857D01*
X160882857Y-118828571D01*
X160882857Y-119114285D01*
X161025714Y-119542857D01*
X162740000Y-121257142D01*
X160882857Y-121257142D01*
X158025714Y-121257142D02*
X159740000Y-121257142D01*
X158882857Y-121257142D02*
X158882857Y-118257142D01*
X159168571Y-118685714D01*
X159454285Y-118971428D01*
X159740000Y-119114285D01*
X153168571Y-118257142D02*
X153740000Y-118257142D01*
X154025714Y-118400000D01*
X154168571Y-118542857D01*
X154454285Y-118971428D01*
X154597142Y-119542857D01*
X154597142Y-120685714D01*
X154454285Y-120971428D01*
X154311428Y-121114285D01*
X154025714Y-121257142D01*
X153454285Y-121257142D01*
X153168571Y-121114285D01*
X153025714Y-120971428D01*
X152882857Y-120685714D01*
X152882857Y-119971428D01*
X153025714Y-119685714D01*
X153168571Y-119542857D01*
X153454285Y-119400000D01*
X154025714Y-119400000D01*
X154311428Y-119542857D01*
X154454285Y-119685714D01*
X154597142Y-119971428D01*
X150311428Y-119257142D02*
X150311428Y-121257142D01*
X151025714Y-118114285D02*
X151740000Y-120257142D01*
X149882857Y-120257142D01*
X149025714Y-118257142D02*
X147025714Y-118257142D01*
X148311428Y-121257142D01*
M02*
