G04 #@! TF.GenerationSoftware,KiCad,Pcbnew,(5.1.0)-1*
G04 #@! TF.CreationDate,2019-04-03T23:27:00+02:00*
G04 #@! TF.ProjectId,BusinessSynth,42757369-6e65-4737-9353-796e74682e6b,rev?*
G04 #@! TF.SameCoordinates,Original*
G04 #@! TF.FileFunction,Legend,Top*
G04 #@! TF.FilePolarity,Positive*
%FSLAX46Y46*%
G04 Gerber Fmt 4.6, Leading zero omitted, Abs format (unit mm)*
G04 Created by KiCad (PCBNEW (5.1.0)-1) date 2019-04-03 23:27:00*
%MOMM*%
%LPD*%
G04 APERTURE LIST*
%ADD10C,0.200000*%
%ADD11C,0.300000*%
G04 APERTURE END LIST*
D10*
X132350000Y-104450000D02*
X131650000Y-104450000D01*
X131650000Y-105150000D02*
X132350000Y-105150000D01*
X131650000Y-104450000D02*
X131650000Y-105150000D01*
X132350000Y-105150000D02*
X132350000Y-104450000D01*
X131650000Y-104050000D02*
X132350000Y-104050000D01*
X132350000Y-103350000D02*
X131650000Y-103350000D01*
X132350000Y-104050000D02*
X132350000Y-103350000D01*
X131650000Y-103350000D02*
X131650000Y-104050000D01*
X137850000Y-104450000D02*
X137150000Y-104450000D01*
X137150000Y-105150000D02*
X137850000Y-105150000D01*
X137150000Y-104450000D02*
X137150000Y-105150000D01*
X137850000Y-105150000D02*
X137850000Y-104450000D01*
X143150000Y-103350000D02*
X143150000Y-104050000D01*
X143850000Y-103350000D02*
X143150000Y-103350000D01*
X143850000Y-104050000D02*
X143850000Y-103350000D01*
X143150000Y-104050000D02*
X143850000Y-104050000D01*
G36*
X149850000Y-105150000D02*
G01*
X149150000Y-105150000D01*
X149150000Y-104450000D01*
X149850000Y-104450000D01*
X149850000Y-105150000D01*
G37*
X149850000Y-105150000D02*
X149150000Y-105150000D01*
X149150000Y-104450000D01*
X149850000Y-104450000D01*
X149850000Y-105150000D01*
G36*
X149850000Y-104050000D02*
G01*
X149150000Y-104050000D01*
X149150000Y-103350000D01*
X149850000Y-103350000D01*
X149850000Y-104050000D01*
G37*
X149850000Y-104050000D02*
X149150000Y-104050000D01*
X149150000Y-103350000D01*
X149850000Y-103350000D01*
X149850000Y-104050000D01*
G36*
X137850000Y-104050000D02*
G01*
X137150000Y-104050000D01*
X137150000Y-103350000D01*
X137850000Y-103350000D01*
X137850000Y-104050000D01*
G37*
X137850000Y-104050000D02*
X137150000Y-104050000D01*
X137150000Y-103350000D01*
X137850000Y-103350000D01*
X137850000Y-104050000D01*
G36*
X143850000Y-105150000D02*
G01*
X143150000Y-105150000D01*
X143150000Y-104450000D01*
X143850000Y-104450000D01*
X143850000Y-105150000D01*
G37*
X143850000Y-105150000D02*
X143150000Y-105150000D01*
X143150000Y-104450000D01*
X143850000Y-104450000D01*
X143850000Y-105150000D01*
X150550000Y-104250000D02*
X151950000Y-103350000D01*
X151950000Y-103350000D02*
X151950000Y-105150000D01*
X151950000Y-105150000D02*
X153350000Y-104250000D01*
X144550000Y-104250000D02*
X144550000Y-103350000D01*
X147350000Y-105150000D02*
X147350000Y-104250000D01*
X145950000Y-103350000D02*
X145950000Y-105150000D01*
X147350000Y-105150000D02*
X145950000Y-105150000D01*
X145950000Y-103350000D02*
X144550000Y-103350000D01*
X139250000Y-103350000D02*
X140650000Y-105150000D01*
X138550000Y-104250000D02*
X139250000Y-103350000D01*
X140650000Y-105150000D02*
X141350000Y-104250000D01*
X135700000Y-104650000D02*
X135850000Y-104250000D01*
X134896893Y-105054161D02*
G75*
G02X134600001Y-104649999I603107J754161D01*
G01*
X135403107Y-105054161D02*
G75*
G03X135699999Y-104649999I-603107J754161D01*
G01*
X135399941Y-105050047D02*
G75*
G02X134900001Y-105049999I-249941J300047D01*
G01*
X134600000Y-104650000D02*
X134450000Y-104250000D01*
X133496893Y-103445839D02*
G75*
G03X133200001Y-103850001I603107J-754161D01*
G01*
X133200000Y-103850000D02*
X133050000Y-104250000D01*
X134300000Y-103850000D02*
X134450000Y-104250000D01*
X133500059Y-103449953D02*
G75*
G02X133999999Y-103450001I249941J-300047D01*
G01*
X134003107Y-103445839D02*
G75*
G02X134299999Y-103850001I-603107J-754161D01*
G01*
X142500000Y-102250000D02*
X142500000Y-102750000D01*
D11*
X161535714Y-99928571D02*
X161535714Y-99142857D01*
X161464285Y-99000000D01*
X161321428Y-98928571D01*
X161035714Y-98928571D01*
X160892857Y-99000000D01*
X161535714Y-99857142D02*
X161392857Y-99928571D01*
X161035714Y-99928571D01*
X160892857Y-99857142D01*
X160821428Y-99714285D01*
X160821428Y-99571428D01*
X160892857Y-99428571D01*
X161035714Y-99357142D01*
X161392857Y-99357142D01*
X161535714Y-99285714D01*
X162892857Y-98928571D02*
X162892857Y-99928571D01*
X162250000Y-98928571D02*
X162250000Y-99714285D01*
X162321428Y-99857142D01*
X162464285Y-99928571D01*
X162678571Y-99928571D01*
X162821428Y-99857142D01*
X162892857Y-99785714D01*
X163392857Y-98928571D02*
X163964285Y-98928571D01*
X163607142Y-98428571D02*
X163607142Y-99714285D01*
X163678571Y-99857142D01*
X163821428Y-99928571D01*
X163964285Y-99928571D01*
X164678571Y-99928571D02*
X164535714Y-99857142D01*
X164464285Y-99785714D01*
X164392857Y-99642857D01*
X164392857Y-99214285D01*
X164464285Y-99071428D01*
X164535714Y-99000000D01*
X164678571Y-98928571D01*
X164892857Y-98928571D01*
X165035714Y-99000000D01*
X165107142Y-99071428D01*
X165178571Y-99214285D01*
X165178571Y-99642857D01*
X165107142Y-99785714D01*
X165035714Y-99857142D01*
X164892857Y-99928571D01*
X164678571Y-99928571D01*
X166250000Y-100750000D02*
X166250000Y-94250000D01*
X159750000Y-100750000D02*
X159750000Y-94250000D01*
X166250000Y-94250000D02*
X159750000Y-94250000D01*
X159750000Y-100750000D02*
X166250000Y-100750000D01*
X130345000Y-79142857D02*
X130545000Y-79214285D01*
X130611666Y-79285714D01*
X130678333Y-79428571D01*
X130678333Y-79642857D01*
X130611666Y-79785714D01*
X130545000Y-79857142D01*
X130411666Y-79928571D01*
X129878333Y-79928571D01*
X129878333Y-78428571D01*
X130345000Y-78428571D01*
X130478333Y-78500000D01*
X130545000Y-78571428D01*
X130611666Y-78714285D01*
X130611666Y-78857142D01*
X130545000Y-79000000D01*
X130478333Y-79071428D01*
X130345000Y-79142857D01*
X129878333Y-79142857D01*
X131145000Y-78928571D02*
X131478333Y-79928571D01*
X131811666Y-78928571D02*
X131478333Y-79928571D01*
X131345000Y-80285714D01*
X131278333Y-80357142D01*
X131145000Y-80428571D01*
X133345000Y-79857142D02*
X133545000Y-79928571D01*
X133878333Y-79928571D01*
X134011666Y-79857142D01*
X134078333Y-79785714D01*
X134145000Y-79642857D01*
X134145000Y-79500000D01*
X134078333Y-79357142D01*
X134011666Y-79285714D01*
X133878333Y-79214285D01*
X133611666Y-79142857D01*
X133478333Y-79071428D01*
X133411666Y-79000000D01*
X133345000Y-78857142D01*
X133345000Y-78714285D01*
X133411666Y-78571428D01*
X133478333Y-78500000D01*
X133611666Y-78428571D01*
X133945000Y-78428571D01*
X134145000Y-78500000D01*
X134945000Y-79928571D02*
X134811666Y-79857142D01*
X134745000Y-79785714D01*
X134678333Y-79642857D01*
X134678333Y-79214285D01*
X134745000Y-79071428D01*
X134811666Y-79000000D01*
X134945000Y-78928571D01*
X135145000Y-78928571D01*
X135278333Y-79000000D01*
X135345000Y-79071428D01*
X135411666Y-79214285D01*
X135411666Y-79642857D01*
X135345000Y-79785714D01*
X135278333Y-79857142D01*
X135145000Y-79928571D01*
X134945000Y-79928571D01*
X136011666Y-78928571D02*
X136011666Y-79928571D01*
X136011666Y-79071428D02*
X136078333Y-79000000D01*
X136211666Y-78928571D01*
X136411666Y-78928571D01*
X136545000Y-79000000D01*
X136611666Y-79142857D01*
X136611666Y-79928571D01*
X137878333Y-79928571D02*
X137878333Y-78428571D01*
X137878333Y-79857142D02*
X137745000Y-79928571D01*
X137478333Y-79928571D01*
X137345000Y-79857142D01*
X137278333Y-79785714D01*
X137211666Y-79642857D01*
X137211666Y-79214285D01*
X137278333Y-79071428D01*
X137345000Y-79000000D01*
X137478333Y-78928571D01*
X137745000Y-78928571D01*
X137878333Y-79000000D01*
X138545000Y-79928571D02*
X138545000Y-78928571D01*
X138545000Y-79214285D02*
X138611666Y-79071428D01*
X138678333Y-79000000D01*
X138811666Y-78928571D01*
X138945000Y-78928571D01*
X139945000Y-79857142D02*
X139811666Y-79928571D01*
X139545000Y-79928571D01*
X139411666Y-79857142D01*
X139345000Y-79714285D01*
X139345000Y-79142857D01*
X139411666Y-79000000D01*
X139545000Y-78928571D01*
X139811666Y-78928571D01*
X139945000Y-79000000D01*
X140011666Y-79142857D01*
X140011666Y-79285714D01*
X139345000Y-79428571D01*
X141678333Y-79928571D02*
X141678333Y-78428571D01*
X142478333Y-79928571D01*
X142478333Y-78428571D01*
X143145000Y-79928571D02*
X143145000Y-78928571D01*
X143145000Y-78428571D02*
X143078333Y-78500000D01*
X143145000Y-78571428D01*
X143211666Y-78500000D01*
X143145000Y-78428571D01*
X143145000Y-78571428D01*
X143811666Y-78928571D02*
X143811666Y-79928571D01*
X143811666Y-79071428D02*
X143878333Y-79000000D01*
X144011666Y-78928571D01*
X144211666Y-78928571D01*
X144345000Y-79000000D01*
X144411666Y-79142857D01*
X144411666Y-79928571D01*
X145078333Y-79928571D02*
X145078333Y-78928571D01*
X145078333Y-78428571D02*
X145011666Y-78500000D01*
X145078333Y-78571428D01*
X145145000Y-78500000D01*
X145078333Y-78428571D01*
X145078333Y-78571428D01*
X145611666Y-78928571D02*
X145945000Y-79928571D01*
X146278333Y-78928571D01*
X147345000Y-79857142D02*
X147211666Y-79928571D01*
X146945000Y-79928571D01*
X146811666Y-79857142D01*
X146745000Y-79714285D01*
X146745000Y-79142857D01*
X146811666Y-79000000D01*
X146945000Y-78928571D01*
X147211666Y-78928571D01*
X147345000Y-79000000D01*
X147411666Y-79142857D01*
X147411666Y-79285714D01*
X146745000Y-79428571D01*
X149011666Y-79500000D02*
X149678333Y-79500000D01*
X148878333Y-79928571D02*
X149345000Y-78428571D01*
X149811666Y-79928571D01*
X150278333Y-78928571D02*
X150278333Y-79928571D01*
X150278333Y-79071428D02*
X150345000Y-79000000D01*
X150478333Y-78928571D01*
X150678333Y-78928571D01*
X150811666Y-79000000D01*
X150878333Y-79142857D01*
X150878333Y-79928571D01*
X152145000Y-79928571D02*
X152145000Y-78428571D01*
X152145000Y-79857142D02*
X152011666Y-79928571D01*
X151745000Y-79928571D01*
X151611666Y-79857142D01*
X151545000Y-79785714D01*
X151478333Y-79642857D01*
X151478333Y-79214285D01*
X151545000Y-79071428D01*
X151611666Y-79000000D01*
X151745000Y-78928571D01*
X152011666Y-78928571D01*
X152145000Y-79000000D01*
X153345000Y-79857142D02*
X153211666Y-79928571D01*
X152945000Y-79928571D01*
X152811666Y-79857142D01*
X152745000Y-79714285D01*
X152745000Y-79142857D01*
X152811666Y-79000000D01*
X152945000Y-78928571D01*
X153211666Y-78928571D01*
X153345000Y-79000000D01*
X153411666Y-79142857D01*
X153411666Y-79285714D01*
X152745000Y-79428571D01*
X154011666Y-79928571D02*
X154011666Y-78928571D01*
X154011666Y-79214285D02*
X154078333Y-79071428D01*
X154145000Y-79000000D01*
X154278333Y-78928571D01*
X154411666Y-78928571D01*
X154811666Y-79857142D02*
X154945000Y-79928571D01*
X155211666Y-79928571D01*
X155345000Y-79857142D01*
X155411666Y-79714285D01*
X155411666Y-79642857D01*
X155345000Y-79500000D01*
X155211666Y-79428571D01*
X155011666Y-79428571D01*
X154878333Y-79357142D01*
X154811666Y-79214285D01*
X154811666Y-79142857D01*
X154878333Y-79000000D01*
X155011666Y-78928571D01*
X155211666Y-78928571D01*
X155345000Y-79000000D01*
X156545000Y-79857142D02*
X156411666Y-79928571D01*
X156145000Y-79928571D01*
X156011666Y-79857142D01*
X155945000Y-79714285D01*
X155945000Y-79142857D01*
X156011666Y-79000000D01*
X156145000Y-78928571D01*
X156411666Y-78928571D01*
X156545000Y-79000000D01*
X156611666Y-79142857D01*
X156611666Y-79285714D01*
X155945000Y-79428571D01*
X157211666Y-78928571D02*
X157211666Y-79928571D01*
X157211666Y-79071428D02*
X157278333Y-79000000D01*
X157411666Y-78928571D01*
X157611666Y-78928571D01*
X157745000Y-79000000D01*
X157811666Y-79142857D01*
X157811666Y-79928571D01*
D10*
X153950000Y-102750000D02*
X153950000Y-103450000D01*
X131050000Y-102750000D02*
X131050000Y-103450000D01*
X131050000Y-102750000D02*
X153950000Y-102750000D01*
X142500000Y-101250000D02*
X142500000Y-101750000D01*
X142500000Y-100250000D02*
X142500000Y-100750000D01*
X142500000Y-99250000D02*
X142500000Y-99750000D01*
X142500000Y-98250000D02*
X142500000Y-98750000D01*
X142500000Y-97250000D02*
X142500000Y-97750000D01*
X142500000Y-96250000D02*
X142500000Y-96750000D01*
X142500000Y-95250000D02*
X142500000Y-95750000D01*
X142500000Y-94250000D02*
X142500000Y-94750000D01*
X142500000Y-93250000D02*
X142500000Y-93750000D01*
X142500000Y-92250000D02*
X142500000Y-92750000D01*
X142500000Y-91250000D02*
X142500000Y-91750000D01*
X142500000Y-90250000D02*
X142500000Y-90750000D01*
X142500000Y-89250000D02*
X142500000Y-89750000D01*
X142500000Y-88250000D02*
X142500000Y-88750000D01*
X142500000Y-87250000D02*
X142500000Y-87750000D01*
X142500000Y-86250000D02*
X142500000Y-86750000D01*
X142500000Y-85250000D02*
X142500000Y-85750000D01*
D11*
X158750000Y-91750000D02*
X129000000Y-91750000D01*
X144500000Y-82750000D02*
X144500000Y-91750000D01*
X129000000Y-100750000D02*
X129000000Y-82750000D01*
X158750000Y-100750000D02*
X129000000Y-100750000D01*
X158750000Y-82750000D02*
X158750000Y-100750000D01*
X129000000Y-82750000D02*
X158750000Y-82750000D01*
X151800000Y-90900000D02*
X156550000Y-90900000D01*
X152050000Y-89450000D02*
X152050000Y-91150000D01*
X152050000Y-89700000D02*
X152350000Y-89700000D01*
X153650000Y-89700000D02*
X154350000Y-89700000D01*
X152850000Y-89700000D02*
X153150000Y-89700000D01*
X155454644Y-90661955D02*
G75*
G03X156450000Y-90900000I995356J1961955D01*
G01*
X154353504Y-89697770D02*
G75*
G03X155453291Y-90661268I2196496J1397770D01*
G01*
X147750000Y-89700000D02*
X148450000Y-89700000D01*
X148950000Y-89700000D02*
X149250000Y-89700000D01*
X149750000Y-89700000D02*
X150050000Y-89700000D01*
X145550000Y-89450000D02*
X145550000Y-91150000D01*
X146753291Y-89938732D02*
G75*
G02X147750000Y-89700000I996709J-1961268D01*
G01*
X145300000Y-90900000D02*
X150050000Y-90900000D01*
X145731422Y-90786730D02*
G75*
G02X146753291Y-89938732I2118578J-1513270D01*
G01*
X151980714Y-99857142D02*
X152123571Y-99928571D01*
X152409285Y-99928571D01*
X152552142Y-99857142D01*
X152623571Y-99714285D01*
X152623571Y-99642857D01*
X152552142Y-99500000D01*
X152409285Y-99428571D01*
X152195000Y-99428571D01*
X152052142Y-99357142D01*
X151980714Y-99214285D01*
X151980714Y-99142857D01*
X152052142Y-99000000D01*
X152195000Y-98928571D01*
X152409285Y-98928571D01*
X152552142Y-99000000D01*
X153123571Y-98928571D02*
X153480714Y-99928571D01*
X153837857Y-98928571D02*
X153480714Y-99928571D01*
X153337857Y-100285714D01*
X153266428Y-100357142D01*
X153123571Y-100428571D01*
X154409285Y-98928571D02*
X154409285Y-99928571D01*
X154409285Y-99071428D02*
X154480714Y-99000000D01*
X154623571Y-98928571D01*
X154837857Y-98928571D01*
X154980714Y-99000000D01*
X155052142Y-99142857D01*
X155052142Y-99928571D01*
X156409285Y-99857142D02*
X156266428Y-99928571D01*
X155980714Y-99928571D01*
X155837857Y-99857142D01*
X155766428Y-99785714D01*
X155695000Y-99642857D01*
X155695000Y-99214285D01*
X155766428Y-99071428D01*
X155837857Y-99000000D01*
X155980714Y-98928571D01*
X156266428Y-98928571D01*
X156409285Y-99000000D01*
X145337857Y-98928571D02*
X145909285Y-98928571D01*
X145552142Y-98428571D02*
X145552142Y-99714285D01*
X145623571Y-99857142D01*
X145766428Y-99928571D01*
X145909285Y-99928571D01*
X147052142Y-98928571D02*
X147052142Y-99928571D01*
X146409285Y-98928571D02*
X146409285Y-99714285D01*
X146480714Y-99857142D01*
X146623571Y-99928571D01*
X146837857Y-99928571D01*
X146980714Y-99857142D01*
X147052142Y-99785714D01*
X147766428Y-98928571D02*
X147766428Y-99928571D01*
X147766428Y-99071428D02*
X147837857Y-99000000D01*
X147980714Y-98928571D01*
X148195000Y-98928571D01*
X148337857Y-99000000D01*
X148409285Y-99142857D01*
X148409285Y-99928571D01*
X149695000Y-99857142D02*
X149552142Y-99928571D01*
X149266428Y-99928571D01*
X149123571Y-99857142D01*
X149052142Y-99714285D01*
X149052142Y-99142857D01*
X149123571Y-99000000D01*
X149266428Y-98928571D01*
X149552142Y-98928571D01*
X149695000Y-99000000D01*
X149766428Y-99142857D01*
X149766428Y-99285714D01*
X149052142Y-99428571D01*
X130516428Y-99928571D02*
X130373571Y-99857142D01*
X130302142Y-99785714D01*
X130230714Y-99642857D01*
X130230714Y-99214285D01*
X130302142Y-99071428D01*
X130373571Y-99000000D01*
X130516428Y-98928571D01*
X130730714Y-98928571D01*
X130873571Y-99000000D01*
X130945000Y-99071428D01*
X131016428Y-99214285D01*
X131016428Y-99642857D01*
X130945000Y-99785714D01*
X130873571Y-99857142D01*
X130730714Y-99928571D01*
X130516428Y-99928571D01*
X132302142Y-99857142D02*
X132159285Y-99928571D01*
X131873571Y-99928571D01*
X131730714Y-99857142D01*
X131659285Y-99785714D01*
X131587857Y-99642857D01*
X131587857Y-99214285D01*
X131659285Y-99071428D01*
X131730714Y-99000000D01*
X131873571Y-98928571D01*
X132159285Y-98928571D01*
X132302142Y-99000000D01*
X132730714Y-98928571D02*
X133302142Y-98928571D01*
X132945000Y-98428571D02*
X132945000Y-99714285D01*
X133016428Y-99857142D01*
X133159285Y-99928571D01*
X133302142Y-99928571D01*
X136659285Y-98928571D02*
X136945000Y-99928571D01*
X137230714Y-99214285D01*
X137516428Y-99928571D01*
X137802142Y-98928571D01*
X139016428Y-99928571D02*
X139016428Y-99142857D01*
X138945000Y-99000000D01*
X138802142Y-98928571D01*
X138516428Y-98928571D01*
X138373571Y-99000000D01*
X139016428Y-99857142D02*
X138873571Y-99928571D01*
X138516428Y-99928571D01*
X138373571Y-99857142D01*
X138302142Y-99714285D01*
X138302142Y-99571428D01*
X138373571Y-99428571D01*
X138516428Y-99357142D01*
X138873571Y-99357142D01*
X139016428Y-99285714D01*
X139587857Y-98928571D02*
X139945000Y-99928571D01*
X140302142Y-98928571D01*
X141445000Y-99857142D02*
X141302142Y-99928571D01*
X141016428Y-99928571D01*
X140873571Y-99857142D01*
X140802142Y-99714285D01*
X140802142Y-99142857D01*
X140873571Y-99000000D01*
X141016428Y-98928571D01*
X141302142Y-98928571D01*
X141445000Y-99000000D01*
X141516428Y-99142857D01*
X141516428Y-99285714D01*
X140802142Y-99428571D01*
X136659285Y-89928571D02*
X136945000Y-90928571D01*
X137230714Y-90214285D01*
X137516428Y-90928571D01*
X137802142Y-89928571D01*
X139016428Y-90928571D02*
X139016428Y-90142857D01*
X138945000Y-90000000D01*
X138802142Y-89928571D01*
X138516428Y-89928571D01*
X138373571Y-90000000D01*
X139016428Y-90857142D02*
X138873571Y-90928571D01*
X138516428Y-90928571D01*
X138373571Y-90857142D01*
X138302142Y-90714285D01*
X138302142Y-90571428D01*
X138373571Y-90428571D01*
X138516428Y-90357142D01*
X138873571Y-90357142D01*
X139016428Y-90285714D01*
X139587857Y-89928571D02*
X139945000Y-90928571D01*
X140302142Y-89928571D01*
X141445000Y-90857142D02*
X141302142Y-90928571D01*
X141016428Y-90928571D01*
X140873571Y-90857142D01*
X140802142Y-90714285D01*
X140802142Y-90142857D01*
X140873571Y-90000000D01*
X141016428Y-89928571D01*
X141302142Y-89928571D01*
X141445000Y-90000000D01*
X141516428Y-90142857D01*
X141516428Y-90285714D01*
X140802142Y-90428571D01*
X130516428Y-90928571D02*
X130373571Y-90857142D01*
X130302142Y-90785714D01*
X130230714Y-90642857D01*
X130230714Y-90214285D01*
X130302142Y-90071428D01*
X130373571Y-90000000D01*
X130516428Y-89928571D01*
X130730714Y-89928571D01*
X130873571Y-90000000D01*
X130945000Y-90071428D01*
X131016428Y-90214285D01*
X131016428Y-90642857D01*
X130945000Y-90785714D01*
X130873571Y-90857142D01*
X130730714Y-90928571D01*
X130516428Y-90928571D01*
X132302142Y-90857142D02*
X132159285Y-90928571D01*
X131873571Y-90928571D01*
X131730714Y-90857142D01*
X131659285Y-90785714D01*
X131587857Y-90642857D01*
X131587857Y-90214285D01*
X131659285Y-90071428D01*
X131730714Y-90000000D01*
X131873571Y-89928571D01*
X132159285Y-89928571D01*
X132302142Y-90000000D01*
X132730714Y-89928571D02*
X133302142Y-89928571D01*
X132945000Y-89428571D02*
X132945000Y-90714285D01*
X133016428Y-90857142D01*
X133159285Y-90928571D01*
X133302142Y-90928571D01*
X145552142Y-84392857D02*
X146052142Y-84392857D01*
X146266428Y-85178571D02*
X145552142Y-85178571D01*
X145552142Y-83678571D01*
X146266428Y-83678571D01*
X146909285Y-85178571D02*
X146909285Y-83678571D01*
X147766428Y-85178571D01*
X147766428Y-83678571D01*
X148266428Y-83678571D02*
X148766428Y-85178571D01*
X149266428Y-83678571D01*
X149766428Y-84392857D02*
X150266428Y-84392857D01*
X150480714Y-85178571D02*
X149766428Y-85178571D01*
X149766428Y-83678571D01*
X150480714Y-83678571D01*
X151837857Y-85178571D02*
X151123571Y-85178571D01*
X151123571Y-83678571D01*
X152623571Y-83678571D02*
X152909285Y-83678571D01*
X153052142Y-83750000D01*
X153195000Y-83892857D01*
X153266428Y-84178571D01*
X153266428Y-84678571D01*
X153195000Y-84964285D01*
X153052142Y-85107142D01*
X152909285Y-85178571D01*
X152623571Y-85178571D01*
X152480714Y-85107142D01*
X152337857Y-84964285D01*
X152266428Y-84678571D01*
X152266428Y-84178571D01*
X152337857Y-83892857D01*
X152480714Y-83750000D01*
X152623571Y-83678571D01*
X153909285Y-85178571D02*
X153909285Y-83678571D01*
X154480714Y-83678571D01*
X154623571Y-83750000D01*
X154695000Y-83821428D01*
X154766428Y-83964285D01*
X154766428Y-84178571D01*
X154695000Y-84321428D01*
X154623571Y-84392857D01*
X154480714Y-84464285D01*
X153909285Y-84464285D01*
X155409285Y-84392857D02*
X155909285Y-84392857D01*
X156123571Y-85178571D02*
X155409285Y-85178571D01*
X155409285Y-83678571D01*
X156123571Y-83678571D01*
X130587857Y-92678571D02*
X130873571Y-92678571D01*
X131016428Y-92750000D01*
X131159285Y-92892857D01*
X131230714Y-93178571D01*
X131230714Y-93678571D01*
X131159285Y-93964285D01*
X131016428Y-94107142D01*
X130873571Y-94178571D01*
X130587857Y-94178571D01*
X130445000Y-94107142D01*
X130302142Y-93964285D01*
X130230714Y-93678571D01*
X130230714Y-93178571D01*
X130302142Y-92892857D01*
X130445000Y-92750000D01*
X130587857Y-92678571D01*
X131802142Y-94107142D02*
X132016428Y-94178571D01*
X132373571Y-94178571D01*
X132516428Y-94107142D01*
X132587857Y-94035714D01*
X132659285Y-93892857D01*
X132659285Y-93750000D01*
X132587857Y-93607142D01*
X132516428Y-93535714D01*
X132373571Y-93464285D01*
X132087857Y-93392857D01*
X131945000Y-93321428D01*
X131873571Y-93250000D01*
X131802142Y-93107142D01*
X131802142Y-92964285D01*
X131873571Y-92821428D01*
X131945000Y-92750000D01*
X132087857Y-92678571D01*
X132445000Y-92678571D01*
X132659285Y-92750000D01*
X134159285Y-94035714D02*
X134087857Y-94107142D01*
X133873571Y-94178571D01*
X133730714Y-94178571D01*
X133516428Y-94107142D01*
X133373571Y-93964285D01*
X133302142Y-93821428D01*
X133230714Y-93535714D01*
X133230714Y-93321428D01*
X133302142Y-93035714D01*
X133373571Y-92892857D01*
X133516428Y-92750000D01*
X133730714Y-92678571D01*
X133873571Y-92678571D01*
X134087857Y-92750000D01*
X134159285Y-92821428D01*
X134730714Y-92821428D02*
X134802142Y-92750000D01*
X134945000Y-92678571D01*
X135302142Y-92678571D01*
X135445000Y-92750000D01*
X135516428Y-92821428D01*
X135587857Y-92964285D01*
X135587857Y-93107142D01*
X135516428Y-93321428D01*
X134659285Y-94178571D01*
X135587857Y-94178571D01*
X130587857Y-83678571D02*
X130873571Y-83678571D01*
X131016428Y-83750000D01*
X131159285Y-83892857D01*
X131230714Y-84178571D01*
X131230714Y-84678571D01*
X131159285Y-84964285D01*
X131016428Y-85107142D01*
X130873571Y-85178571D01*
X130587857Y-85178571D01*
X130445000Y-85107142D01*
X130302142Y-84964285D01*
X130230714Y-84678571D01*
X130230714Y-84178571D01*
X130302142Y-83892857D01*
X130445000Y-83750000D01*
X130587857Y-83678571D01*
X131802142Y-85107142D02*
X132016428Y-85178571D01*
X132373571Y-85178571D01*
X132516428Y-85107142D01*
X132587857Y-85035714D01*
X132659285Y-84892857D01*
X132659285Y-84750000D01*
X132587857Y-84607142D01*
X132516428Y-84535714D01*
X132373571Y-84464285D01*
X132087857Y-84392857D01*
X131945000Y-84321428D01*
X131873571Y-84250000D01*
X131802142Y-84107142D01*
X131802142Y-83964285D01*
X131873571Y-83821428D01*
X131945000Y-83750000D01*
X132087857Y-83678571D01*
X132445000Y-83678571D01*
X132659285Y-83750000D01*
X134159285Y-85035714D02*
X134087857Y-85107142D01*
X133873571Y-85178571D01*
X133730714Y-85178571D01*
X133516428Y-85107142D01*
X133373571Y-84964285D01*
X133302142Y-84821428D01*
X133230714Y-84535714D01*
X133230714Y-84321428D01*
X133302142Y-84035714D01*
X133373571Y-83892857D01*
X133516428Y-83750000D01*
X133730714Y-83678571D01*
X133873571Y-83678571D01*
X134087857Y-83750000D01*
X134159285Y-83821428D01*
X135587857Y-85178571D02*
X134730714Y-85178571D01*
X135159285Y-85178571D02*
X135159285Y-83678571D01*
X135016428Y-83892857D01*
X134873571Y-84035714D01*
X134730714Y-84107142D01*
M02*
