G04 #@! TF.GenerationSoftware,KiCad,Pcbnew,(5.1.0)-1*
G04 #@! TF.CreationDate,2019-04-03T23:27:00+02:00*
G04 #@! TF.ProjectId,BusinessSynth,42757369-6e65-4737-9353-796e74682e6b,rev?*
G04 #@! TF.SameCoordinates,Original*
G04 #@! TF.FileFunction,Legend,Bot*
G04 #@! TF.FilePolarity,Positive*
%FSLAX46Y46*%
G04 Gerber Fmt 4.6, Leading zero omitted, Abs format (unit mm)*
G04 Created by KiCad (PCBNEW (5.1.0)-1) date 2019-04-03 23:27:00*
%MOMM*%
%LPD*%
G04 APERTURE LIST*
%ADD10C,0.400000*%
G04 APERTURE END LIST*
D10*
X186025714Y-110314285D02*
X183740000Y-110314285D01*
X184882857Y-111457142D02*
X184882857Y-109171428D01*
X181025714Y-109457142D02*
X181025714Y-111457142D01*
X181740000Y-108314285D02*
X182454285Y-110457142D01*
X180597142Y-110457142D01*
X179740000Y-108457142D02*
X177740000Y-108457142D01*
X179025714Y-111457142D01*
X173025714Y-109457142D02*
X173025714Y-111457142D01*
X173740000Y-108314285D02*
X174454285Y-110457142D01*
X172597142Y-110457142D01*
X170168571Y-108457142D02*
X170740000Y-108457142D01*
X171025714Y-108600000D01*
X171168571Y-108742857D01*
X171454285Y-109171428D01*
X171597142Y-109742857D01*
X171597142Y-110885714D01*
X171454285Y-111171428D01*
X171311428Y-111314285D01*
X171025714Y-111457142D01*
X170454285Y-111457142D01*
X170168571Y-111314285D01*
X170025714Y-111171428D01*
X169882857Y-110885714D01*
X169882857Y-110171428D01*
X170025714Y-109885714D01*
X170168571Y-109742857D01*
X170454285Y-109600000D01*
X171025714Y-109600000D01*
X171311428Y-109742857D01*
X171454285Y-109885714D01*
X171597142Y-110171428D01*
X167311428Y-109457142D02*
X167311428Y-111457142D01*
X168025714Y-108314285D02*
X168740000Y-110457142D01*
X166882857Y-110457142D01*
X163597142Y-108742857D02*
X163454285Y-108600000D01*
X163168571Y-108457142D01*
X162454285Y-108457142D01*
X162168571Y-108600000D01*
X162025714Y-108742857D01*
X161882857Y-109028571D01*
X161882857Y-109314285D01*
X162025714Y-109742857D01*
X163740000Y-111457142D01*
X161882857Y-111457142D01*
X159025714Y-111457142D02*
X160740000Y-111457142D01*
X159882857Y-111457142D02*
X159882857Y-108457142D01*
X160168571Y-108885714D01*
X160454285Y-109171428D01*
X160740000Y-109314285D01*
X154168571Y-108457142D02*
X154740000Y-108457142D01*
X155025714Y-108600000D01*
X155168571Y-108742857D01*
X155454285Y-109171428D01*
X155597142Y-109742857D01*
X155597142Y-110885714D01*
X155454285Y-111171428D01*
X155311428Y-111314285D01*
X155025714Y-111457142D01*
X154454285Y-111457142D01*
X154168571Y-111314285D01*
X154025714Y-111171428D01*
X153882857Y-110885714D01*
X153882857Y-110171428D01*
X154025714Y-109885714D01*
X154168571Y-109742857D01*
X154454285Y-109600000D01*
X155025714Y-109600000D01*
X155311428Y-109742857D01*
X155454285Y-109885714D01*
X155597142Y-110171428D01*
X151311428Y-109457142D02*
X151311428Y-111457142D01*
X152025714Y-108314285D02*
X152740000Y-110457142D01*
X150882857Y-110457142D01*
X150025714Y-108457142D02*
X148025714Y-108457142D01*
X149311428Y-111457142D01*
X186168571Y-116214285D02*
X185882857Y-116357142D01*
X185311428Y-116357142D01*
X185025714Y-116214285D01*
X184882857Y-115928571D01*
X184882857Y-115785714D01*
X185025714Y-115500000D01*
X185311428Y-115357142D01*
X185740000Y-115357142D01*
X186025714Y-115214285D01*
X186168571Y-114928571D01*
X186168571Y-114785714D01*
X186025714Y-114500000D01*
X185740000Y-114357142D01*
X185311428Y-114357142D01*
X185025714Y-114500000D01*
X183168571Y-116357142D02*
X183454285Y-116214285D01*
X183597142Y-116071428D01*
X183740000Y-115785714D01*
X183740000Y-114928571D01*
X183597142Y-114642857D01*
X183454285Y-114500000D01*
X183168571Y-114357142D01*
X182740000Y-114357142D01*
X182454285Y-114500000D01*
X182311428Y-114642857D01*
X182168571Y-114928571D01*
X182168571Y-115785714D01*
X182311428Y-116071428D01*
X182454285Y-116214285D01*
X182740000Y-116357142D01*
X183168571Y-116357142D01*
X180882857Y-114357142D02*
X180882857Y-116357142D01*
X180882857Y-114642857D02*
X180740000Y-114500000D01*
X180454285Y-114357142D01*
X180025714Y-114357142D01*
X179740000Y-114500000D01*
X179597142Y-114785714D01*
X179597142Y-116357142D01*
X176882857Y-116357142D02*
X176882857Y-113357142D01*
X176882857Y-116214285D02*
X177168571Y-116357142D01*
X177740000Y-116357142D01*
X178025714Y-116214285D01*
X178168571Y-116071428D01*
X178311428Y-115785714D01*
X178311428Y-114928571D01*
X178168571Y-114642857D01*
X178025714Y-114500000D01*
X177740000Y-114357142D01*
X177168571Y-114357142D01*
X176882857Y-114500000D01*
X175454285Y-116357142D02*
X175454285Y-114357142D01*
X175454285Y-114928571D02*
X175311428Y-114642857D01*
X175168571Y-114500000D01*
X174882857Y-114357142D01*
X174597142Y-114357142D01*
X172454285Y-116214285D02*
X172739999Y-116357142D01*
X173311428Y-116357142D01*
X173597142Y-116214285D01*
X173739999Y-115928571D01*
X173739999Y-114785714D01*
X173597142Y-114500000D01*
X173311428Y-114357142D01*
X172739999Y-114357142D01*
X172454285Y-114500000D01*
X172311428Y-114785714D01*
X172311428Y-115071428D01*
X173739999Y-115357142D01*
X171025714Y-116357142D02*
X171025714Y-114357142D01*
X171025714Y-113357142D02*
X171168571Y-113500000D01*
X171025714Y-113642857D01*
X170882857Y-113500000D01*
X171025714Y-113357142D01*
X171025714Y-113642857D01*
X169882857Y-116357142D02*
X168311428Y-114357142D01*
X169882857Y-114357142D02*
X168311428Y-116357142D01*
X167168571Y-116357142D02*
X167168571Y-114357142D01*
X167168571Y-113357142D02*
X167311428Y-113500000D01*
X167168571Y-113642857D01*
X167025714Y-113500000D01*
X167168571Y-113357142D01*
X167168571Y-113642857D01*
X166025714Y-116357142D02*
X164454285Y-114357142D01*
X166025714Y-114357142D02*
X164454285Y-116357142D01*
X161454285Y-114928571D02*
X161597142Y-114785714D01*
X161882857Y-114642857D01*
X162168571Y-114642857D01*
X162454285Y-114785714D01*
X162597142Y-114928571D01*
X162739999Y-115214285D01*
X162739999Y-115500000D01*
X162597142Y-115785714D01*
X162454285Y-115928571D01*
X162168571Y-116071428D01*
X161882857Y-116071428D01*
X161597142Y-115928571D01*
X161454285Y-115785714D01*
X161454285Y-114642857D02*
X161454285Y-115785714D01*
X161311428Y-115928571D01*
X161168571Y-115928571D01*
X160882857Y-115785714D01*
X160739999Y-115500000D01*
X160739999Y-114785714D01*
X161025714Y-114357142D01*
X161454285Y-114071428D01*
X162025714Y-113928571D01*
X162597142Y-114071428D01*
X163025714Y-114357142D01*
X163311428Y-114785714D01*
X163454285Y-115357142D01*
X163311428Y-115928571D01*
X163025714Y-116357142D01*
X162597142Y-116642857D01*
X162025714Y-116785714D01*
X161454285Y-116642857D01*
X161025714Y-116357142D01*
X158168571Y-114357142D02*
X158168571Y-116785714D01*
X158311428Y-117071428D01*
X158454285Y-117214285D01*
X158739999Y-117357142D01*
X159168571Y-117357142D01*
X159454285Y-117214285D01*
X158168571Y-116214285D02*
X158454285Y-116357142D01*
X159025714Y-116357142D01*
X159311428Y-116214285D01*
X159454285Y-116071428D01*
X159597142Y-115785714D01*
X159597142Y-114928571D01*
X159454285Y-114642857D01*
X159311428Y-114500000D01*
X159025714Y-114357142D01*
X158454285Y-114357142D01*
X158168571Y-114500000D01*
X156739999Y-116357142D02*
X156739999Y-114357142D01*
X156739999Y-114642857D02*
X156597142Y-114500000D01*
X156311428Y-114357142D01*
X155882857Y-114357142D01*
X155597142Y-114500000D01*
X155454285Y-114785714D01*
X155454285Y-116357142D01*
X155454285Y-114785714D02*
X155311428Y-114500000D01*
X155025714Y-114357142D01*
X154597142Y-114357142D01*
X154311428Y-114500000D01*
X154168571Y-114785714D01*
X154168571Y-116357142D01*
X151454285Y-116357142D02*
X151454285Y-114785714D01*
X151597142Y-114500000D01*
X151882857Y-114357142D01*
X152454285Y-114357142D01*
X152739999Y-114500000D01*
X151454285Y-116214285D02*
X151739999Y-116357142D01*
X152454285Y-116357142D01*
X152739999Y-116214285D01*
X152882857Y-115928571D01*
X152882857Y-115642857D01*
X152739999Y-115357142D01*
X152454285Y-115214285D01*
X151739999Y-115214285D01*
X151454285Y-115071428D01*
X150025714Y-116357142D02*
X150025714Y-114357142D01*
X150025714Y-113357142D02*
X150168571Y-113500000D01*
X150025714Y-113642857D01*
X149882857Y-113500000D01*
X150025714Y-113357142D01*
X150025714Y-113642857D01*
X148168571Y-116357142D02*
X148454285Y-116214285D01*
X148597142Y-115928571D01*
X148597142Y-113357142D01*
X147025714Y-116071428D02*
X146882857Y-116214285D01*
X147025714Y-116357142D01*
X147168571Y-116214285D01*
X147025714Y-116071428D01*
X147025714Y-116357142D01*
X144311428Y-116214285D02*
X144597142Y-116357142D01*
X145168571Y-116357142D01*
X145454285Y-116214285D01*
X145597142Y-116071428D01*
X145739999Y-115785714D01*
X145739999Y-114928571D01*
X145597142Y-114642857D01*
X145454285Y-114500000D01*
X145168571Y-114357142D01*
X144597142Y-114357142D01*
X144311428Y-114500000D01*
X142597142Y-116357142D02*
X142882857Y-116214285D01*
X143025714Y-116071428D01*
X143168571Y-115785714D01*
X143168571Y-114928571D01*
X143025714Y-114642857D01*
X142882857Y-114500000D01*
X142597142Y-114357142D01*
X142168571Y-114357142D01*
X141882857Y-114500000D01*
X141739999Y-114642857D01*
X141597142Y-114928571D01*
X141597142Y-115785714D01*
X141739999Y-116071428D01*
X141882857Y-116214285D01*
X142168571Y-116357142D01*
X142597142Y-116357142D01*
X140311428Y-116357142D02*
X140311428Y-114357142D01*
X140311428Y-114642857D02*
X140168571Y-114500000D01*
X139882857Y-114357142D01*
X139454285Y-114357142D01*
X139168571Y-114500000D01*
X139025714Y-114785714D01*
X139025714Y-116357142D01*
X139025714Y-114785714D02*
X138882857Y-114500000D01*
X138597142Y-114357142D01*
X138168571Y-114357142D01*
X137882857Y-114500000D01*
X137739999Y-114785714D01*
X137739999Y-116357142D01*
X184740000Y-119257142D02*
X184740000Y-121685714D01*
X184882857Y-121971428D01*
X185025714Y-122114285D01*
X185311428Y-122257142D01*
X185740000Y-122257142D01*
X186025714Y-122114285D01*
X184740000Y-121114285D02*
X185025714Y-121257142D01*
X185597142Y-121257142D01*
X185882857Y-121114285D01*
X186025714Y-120971428D01*
X186168571Y-120685714D01*
X186168571Y-119828571D01*
X186025714Y-119542857D01*
X185882857Y-119400000D01*
X185597142Y-119257142D01*
X185025714Y-119257142D01*
X184740000Y-119400000D01*
X183311428Y-121257142D02*
X183311428Y-119257142D01*
X183311428Y-118257142D02*
X183454285Y-118400000D01*
X183311428Y-118542857D01*
X183168571Y-118400000D01*
X183311428Y-118257142D01*
X183311428Y-118542857D01*
X182311428Y-119257142D02*
X181168571Y-119257142D01*
X181882857Y-118257142D02*
X181882857Y-120828571D01*
X181740000Y-121114285D01*
X181454285Y-121257142D01*
X181168571Y-121257142D01*
X180168571Y-121257142D02*
X180168571Y-118257142D01*
X178882857Y-121257142D02*
X178882857Y-119685714D01*
X179025714Y-119400000D01*
X179311428Y-119257142D01*
X179740000Y-119257142D01*
X180025714Y-119400000D01*
X180168571Y-119542857D01*
X176168571Y-119257142D02*
X176168571Y-121257142D01*
X177454285Y-119257142D02*
X177454285Y-120828571D01*
X177311428Y-121114285D01*
X177025714Y-121257142D01*
X176597142Y-121257142D01*
X176311428Y-121114285D01*
X176168571Y-120971428D01*
X174740000Y-121257142D02*
X174740000Y-118257142D01*
X174740000Y-119400000D02*
X174454285Y-119257142D01*
X173882857Y-119257142D01*
X173597142Y-119400000D01*
X173454285Y-119542857D01*
X173311428Y-119828571D01*
X173311428Y-120685714D01*
X173454285Y-120971428D01*
X173597142Y-121114285D01*
X173882857Y-121257142D01*
X174454285Y-121257142D01*
X174740000Y-121114285D01*
X172025714Y-120971428D02*
X171882857Y-121114285D01*
X172025714Y-121257142D01*
X172168571Y-121114285D01*
X172025714Y-120971428D01*
X172025714Y-121257142D01*
X169311428Y-121114285D02*
X169597142Y-121257142D01*
X170168571Y-121257142D01*
X170454285Y-121114285D01*
X170597142Y-120971428D01*
X170740000Y-120685714D01*
X170740000Y-119828571D01*
X170597142Y-119542857D01*
X170454285Y-119400000D01*
X170168571Y-119257142D01*
X169597142Y-119257142D01*
X169311428Y-119400000D01*
X167597142Y-121257142D02*
X167882857Y-121114285D01*
X168025714Y-120971428D01*
X168168571Y-120685714D01*
X168168571Y-119828571D01*
X168025714Y-119542857D01*
X167882857Y-119400000D01*
X167597142Y-119257142D01*
X167168571Y-119257142D01*
X166882857Y-119400000D01*
X166740000Y-119542857D01*
X166597142Y-119828571D01*
X166597142Y-120685714D01*
X166740000Y-120971428D01*
X166882857Y-121114285D01*
X167168571Y-121257142D01*
X167597142Y-121257142D01*
X165311428Y-121257142D02*
X165311428Y-119257142D01*
X165311428Y-119542857D02*
X165168571Y-119400000D01*
X164882857Y-119257142D01*
X164454285Y-119257142D01*
X164168571Y-119400000D01*
X164025714Y-119685714D01*
X164025714Y-121257142D01*
X164025714Y-119685714D02*
X163882857Y-119400000D01*
X163597142Y-119257142D01*
X163168571Y-119257142D01*
X162882857Y-119400000D01*
X162740000Y-119685714D01*
X162740000Y-121257142D01*
X159168571Y-118114285D02*
X161740000Y-121971428D01*
X158311428Y-121114285D02*
X158025714Y-121257142D01*
X157454285Y-121257142D01*
X157168571Y-121114285D01*
X157025714Y-120828571D01*
X157025714Y-120685714D01*
X157168571Y-120400000D01*
X157454285Y-120257142D01*
X157882857Y-120257142D01*
X158168571Y-120114285D01*
X158311428Y-119828571D01*
X158311428Y-119685714D01*
X158168571Y-119400000D01*
X157882857Y-119257142D01*
X157454285Y-119257142D01*
X157168571Y-119400000D01*
X155311428Y-121257142D02*
X155597142Y-121114285D01*
X155740000Y-120971428D01*
X155882857Y-120685714D01*
X155882857Y-119828571D01*
X155740000Y-119542857D01*
X155597142Y-119400000D01*
X155311428Y-119257142D01*
X154882857Y-119257142D01*
X154597142Y-119400000D01*
X154454285Y-119542857D01*
X154311428Y-119828571D01*
X154311428Y-120685714D01*
X154454285Y-120971428D01*
X154597142Y-121114285D01*
X154882857Y-121257142D01*
X155311428Y-121257142D01*
X153025714Y-119257142D02*
X153025714Y-121257142D01*
X153025714Y-119542857D02*
X152882857Y-119400000D01*
X152597142Y-119257142D01*
X152168571Y-119257142D01*
X151882857Y-119400000D01*
X151740000Y-119685714D01*
X151740000Y-121257142D01*
X149025714Y-121257142D02*
X149025714Y-118257142D01*
X149025714Y-121114285D02*
X149311428Y-121257142D01*
X149882857Y-121257142D01*
X150168571Y-121114285D01*
X150311428Y-120971428D01*
X150454285Y-120685714D01*
X150454285Y-119828571D01*
X150311428Y-119542857D01*
X150168571Y-119400000D01*
X149882857Y-119257142D01*
X149311428Y-119257142D01*
X149025714Y-119400000D01*
X147597142Y-121257142D02*
X147597142Y-119257142D01*
X147597142Y-119828571D02*
X147454285Y-119542857D01*
X147311428Y-119400000D01*
X147025714Y-119257142D01*
X146740000Y-119257142D01*
X144597142Y-121114285D02*
X144882857Y-121257142D01*
X145454285Y-121257142D01*
X145740000Y-121114285D01*
X145882857Y-120828571D01*
X145882857Y-119685714D01*
X145740000Y-119400000D01*
X145454285Y-119257142D01*
X144882857Y-119257142D01*
X144597142Y-119400000D01*
X144454285Y-119685714D01*
X144454285Y-119971428D01*
X145882857Y-120257142D01*
X143025714Y-121257142D02*
X142454285Y-121257142D01*
X142168571Y-121114285D01*
X142025714Y-120971428D01*
X141740000Y-120542857D01*
X141597142Y-119971428D01*
X141597142Y-118828571D01*
X141740000Y-118542857D01*
X141882857Y-118400000D01*
X142168571Y-118257142D01*
X142740000Y-118257142D01*
X143025714Y-118400000D01*
X143168571Y-118542857D01*
X143311428Y-118828571D01*
X143311428Y-119542857D01*
X143168571Y-119828571D01*
X143025714Y-119971428D01*
X142740000Y-120114285D01*
X142168571Y-120114285D01*
X141882857Y-119971428D01*
X141740000Y-119828571D01*
X141597142Y-119542857D01*
X140168571Y-121257142D02*
X139597142Y-121257142D01*
X139311428Y-121114285D01*
X139168571Y-120971428D01*
X138882857Y-120542857D01*
X138740000Y-119971428D01*
X138740000Y-118828571D01*
X138882857Y-118542857D01*
X139025714Y-118400000D01*
X139311428Y-118257142D01*
X139882857Y-118257142D01*
X140168571Y-118400000D01*
X140311428Y-118542857D01*
X140454285Y-118828571D01*
X140454285Y-119542857D01*
X140311428Y-119828571D01*
X140168571Y-119971428D01*
X139882857Y-120114285D01*
X139311428Y-120114285D01*
X139025714Y-119971428D01*
X138882857Y-119828571D01*
X138740000Y-119542857D01*
X137740000Y-119257142D02*
X137025714Y-121257142D01*
X136311428Y-119257142D01*
M02*
