G04 #@! TF.GenerationSoftware,KiCad,Pcbnew,(5.1.0)-1*
G04 #@! TF.CreationDate,2019-04-03T23:27:00+02:00*
G04 #@! TF.ProjectId,BusinessSynth,42757369-6e65-4737-9353-796e74682e6b,rev?*
G04 #@! TF.SameCoordinates,Original*
G04 #@! TF.FileFunction,Soldermask,Top*
G04 #@! TF.FilePolarity,Negative*
%FSLAX46Y46*%
G04 Gerber Fmt 4.6, Leading zero omitted, Abs format (unit mm)*
G04 Created by KiCad (PCBNEW (5.1.0)-1) date 2019-04-03 23:27:00*
%MOMM*%
%LPD*%
G04 APERTURE LIST*
%ADD10C,0.700000*%
%ADD11C,0.100000*%
G04 APERTURE END LIST*
D10*
X130609761Y-71809523D02*
X132895476Y-71809523D01*
X131252619Y-75809523D02*
X131752619Y-71809523D01*
X133728809Y-75809523D02*
X134062142Y-73142857D01*
X134228809Y-71809523D02*
X134014523Y-72000000D01*
X134181190Y-72190476D01*
X134395476Y-72000000D01*
X134228809Y-71809523D01*
X134181190Y-72190476D01*
X135966904Y-73142857D02*
X135633571Y-75809523D01*
X135919285Y-73523809D02*
X136133571Y-73333333D01*
X136538333Y-73142857D01*
X137109761Y-73142857D01*
X137466904Y-73333333D01*
X137609761Y-73714285D01*
X137347857Y-75809523D01*
X139205000Y-73142857D02*
X139824047Y-75809523D01*
X141109761Y-73142857D02*
X139824047Y-75809523D01*
X139324047Y-76761904D01*
X139109761Y-76952380D01*
X138705000Y-77142857D01*
X142133571Y-75619047D02*
X142681190Y-75809523D01*
X143633571Y-75809523D01*
X144038333Y-75619047D01*
X144252619Y-75428571D01*
X144490714Y-75047619D01*
X144538333Y-74666666D01*
X144395476Y-74285714D01*
X144228809Y-74095238D01*
X143871666Y-73904761D01*
X143133571Y-73714285D01*
X142776428Y-73523809D01*
X142609761Y-73333333D01*
X142466904Y-72952380D01*
X142514523Y-72571428D01*
X142752619Y-72190476D01*
X142966904Y-72000000D01*
X143371666Y-71809523D01*
X144324047Y-71809523D01*
X144871666Y-72000000D01*
X146062142Y-73142857D02*
X146681190Y-75809523D01*
X147966904Y-73142857D02*
X146681190Y-75809523D01*
X146181190Y-76761904D01*
X145966904Y-76952380D01*
X145562142Y-77142857D01*
X149490714Y-73142857D02*
X149157380Y-75809523D01*
X149443095Y-73523809D02*
X149657380Y-73333333D01*
X150062142Y-73142857D01*
X150633571Y-73142857D01*
X150990714Y-73333333D01*
X151133571Y-73714285D01*
X150871666Y-75809523D01*
X152538333Y-73142857D02*
X154062142Y-73142857D01*
X153276428Y-71809523D02*
X152847857Y-75238095D01*
X152990714Y-75619047D01*
X153347857Y-75809523D01*
X153728809Y-75809523D01*
X155062142Y-75809523D02*
X155562142Y-71809523D01*
X156776428Y-75809523D02*
X157038333Y-73714285D01*
X156895476Y-73333333D01*
X156538333Y-73142857D01*
X155966904Y-73142857D01*
X155562142Y-73333333D01*
X155347857Y-73523809D01*
D11*
G36*
X170606381Y-108975048D02*
G01*
X170606385Y-108975048D01*
X177193856Y-109024953D01*
X177193861Y-109024953D01*
X177200000Y-109025000D01*
X177200000Y-112900626D01*
X177202402Y-112925012D01*
X177209515Y-112948461D01*
X177221066Y-112970072D01*
X177236611Y-112989014D01*
X177255553Y-113004559D01*
X177277164Y-113016110D01*
X177300613Y-113023223D01*
X177324999Y-113025625D01*
X177349385Y-113023223D01*
X177372834Y-113016110D01*
X177394445Y-113004559D01*
X177398824Y-113001311D01*
X177400000Y-113000682D01*
X177400000Y-113000000D01*
X180800000Y-113000000D01*
X180800000Y-124000000D01*
X174000000Y-124000000D01*
X174000000Y-117200000D01*
X174000682Y-117200000D01*
X174002921Y-117195813D01*
X174010864Y-117183925D01*
X174020242Y-117161286D01*
X174025023Y-117137253D01*
X174025023Y-117112749D01*
X174020243Y-117088715D01*
X174010866Y-117066076D01*
X173997253Y-117045702D01*
X173979926Y-117028375D01*
X173959552Y-117014761D01*
X173936913Y-117005383D01*
X173912880Y-117000602D01*
X173900626Y-117000000D01*
X173699374Y-117000000D01*
X173674988Y-117002402D01*
X173651539Y-117009515D01*
X173629928Y-117021066D01*
X173610986Y-117036611D01*
X173595441Y-117055553D01*
X173583890Y-117077164D01*
X173576777Y-117100613D01*
X173574375Y-117124999D01*
X173576777Y-117149385D01*
X173583890Y-117172834D01*
X173595441Y-117194445D01*
X173598689Y-117198824D01*
X173599318Y-117200000D01*
X173600000Y-117200000D01*
X173600000Y-124000000D01*
X166800000Y-124000000D01*
X166800000Y-117200000D01*
X166800682Y-117200000D01*
X166802921Y-117195813D01*
X166810864Y-117183925D01*
X166820242Y-117161286D01*
X166825023Y-117137253D01*
X166825023Y-117112749D01*
X166820243Y-117088715D01*
X166810866Y-117066076D01*
X166797253Y-117045702D01*
X166779926Y-117028375D01*
X166759552Y-117014761D01*
X166736913Y-117005383D01*
X166712880Y-117000602D01*
X166700626Y-117000000D01*
X166499374Y-117000000D01*
X166474988Y-117002402D01*
X166451539Y-117009515D01*
X166429928Y-117021066D01*
X166410986Y-117036611D01*
X166395441Y-117055553D01*
X166383890Y-117077164D01*
X166376777Y-117100613D01*
X166374375Y-117124999D01*
X166376777Y-117149385D01*
X166383890Y-117172834D01*
X166395441Y-117194445D01*
X166398689Y-117198824D01*
X166399318Y-117200000D01*
X166400000Y-117200000D01*
X166400000Y-124000000D01*
X159600000Y-124000000D01*
X159600000Y-117200000D01*
X159600682Y-117200000D01*
X159602921Y-117195813D01*
X159610864Y-117183925D01*
X159620242Y-117161286D01*
X159625023Y-117137253D01*
X159625023Y-117112749D01*
X159620243Y-117088715D01*
X159610866Y-117066076D01*
X159597253Y-117045702D01*
X159579926Y-117028375D01*
X159559552Y-117014761D01*
X159536913Y-117005383D01*
X159512880Y-117000602D01*
X159500626Y-117000000D01*
X159299374Y-117000000D01*
X159274988Y-117002402D01*
X159251539Y-117009515D01*
X159229928Y-117021066D01*
X159210986Y-117036611D01*
X159195441Y-117055553D01*
X159183890Y-117077164D01*
X159176777Y-117100613D01*
X159174375Y-117124999D01*
X159176777Y-117149385D01*
X159183890Y-117172834D01*
X159195441Y-117194445D01*
X159198689Y-117198824D01*
X159199318Y-117200000D01*
X159200000Y-117200000D01*
X159200000Y-124000000D01*
X152400000Y-124000000D01*
X152400000Y-113000000D01*
X155800000Y-113000000D01*
X155800000Y-113000682D01*
X155804187Y-113002921D01*
X155816075Y-113010864D01*
X155838714Y-113020242D01*
X155862747Y-113025023D01*
X155887251Y-113025023D01*
X155911285Y-113020243D01*
X155933924Y-113010866D01*
X155954298Y-112997253D01*
X155971625Y-112979926D01*
X155985239Y-112959552D01*
X155994617Y-112936913D01*
X155999398Y-112912880D01*
X156000000Y-112900626D01*
X156000000Y-109000000D01*
X162600000Y-109000000D01*
X162600000Y-115498225D01*
X162602402Y-115522611D01*
X162609515Y-115546060D01*
X162621066Y-115567671D01*
X162636611Y-115586613D01*
X162655553Y-115602158D01*
X162677164Y-115613709D01*
X162700613Y-115620822D01*
X162724999Y-115623224D01*
X162749385Y-115620822D01*
X162772834Y-115613709D01*
X162794445Y-115602158D01*
X162813387Y-115586613D01*
X162900000Y-115500000D01*
X163100000Y-115500000D01*
X163186613Y-115586613D01*
X163205555Y-115602158D01*
X163227166Y-115613709D01*
X163250615Y-115620822D01*
X163275001Y-115623224D01*
X163299387Y-115620822D01*
X163322836Y-115613709D01*
X163344447Y-115602158D01*
X163363389Y-115586613D01*
X163378934Y-115567671D01*
X163390485Y-115546060D01*
X163397598Y-115522611D01*
X163400000Y-115498225D01*
X163400000Y-109000000D01*
X169800000Y-109000000D01*
X169800000Y-115498225D01*
X169802402Y-115522611D01*
X169809515Y-115546060D01*
X169821066Y-115567671D01*
X169836611Y-115586613D01*
X169855553Y-115602158D01*
X169877164Y-115613709D01*
X169900613Y-115620822D01*
X169924999Y-115623224D01*
X169949385Y-115620822D01*
X169972834Y-115613709D01*
X169994445Y-115602158D01*
X170013387Y-115586613D01*
X170100000Y-115500000D01*
X170300000Y-115500000D01*
X170386613Y-115586613D01*
X170405555Y-115602158D01*
X170427166Y-115613709D01*
X170450615Y-115620822D01*
X170475001Y-115623224D01*
X170499387Y-115620822D01*
X170522836Y-115613709D01*
X170544447Y-115602158D01*
X170563389Y-115586613D01*
X170578934Y-115567671D01*
X170590485Y-115546060D01*
X170597598Y-115522611D01*
X170600000Y-115498225D01*
X170600000Y-108975000D01*
X170606381Y-108975048D01*
X170606381Y-108975048D01*
G37*
G36*
X120206381Y-108975048D02*
G01*
X120206385Y-108975048D01*
X126793856Y-109024953D01*
X126793861Y-109024953D01*
X126800000Y-109025000D01*
X126800000Y-112900626D01*
X126802402Y-112925012D01*
X126809515Y-112948461D01*
X126821066Y-112970072D01*
X126836611Y-112989014D01*
X126855553Y-113004559D01*
X126877164Y-113016110D01*
X126900613Y-113023223D01*
X126924999Y-113025625D01*
X126949385Y-113023223D01*
X126972834Y-113016110D01*
X126994445Y-113004559D01*
X126998824Y-113001311D01*
X127000000Y-113000682D01*
X127000000Y-113000000D01*
X130400000Y-113000000D01*
X130400000Y-124000000D01*
X123600000Y-124000000D01*
X123600000Y-117200000D01*
X123600682Y-117200000D01*
X123602921Y-117195813D01*
X123610864Y-117183925D01*
X123620242Y-117161286D01*
X123625023Y-117137253D01*
X123625023Y-117112749D01*
X123620243Y-117088715D01*
X123610866Y-117066076D01*
X123597253Y-117045702D01*
X123579926Y-117028375D01*
X123559552Y-117014761D01*
X123536913Y-117005383D01*
X123512880Y-117000602D01*
X123500626Y-117000000D01*
X123299374Y-117000000D01*
X123274988Y-117002402D01*
X123251539Y-117009515D01*
X123229928Y-117021066D01*
X123210986Y-117036611D01*
X123195441Y-117055553D01*
X123183890Y-117077164D01*
X123176777Y-117100613D01*
X123174375Y-117124999D01*
X123176777Y-117149385D01*
X123183890Y-117172834D01*
X123195441Y-117194445D01*
X123198689Y-117198824D01*
X123199318Y-117200000D01*
X123200000Y-117200000D01*
X123200000Y-124000000D01*
X116400000Y-124000000D01*
X116400000Y-117200000D01*
X116400682Y-117200000D01*
X116402921Y-117195813D01*
X116410864Y-117183925D01*
X116420242Y-117161286D01*
X116425023Y-117137253D01*
X116425023Y-117112749D01*
X116420243Y-117088715D01*
X116410866Y-117066076D01*
X116397253Y-117045702D01*
X116379926Y-117028375D01*
X116359552Y-117014761D01*
X116336913Y-117005383D01*
X116312880Y-117000602D01*
X116300626Y-117000000D01*
X116099374Y-117000000D01*
X116074988Y-117002402D01*
X116051539Y-117009515D01*
X116029928Y-117021066D01*
X116010986Y-117036611D01*
X115995441Y-117055553D01*
X115983890Y-117077164D01*
X115976777Y-117100613D01*
X115974375Y-117124999D01*
X115976777Y-117149385D01*
X115983890Y-117172834D01*
X115995441Y-117194445D01*
X115998689Y-117198824D01*
X115999318Y-117200000D01*
X116000000Y-117200000D01*
X116000000Y-124000000D01*
X109200000Y-124000000D01*
X109200000Y-117200000D01*
X109200682Y-117200000D01*
X109202921Y-117195813D01*
X109210864Y-117183925D01*
X109220242Y-117161286D01*
X109225023Y-117137253D01*
X109225023Y-117112749D01*
X109220243Y-117088715D01*
X109210866Y-117066076D01*
X109197253Y-117045702D01*
X109179926Y-117028375D01*
X109159552Y-117014761D01*
X109136913Y-117005383D01*
X109112880Y-117000602D01*
X109100626Y-117000000D01*
X108899374Y-117000000D01*
X108874988Y-117002402D01*
X108851539Y-117009515D01*
X108829928Y-117021066D01*
X108810986Y-117036611D01*
X108795441Y-117055553D01*
X108783890Y-117077164D01*
X108776777Y-117100613D01*
X108774375Y-117124999D01*
X108776777Y-117149385D01*
X108783890Y-117172834D01*
X108795441Y-117194445D01*
X108798689Y-117198824D01*
X108799318Y-117200000D01*
X108800000Y-117200000D01*
X108800000Y-124000000D01*
X102000000Y-124000000D01*
X102000000Y-113000000D01*
X105400000Y-113000000D01*
X105400000Y-113000682D01*
X105404187Y-113002921D01*
X105416075Y-113010864D01*
X105438714Y-113020242D01*
X105462747Y-113025023D01*
X105487251Y-113025023D01*
X105511285Y-113020243D01*
X105533924Y-113010866D01*
X105554298Y-112997253D01*
X105571625Y-112979926D01*
X105585239Y-112959552D01*
X105594617Y-112936913D01*
X105599398Y-112912880D01*
X105600000Y-112900626D01*
X105600000Y-109000000D01*
X112200000Y-109000000D01*
X112200000Y-115498225D01*
X112202402Y-115522611D01*
X112209515Y-115546060D01*
X112221066Y-115567671D01*
X112236611Y-115586613D01*
X112255553Y-115602158D01*
X112277164Y-115613709D01*
X112300613Y-115620822D01*
X112324999Y-115623224D01*
X112349385Y-115620822D01*
X112372834Y-115613709D01*
X112394445Y-115602158D01*
X112413387Y-115586613D01*
X112500000Y-115500000D01*
X112700000Y-115500000D01*
X112786613Y-115586613D01*
X112805555Y-115602158D01*
X112827166Y-115613709D01*
X112850615Y-115620822D01*
X112875001Y-115623224D01*
X112899387Y-115620822D01*
X112922836Y-115613709D01*
X112944447Y-115602158D01*
X112963389Y-115586613D01*
X112978934Y-115567671D01*
X112990485Y-115546060D01*
X112997598Y-115522611D01*
X113000000Y-115498225D01*
X113000000Y-109000000D01*
X119400000Y-109000000D01*
X119400000Y-115498225D01*
X119402402Y-115522611D01*
X119409515Y-115546060D01*
X119421066Y-115567671D01*
X119436611Y-115586613D01*
X119455553Y-115602158D01*
X119477164Y-115613709D01*
X119500613Y-115620822D01*
X119524999Y-115623224D01*
X119549385Y-115620822D01*
X119572834Y-115613709D01*
X119594445Y-115602158D01*
X119613387Y-115586613D01*
X119700000Y-115500000D01*
X119900000Y-115500000D01*
X119986613Y-115586613D01*
X120005555Y-115602158D01*
X120027166Y-115613709D01*
X120050615Y-115620822D01*
X120075001Y-115623224D01*
X120099387Y-115620822D01*
X120122836Y-115613709D01*
X120144447Y-115602158D01*
X120163389Y-115586613D01*
X120178934Y-115567671D01*
X120190485Y-115546060D01*
X120197598Y-115522611D01*
X120200000Y-115498225D01*
X120200000Y-108975000D01*
X120206381Y-108975048D01*
X120206381Y-108975048D01*
G37*
G36*
X188000000Y-124000000D02*
G01*
X181200000Y-124000000D01*
X181200000Y-113000000D01*
X188000000Y-113000000D01*
X188000000Y-124000000D01*
X188000000Y-124000000D01*
G37*
G36*
X141000000Y-115498225D02*
G01*
X141002402Y-115522611D01*
X141009515Y-115546060D01*
X141021066Y-115567671D01*
X141036611Y-115586613D01*
X141055553Y-115602158D01*
X141077164Y-115613709D01*
X141100613Y-115620822D01*
X141124999Y-115623224D01*
X141149385Y-115620822D01*
X141172834Y-115613709D01*
X141194445Y-115602158D01*
X141213387Y-115586613D01*
X141300000Y-115500000D01*
X141500000Y-115500000D01*
X141586613Y-115586613D01*
X141605555Y-115602158D01*
X141627166Y-115613709D01*
X141650615Y-115620822D01*
X141675001Y-115623224D01*
X141699387Y-115620822D01*
X141722836Y-115613709D01*
X141744447Y-115602158D01*
X141763389Y-115586613D01*
X141778934Y-115567671D01*
X141790485Y-115546060D01*
X141797598Y-115522611D01*
X141800000Y-115498225D01*
X141800000Y-109000000D01*
X148400000Y-109000000D01*
X148400000Y-112900626D01*
X148402402Y-112925012D01*
X148409515Y-112948461D01*
X148421066Y-112970072D01*
X148436611Y-112989014D01*
X148455553Y-113004559D01*
X148477164Y-113016110D01*
X148500613Y-113023223D01*
X148524999Y-113025625D01*
X148549385Y-113023223D01*
X148572834Y-113016110D01*
X148594445Y-113004559D01*
X148598824Y-113001311D01*
X148600000Y-113000682D01*
X148600000Y-113000000D01*
X152000000Y-113000000D01*
X152000000Y-124000000D01*
X145200000Y-124000000D01*
X145200000Y-117200000D01*
X145200682Y-117200000D01*
X145202921Y-117195813D01*
X145210864Y-117183925D01*
X145220242Y-117161286D01*
X145225023Y-117137253D01*
X145225023Y-117112749D01*
X145220243Y-117088715D01*
X145210866Y-117066076D01*
X145197253Y-117045702D01*
X145179926Y-117028375D01*
X145159552Y-117014761D01*
X145136913Y-117005383D01*
X145112880Y-117000602D01*
X145100626Y-117000000D01*
X144899374Y-117000000D01*
X144874988Y-117002402D01*
X144851539Y-117009515D01*
X144829928Y-117021066D01*
X144810986Y-117036611D01*
X144795441Y-117055553D01*
X144783890Y-117077164D01*
X144776777Y-117100613D01*
X144774375Y-117124999D01*
X144776777Y-117149385D01*
X144783890Y-117172834D01*
X144795441Y-117194445D01*
X144798689Y-117198824D01*
X144799318Y-117200000D01*
X144800000Y-117200000D01*
X144800000Y-124000000D01*
X138000000Y-124000000D01*
X138000000Y-117200000D01*
X138000682Y-117200000D01*
X138002921Y-117195813D01*
X138010864Y-117183925D01*
X138020242Y-117161286D01*
X138025023Y-117137253D01*
X138025023Y-117112749D01*
X138020243Y-117088715D01*
X138010866Y-117066076D01*
X137997253Y-117045702D01*
X137979926Y-117028375D01*
X137959552Y-117014761D01*
X137936913Y-117005383D01*
X137912880Y-117000602D01*
X137900626Y-117000000D01*
X137699374Y-117000000D01*
X137674988Y-117002402D01*
X137651539Y-117009515D01*
X137629928Y-117021066D01*
X137610986Y-117036611D01*
X137595441Y-117055553D01*
X137583890Y-117077164D01*
X137576777Y-117100613D01*
X137574375Y-117124999D01*
X137576777Y-117149385D01*
X137583890Y-117172834D01*
X137595441Y-117194445D01*
X137598689Y-117198824D01*
X137599318Y-117200000D01*
X137600000Y-117200000D01*
X137600000Y-124000000D01*
X130800000Y-124000000D01*
X130800000Y-113000000D01*
X134200000Y-113000000D01*
X134200000Y-113000682D01*
X134204187Y-113002921D01*
X134216075Y-113010864D01*
X134238714Y-113020242D01*
X134262747Y-113025023D01*
X134287251Y-113025023D01*
X134311285Y-113020243D01*
X134333924Y-113010866D01*
X134354298Y-112997253D01*
X134371625Y-112979926D01*
X134385239Y-112959552D01*
X134394617Y-112936913D01*
X134399398Y-112912880D01*
X134400000Y-112900626D01*
X134400000Y-109000000D01*
X141000000Y-109000000D01*
X141000000Y-115498225D01*
X141000000Y-115498225D01*
G37*
G36*
X196000000Y-121000000D02*
G01*
X195000000Y-123000000D01*
X192000000Y-123000000D01*
X191000000Y-121000000D01*
X191000000Y-119000000D01*
X196000000Y-119000000D01*
X196000000Y-121000000D01*
X196000000Y-121000000D01*
G37*
G36*
X190587797Y-113710567D02*
G01*
X190642575Y-113733257D01*
X190642577Y-113733258D01*
X190691876Y-113766198D01*
X190733802Y-113808124D01*
X190766742Y-113857423D01*
X190766743Y-113857425D01*
X190789433Y-113912203D01*
X190801000Y-113970353D01*
X190801000Y-114029647D01*
X190789433Y-114087797D01*
X190766743Y-114142575D01*
X190766742Y-114142577D01*
X190733802Y-114191876D01*
X190691876Y-114233802D01*
X190642577Y-114266742D01*
X190642576Y-114266743D01*
X190642575Y-114266743D01*
X190587797Y-114289433D01*
X190529647Y-114301000D01*
X190470353Y-114301000D01*
X190412203Y-114289433D01*
X190357425Y-114266743D01*
X190357424Y-114266743D01*
X190357423Y-114266742D01*
X190308124Y-114233802D01*
X190266198Y-114191876D01*
X190233258Y-114142577D01*
X190233257Y-114142575D01*
X190210567Y-114087797D01*
X190199000Y-114029647D01*
X190199000Y-113970353D01*
X190210567Y-113912203D01*
X190233257Y-113857425D01*
X190233258Y-113857423D01*
X190266198Y-113808124D01*
X190308124Y-113766198D01*
X190357423Y-113733258D01*
X190357425Y-113733257D01*
X190412203Y-113710567D01*
X190470353Y-113699000D01*
X190529647Y-113699000D01*
X190587797Y-113710567D01*
X190587797Y-113710567D01*
G37*
G36*
X190587797Y-112710567D02*
G01*
X190642575Y-112733257D01*
X190642577Y-112733258D01*
X190691876Y-112766198D01*
X190733802Y-112808124D01*
X190766742Y-112857423D01*
X190766743Y-112857425D01*
X190789433Y-112912203D01*
X190801000Y-112970353D01*
X190801000Y-113029647D01*
X190789433Y-113087797D01*
X190766743Y-113142575D01*
X190766742Y-113142577D01*
X190733802Y-113191876D01*
X190691876Y-113233802D01*
X190642577Y-113266742D01*
X190642576Y-113266743D01*
X190642575Y-113266743D01*
X190587797Y-113289433D01*
X190529647Y-113301000D01*
X190470353Y-113301000D01*
X190412203Y-113289433D01*
X190357425Y-113266743D01*
X190357424Y-113266743D01*
X190357423Y-113266742D01*
X190308124Y-113233802D01*
X190266198Y-113191876D01*
X190233258Y-113142577D01*
X190233257Y-113142575D01*
X190210567Y-113087797D01*
X190199000Y-113029647D01*
X190199000Y-112970353D01*
X190210567Y-112912203D01*
X190233257Y-112857425D01*
X190233258Y-112857423D01*
X190266198Y-112808124D01*
X190308124Y-112766198D01*
X190357423Y-112733258D01*
X190357425Y-112733257D01*
X190412203Y-112710567D01*
X190470353Y-112699000D01*
X190529647Y-112699000D01*
X190587797Y-112710567D01*
X190587797Y-112710567D01*
G37*
G36*
X190587797Y-111710567D02*
G01*
X190642575Y-111733257D01*
X190642577Y-111733258D01*
X190691876Y-111766198D01*
X190733802Y-111808124D01*
X190766742Y-111857423D01*
X190766743Y-111857425D01*
X190789433Y-111912203D01*
X190801000Y-111970353D01*
X190801000Y-112029647D01*
X190789433Y-112087797D01*
X190766743Y-112142575D01*
X190766742Y-112142577D01*
X190733802Y-112191876D01*
X190691876Y-112233802D01*
X190642577Y-112266742D01*
X190642576Y-112266743D01*
X190642575Y-112266743D01*
X190587797Y-112289433D01*
X190529647Y-112301000D01*
X190470353Y-112301000D01*
X190412203Y-112289433D01*
X190357425Y-112266743D01*
X190357424Y-112266743D01*
X190357423Y-112266742D01*
X190308124Y-112233802D01*
X190266198Y-112191876D01*
X190233258Y-112142577D01*
X190233257Y-112142575D01*
X190210567Y-112087797D01*
X190199000Y-112029647D01*
X190199000Y-111970353D01*
X190210567Y-111912203D01*
X190233257Y-111857425D01*
X190233258Y-111857423D01*
X190266198Y-111808124D01*
X190308124Y-111766198D01*
X190357423Y-111733258D01*
X190357425Y-111733257D01*
X190412203Y-111710567D01*
X190470353Y-111699000D01*
X190529647Y-111699000D01*
X190587797Y-111710567D01*
X190587797Y-111710567D01*
G37*
G36*
X179129591Y-110303085D02*
G01*
X179163569Y-110313393D01*
X179194890Y-110330134D01*
X179222339Y-110352661D01*
X179244866Y-110380110D01*
X179261607Y-110411431D01*
X179271915Y-110445409D01*
X179276000Y-110486890D01*
X179276000Y-111088110D01*
X179271915Y-111129591D01*
X179261607Y-111163569D01*
X179244866Y-111194890D01*
X179222339Y-111222339D01*
X179194890Y-111244866D01*
X179163569Y-111261607D01*
X179129591Y-111271915D01*
X179088110Y-111276000D01*
X178411890Y-111276000D01*
X178370409Y-111271915D01*
X178336431Y-111261607D01*
X178305110Y-111244866D01*
X178277661Y-111222339D01*
X178255134Y-111194890D01*
X178238393Y-111163569D01*
X178228085Y-111129591D01*
X178224000Y-111088110D01*
X178224000Y-110486890D01*
X178228085Y-110445409D01*
X178238393Y-110411431D01*
X178255134Y-110380110D01*
X178277661Y-110352661D01*
X178305110Y-110330134D01*
X178336431Y-110313393D01*
X178370409Y-110303085D01*
X178411890Y-110299000D01*
X179088110Y-110299000D01*
X179129591Y-110303085D01*
X179129591Y-110303085D01*
G37*
G36*
X179129591Y-108728085D02*
G01*
X179163569Y-108738393D01*
X179194890Y-108755134D01*
X179222339Y-108777661D01*
X179244866Y-108805110D01*
X179261607Y-108836431D01*
X179271915Y-108870409D01*
X179276000Y-108911890D01*
X179276000Y-109513110D01*
X179271915Y-109554591D01*
X179261607Y-109588569D01*
X179244866Y-109619890D01*
X179222339Y-109647339D01*
X179194890Y-109669866D01*
X179163569Y-109686607D01*
X179129591Y-109696915D01*
X179088110Y-109701000D01*
X178411890Y-109701000D01*
X178370409Y-109696915D01*
X178336431Y-109686607D01*
X178305110Y-109669866D01*
X178277661Y-109647339D01*
X178255134Y-109619890D01*
X178238393Y-109588569D01*
X178228085Y-109554591D01*
X178224000Y-109513110D01*
X178224000Y-108911890D01*
X178228085Y-108870409D01*
X178238393Y-108836431D01*
X178255134Y-108805110D01*
X178277661Y-108777661D01*
X178305110Y-108755134D01*
X178336431Y-108738393D01*
X178370409Y-108728085D01*
X178411890Y-108724000D01*
X179088110Y-108724000D01*
X179129591Y-108728085D01*
X179129591Y-108728085D01*
G37*
G36*
X114576959Y-106878085D02*
G01*
X114610937Y-106888393D01*
X114642258Y-106905134D01*
X114669707Y-106927661D01*
X114692234Y-106955110D01*
X114708975Y-106986431D01*
X114719283Y-107020409D01*
X114723368Y-107061890D01*
X114723368Y-107738110D01*
X114719283Y-107779591D01*
X114708975Y-107813569D01*
X114692234Y-107844890D01*
X114669707Y-107872339D01*
X114642258Y-107894866D01*
X114610937Y-107911607D01*
X114576959Y-107921915D01*
X114535478Y-107926000D01*
X113934258Y-107926000D01*
X113892777Y-107921915D01*
X113858799Y-107911607D01*
X113827478Y-107894866D01*
X113800029Y-107872339D01*
X113777502Y-107844890D01*
X113760761Y-107813569D01*
X113750453Y-107779591D01*
X113746368Y-107738110D01*
X113746368Y-107061890D01*
X113750453Y-107020409D01*
X113760761Y-106986431D01*
X113777502Y-106955110D01*
X113800029Y-106927661D01*
X113827478Y-106905134D01*
X113858799Y-106888393D01*
X113892777Y-106878085D01*
X113934258Y-106874000D01*
X114535478Y-106874000D01*
X114576959Y-106878085D01*
X114576959Y-106878085D01*
G37*
G36*
X110603275Y-106878085D02*
G01*
X110637253Y-106888393D01*
X110668574Y-106905134D01*
X110696023Y-106927661D01*
X110718550Y-106955110D01*
X110735291Y-106986431D01*
X110745599Y-107020409D01*
X110749684Y-107061890D01*
X110749684Y-107738110D01*
X110745599Y-107779591D01*
X110735291Y-107813569D01*
X110718550Y-107844890D01*
X110696023Y-107872339D01*
X110668574Y-107894866D01*
X110637253Y-107911607D01*
X110603275Y-107921915D01*
X110561794Y-107926000D01*
X109960574Y-107926000D01*
X109919093Y-107921915D01*
X109885115Y-107911607D01*
X109853794Y-107894866D01*
X109826345Y-107872339D01*
X109803818Y-107844890D01*
X109787077Y-107813569D01*
X109776769Y-107779591D01*
X109772684Y-107738110D01*
X109772684Y-107061890D01*
X109776769Y-107020409D01*
X109787077Y-106986431D01*
X109803818Y-106955110D01*
X109826345Y-106927661D01*
X109853794Y-106905134D01*
X109885115Y-106888393D01*
X109919093Y-106878085D01*
X109960574Y-106874000D01*
X110561794Y-106874000D01*
X110603275Y-106878085D01*
X110603275Y-106878085D01*
G37*
G36*
X109028275Y-106878085D02*
G01*
X109062253Y-106888393D01*
X109093574Y-106905134D01*
X109121023Y-106927661D01*
X109143550Y-106955110D01*
X109160291Y-106986431D01*
X109170599Y-107020409D01*
X109174684Y-107061890D01*
X109174684Y-107738110D01*
X109170599Y-107779591D01*
X109160291Y-107813569D01*
X109143550Y-107844890D01*
X109121023Y-107872339D01*
X109093574Y-107894866D01*
X109062253Y-107911607D01*
X109028275Y-107921915D01*
X108986794Y-107926000D01*
X108385574Y-107926000D01*
X108344093Y-107921915D01*
X108310115Y-107911607D01*
X108278794Y-107894866D01*
X108251345Y-107872339D01*
X108228818Y-107844890D01*
X108212077Y-107813569D01*
X108201769Y-107779591D01*
X108197684Y-107738110D01*
X108197684Y-107061890D01*
X108201769Y-107020409D01*
X108212077Y-106986431D01*
X108228818Y-106955110D01*
X108251345Y-106927661D01*
X108278794Y-106905134D01*
X108310115Y-106888393D01*
X108344093Y-106878085D01*
X108385574Y-106874000D01*
X108986794Y-106874000D01*
X109028275Y-106878085D01*
X109028275Y-106878085D01*
G37*
G36*
X106629591Y-106878085D02*
G01*
X106663569Y-106888393D01*
X106694890Y-106905134D01*
X106722339Y-106927661D01*
X106744866Y-106955110D01*
X106761607Y-106986431D01*
X106771915Y-107020409D01*
X106776000Y-107061890D01*
X106776000Y-107738110D01*
X106771915Y-107779591D01*
X106761607Y-107813569D01*
X106744866Y-107844890D01*
X106722339Y-107872339D01*
X106694890Y-107894866D01*
X106663569Y-107911607D01*
X106629591Y-107921915D01*
X106588110Y-107926000D01*
X105986890Y-107926000D01*
X105945409Y-107921915D01*
X105911431Y-107911607D01*
X105880110Y-107894866D01*
X105852661Y-107872339D01*
X105830134Y-107844890D01*
X105813393Y-107813569D01*
X105803085Y-107779591D01*
X105799000Y-107738110D01*
X105799000Y-107061890D01*
X105803085Y-107020409D01*
X105813393Y-106986431D01*
X105830134Y-106955110D01*
X105852661Y-106927661D01*
X105880110Y-106905134D01*
X105911431Y-106888393D01*
X105945409Y-106878085D01*
X105986890Y-106874000D01*
X106588110Y-106874000D01*
X106629591Y-106878085D01*
X106629591Y-106878085D01*
G37*
G36*
X105054591Y-106878085D02*
G01*
X105088569Y-106888393D01*
X105119890Y-106905134D01*
X105147339Y-106927661D01*
X105169866Y-106955110D01*
X105186607Y-106986431D01*
X105196915Y-107020409D01*
X105201000Y-107061890D01*
X105201000Y-107738110D01*
X105196915Y-107779591D01*
X105186607Y-107813569D01*
X105169866Y-107844890D01*
X105147339Y-107872339D01*
X105119890Y-107894866D01*
X105088569Y-107911607D01*
X105054591Y-107921915D01*
X105013110Y-107926000D01*
X104411890Y-107926000D01*
X104370409Y-107921915D01*
X104336431Y-107911607D01*
X104305110Y-107894866D01*
X104277661Y-107872339D01*
X104255134Y-107844890D01*
X104238393Y-107813569D01*
X104228085Y-107779591D01*
X104224000Y-107738110D01*
X104224000Y-107061890D01*
X104228085Y-107020409D01*
X104238393Y-106986431D01*
X104255134Y-106955110D01*
X104277661Y-106927661D01*
X104305110Y-106905134D01*
X104336431Y-106888393D01*
X104370409Y-106878085D01*
X104411890Y-106874000D01*
X105013110Y-106874000D01*
X105054591Y-106878085D01*
X105054591Y-106878085D01*
G37*
G36*
X152738799Y-106878085D02*
G01*
X152772777Y-106888393D01*
X152804098Y-106905134D01*
X152831547Y-106927661D01*
X152854074Y-106955110D01*
X152870815Y-106986431D01*
X152881123Y-107020409D01*
X152885208Y-107061890D01*
X152885208Y-107738110D01*
X152881123Y-107779591D01*
X152870815Y-107813569D01*
X152854074Y-107844890D01*
X152831547Y-107872339D01*
X152804098Y-107894866D01*
X152772777Y-107911607D01*
X152738799Y-107921915D01*
X152697318Y-107926000D01*
X152096098Y-107926000D01*
X152054617Y-107921915D01*
X152020639Y-107911607D01*
X151989318Y-107894866D01*
X151961869Y-107872339D01*
X151939342Y-107844890D01*
X151922601Y-107813569D01*
X151912293Y-107779591D01*
X151908208Y-107738110D01*
X151908208Y-107061890D01*
X151912293Y-107020409D01*
X151922601Y-106986431D01*
X151939342Y-106955110D01*
X151961869Y-106927661D01*
X151989318Y-106905134D01*
X152020639Y-106888393D01*
X152054617Y-106878085D01*
X152096098Y-106874000D01*
X152697318Y-106874000D01*
X152738799Y-106878085D01*
X152738799Y-106878085D01*
G37*
G36*
X178155903Y-106878085D02*
G01*
X178189881Y-106888393D01*
X178221202Y-106905134D01*
X178248651Y-106927661D01*
X178271178Y-106955110D01*
X178287919Y-106986431D01*
X178298227Y-107020409D01*
X178302312Y-107061890D01*
X178302312Y-107738110D01*
X178298227Y-107779591D01*
X178287919Y-107813569D01*
X178271178Y-107844890D01*
X178248651Y-107872339D01*
X178221202Y-107894866D01*
X178189881Y-107911607D01*
X178155903Y-107921915D01*
X178114422Y-107926000D01*
X177513202Y-107926000D01*
X177471721Y-107921915D01*
X177437743Y-107911607D01*
X177406422Y-107894866D01*
X177378973Y-107872339D01*
X177356446Y-107844890D01*
X177339705Y-107813569D01*
X177329397Y-107779591D01*
X177325312Y-107738110D01*
X177325312Y-107061890D01*
X177329397Y-107020409D01*
X177339705Y-106986431D01*
X177356446Y-106955110D01*
X177378973Y-106927661D01*
X177406422Y-106905134D01*
X177437743Y-106888393D01*
X177471721Y-106878085D01*
X177513202Y-106874000D01*
X178114422Y-106874000D01*
X178155903Y-106878085D01*
X178155903Y-106878085D01*
G37*
G36*
X176580903Y-106878085D02*
G01*
X176614881Y-106888393D01*
X176646202Y-106905134D01*
X176673651Y-106927661D01*
X176696178Y-106955110D01*
X176712919Y-106986431D01*
X176723227Y-107020409D01*
X176727312Y-107061890D01*
X176727312Y-107738110D01*
X176723227Y-107779591D01*
X176712919Y-107813569D01*
X176696178Y-107844890D01*
X176673651Y-107872339D01*
X176646202Y-107894866D01*
X176614881Y-107911607D01*
X176580903Y-107921915D01*
X176539422Y-107926000D01*
X175938202Y-107926000D01*
X175896721Y-107921915D01*
X175862743Y-107911607D01*
X175831422Y-107894866D01*
X175803973Y-107872339D01*
X175781446Y-107844890D01*
X175764705Y-107813569D01*
X175754397Y-107779591D01*
X175750312Y-107738110D01*
X175750312Y-107061890D01*
X175754397Y-107020409D01*
X175764705Y-106986431D01*
X175781446Y-106955110D01*
X175803973Y-106927661D01*
X175831422Y-106905134D01*
X175862743Y-106888393D01*
X175896721Y-106878085D01*
X175938202Y-106874000D01*
X176539422Y-106874000D01*
X176580903Y-106878085D01*
X176580903Y-106878085D01*
G37*
G36*
X174182219Y-106878085D02*
G01*
X174216197Y-106888393D01*
X174247518Y-106905134D01*
X174274967Y-106927661D01*
X174297494Y-106955110D01*
X174314235Y-106986431D01*
X174324543Y-107020409D01*
X174328628Y-107061890D01*
X174328628Y-107738110D01*
X174324543Y-107779591D01*
X174314235Y-107813569D01*
X174297494Y-107844890D01*
X174274967Y-107872339D01*
X174247518Y-107894866D01*
X174216197Y-107911607D01*
X174182219Y-107921915D01*
X174140738Y-107926000D01*
X173539518Y-107926000D01*
X173498037Y-107921915D01*
X173464059Y-107911607D01*
X173432738Y-107894866D01*
X173405289Y-107872339D01*
X173382762Y-107844890D01*
X173366021Y-107813569D01*
X173355713Y-107779591D01*
X173351628Y-107738110D01*
X173351628Y-107061890D01*
X173355713Y-107020409D01*
X173366021Y-106986431D01*
X173382762Y-106955110D01*
X173405289Y-106927661D01*
X173432738Y-106905134D01*
X173464059Y-106888393D01*
X173498037Y-106878085D01*
X173539518Y-106874000D01*
X174140738Y-106874000D01*
X174182219Y-106878085D01*
X174182219Y-106878085D01*
G37*
G36*
X172607219Y-106878085D02*
G01*
X172641197Y-106888393D01*
X172672518Y-106905134D01*
X172699967Y-106927661D01*
X172722494Y-106955110D01*
X172739235Y-106986431D01*
X172749543Y-107020409D01*
X172753628Y-107061890D01*
X172753628Y-107738110D01*
X172749543Y-107779591D01*
X172739235Y-107813569D01*
X172722494Y-107844890D01*
X172699967Y-107872339D01*
X172672518Y-107894866D01*
X172641197Y-107911607D01*
X172607219Y-107921915D01*
X172565738Y-107926000D01*
X171964518Y-107926000D01*
X171923037Y-107921915D01*
X171889059Y-107911607D01*
X171857738Y-107894866D01*
X171830289Y-107872339D01*
X171807762Y-107844890D01*
X171791021Y-107813569D01*
X171780713Y-107779591D01*
X171776628Y-107738110D01*
X171776628Y-107061890D01*
X171780713Y-107020409D01*
X171791021Y-106986431D01*
X171807762Y-106955110D01*
X171830289Y-106927661D01*
X171857738Y-106905134D01*
X171889059Y-106888393D01*
X171923037Y-106878085D01*
X171964518Y-106874000D01*
X172565738Y-106874000D01*
X172607219Y-106878085D01*
X172607219Y-106878085D01*
G37*
G36*
X170208535Y-106878085D02*
G01*
X170242513Y-106888393D01*
X170273834Y-106905134D01*
X170301283Y-106927661D01*
X170323810Y-106955110D01*
X170340551Y-106986431D01*
X170350859Y-107020409D01*
X170354944Y-107061890D01*
X170354944Y-107738110D01*
X170350859Y-107779591D01*
X170340551Y-107813569D01*
X170323810Y-107844890D01*
X170301283Y-107872339D01*
X170273834Y-107894866D01*
X170242513Y-107911607D01*
X170208535Y-107921915D01*
X170167054Y-107926000D01*
X169565834Y-107926000D01*
X169524353Y-107921915D01*
X169490375Y-107911607D01*
X169459054Y-107894866D01*
X169431605Y-107872339D01*
X169409078Y-107844890D01*
X169392337Y-107813569D01*
X169382029Y-107779591D01*
X169377944Y-107738110D01*
X169377944Y-107061890D01*
X169382029Y-107020409D01*
X169392337Y-106986431D01*
X169409078Y-106955110D01*
X169431605Y-106927661D01*
X169459054Y-106905134D01*
X169490375Y-106888393D01*
X169524353Y-106878085D01*
X169565834Y-106874000D01*
X170167054Y-106874000D01*
X170208535Y-106878085D01*
X170208535Y-106878085D01*
G37*
G36*
X168633535Y-106878085D02*
G01*
X168667513Y-106888393D01*
X168698834Y-106905134D01*
X168726283Y-106927661D01*
X168748810Y-106955110D01*
X168765551Y-106986431D01*
X168775859Y-107020409D01*
X168779944Y-107061890D01*
X168779944Y-107738110D01*
X168775859Y-107779591D01*
X168765551Y-107813569D01*
X168748810Y-107844890D01*
X168726283Y-107872339D01*
X168698834Y-107894866D01*
X168667513Y-107911607D01*
X168633535Y-107921915D01*
X168592054Y-107926000D01*
X167990834Y-107926000D01*
X167949353Y-107921915D01*
X167915375Y-107911607D01*
X167884054Y-107894866D01*
X167856605Y-107872339D01*
X167834078Y-107844890D01*
X167817337Y-107813569D01*
X167807029Y-107779591D01*
X167802944Y-107738110D01*
X167802944Y-107061890D01*
X167807029Y-107020409D01*
X167817337Y-106986431D01*
X167834078Y-106955110D01*
X167856605Y-106927661D01*
X167884054Y-106905134D01*
X167915375Y-106888393D01*
X167949353Y-106878085D01*
X167990834Y-106874000D01*
X168592054Y-106874000D01*
X168633535Y-106878085D01*
X168633535Y-106878085D01*
G37*
G36*
X166234851Y-106878085D02*
G01*
X166268829Y-106888393D01*
X166300150Y-106905134D01*
X166327599Y-106927661D01*
X166350126Y-106955110D01*
X166366867Y-106986431D01*
X166377175Y-107020409D01*
X166381260Y-107061890D01*
X166381260Y-107738110D01*
X166377175Y-107779591D01*
X166366867Y-107813569D01*
X166350126Y-107844890D01*
X166327599Y-107872339D01*
X166300150Y-107894866D01*
X166268829Y-107911607D01*
X166234851Y-107921915D01*
X166193370Y-107926000D01*
X165592150Y-107926000D01*
X165550669Y-107921915D01*
X165516691Y-107911607D01*
X165485370Y-107894866D01*
X165457921Y-107872339D01*
X165435394Y-107844890D01*
X165418653Y-107813569D01*
X165408345Y-107779591D01*
X165404260Y-107738110D01*
X165404260Y-107061890D01*
X165408345Y-107020409D01*
X165418653Y-106986431D01*
X165435394Y-106955110D01*
X165457921Y-106927661D01*
X165485370Y-106905134D01*
X165516691Y-106888393D01*
X165550669Y-106878085D01*
X165592150Y-106874000D01*
X166193370Y-106874000D01*
X166234851Y-106878085D01*
X166234851Y-106878085D01*
G37*
G36*
X164659851Y-106878085D02*
G01*
X164693829Y-106888393D01*
X164725150Y-106905134D01*
X164752599Y-106927661D01*
X164775126Y-106955110D01*
X164791867Y-106986431D01*
X164802175Y-107020409D01*
X164806260Y-107061890D01*
X164806260Y-107738110D01*
X164802175Y-107779591D01*
X164791867Y-107813569D01*
X164775126Y-107844890D01*
X164752599Y-107872339D01*
X164725150Y-107894866D01*
X164693829Y-107911607D01*
X164659851Y-107921915D01*
X164618370Y-107926000D01*
X164017150Y-107926000D01*
X163975669Y-107921915D01*
X163941691Y-107911607D01*
X163910370Y-107894866D01*
X163882921Y-107872339D01*
X163860394Y-107844890D01*
X163843653Y-107813569D01*
X163833345Y-107779591D01*
X163829260Y-107738110D01*
X163829260Y-107061890D01*
X163833345Y-107020409D01*
X163843653Y-106986431D01*
X163860394Y-106955110D01*
X163882921Y-106927661D01*
X163910370Y-106905134D01*
X163941691Y-106888393D01*
X163975669Y-106878085D01*
X164017150Y-106874000D01*
X164618370Y-106874000D01*
X164659851Y-106878085D01*
X164659851Y-106878085D01*
G37*
G36*
X162261167Y-106878085D02*
G01*
X162295145Y-106888393D01*
X162326466Y-106905134D01*
X162353915Y-106927661D01*
X162376442Y-106955110D01*
X162393183Y-106986431D01*
X162403491Y-107020409D01*
X162407576Y-107061890D01*
X162407576Y-107738110D01*
X162403491Y-107779591D01*
X162393183Y-107813569D01*
X162376442Y-107844890D01*
X162353915Y-107872339D01*
X162326466Y-107894866D01*
X162295145Y-107911607D01*
X162261167Y-107921915D01*
X162219686Y-107926000D01*
X161618466Y-107926000D01*
X161576985Y-107921915D01*
X161543007Y-107911607D01*
X161511686Y-107894866D01*
X161484237Y-107872339D01*
X161461710Y-107844890D01*
X161444969Y-107813569D01*
X161434661Y-107779591D01*
X161430576Y-107738110D01*
X161430576Y-107061890D01*
X161434661Y-107020409D01*
X161444969Y-106986431D01*
X161461710Y-106955110D01*
X161484237Y-106927661D01*
X161511686Y-106905134D01*
X161543007Y-106888393D01*
X161576985Y-106878085D01*
X161618466Y-106874000D01*
X162219686Y-106874000D01*
X162261167Y-106878085D01*
X162261167Y-106878085D01*
G37*
G36*
X160686167Y-106878085D02*
G01*
X160720145Y-106888393D01*
X160751466Y-106905134D01*
X160778915Y-106927661D01*
X160801442Y-106955110D01*
X160818183Y-106986431D01*
X160828491Y-107020409D01*
X160832576Y-107061890D01*
X160832576Y-107738110D01*
X160828491Y-107779591D01*
X160818183Y-107813569D01*
X160801442Y-107844890D01*
X160778915Y-107872339D01*
X160751466Y-107894866D01*
X160720145Y-107911607D01*
X160686167Y-107921915D01*
X160644686Y-107926000D01*
X160043466Y-107926000D01*
X160001985Y-107921915D01*
X159968007Y-107911607D01*
X159936686Y-107894866D01*
X159909237Y-107872339D01*
X159886710Y-107844890D01*
X159869969Y-107813569D01*
X159859661Y-107779591D01*
X159855576Y-107738110D01*
X159855576Y-107061890D01*
X159859661Y-107020409D01*
X159869969Y-106986431D01*
X159886710Y-106955110D01*
X159909237Y-106927661D01*
X159936686Y-106905134D01*
X159968007Y-106888393D01*
X160001985Y-106878085D01*
X160043466Y-106874000D01*
X160644686Y-106874000D01*
X160686167Y-106878085D01*
X160686167Y-106878085D01*
G37*
G36*
X158287483Y-106878085D02*
G01*
X158321461Y-106888393D01*
X158352782Y-106905134D01*
X158380231Y-106927661D01*
X158402758Y-106955110D01*
X158419499Y-106986431D01*
X158429807Y-107020409D01*
X158433892Y-107061890D01*
X158433892Y-107738110D01*
X158429807Y-107779591D01*
X158419499Y-107813569D01*
X158402758Y-107844890D01*
X158380231Y-107872339D01*
X158352782Y-107894866D01*
X158321461Y-107911607D01*
X158287483Y-107921915D01*
X158246002Y-107926000D01*
X157644782Y-107926000D01*
X157603301Y-107921915D01*
X157569323Y-107911607D01*
X157538002Y-107894866D01*
X157510553Y-107872339D01*
X157488026Y-107844890D01*
X157471285Y-107813569D01*
X157460977Y-107779591D01*
X157456892Y-107738110D01*
X157456892Y-107061890D01*
X157460977Y-107020409D01*
X157471285Y-106986431D01*
X157488026Y-106955110D01*
X157510553Y-106927661D01*
X157538002Y-106905134D01*
X157569323Y-106888393D01*
X157603301Y-106878085D01*
X157644782Y-106874000D01*
X158246002Y-106874000D01*
X158287483Y-106878085D01*
X158287483Y-106878085D01*
G37*
G36*
X156712483Y-106878085D02*
G01*
X156746461Y-106888393D01*
X156777782Y-106905134D01*
X156805231Y-106927661D01*
X156827758Y-106955110D01*
X156844499Y-106986431D01*
X156854807Y-107020409D01*
X156858892Y-107061890D01*
X156858892Y-107738110D01*
X156854807Y-107779591D01*
X156844499Y-107813569D01*
X156827758Y-107844890D01*
X156805231Y-107872339D01*
X156777782Y-107894866D01*
X156746461Y-107911607D01*
X156712483Y-107921915D01*
X156671002Y-107926000D01*
X156069782Y-107926000D01*
X156028301Y-107921915D01*
X155994323Y-107911607D01*
X155963002Y-107894866D01*
X155935553Y-107872339D01*
X155913026Y-107844890D01*
X155896285Y-107813569D01*
X155885977Y-107779591D01*
X155881892Y-107738110D01*
X155881892Y-107061890D01*
X155885977Y-107020409D01*
X155896285Y-106986431D01*
X155913026Y-106955110D01*
X155935553Y-106927661D01*
X155963002Y-106905134D01*
X155994323Y-106888393D01*
X156028301Y-106878085D01*
X156069782Y-106874000D01*
X156671002Y-106874000D01*
X156712483Y-106878085D01*
X156712483Y-106878085D01*
G37*
G36*
X154313799Y-106878085D02*
G01*
X154347777Y-106888393D01*
X154379098Y-106905134D01*
X154406547Y-106927661D01*
X154429074Y-106955110D01*
X154445815Y-106986431D01*
X154456123Y-107020409D01*
X154460208Y-107061890D01*
X154460208Y-107738110D01*
X154456123Y-107779591D01*
X154445815Y-107813569D01*
X154429074Y-107844890D01*
X154406547Y-107872339D01*
X154379098Y-107894866D01*
X154347777Y-107911607D01*
X154313799Y-107921915D01*
X154272318Y-107926000D01*
X153671098Y-107926000D01*
X153629617Y-107921915D01*
X153595639Y-107911607D01*
X153564318Y-107894866D01*
X153536869Y-107872339D01*
X153514342Y-107844890D01*
X153497601Y-107813569D01*
X153487293Y-107779591D01*
X153483208Y-107738110D01*
X153483208Y-107061890D01*
X153487293Y-107020409D01*
X153497601Y-106986431D01*
X153514342Y-106955110D01*
X153536869Y-106927661D01*
X153564318Y-106905134D01*
X153595639Y-106888393D01*
X153629617Y-106878085D01*
X153671098Y-106874000D01*
X154272318Y-106874000D01*
X154313799Y-106878085D01*
X154313799Y-106878085D01*
G37*
G36*
X116975643Y-106878085D02*
G01*
X117009621Y-106888393D01*
X117040942Y-106905134D01*
X117068391Y-106927661D01*
X117090918Y-106955110D01*
X117107659Y-106986431D01*
X117117967Y-107020409D01*
X117122052Y-107061890D01*
X117122052Y-107738110D01*
X117117967Y-107779591D01*
X117107659Y-107813569D01*
X117090918Y-107844890D01*
X117068391Y-107872339D01*
X117040942Y-107894866D01*
X117009621Y-107911607D01*
X116975643Y-107921915D01*
X116934162Y-107926000D01*
X116332942Y-107926000D01*
X116291461Y-107921915D01*
X116257483Y-107911607D01*
X116226162Y-107894866D01*
X116198713Y-107872339D01*
X116176186Y-107844890D01*
X116159445Y-107813569D01*
X116149137Y-107779591D01*
X116145052Y-107738110D01*
X116145052Y-107061890D01*
X116149137Y-107020409D01*
X116159445Y-106986431D01*
X116176186Y-106955110D01*
X116198713Y-106927661D01*
X116226162Y-106905134D01*
X116257483Y-106888393D01*
X116291461Y-106878085D01*
X116332942Y-106874000D01*
X116934162Y-106874000D01*
X116975643Y-106878085D01*
X116975643Y-106878085D01*
G37*
G36*
X150340115Y-106878085D02*
G01*
X150374093Y-106888393D01*
X150405414Y-106905134D01*
X150432863Y-106927661D01*
X150455390Y-106955110D01*
X150472131Y-106986431D01*
X150482439Y-107020409D01*
X150486524Y-107061890D01*
X150486524Y-107738110D01*
X150482439Y-107779591D01*
X150472131Y-107813569D01*
X150455390Y-107844890D01*
X150432863Y-107872339D01*
X150405414Y-107894866D01*
X150374093Y-107911607D01*
X150340115Y-107921915D01*
X150298634Y-107926000D01*
X149697414Y-107926000D01*
X149655933Y-107921915D01*
X149621955Y-107911607D01*
X149590634Y-107894866D01*
X149563185Y-107872339D01*
X149540658Y-107844890D01*
X149523917Y-107813569D01*
X149513609Y-107779591D01*
X149509524Y-107738110D01*
X149509524Y-107061890D01*
X149513609Y-107020409D01*
X149523917Y-106986431D01*
X149540658Y-106955110D01*
X149563185Y-106927661D01*
X149590634Y-106905134D01*
X149621955Y-106888393D01*
X149655933Y-106878085D01*
X149697414Y-106874000D01*
X150298634Y-106874000D01*
X150340115Y-106878085D01*
X150340115Y-106878085D01*
G37*
G36*
X126498011Y-106878085D02*
G01*
X126531989Y-106888393D01*
X126563310Y-106905134D01*
X126590759Y-106927661D01*
X126613286Y-106955110D01*
X126630027Y-106986431D01*
X126640335Y-107020409D01*
X126644420Y-107061890D01*
X126644420Y-107738110D01*
X126640335Y-107779591D01*
X126630027Y-107813569D01*
X126613286Y-107844890D01*
X126590759Y-107872339D01*
X126563310Y-107894866D01*
X126531989Y-107911607D01*
X126498011Y-107921915D01*
X126456530Y-107926000D01*
X125855310Y-107926000D01*
X125813829Y-107921915D01*
X125779851Y-107911607D01*
X125748530Y-107894866D01*
X125721081Y-107872339D01*
X125698554Y-107844890D01*
X125681813Y-107813569D01*
X125671505Y-107779591D01*
X125667420Y-107738110D01*
X125667420Y-107061890D01*
X125671505Y-107020409D01*
X125681813Y-106986431D01*
X125698554Y-106955110D01*
X125721081Y-106927661D01*
X125748530Y-106905134D01*
X125779851Y-106888393D01*
X125813829Y-106878085D01*
X125855310Y-106874000D01*
X126456530Y-106874000D01*
X126498011Y-106878085D01*
X126498011Y-106878085D01*
G37*
G36*
X128896695Y-106878085D02*
G01*
X128930673Y-106888393D01*
X128961994Y-106905134D01*
X128989443Y-106927661D01*
X129011970Y-106955110D01*
X129028711Y-106986431D01*
X129039019Y-107020409D01*
X129043104Y-107061890D01*
X129043104Y-107738110D01*
X129039019Y-107779591D01*
X129028711Y-107813569D01*
X129011970Y-107844890D01*
X128989443Y-107872339D01*
X128961994Y-107894866D01*
X128930673Y-107911607D01*
X128896695Y-107921915D01*
X128855214Y-107926000D01*
X128253994Y-107926000D01*
X128212513Y-107921915D01*
X128178535Y-107911607D01*
X128147214Y-107894866D01*
X128119765Y-107872339D01*
X128097238Y-107844890D01*
X128080497Y-107813569D01*
X128070189Y-107779591D01*
X128066104Y-107738110D01*
X128066104Y-107061890D01*
X128070189Y-107020409D01*
X128080497Y-106986431D01*
X128097238Y-106955110D01*
X128119765Y-106927661D01*
X128147214Y-106905134D01*
X128178535Y-106888393D01*
X128212513Y-106878085D01*
X128253994Y-106874000D01*
X128855214Y-106874000D01*
X128896695Y-106878085D01*
X128896695Y-106878085D01*
G37*
G36*
X130471695Y-106878085D02*
G01*
X130505673Y-106888393D01*
X130536994Y-106905134D01*
X130564443Y-106927661D01*
X130586970Y-106955110D01*
X130603711Y-106986431D01*
X130614019Y-107020409D01*
X130618104Y-107061890D01*
X130618104Y-107738110D01*
X130614019Y-107779591D01*
X130603711Y-107813569D01*
X130586970Y-107844890D01*
X130564443Y-107872339D01*
X130536994Y-107894866D01*
X130505673Y-107911607D01*
X130471695Y-107921915D01*
X130430214Y-107926000D01*
X129828994Y-107926000D01*
X129787513Y-107921915D01*
X129753535Y-107911607D01*
X129722214Y-107894866D01*
X129694765Y-107872339D01*
X129672238Y-107844890D01*
X129655497Y-107813569D01*
X129645189Y-107779591D01*
X129641104Y-107738110D01*
X129641104Y-107061890D01*
X129645189Y-107020409D01*
X129655497Y-106986431D01*
X129672238Y-106955110D01*
X129694765Y-106927661D01*
X129722214Y-106905134D01*
X129753535Y-106888393D01*
X129787513Y-106878085D01*
X129828994Y-106874000D01*
X130430214Y-106874000D01*
X130471695Y-106878085D01*
X130471695Y-106878085D01*
G37*
G36*
X132870379Y-106878085D02*
G01*
X132904357Y-106888393D01*
X132935678Y-106905134D01*
X132963127Y-106927661D01*
X132985654Y-106955110D01*
X133002395Y-106986431D01*
X133012703Y-107020409D01*
X133016788Y-107061890D01*
X133016788Y-107738110D01*
X133012703Y-107779591D01*
X133002395Y-107813569D01*
X132985654Y-107844890D01*
X132963127Y-107872339D01*
X132935678Y-107894866D01*
X132904357Y-107911607D01*
X132870379Y-107921915D01*
X132828898Y-107926000D01*
X132227678Y-107926000D01*
X132186197Y-107921915D01*
X132152219Y-107911607D01*
X132120898Y-107894866D01*
X132093449Y-107872339D01*
X132070922Y-107844890D01*
X132054181Y-107813569D01*
X132043873Y-107779591D01*
X132039788Y-107738110D01*
X132039788Y-107061890D01*
X132043873Y-107020409D01*
X132054181Y-106986431D01*
X132070922Y-106955110D01*
X132093449Y-106927661D01*
X132120898Y-106905134D01*
X132152219Y-106888393D01*
X132186197Y-106878085D01*
X132227678Y-106874000D01*
X132828898Y-106874000D01*
X132870379Y-106878085D01*
X132870379Y-106878085D01*
G37*
G36*
X134445379Y-106878085D02*
G01*
X134479357Y-106888393D01*
X134510678Y-106905134D01*
X134538127Y-106927661D01*
X134560654Y-106955110D01*
X134577395Y-106986431D01*
X134587703Y-107020409D01*
X134591788Y-107061890D01*
X134591788Y-107738110D01*
X134587703Y-107779591D01*
X134577395Y-107813569D01*
X134560654Y-107844890D01*
X134538127Y-107872339D01*
X134510678Y-107894866D01*
X134479357Y-107911607D01*
X134445379Y-107921915D01*
X134403898Y-107926000D01*
X133802678Y-107926000D01*
X133761197Y-107921915D01*
X133727219Y-107911607D01*
X133695898Y-107894866D01*
X133668449Y-107872339D01*
X133645922Y-107844890D01*
X133629181Y-107813569D01*
X133618873Y-107779591D01*
X133614788Y-107738110D01*
X133614788Y-107061890D01*
X133618873Y-107020409D01*
X133629181Y-106986431D01*
X133645922Y-106955110D01*
X133668449Y-106927661D01*
X133695898Y-106905134D01*
X133727219Y-106888393D01*
X133761197Y-106878085D01*
X133802678Y-106874000D01*
X134403898Y-106874000D01*
X134445379Y-106878085D01*
X134445379Y-106878085D01*
G37*
G36*
X136844063Y-106878085D02*
G01*
X136878041Y-106888393D01*
X136909362Y-106905134D01*
X136936811Y-106927661D01*
X136959338Y-106955110D01*
X136976079Y-106986431D01*
X136986387Y-107020409D01*
X136990472Y-107061890D01*
X136990472Y-107738110D01*
X136986387Y-107779591D01*
X136976079Y-107813569D01*
X136959338Y-107844890D01*
X136936811Y-107872339D01*
X136909362Y-107894866D01*
X136878041Y-107911607D01*
X136844063Y-107921915D01*
X136802582Y-107926000D01*
X136201362Y-107926000D01*
X136159881Y-107921915D01*
X136125903Y-107911607D01*
X136094582Y-107894866D01*
X136067133Y-107872339D01*
X136044606Y-107844890D01*
X136027865Y-107813569D01*
X136017557Y-107779591D01*
X136013472Y-107738110D01*
X136013472Y-107061890D01*
X136017557Y-107020409D01*
X136027865Y-106986431D01*
X136044606Y-106955110D01*
X136067133Y-106927661D01*
X136094582Y-106905134D01*
X136125903Y-106888393D01*
X136159881Y-106878085D01*
X136201362Y-106874000D01*
X136802582Y-106874000D01*
X136844063Y-106878085D01*
X136844063Y-106878085D01*
G37*
G36*
X138419063Y-106878085D02*
G01*
X138453041Y-106888393D01*
X138484362Y-106905134D01*
X138511811Y-106927661D01*
X138534338Y-106955110D01*
X138551079Y-106986431D01*
X138561387Y-107020409D01*
X138565472Y-107061890D01*
X138565472Y-107738110D01*
X138561387Y-107779591D01*
X138551079Y-107813569D01*
X138534338Y-107844890D01*
X138511811Y-107872339D01*
X138484362Y-107894866D01*
X138453041Y-107911607D01*
X138419063Y-107921915D01*
X138377582Y-107926000D01*
X137776362Y-107926000D01*
X137734881Y-107921915D01*
X137700903Y-107911607D01*
X137669582Y-107894866D01*
X137642133Y-107872339D01*
X137619606Y-107844890D01*
X137602865Y-107813569D01*
X137592557Y-107779591D01*
X137588472Y-107738110D01*
X137588472Y-107061890D01*
X137592557Y-107020409D01*
X137602865Y-106986431D01*
X137619606Y-106955110D01*
X137642133Y-106927661D01*
X137669582Y-106905134D01*
X137700903Y-106888393D01*
X137734881Y-106878085D01*
X137776362Y-106874000D01*
X138377582Y-106874000D01*
X138419063Y-106878085D01*
X138419063Y-106878085D01*
G37*
G36*
X140817747Y-106878085D02*
G01*
X140851725Y-106888393D01*
X140883046Y-106905134D01*
X140910495Y-106927661D01*
X140933022Y-106955110D01*
X140949763Y-106986431D01*
X140960071Y-107020409D01*
X140964156Y-107061890D01*
X140964156Y-107738110D01*
X140960071Y-107779591D01*
X140949763Y-107813569D01*
X140933022Y-107844890D01*
X140910495Y-107872339D01*
X140883046Y-107894866D01*
X140851725Y-107911607D01*
X140817747Y-107921915D01*
X140776266Y-107926000D01*
X140175046Y-107926000D01*
X140133565Y-107921915D01*
X140099587Y-107911607D01*
X140068266Y-107894866D01*
X140040817Y-107872339D01*
X140018290Y-107844890D01*
X140001549Y-107813569D01*
X139991241Y-107779591D01*
X139987156Y-107738110D01*
X139987156Y-107061890D01*
X139991241Y-107020409D01*
X140001549Y-106986431D01*
X140018290Y-106955110D01*
X140040817Y-106927661D01*
X140068266Y-106905134D01*
X140099587Y-106888393D01*
X140133565Y-106878085D01*
X140175046Y-106874000D01*
X140776266Y-106874000D01*
X140817747Y-106878085D01*
X140817747Y-106878085D01*
G37*
G36*
X144791431Y-106878085D02*
G01*
X144825409Y-106888393D01*
X144856730Y-106905134D01*
X144884179Y-106927661D01*
X144906706Y-106955110D01*
X144923447Y-106986431D01*
X144933755Y-107020409D01*
X144937840Y-107061890D01*
X144937840Y-107738110D01*
X144933755Y-107779591D01*
X144923447Y-107813569D01*
X144906706Y-107844890D01*
X144884179Y-107872339D01*
X144856730Y-107894866D01*
X144825409Y-107911607D01*
X144791431Y-107921915D01*
X144749950Y-107926000D01*
X144148730Y-107926000D01*
X144107249Y-107921915D01*
X144073271Y-107911607D01*
X144041950Y-107894866D01*
X144014501Y-107872339D01*
X143991974Y-107844890D01*
X143975233Y-107813569D01*
X143964925Y-107779591D01*
X143960840Y-107738110D01*
X143960840Y-107061890D01*
X143964925Y-107020409D01*
X143975233Y-106986431D01*
X143991974Y-106955110D01*
X144014501Y-106927661D01*
X144041950Y-106905134D01*
X144073271Y-106888393D01*
X144107249Y-106878085D01*
X144148730Y-106874000D01*
X144749950Y-106874000D01*
X144791431Y-106878085D01*
X144791431Y-106878085D01*
G37*
G36*
X146366431Y-106878085D02*
G01*
X146400409Y-106888393D01*
X146431730Y-106905134D01*
X146459179Y-106927661D01*
X146481706Y-106955110D01*
X146498447Y-106986431D01*
X146508755Y-107020409D01*
X146512840Y-107061890D01*
X146512840Y-107738110D01*
X146508755Y-107779591D01*
X146498447Y-107813569D01*
X146481706Y-107844890D01*
X146459179Y-107872339D01*
X146431730Y-107894866D01*
X146400409Y-107911607D01*
X146366431Y-107921915D01*
X146324950Y-107926000D01*
X145723730Y-107926000D01*
X145682249Y-107921915D01*
X145648271Y-107911607D01*
X145616950Y-107894866D01*
X145589501Y-107872339D01*
X145566974Y-107844890D01*
X145550233Y-107813569D01*
X145539925Y-107779591D01*
X145535840Y-107738110D01*
X145535840Y-107061890D01*
X145539925Y-107020409D01*
X145550233Y-106986431D01*
X145566974Y-106955110D01*
X145589501Y-106927661D01*
X145616950Y-106905134D01*
X145648271Y-106888393D01*
X145682249Y-106878085D01*
X145723730Y-106874000D01*
X146324950Y-106874000D01*
X146366431Y-106878085D01*
X146366431Y-106878085D01*
G37*
G36*
X148765115Y-106878085D02*
G01*
X148799093Y-106888393D01*
X148830414Y-106905134D01*
X148857863Y-106927661D01*
X148880390Y-106955110D01*
X148897131Y-106986431D01*
X148907439Y-107020409D01*
X148911524Y-107061890D01*
X148911524Y-107738110D01*
X148907439Y-107779591D01*
X148897131Y-107813569D01*
X148880390Y-107844890D01*
X148857863Y-107872339D01*
X148830414Y-107894866D01*
X148799093Y-107911607D01*
X148765115Y-107921915D01*
X148723634Y-107926000D01*
X148122414Y-107926000D01*
X148080933Y-107921915D01*
X148046955Y-107911607D01*
X148015634Y-107894866D01*
X147988185Y-107872339D01*
X147965658Y-107844890D01*
X147948917Y-107813569D01*
X147938609Y-107779591D01*
X147934524Y-107738110D01*
X147934524Y-107061890D01*
X147938609Y-107020409D01*
X147948917Y-106986431D01*
X147965658Y-106955110D01*
X147988185Y-106927661D01*
X148015634Y-106905134D01*
X148046955Y-106888393D01*
X148080933Y-106878085D01*
X148122414Y-106874000D01*
X148723634Y-106874000D01*
X148765115Y-106878085D01*
X148765115Y-106878085D01*
G37*
G36*
X124923011Y-106878085D02*
G01*
X124956989Y-106888393D01*
X124988310Y-106905134D01*
X125015759Y-106927661D01*
X125038286Y-106955110D01*
X125055027Y-106986431D01*
X125065335Y-107020409D01*
X125069420Y-107061890D01*
X125069420Y-107738110D01*
X125065335Y-107779591D01*
X125055027Y-107813569D01*
X125038286Y-107844890D01*
X125015759Y-107872339D01*
X124988310Y-107894866D01*
X124956989Y-107911607D01*
X124923011Y-107921915D01*
X124881530Y-107926000D01*
X124280310Y-107926000D01*
X124238829Y-107921915D01*
X124204851Y-107911607D01*
X124173530Y-107894866D01*
X124146081Y-107872339D01*
X124123554Y-107844890D01*
X124106813Y-107813569D01*
X124096505Y-107779591D01*
X124092420Y-107738110D01*
X124092420Y-107061890D01*
X124096505Y-107020409D01*
X124106813Y-106986431D01*
X124123554Y-106955110D01*
X124146081Y-106927661D01*
X124173530Y-106905134D01*
X124204851Y-106888393D01*
X124238829Y-106878085D01*
X124280310Y-106874000D01*
X124881530Y-106874000D01*
X124923011Y-106878085D01*
X124923011Y-106878085D01*
G37*
G36*
X122524327Y-106878085D02*
G01*
X122558305Y-106888393D01*
X122589626Y-106905134D01*
X122617075Y-106927661D01*
X122639602Y-106955110D01*
X122656343Y-106986431D01*
X122666651Y-107020409D01*
X122670736Y-107061890D01*
X122670736Y-107738110D01*
X122666651Y-107779591D01*
X122656343Y-107813569D01*
X122639602Y-107844890D01*
X122617075Y-107872339D01*
X122589626Y-107894866D01*
X122558305Y-107911607D01*
X122524327Y-107921915D01*
X122482846Y-107926000D01*
X121881626Y-107926000D01*
X121840145Y-107921915D01*
X121806167Y-107911607D01*
X121774846Y-107894866D01*
X121747397Y-107872339D01*
X121724870Y-107844890D01*
X121708129Y-107813569D01*
X121697821Y-107779591D01*
X121693736Y-107738110D01*
X121693736Y-107061890D01*
X121697821Y-107020409D01*
X121708129Y-106986431D01*
X121724870Y-106955110D01*
X121747397Y-106927661D01*
X121774846Y-106905134D01*
X121806167Y-106888393D01*
X121840145Y-106878085D01*
X121881626Y-106874000D01*
X122482846Y-106874000D01*
X122524327Y-106878085D01*
X122524327Y-106878085D01*
G37*
G36*
X120949327Y-106878085D02*
G01*
X120983305Y-106888393D01*
X121014626Y-106905134D01*
X121042075Y-106927661D01*
X121064602Y-106955110D01*
X121081343Y-106986431D01*
X121091651Y-107020409D01*
X121095736Y-107061890D01*
X121095736Y-107738110D01*
X121091651Y-107779591D01*
X121081343Y-107813569D01*
X121064602Y-107844890D01*
X121042075Y-107872339D01*
X121014626Y-107894866D01*
X120983305Y-107911607D01*
X120949327Y-107921915D01*
X120907846Y-107926000D01*
X120306626Y-107926000D01*
X120265145Y-107921915D01*
X120231167Y-107911607D01*
X120199846Y-107894866D01*
X120172397Y-107872339D01*
X120149870Y-107844890D01*
X120133129Y-107813569D01*
X120122821Y-107779591D01*
X120118736Y-107738110D01*
X120118736Y-107061890D01*
X120122821Y-107020409D01*
X120133129Y-106986431D01*
X120149870Y-106955110D01*
X120172397Y-106927661D01*
X120199846Y-106905134D01*
X120231167Y-106888393D01*
X120265145Y-106878085D01*
X120306626Y-106874000D01*
X120907846Y-106874000D01*
X120949327Y-106878085D01*
X120949327Y-106878085D01*
G37*
G36*
X118550643Y-106878085D02*
G01*
X118584621Y-106888393D01*
X118615942Y-106905134D01*
X118643391Y-106927661D01*
X118665918Y-106955110D01*
X118682659Y-106986431D01*
X118692967Y-107020409D01*
X118697052Y-107061890D01*
X118697052Y-107738110D01*
X118692967Y-107779591D01*
X118682659Y-107813569D01*
X118665918Y-107844890D01*
X118643391Y-107872339D01*
X118615942Y-107894866D01*
X118584621Y-107911607D01*
X118550643Y-107921915D01*
X118509162Y-107926000D01*
X117907942Y-107926000D01*
X117866461Y-107921915D01*
X117832483Y-107911607D01*
X117801162Y-107894866D01*
X117773713Y-107872339D01*
X117751186Y-107844890D01*
X117734445Y-107813569D01*
X117724137Y-107779591D01*
X117720052Y-107738110D01*
X117720052Y-107061890D01*
X117724137Y-107020409D01*
X117734445Y-106986431D01*
X117751186Y-106955110D01*
X117773713Y-106927661D01*
X117801162Y-106905134D01*
X117832483Y-106888393D01*
X117866461Y-106878085D01*
X117907942Y-106874000D01*
X118509162Y-106874000D01*
X118550643Y-106878085D01*
X118550643Y-106878085D01*
G37*
G36*
X113001959Y-106878085D02*
G01*
X113035937Y-106888393D01*
X113067258Y-106905134D01*
X113094707Y-106927661D01*
X113117234Y-106955110D01*
X113133975Y-106986431D01*
X113144283Y-107020409D01*
X113148368Y-107061890D01*
X113148368Y-107738110D01*
X113144283Y-107779591D01*
X113133975Y-107813569D01*
X113117234Y-107844890D01*
X113094707Y-107872339D01*
X113067258Y-107894866D01*
X113035937Y-107911607D01*
X113001959Y-107921915D01*
X112960478Y-107926000D01*
X112359258Y-107926000D01*
X112317777Y-107921915D01*
X112283799Y-107911607D01*
X112252478Y-107894866D01*
X112225029Y-107872339D01*
X112202502Y-107844890D01*
X112185761Y-107813569D01*
X112175453Y-107779591D01*
X112171368Y-107738110D01*
X112171368Y-107061890D01*
X112175453Y-107020409D01*
X112185761Y-106986431D01*
X112202502Y-106955110D01*
X112225029Y-106927661D01*
X112252478Y-106905134D01*
X112283799Y-106888393D01*
X112317777Y-106878085D01*
X112359258Y-106874000D01*
X112960478Y-106874000D01*
X113001959Y-106878085D01*
X113001959Y-106878085D01*
G37*
G36*
X142392747Y-106878085D02*
G01*
X142426725Y-106888393D01*
X142458046Y-106905134D01*
X142485495Y-106927661D01*
X142508022Y-106955110D01*
X142524763Y-106986431D01*
X142535071Y-107020409D01*
X142539156Y-107061890D01*
X142539156Y-107738110D01*
X142535071Y-107779591D01*
X142524763Y-107813569D01*
X142508022Y-107844890D01*
X142485495Y-107872339D01*
X142458046Y-107894866D01*
X142426725Y-107911607D01*
X142392747Y-107921915D01*
X142351266Y-107926000D01*
X141750046Y-107926000D01*
X141708565Y-107921915D01*
X141674587Y-107911607D01*
X141643266Y-107894866D01*
X141615817Y-107872339D01*
X141593290Y-107844890D01*
X141576549Y-107813569D01*
X141566241Y-107779591D01*
X141562156Y-107738110D01*
X141562156Y-107061890D01*
X141566241Y-107020409D01*
X141576549Y-106986431D01*
X141593290Y-106955110D01*
X141615817Y-106927661D01*
X141643266Y-106905134D01*
X141674587Y-106888393D01*
X141708565Y-106878085D01*
X141750046Y-106874000D01*
X142351266Y-106874000D01*
X142392747Y-106878085D01*
X142392747Y-106878085D01*
G37*
G36*
X182901000Y-106426000D02*
G01*
X182099000Y-106426000D01*
X182099000Y-105874000D01*
X182901000Y-105874000D01*
X182901000Y-106426000D01*
X182901000Y-106426000D01*
G37*
G36*
X184901000Y-105776000D02*
G01*
X184099000Y-105776000D01*
X184099000Y-105224000D01*
X184901000Y-105224000D01*
X184901000Y-105776000D01*
X184901000Y-105776000D01*
G37*
G36*
X182901000Y-105126000D02*
G01*
X182099000Y-105126000D01*
X182099000Y-104574000D01*
X182901000Y-104574000D01*
X182901000Y-105126000D01*
X182901000Y-105126000D01*
G37*
G36*
X176271938Y-103131716D02*
G01*
X176292557Y-103137971D01*
X176311553Y-103148124D01*
X176328208Y-103161792D01*
X176341876Y-103178447D01*
X176352029Y-103197443D01*
X176358284Y-103218062D01*
X176361000Y-103245640D01*
X176361000Y-103754360D01*
X176358284Y-103781938D01*
X176352029Y-103802557D01*
X176341876Y-103821553D01*
X176328208Y-103838208D01*
X176311553Y-103851876D01*
X176292557Y-103862029D01*
X176271938Y-103868284D01*
X176244360Y-103871000D01*
X175785640Y-103871000D01*
X175758062Y-103868284D01*
X175737443Y-103862029D01*
X175718447Y-103851876D01*
X175701792Y-103838208D01*
X175688124Y-103821553D01*
X175677971Y-103802557D01*
X175671716Y-103781938D01*
X175669000Y-103754360D01*
X175669000Y-103245640D01*
X175671716Y-103218062D01*
X175677971Y-103197443D01*
X175688124Y-103178447D01*
X175701792Y-103161792D01*
X175718447Y-103148124D01*
X175737443Y-103137971D01*
X175758062Y-103131716D01*
X175785640Y-103129000D01*
X176244360Y-103129000D01*
X176271938Y-103131716D01*
X176271938Y-103131716D01*
G37*
G36*
X177241938Y-103131716D02*
G01*
X177262557Y-103137971D01*
X177281553Y-103148124D01*
X177298208Y-103161792D01*
X177311876Y-103178447D01*
X177322029Y-103197443D01*
X177328284Y-103218062D01*
X177331000Y-103245640D01*
X177331000Y-103754360D01*
X177328284Y-103781938D01*
X177322029Y-103802557D01*
X177311876Y-103821553D01*
X177298208Y-103838208D01*
X177281553Y-103851876D01*
X177262557Y-103862029D01*
X177241938Y-103868284D01*
X177214360Y-103871000D01*
X176755640Y-103871000D01*
X176728062Y-103868284D01*
X176707443Y-103862029D01*
X176688447Y-103851876D01*
X176671792Y-103838208D01*
X176658124Y-103821553D01*
X176647971Y-103802557D01*
X176641716Y-103781938D01*
X176639000Y-103754360D01*
X176639000Y-103245640D01*
X176641716Y-103218062D01*
X176647971Y-103197443D01*
X176658124Y-103178447D01*
X176671792Y-103161792D01*
X176688447Y-103148124D01*
X176707443Y-103137971D01*
X176728062Y-103131716D01*
X176755640Y-103129000D01*
X177214360Y-103129000D01*
X177241938Y-103131716D01*
X177241938Y-103131716D01*
G37*
G36*
X173771938Y-102131716D02*
G01*
X173792557Y-102137971D01*
X173811553Y-102148124D01*
X173828208Y-102161792D01*
X173841876Y-102178447D01*
X173852029Y-102197443D01*
X173858284Y-102218062D01*
X173861000Y-102245640D01*
X173861000Y-102754360D01*
X173858284Y-102781938D01*
X173852029Y-102802557D01*
X173841876Y-102821553D01*
X173828208Y-102838208D01*
X173811553Y-102851876D01*
X173792557Y-102862029D01*
X173771938Y-102868284D01*
X173744360Y-102871000D01*
X173285640Y-102871000D01*
X173258062Y-102868284D01*
X173237443Y-102862029D01*
X173218447Y-102851876D01*
X173201792Y-102838208D01*
X173188124Y-102821553D01*
X173177971Y-102802557D01*
X173171716Y-102781938D01*
X173169000Y-102754360D01*
X173169000Y-102245640D01*
X173171716Y-102218062D01*
X173177971Y-102197443D01*
X173188124Y-102178447D01*
X173201792Y-102161792D01*
X173218447Y-102148124D01*
X173237443Y-102137971D01*
X173258062Y-102131716D01*
X173285640Y-102129000D01*
X173744360Y-102129000D01*
X173771938Y-102131716D01*
X173771938Y-102131716D01*
G37*
G36*
X174741938Y-102131716D02*
G01*
X174762557Y-102137971D01*
X174781553Y-102148124D01*
X174798208Y-102161792D01*
X174811876Y-102178447D01*
X174822029Y-102197443D01*
X174828284Y-102218062D01*
X174831000Y-102245640D01*
X174831000Y-102754360D01*
X174828284Y-102781938D01*
X174822029Y-102802557D01*
X174811876Y-102821553D01*
X174798208Y-102838208D01*
X174781553Y-102851876D01*
X174762557Y-102862029D01*
X174741938Y-102868284D01*
X174714360Y-102871000D01*
X174255640Y-102871000D01*
X174228062Y-102868284D01*
X174207443Y-102862029D01*
X174188447Y-102851876D01*
X174171792Y-102838208D01*
X174158124Y-102821553D01*
X174147971Y-102802557D01*
X174141716Y-102781938D01*
X174139000Y-102754360D01*
X174139000Y-102245640D01*
X174141716Y-102218062D01*
X174147971Y-102197443D01*
X174158124Y-102178447D01*
X174171792Y-102161792D01*
X174188447Y-102148124D01*
X174207443Y-102137971D01*
X174228062Y-102131716D01*
X174255640Y-102129000D01*
X174714360Y-102129000D01*
X174741938Y-102131716D01*
X174741938Y-102131716D01*
G37*
G36*
X184901000Y-102426000D02*
G01*
X184099000Y-102426000D01*
X184099000Y-101874000D01*
X184901000Y-101874000D01*
X184901000Y-102426000D01*
X184901000Y-102426000D01*
G37*
G36*
X186781938Y-101641716D02*
G01*
X186802557Y-101647971D01*
X186821553Y-101658124D01*
X186838208Y-101671792D01*
X186851876Y-101688447D01*
X186862029Y-101707443D01*
X186868284Y-101728062D01*
X186871000Y-101755640D01*
X186871000Y-102214360D01*
X186868284Y-102241938D01*
X186862029Y-102262557D01*
X186851876Y-102281553D01*
X186838208Y-102298208D01*
X186821553Y-102311876D01*
X186802557Y-102322029D01*
X186781938Y-102328284D01*
X186754360Y-102331000D01*
X186245640Y-102331000D01*
X186218062Y-102328284D01*
X186197443Y-102322029D01*
X186178447Y-102311876D01*
X186161792Y-102298208D01*
X186148124Y-102281553D01*
X186137971Y-102262557D01*
X186131716Y-102241938D01*
X186129000Y-102214360D01*
X186129000Y-101755640D01*
X186131716Y-101728062D01*
X186137971Y-101707443D01*
X186148124Y-101688447D01*
X186161792Y-101671792D01*
X186178447Y-101658124D01*
X186197443Y-101647971D01*
X186218062Y-101641716D01*
X186245640Y-101639000D01*
X186754360Y-101639000D01*
X186781938Y-101641716D01*
X186781938Y-101641716D01*
G37*
G36*
X176271938Y-101131716D02*
G01*
X176292557Y-101137971D01*
X176311553Y-101148124D01*
X176328208Y-101161792D01*
X176341876Y-101178447D01*
X176352029Y-101197443D01*
X176358284Y-101218062D01*
X176361000Y-101245640D01*
X176361000Y-101754360D01*
X176358284Y-101781938D01*
X176352029Y-101802557D01*
X176341876Y-101821553D01*
X176328208Y-101838208D01*
X176311553Y-101851876D01*
X176292557Y-101862029D01*
X176271938Y-101868284D01*
X176244360Y-101871000D01*
X175785640Y-101871000D01*
X175758062Y-101868284D01*
X175737443Y-101862029D01*
X175718447Y-101851876D01*
X175701792Y-101838208D01*
X175688124Y-101821553D01*
X175677971Y-101802557D01*
X175671716Y-101781938D01*
X175669000Y-101754360D01*
X175669000Y-101245640D01*
X175671716Y-101218062D01*
X175677971Y-101197443D01*
X175688124Y-101178447D01*
X175701792Y-101161792D01*
X175718447Y-101148124D01*
X175737443Y-101137971D01*
X175758062Y-101131716D01*
X175785640Y-101129000D01*
X176244360Y-101129000D01*
X176271938Y-101131716D01*
X176271938Y-101131716D01*
G37*
G36*
X177241938Y-101131716D02*
G01*
X177262557Y-101137971D01*
X177281553Y-101148124D01*
X177298208Y-101161792D01*
X177311876Y-101178447D01*
X177322029Y-101197443D01*
X177328284Y-101218062D01*
X177331000Y-101245640D01*
X177331000Y-101754360D01*
X177328284Y-101781938D01*
X177322029Y-101802557D01*
X177311876Y-101821553D01*
X177298208Y-101838208D01*
X177281553Y-101851876D01*
X177262557Y-101862029D01*
X177241938Y-101868284D01*
X177214360Y-101871000D01*
X176755640Y-101871000D01*
X176728062Y-101868284D01*
X176707443Y-101862029D01*
X176688447Y-101851876D01*
X176671792Y-101838208D01*
X176658124Y-101821553D01*
X176647971Y-101802557D01*
X176641716Y-101781938D01*
X176639000Y-101754360D01*
X176639000Y-101245640D01*
X176641716Y-101218062D01*
X176647971Y-101197443D01*
X176658124Y-101178447D01*
X176671792Y-101161792D01*
X176688447Y-101148124D01*
X176707443Y-101137971D01*
X176728062Y-101131716D01*
X176755640Y-101129000D01*
X177214360Y-101129000D01*
X177241938Y-101131716D01*
X177241938Y-101131716D01*
G37*
G36*
X182901000Y-101776000D02*
G01*
X182099000Y-101776000D01*
X182099000Y-101224000D01*
X182901000Y-101224000D01*
X182901000Y-101776000D01*
X182901000Y-101776000D01*
G37*
G36*
X186781938Y-100671716D02*
G01*
X186802557Y-100677971D01*
X186821553Y-100688124D01*
X186838208Y-100701792D01*
X186851876Y-100718447D01*
X186862029Y-100737443D01*
X186868284Y-100758062D01*
X186871000Y-100785640D01*
X186871000Y-101244360D01*
X186868284Y-101271938D01*
X186862029Y-101292557D01*
X186851876Y-101311553D01*
X186838208Y-101328208D01*
X186821553Y-101341876D01*
X186802557Y-101352029D01*
X186781938Y-101358284D01*
X186754360Y-101361000D01*
X186245640Y-101361000D01*
X186218062Y-101358284D01*
X186197443Y-101352029D01*
X186178447Y-101341876D01*
X186161792Y-101328208D01*
X186148124Y-101311553D01*
X186137971Y-101292557D01*
X186131716Y-101271938D01*
X186129000Y-101244360D01*
X186129000Y-100785640D01*
X186131716Y-100758062D01*
X186137971Y-100737443D01*
X186148124Y-100718447D01*
X186161792Y-100701792D01*
X186178447Y-100688124D01*
X186197443Y-100677971D01*
X186218062Y-100671716D01*
X186245640Y-100669000D01*
X186754360Y-100669000D01*
X186781938Y-100671716D01*
X186781938Y-100671716D01*
G37*
G36*
X184901000Y-101126000D02*
G01*
X184099000Y-101126000D01*
X184099000Y-100574000D01*
X184901000Y-100574000D01*
X184901000Y-101126000D01*
X184901000Y-101126000D01*
G37*
G36*
X173771938Y-100131716D02*
G01*
X173792557Y-100137971D01*
X173811553Y-100148124D01*
X173828208Y-100161792D01*
X173841876Y-100178447D01*
X173852029Y-100197443D01*
X173858284Y-100218062D01*
X173861000Y-100245640D01*
X173861000Y-100754360D01*
X173858284Y-100781938D01*
X173852029Y-100802557D01*
X173841876Y-100821553D01*
X173828208Y-100838208D01*
X173811553Y-100851876D01*
X173792557Y-100862029D01*
X173771938Y-100868284D01*
X173744360Y-100871000D01*
X173285640Y-100871000D01*
X173258062Y-100868284D01*
X173237443Y-100862029D01*
X173218447Y-100851876D01*
X173201792Y-100838208D01*
X173188124Y-100821553D01*
X173177971Y-100802557D01*
X173171716Y-100781938D01*
X173169000Y-100754360D01*
X173169000Y-100245640D01*
X173171716Y-100218062D01*
X173177971Y-100197443D01*
X173188124Y-100178447D01*
X173201792Y-100161792D01*
X173218447Y-100148124D01*
X173237443Y-100137971D01*
X173258062Y-100131716D01*
X173285640Y-100129000D01*
X173744360Y-100129000D01*
X173771938Y-100131716D01*
X173771938Y-100131716D01*
G37*
G36*
X174741938Y-100131716D02*
G01*
X174762557Y-100137971D01*
X174781553Y-100148124D01*
X174798208Y-100161792D01*
X174811876Y-100178447D01*
X174822029Y-100197443D01*
X174828284Y-100218062D01*
X174831000Y-100245640D01*
X174831000Y-100754360D01*
X174828284Y-100781938D01*
X174822029Y-100802557D01*
X174811876Y-100821553D01*
X174798208Y-100838208D01*
X174781553Y-100851876D01*
X174762557Y-100862029D01*
X174741938Y-100868284D01*
X174714360Y-100871000D01*
X174255640Y-100871000D01*
X174228062Y-100868284D01*
X174207443Y-100862029D01*
X174188447Y-100851876D01*
X174171792Y-100838208D01*
X174158124Y-100821553D01*
X174147971Y-100802557D01*
X174141716Y-100781938D01*
X174139000Y-100754360D01*
X174139000Y-100245640D01*
X174141716Y-100218062D01*
X174147971Y-100197443D01*
X174158124Y-100178447D01*
X174171792Y-100161792D01*
X174188447Y-100148124D01*
X174207443Y-100137971D01*
X174228062Y-100131716D01*
X174255640Y-100129000D01*
X174714360Y-100129000D01*
X174741938Y-100131716D01*
X174741938Y-100131716D01*
G37*
G36*
X176271938Y-99131716D02*
G01*
X176292557Y-99137971D01*
X176311553Y-99148124D01*
X176328208Y-99161792D01*
X176341876Y-99178447D01*
X176352029Y-99197443D01*
X176358284Y-99218062D01*
X176361000Y-99245640D01*
X176361000Y-99754360D01*
X176358284Y-99781938D01*
X176352029Y-99802557D01*
X176341876Y-99821553D01*
X176328208Y-99838208D01*
X176311553Y-99851876D01*
X176292557Y-99862029D01*
X176271938Y-99868284D01*
X176244360Y-99871000D01*
X175785640Y-99871000D01*
X175758062Y-99868284D01*
X175737443Y-99862029D01*
X175718447Y-99851876D01*
X175701792Y-99838208D01*
X175688124Y-99821553D01*
X175677971Y-99802557D01*
X175671716Y-99781938D01*
X175669000Y-99754360D01*
X175669000Y-99245640D01*
X175671716Y-99218062D01*
X175677971Y-99197443D01*
X175688124Y-99178447D01*
X175701792Y-99161792D01*
X175718447Y-99148124D01*
X175737443Y-99137971D01*
X175758062Y-99131716D01*
X175785640Y-99129000D01*
X176244360Y-99129000D01*
X176271938Y-99131716D01*
X176271938Y-99131716D01*
G37*
G36*
X177241938Y-99131716D02*
G01*
X177262557Y-99137971D01*
X177281553Y-99148124D01*
X177298208Y-99161792D01*
X177311876Y-99178447D01*
X177322029Y-99197443D01*
X177328284Y-99218062D01*
X177331000Y-99245640D01*
X177331000Y-99754360D01*
X177328284Y-99781938D01*
X177322029Y-99802557D01*
X177311876Y-99821553D01*
X177298208Y-99838208D01*
X177281553Y-99851876D01*
X177262557Y-99862029D01*
X177241938Y-99868284D01*
X177214360Y-99871000D01*
X176755640Y-99871000D01*
X176728062Y-99868284D01*
X176707443Y-99862029D01*
X176688447Y-99851876D01*
X176671792Y-99838208D01*
X176658124Y-99821553D01*
X176647971Y-99802557D01*
X176641716Y-99781938D01*
X176639000Y-99754360D01*
X176639000Y-99245640D01*
X176641716Y-99218062D01*
X176647971Y-99197443D01*
X176658124Y-99178447D01*
X176671792Y-99161792D01*
X176688447Y-99148124D01*
X176707443Y-99137971D01*
X176728062Y-99131716D01*
X176755640Y-99129000D01*
X177214360Y-99129000D01*
X177241938Y-99131716D01*
X177241938Y-99131716D01*
G37*
G36*
X173771938Y-98131716D02*
G01*
X173792557Y-98137971D01*
X173811553Y-98148124D01*
X173828208Y-98161792D01*
X173841876Y-98178447D01*
X173852029Y-98197443D01*
X173858284Y-98218062D01*
X173861000Y-98245640D01*
X173861000Y-98754360D01*
X173858284Y-98781938D01*
X173852029Y-98802557D01*
X173841876Y-98821553D01*
X173828208Y-98838208D01*
X173811553Y-98851876D01*
X173792557Y-98862029D01*
X173771938Y-98868284D01*
X173744360Y-98871000D01*
X173285640Y-98871000D01*
X173258062Y-98868284D01*
X173237443Y-98862029D01*
X173218447Y-98851876D01*
X173201792Y-98838208D01*
X173188124Y-98821553D01*
X173177971Y-98802557D01*
X173171716Y-98781938D01*
X173169000Y-98754360D01*
X173169000Y-98245640D01*
X173171716Y-98218062D01*
X173177971Y-98197443D01*
X173188124Y-98178447D01*
X173201792Y-98161792D01*
X173218447Y-98148124D01*
X173237443Y-98137971D01*
X173258062Y-98131716D01*
X173285640Y-98129000D01*
X173744360Y-98129000D01*
X173771938Y-98131716D01*
X173771938Y-98131716D01*
G37*
G36*
X174741938Y-98131716D02*
G01*
X174762557Y-98137971D01*
X174781553Y-98148124D01*
X174798208Y-98161792D01*
X174811876Y-98178447D01*
X174822029Y-98197443D01*
X174828284Y-98218062D01*
X174831000Y-98245640D01*
X174831000Y-98754360D01*
X174828284Y-98781938D01*
X174822029Y-98802557D01*
X174811876Y-98821553D01*
X174798208Y-98838208D01*
X174781553Y-98851876D01*
X174762557Y-98862029D01*
X174741938Y-98868284D01*
X174714360Y-98871000D01*
X174255640Y-98871000D01*
X174228062Y-98868284D01*
X174207443Y-98862029D01*
X174188447Y-98851876D01*
X174171792Y-98838208D01*
X174158124Y-98821553D01*
X174147971Y-98802557D01*
X174141716Y-98781938D01*
X174139000Y-98754360D01*
X174139000Y-98245640D01*
X174141716Y-98218062D01*
X174147971Y-98197443D01*
X174158124Y-98178447D01*
X174171792Y-98161792D01*
X174188447Y-98148124D01*
X174207443Y-98137971D01*
X174228062Y-98131716D01*
X174255640Y-98129000D01*
X174714360Y-98129000D01*
X174741938Y-98131716D01*
X174741938Y-98131716D01*
G37*
G36*
X180655355Y-93850083D02*
G01*
X180660029Y-93851501D01*
X180664330Y-93853800D01*
X180670702Y-93859029D01*
X180691076Y-93872643D01*
X180713715Y-93882020D01*
X180737749Y-93886800D01*
X180762253Y-93886800D01*
X180786286Y-93882019D01*
X180808925Y-93872642D01*
X180829298Y-93859029D01*
X180835670Y-93853800D01*
X180839971Y-93851501D01*
X180844645Y-93850083D01*
X180855641Y-93849000D01*
X181144359Y-93849000D01*
X181155355Y-93850083D01*
X181160029Y-93851501D01*
X181164330Y-93853800D01*
X181170702Y-93859029D01*
X181191076Y-93872643D01*
X181213715Y-93882020D01*
X181237749Y-93886800D01*
X181262253Y-93886800D01*
X181286286Y-93882019D01*
X181308925Y-93872642D01*
X181329298Y-93859029D01*
X181335670Y-93853800D01*
X181339971Y-93851501D01*
X181344645Y-93850083D01*
X181355641Y-93849000D01*
X181644359Y-93849000D01*
X181655355Y-93850083D01*
X181660029Y-93851501D01*
X181664330Y-93853800D01*
X181670702Y-93859029D01*
X181691076Y-93872643D01*
X181713715Y-93882020D01*
X181737749Y-93886800D01*
X181762253Y-93886800D01*
X181786286Y-93882019D01*
X181808925Y-93872642D01*
X181829298Y-93859029D01*
X181835670Y-93853800D01*
X181839971Y-93851501D01*
X181844645Y-93850083D01*
X181855641Y-93849000D01*
X182144359Y-93849000D01*
X182155355Y-93850083D01*
X182160029Y-93851501D01*
X182164330Y-93853800D01*
X182170702Y-93859029D01*
X182191076Y-93872643D01*
X182213715Y-93882020D01*
X182237749Y-93886800D01*
X182262253Y-93886800D01*
X182286286Y-93882019D01*
X182308925Y-93872642D01*
X182329298Y-93859029D01*
X182335670Y-93853800D01*
X182339971Y-93851501D01*
X182344645Y-93850083D01*
X182355641Y-93849000D01*
X182644359Y-93849000D01*
X182655355Y-93850083D01*
X182660029Y-93851501D01*
X182664330Y-93853800D01*
X182670702Y-93859029D01*
X182691076Y-93872643D01*
X182713715Y-93882020D01*
X182737749Y-93886800D01*
X182762253Y-93886800D01*
X182786286Y-93882019D01*
X182808925Y-93872642D01*
X182829298Y-93859029D01*
X182835670Y-93853800D01*
X182839971Y-93851501D01*
X182844645Y-93850083D01*
X182855641Y-93849000D01*
X183144359Y-93849000D01*
X183155355Y-93850083D01*
X183160029Y-93851501D01*
X183164331Y-93853800D01*
X183168104Y-93856896D01*
X183171200Y-93860669D01*
X183173499Y-93864971D01*
X183174917Y-93869645D01*
X183176000Y-93880641D01*
X183176000Y-94699001D01*
X183178402Y-94723387D01*
X183185515Y-94746836D01*
X183197066Y-94768447D01*
X183212611Y-94787389D01*
X183231553Y-94802934D01*
X183253164Y-94814485D01*
X183276613Y-94821598D01*
X183300999Y-94824000D01*
X184119359Y-94824000D01*
X184130355Y-94825083D01*
X184135029Y-94826501D01*
X184139331Y-94828800D01*
X184143104Y-94831896D01*
X184146200Y-94835669D01*
X184148499Y-94839971D01*
X184149917Y-94844645D01*
X184151000Y-94855641D01*
X184151000Y-95144359D01*
X184149917Y-95155355D01*
X184148499Y-95160029D01*
X184146200Y-95164330D01*
X184140971Y-95170702D01*
X184127357Y-95191076D01*
X184117980Y-95213715D01*
X184113200Y-95237749D01*
X184113200Y-95262253D01*
X184117981Y-95286286D01*
X184127358Y-95308925D01*
X184140971Y-95329298D01*
X184146200Y-95335670D01*
X184148499Y-95339971D01*
X184149917Y-95344645D01*
X184151000Y-95355641D01*
X184151000Y-95644359D01*
X184149917Y-95655355D01*
X184148499Y-95660029D01*
X184146200Y-95664330D01*
X184140971Y-95670702D01*
X184127357Y-95691076D01*
X184117980Y-95713715D01*
X184113200Y-95737749D01*
X184113200Y-95762253D01*
X184117981Y-95786286D01*
X184127358Y-95808925D01*
X184140971Y-95829298D01*
X184146200Y-95835670D01*
X184148499Y-95839971D01*
X184149917Y-95844645D01*
X184151000Y-95855641D01*
X184151000Y-96144359D01*
X184149917Y-96155355D01*
X184148499Y-96160029D01*
X184146200Y-96164330D01*
X184140971Y-96170702D01*
X184127357Y-96191076D01*
X184117980Y-96213715D01*
X184113200Y-96237749D01*
X184113200Y-96262253D01*
X184117981Y-96286286D01*
X184127358Y-96308925D01*
X184140971Y-96329298D01*
X184146200Y-96335670D01*
X184148499Y-96339971D01*
X184149917Y-96344645D01*
X184151000Y-96355641D01*
X184151000Y-96644359D01*
X184149917Y-96655355D01*
X184148499Y-96660029D01*
X184146200Y-96664330D01*
X184140971Y-96670702D01*
X184127357Y-96691076D01*
X184117980Y-96713715D01*
X184113200Y-96737749D01*
X184113200Y-96762253D01*
X184117981Y-96786286D01*
X184127358Y-96808925D01*
X184140971Y-96829298D01*
X184146200Y-96835670D01*
X184148499Y-96839971D01*
X184149917Y-96844645D01*
X184151000Y-96855641D01*
X184151000Y-97144359D01*
X184149917Y-97155355D01*
X184148499Y-97160029D01*
X184146200Y-97164330D01*
X184140971Y-97170702D01*
X184127357Y-97191076D01*
X184117980Y-97213715D01*
X184113200Y-97237749D01*
X184113200Y-97262253D01*
X184117981Y-97286286D01*
X184127358Y-97308925D01*
X184140971Y-97329298D01*
X184146200Y-97335670D01*
X184148499Y-97339971D01*
X184149917Y-97344645D01*
X184151000Y-97355641D01*
X184151000Y-97644359D01*
X184149917Y-97655355D01*
X184148499Y-97660029D01*
X184146200Y-97664331D01*
X184143104Y-97668104D01*
X184139331Y-97671200D01*
X184135029Y-97673499D01*
X184130355Y-97674917D01*
X184119359Y-97676000D01*
X183300999Y-97676000D01*
X183276613Y-97678402D01*
X183253164Y-97685515D01*
X183231553Y-97697066D01*
X183212611Y-97712611D01*
X183197066Y-97731553D01*
X183185515Y-97753164D01*
X183178402Y-97776613D01*
X183176000Y-97800999D01*
X183176000Y-98619359D01*
X183174917Y-98630355D01*
X183173499Y-98635029D01*
X183171200Y-98639331D01*
X183168104Y-98643104D01*
X183164331Y-98646200D01*
X183160029Y-98648499D01*
X183155355Y-98649917D01*
X183144359Y-98651000D01*
X182855641Y-98651000D01*
X182844645Y-98649917D01*
X182839971Y-98648499D01*
X182835670Y-98646200D01*
X182829298Y-98640971D01*
X182808924Y-98627357D01*
X182786285Y-98617980D01*
X182762251Y-98613200D01*
X182737747Y-98613200D01*
X182713714Y-98617981D01*
X182691075Y-98627358D01*
X182670702Y-98640971D01*
X182664330Y-98646200D01*
X182660029Y-98648499D01*
X182655355Y-98649917D01*
X182644359Y-98651000D01*
X182355641Y-98651000D01*
X182344645Y-98649917D01*
X182339971Y-98648499D01*
X182335670Y-98646200D01*
X182329298Y-98640971D01*
X182308924Y-98627357D01*
X182286285Y-98617980D01*
X182262251Y-98613200D01*
X182237747Y-98613200D01*
X182213714Y-98617981D01*
X182191075Y-98627358D01*
X182170702Y-98640971D01*
X182164330Y-98646200D01*
X182160029Y-98648499D01*
X182155355Y-98649917D01*
X182144359Y-98651000D01*
X181855641Y-98651000D01*
X181844645Y-98649917D01*
X181839971Y-98648499D01*
X181835670Y-98646200D01*
X181829298Y-98640971D01*
X181808924Y-98627357D01*
X181786285Y-98617980D01*
X181762251Y-98613200D01*
X181737747Y-98613200D01*
X181713714Y-98617981D01*
X181691075Y-98627358D01*
X181670702Y-98640971D01*
X181664330Y-98646200D01*
X181660029Y-98648499D01*
X181655355Y-98649917D01*
X181644359Y-98651000D01*
X181355641Y-98651000D01*
X181344645Y-98649917D01*
X181339971Y-98648499D01*
X181335670Y-98646200D01*
X181329298Y-98640971D01*
X181308924Y-98627357D01*
X181286285Y-98617980D01*
X181262251Y-98613200D01*
X181237747Y-98613200D01*
X181213714Y-98617981D01*
X181191075Y-98627358D01*
X181170702Y-98640971D01*
X181164330Y-98646200D01*
X181160029Y-98648499D01*
X181155355Y-98649917D01*
X181144359Y-98651000D01*
X180855641Y-98651000D01*
X180844645Y-98649917D01*
X180839971Y-98648499D01*
X180835670Y-98646200D01*
X180829298Y-98640971D01*
X180808924Y-98627357D01*
X180786285Y-98617980D01*
X180762251Y-98613200D01*
X180737747Y-98613200D01*
X180713714Y-98617981D01*
X180691075Y-98627358D01*
X180670702Y-98640971D01*
X180664330Y-98646200D01*
X180660029Y-98648499D01*
X180655355Y-98649917D01*
X180644359Y-98651000D01*
X180355641Y-98651000D01*
X180344645Y-98649917D01*
X180339971Y-98648499D01*
X180335669Y-98646200D01*
X180331896Y-98643104D01*
X180328800Y-98639331D01*
X180326501Y-98635029D01*
X180325083Y-98630355D01*
X180324000Y-98619359D01*
X180324000Y-97800999D01*
X180321598Y-97776613D01*
X180314485Y-97753164D01*
X180302934Y-97731553D01*
X180287389Y-97712611D01*
X180268447Y-97697066D01*
X180246836Y-97685515D01*
X180223387Y-97678402D01*
X180199001Y-97676000D01*
X179380641Y-97676000D01*
X179369645Y-97674917D01*
X179364971Y-97673499D01*
X179360669Y-97671200D01*
X179356896Y-97668104D01*
X179353800Y-97664331D01*
X179351501Y-97660029D01*
X179350083Y-97655355D01*
X179349000Y-97644359D01*
X179349000Y-97355641D01*
X179350083Y-97344645D01*
X179351501Y-97339971D01*
X179353800Y-97335670D01*
X179359029Y-97329298D01*
X179372643Y-97308924D01*
X179382020Y-97286285D01*
X179386800Y-97262251D01*
X179386800Y-97237747D01*
X179382019Y-97213714D01*
X179372642Y-97191075D01*
X179359029Y-97170702D01*
X179353800Y-97164330D01*
X179351501Y-97160029D01*
X179350083Y-97155355D01*
X179349000Y-97144359D01*
X179349000Y-96855641D01*
X179350083Y-96844645D01*
X179351501Y-96839971D01*
X179353800Y-96835670D01*
X179359029Y-96829298D01*
X179372643Y-96808924D01*
X179382020Y-96786285D01*
X179386800Y-96762251D01*
X179386800Y-96737747D01*
X179382019Y-96713714D01*
X179372642Y-96691075D01*
X179359029Y-96670702D01*
X179353800Y-96664330D01*
X179351501Y-96660029D01*
X179350083Y-96655355D01*
X179349000Y-96644359D01*
X179349000Y-96355641D01*
X179350083Y-96344645D01*
X179351501Y-96339971D01*
X179353800Y-96335670D01*
X179359029Y-96329298D01*
X179372643Y-96308924D01*
X179382020Y-96286285D01*
X179386800Y-96262251D01*
X179386800Y-96237747D01*
X179382019Y-96213714D01*
X179372642Y-96191075D01*
X179359029Y-96170702D01*
X179353800Y-96164330D01*
X179351501Y-96160029D01*
X179350083Y-96155355D01*
X179349000Y-96144359D01*
X179349000Y-95855641D01*
X179350083Y-95844645D01*
X179351501Y-95839971D01*
X179353800Y-95835670D01*
X179359029Y-95829298D01*
X179372643Y-95808924D01*
X179382020Y-95786285D01*
X179386800Y-95762251D01*
X179386800Y-95737747D01*
X179382019Y-95713714D01*
X179372642Y-95691075D01*
X179359029Y-95670702D01*
X179353800Y-95664330D01*
X179351501Y-95660029D01*
X179350083Y-95655355D01*
X179349000Y-95644359D01*
X179349000Y-95355641D01*
X179350083Y-95344645D01*
X179351501Y-95339971D01*
X179353800Y-95335670D01*
X179359029Y-95329298D01*
X179372643Y-95308924D01*
X179382020Y-95286285D01*
X179386800Y-95262251D01*
X179386800Y-95237747D01*
X179382019Y-95213714D01*
X179372642Y-95191075D01*
X179359029Y-95170702D01*
X179353800Y-95164330D01*
X179351501Y-95160029D01*
X179350083Y-95155355D01*
X179349000Y-95144359D01*
X179349000Y-94855641D01*
X179350083Y-94844645D01*
X179351501Y-94839971D01*
X179353800Y-94835669D01*
X179356896Y-94831896D01*
X179360669Y-94828800D01*
X179364971Y-94826501D01*
X179369645Y-94825083D01*
X179380641Y-94824000D01*
X180199001Y-94824000D01*
X180223387Y-94821598D01*
X180246836Y-94814485D01*
X180268447Y-94802934D01*
X180287389Y-94787389D01*
X180302934Y-94768447D01*
X180314485Y-94746836D01*
X180321598Y-94723387D01*
X180324000Y-94699001D01*
X180324000Y-93880641D01*
X180325083Y-93869645D01*
X180326501Y-93864971D01*
X180328800Y-93860669D01*
X180331896Y-93856896D01*
X180335669Y-93853800D01*
X180339971Y-93851501D01*
X180344645Y-93850083D01*
X180355641Y-93849000D01*
X180644359Y-93849000D01*
X180655355Y-93850083D01*
X180655355Y-93850083D01*
G37*
G36*
X149551000Y-98051000D02*
G01*
X145449000Y-98051000D01*
X145449000Y-94949000D01*
X149551000Y-94949000D01*
X149551000Y-98051000D01*
X149551000Y-98051000D01*
G37*
G36*
X140801000Y-98051000D02*
G01*
X136699000Y-98051000D01*
X136699000Y-94949000D01*
X140801000Y-94949000D01*
X140801000Y-98051000D01*
X140801000Y-98051000D01*
G37*
G36*
X134301000Y-98051000D02*
G01*
X130199000Y-98051000D01*
X130199000Y-94949000D01*
X134301000Y-94949000D01*
X134301000Y-98051000D01*
X134301000Y-98051000D01*
G37*
G36*
X165051000Y-98051000D02*
G01*
X160949000Y-98051000D01*
X160949000Y-94949000D01*
X165051000Y-94949000D01*
X165051000Y-98051000D01*
X165051000Y-98051000D01*
G37*
G36*
X156051000Y-98051000D02*
G01*
X151949000Y-98051000D01*
X151949000Y-94949000D01*
X156051000Y-94949000D01*
X156051000Y-98051000D01*
X156051000Y-98051000D01*
G37*
G36*
X177241938Y-97131716D02*
G01*
X177262557Y-97137971D01*
X177281553Y-97148124D01*
X177298208Y-97161792D01*
X177311876Y-97178447D01*
X177322029Y-97197443D01*
X177328284Y-97218062D01*
X177331000Y-97245640D01*
X177331000Y-97754360D01*
X177328284Y-97781938D01*
X177322029Y-97802557D01*
X177311876Y-97821553D01*
X177298208Y-97838208D01*
X177281553Y-97851876D01*
X177262557Y-97862029D01*
X177241938Y-97868284D01*
X177214360Y-97871000D01*
X176755640Y-97871000D01*
X176728062Y-97868284D01*
X176707443Y-97862029D01*
X176688447Y-97851876D01*
X176671792Y-97838208D01*
X176658124Y-97821553D01*
X176647971Y-97802557D01*
X176641716Y-97781938D01*
X176639000Y-97754360D01*
X176639000Y-97245640D01*
X176641716Y-97218062D01*
X176647971Y-97197443D01*
X176658124Y-97178447D01*
X176671792Y-97161792D01*
X176688447Y-97148124D01*
X176707443Y-97137971D01*
X176728062Y-97131716D01*
X176755640Y-97129000D01*
X177214360Y-97129000D01*
X177241938Y-97131716D01*
X177241938Y-97131716D01*
G37*
G36*
X176271938Y-97131716D02*
G01*
X176292557Y-97137971D01*
X176311553Y-97148124D01*
X176328208Y-97161792D01*
X176341876Y-97178447D01*
X176352029Y-97197443D01*
X176358284Y-97218062D01*
X176361000Y-97245640D01*
X176361000Y-97754360D01*
X176358284Y-97781938D01*
X176352029Y-97802557D01*
X176341876Y-97821553D01*
X176328208Y-97838208D01*
X176311553Y-97851876D01*
X176292557Y-97862029D01*
X176271938Y-97868284D01*
X176244360Y-97871000D01*
X175785640Y-97871000D01*
X175758062Y-97868284D01*
X175737443Y-97862029D01*
X175718447Y-97851876D01*
X175701792Y-97838208D01*
X175688124Y-97821553D01*
X175677971Y-97802557D01*
X175671716Y-97781938D01*
X175669000Y-97754360D01*
X175669000Y-97245640D01*
X175671716Y-97218062D01*
X175677971Y-97197443D01*
X175688124Y-97178447D01*
X175701792Y-97161792D01*
X175718447Y-97148124D01*
X175737443Y-97137971D01*
X175758062Y-97131716D01*
X175785640Y-97129000D01*
X176244360Y-97129000D01*
X176271938Y-97131716D01*
X176271938Y-97131716D01*
G37*
G36*
X142054591Y-96728085D02*
G01*
X142088569Y-96738393D01*
X142119890Y-96755134D01*
X142147339Y-96777661D01*
X142169866Y-96805110D01*
X142186607Y-96836431D01*
X142196915Y-96870409D01*
X142201000Y-96911890D01*
X142201000Y-97588110D01*
X142196915Y-97629591D01*
X142186607Y-97663569D01*
X142169866Y-97694890D01*
X142147339Y-97722339D01*
X142119890Y-97744866D01*
X142088569Y-97761607D01*
X142054591Y-97771915D01*
X142013110Y-97776000D01*
X141411890Y-97776000D01*
X141370409Y-97771915D01*
X141336431Y-97761607D01*
X141305110Y-97744866D01*
X141277661Y-97722339D01*
X141255134Y-97694890D01*
X141238393Y-97663569D01*
X141228085Y-97629591D01*
X141224000Y-97588110D01*
X141224000Y-96911890D01*
X141228085Y-96870409D01*
X141238393Y-96836431D01*
X141255134Y-96805110D01*
X141277661Y-96777661D01*
X141305110Y-96755134D01*
X141336431Y-96738393D01*
X141370409Y-96728085D01*
X141411890Y-96724000D01*
X142013110Y-96724000D01*
X142054591Y-96728085D01*
X142054591Y-96728085D01*
G37*
G36*
X135729591Y-96803085D02*
G01*
X135763569Y-96813393D01*
X135794890Y-96830134D01*
X135822339Y-96852661D01*
X135844866Y-96880110D01*
X135861607Y-96911431D01*
X135871915Y-96945409D01*
X135876000Y-96986890D01*
X135876000Y-97588110D01*
X135871915Y-97629591D01*
X135861607Y-97663569D01*
X135844866Y-97694890D01*
X135822339Y-97722339D01*
X135794890Y-97744866D01*
X135763569Y-97761607D01*
X135729591Y-97771915D01*
X135688110Y-97776000D01*
X135011890Y-97776000D01*
X134970409Y-97771915D01*
X134936431Y-97761607D01*
X134905110Y-97744866D01*
X134877661Y-97722339D01*
X134855134Y-97694890D01*
X134838393Y-97663569D01*
X134828085Y-97629591D01*
X134824000Y-97588110D01*
X134824000Y-96986890D01*
X134828085Y-96945409D01*
X134838393Y-96911431D01*
X134855134Y-96880110D01*
X134877661Y-96852661D01*
X134905110Y-96830134D01*
X134936431Y-96813393D01*
X134970409Y-96803085D01*
X135011890Y-96799000D01*
X135688110Y-96799000D01*
X135729591Y-96803085D01*
X135729591Y-96803085D01*
G37*
G36*
X143629591Y-96728085D02*
G01*
X143663569Y-96738393D01*
X143694890Y-96755134D01*
X143722339Y-96777661D01*
X143744866Y-96805110D01*
X143761607Y-96836431D01*
X143771915Y-96870409D01*
X143776000Y-96911890D01*
X143776000Y-97588110D01*
X143771915Y-97629591D01*
X143761607Y-97663569D01*
X143744866Y-97694890D01*
X143722339Y-97722339D01*
X143694890Y-97744866D01*
X143663569Y-97761607D01*
X143629591Y-97771915D01*
X143588110Y-97776000D01*
X142986890Y-97776000D01*
X142945409Y-97771915D01*
X142911431Y-97761607D01*
X142880110Y-97744866D01*
X142852661Y-97722339D01*
X142830134Y-97694890D01*
X142813393Y-97663569D01*
X142803085Y-97629591D01*
X142799000Y-97588110D01*
X142799000Y-96911890D01*
X142803085Y-96870409D01*
X142813393Y-96836431D01*
X142830134Y-96805110D01*
X142852661Y-96777661D01*
X142880110Y-96755134D01*
X142911431Y-96738393D01*
X142945409Y-96728085D01*
X142986890Y-96724000D01*
X143588110Y-96724000D01*
X143629591Y-96728085D01*
X143629591Y-96728085D01*
G37*
G36*
X157479591Y-96803085D02*
G01*
X157513569Y-96813393D01*
X157544890Y-96830134D01*
X157572339Y-96852661D01*
X157594866Y-96880110D01*
X157611607Y-96911431D01*
X157621915Y-96945409D01*
X157626000Y-96986890D01*
X157626000Y-97588110D01*
X157621915Y-97629591D01*
X157611607Y-97663569D01*
X157594866Y-97694890D01*
X157572339Y-97722339D01*
X157544890Y-97744866D01*
X157513569Y-97761607D01*
X157479591Y-97771915D01*
X157438110Y-97776000D01*
X156761890Y-97776000D01*
X156720409Y-97771915D01*
X156686431Y-97761607D01*
X156655110Y-97744866D01*
X156627661Y-97722339D01*
X156605134Y-97694890D01*
X156588393Y-97663569D01*
X156578085Y-97629591D01*
X156574000Y-97588110D01*
X156574000Y-96986890D01*
X156578085Y-96945409D01*
X156588393Y-96911431D01*
X156605134Y-96880110D01*
X156627661Y-96852661D01*
X156655110Y-96830134D01*
X156686431Y-96813393D01*
X156720409Y-96803085D01*
X156761890Y-96799000D01*
X157438110Y-96799000D01*
X157479591Y-96803085D01*
X157479591Y-96803085D01*
G37*
G36*
X123401000Y-97151000D02*
G01*
X118299000Y-97151000D01*
X118299000Y-78049000D01*
X123401000Y-78049000D01*
X123401000Y-97151000D01*
X123401000Y-97151000D01*
G37*
G36*
X110401000Y-97151000D02*
G01*
X105299000Y-97151000D01*
X105299000Y-78049000D01*
X110401000Y-78049000D01*
X110401000Y-97151000D01*
X110401000Y-97151000D01*
G37*
G36*
X185781938Y-96391716D02*
G01*
X185802557Y-96397971D01*
X185821553Y-96408124D01*
X185838208Y-96421792D01*
X185851876Y-96438447D01*
X185862029Y-96457443D01*
X185868284Y-96478062D01*
X185871000Y-96505640D01*
X185871000Y-96964360D01*
X185868284Y-96991938D01*
X185862029Y-97012557D01*
X185851876Y-97031553D01*
X185838208Y-97048208D01*
X185821553Y-97061876D01*
X185802557Y-97072029D01*
X185781938Y-97078284D01*
X185754360Y-97081000D01*
X185245640Y-97081000D01*
X185218062Y-97078284D01*
X185197443Y-97072029D01*
X185178447Y-97061876D01*
X185161792Y-97048208D01*
X185148124Y-97031553D01*
X185137971Y-97012557D01*
X185131716Y-96991938D01*
X185129000Y-96964360D01*
X185129000Y-96505640D01*
X185131716Y-96478062D01*
X185137971Y-96457443D01*
X185148124Y-96438447D01*
X185161792Y-96421792D01*
X185178447Y-96408124D01*
X185197443Y-96397971D01*
X185218062Y-96391716D01*
X185245640Y-96389000D01*
X185754360Y-96389000D01*
X185781938Y-96391716D01*
X185781938Y-96391716D01*
G37*
G36*
X174741938Y-96131716D02*
G01*
X174762557Y-96137971D01*
X174781553Y-96148124D01*
X174798208Y-96161792D01*
X174811876Y-96178447D01*
X174822029Y-96197443D01*
X174828284Y-96218062D01*
X174831000Y-96245640D01*
X174831000Y-96754360D01*
X174828284Y-96781938D01*
X174822029Y-96802557D01*
X174811876Y-96821553D01*
X174798208Y-96838208D01*
X174781553Y-96851876D01*
X174762557Y-96862029D01*
X174741938Y-96868284D01*
X174714360Y-96871000D01*
X174255640Y-96871000D01*
X174228062Y-96868284D01*
X174207443Y-96862029D01*
X174188447Y-96851876D01*
X174171792Y-96838208D01*
X174158124Y-96821553D01*
X174147971Y-96802557D01*
X174141716Y-96781938D01*
X174139000Y-96754360D01*
X174139000Y-96245640D01*
X174141716Y-96218062D01*
X174147971Y-96197443D01*
X174158124Y-96178447D01*
X174171792Y-96161792D01*
X174188447Y-96148124D01*
X174207443Y-96137971D01*
X174228062Y-96131716D01*
X174255640Y-96129000D01*
X174714360Y-96129000D01*
X174741938Y-96131716D01*
X174741938Y-96131716D01*
G37*
G36*
X173771938Y-96131716D02*
G01*
X173792557Y-96137971D01*
X173811553Y-96148124D01*
X173828208Y-96161792D01*
X173841876Y-96178447D01*
X173852029Y-96197443D01*
X173858284Y-96218062D01*
X173861000Y-96245640D01*
X173861000Y-96754360D01*
X173858284Y-96781938D01*
X173852029Y-96802557D01*
X173841876Y-96821553D01*
X173828208Y-96838208D01*
X173811553Y-96851876D01*
X173792557Y-96862029D01*
X173771938Y-96868284D01*
X173744360Y-96871000D01*
X173285640Y-96871000D01*
X173258062Y-96868284D01*
X173237443Y-96862029D01*
X173218447Y-96851876D01*
X173201792Y-96838208D01*
X173188124Y-96821553D01*
X173177971Y-96802557D01*
X173171716Y-96781938D01*
X173169000Y-96754360D01*
X173169000Y-96245640D01*
X173171716Y-96218062D01*
X173177971Y-96197443D01*
X173188124Y-96178447D01*
X173201792Y-96161792D01*
X173218447Y-96148124D01*
X173237443Y-96137971D01*
X173258062Y-96131716D01*
X173285640Y-96129000D01*
X173744360Y-96129000D01*
X173771938Y-96131716D01*
X173771938Y-96131716D01*
G37*
G36*
X142054591Y-95228085D02*
G01*
X142088569Y-95238393D01*
X142119890Y-95255134D01*
X142147339Y-95277661D01*
X142169866Y-95305110D01*
X142186607Y-95336431D01*
X142196915Y-95370409D01*
X142201000Y-95411890D01*
X142201000Y-96088110D01*
X142196915Y-96129591D01*
X142186607Y-96163569D01*
X142169866Y-96194890D01*
X142147339Y-96222339D01*
X142119890Y-96244866D01*
X142088569Y-96261607D01*
X142054591Y-96271915D01*
X142013110Y-96276000D01*
X141411890Y-96276000D01*
X141370409Y-96271915D01*
X141336431Y-96261607D01*
X141305110Y-96244866D01*
X141277661Y-96222339D01*
X141255134Y-96194890D01*
X141238393Y-96163569D01*
X141228085Y-96129591D01*
X141224000Y-96088110D01*
X141224000Y-95411890D01*
X141228085Y-95370409D01*
X141238393Y-95336431D01*
X141255134Y-95305110D01*
X141277661Y-95277661D01*
X141305110Y-95255134D01*
X141336431Y-95238393D01*
X141370409Y-95228085D01*
X141411890Y-95224000D01*
X142013110Y-95224000D01*
X142054591Y-95228085D01*
X142054591Y-95228085D01*
G37*
G36*
X143629591Y-95228085D02*
G01*
X143663569Y-95238393D01*
X143694890Y-95255134D01*
X143722339Y-95277661D01*
X143744866Y-95305110D01*
X143761607Y-95336431D01*
X143771915Y-95370409D01*
X143776000Y-95411890D01*
X143776000Y-96088110D01*
X143771915Y-96129591D01*
X143761607Y-96163569D01*
X143744866Y-96194890D01*
X143722339Y-96222339D01*
X143694890Y-96244866D01*
X143663569Y-96261607D01*
X143629591Y-96271915D01*
X143588110Y-96276000D01*
X142986890Y-96276000D01*
X142945409Y-96271915D01*
X142911431Y-96261607D01*
X142880110Y-96244866D01*
X142852661Y-96222339D01*
X142830134Y-96194890D01*
X142813393Y-96163569D01*
X142803085Y-96129591D01*
X142799000Y-96088110D01*
X142799000Y-95411890D01*
X142803085Y-95370409D01*
X142813393Y-95336431D01*
X142830134Y-95305110D01*
X142852661Y-95277661D01*
X142880110Y-95255134D01*
X142911431Y-95238393D01*
X142945409Y-95228085D01*
X142986890Y-95224000D01*
X143588110Y-95224000D01*
X143629591Y-95228085D01*
X143629591Y-95228085D01*
G37*
G36*
X135729591Y-95228085D02*
G01*
X135763569Y-95238393D01*
X135794890Y-95255134D01*
X135822339Y-95277661D01*
X135844866Y-95305110D01*
X135861607Y-95336431D01*
X135871915Y-95370409D01*
X135876000Y-95411890D01*
X135876000Y-96013110D01*
X135871915Y-96054591D01*
X135861607Y-96088569D01*
X135844866Y-96119890D01*
X135822339Y-96147339D01*
X135794890Y-96169866D01*
X135763569Y-96186607D01*
X135729591Y-96196915D01*
X135688110Y-96201000D01*
X135011890Y-96201000D01*
X134970409Y-96196915D01*
X134936431Y-96186607D01*
X134905110Y-96169866D01*
X134877661Y-96147339D01*
X134855134Y-96119890D01*
X134838393Y-96088569D01*
X134828085Y-96054591D01*
X134824000Y-96013110D01*
X134824000Y-95411890D01*
X134828085Y-95370409D01*
X134838393Y-95336431D01*
X134855134Y-95305110D01*
X134877661Y-95277661D01*
X134905110Y-95255134D01*
X134936431Y-95238393D01*
X134970409Y-95228085D01*
X135011890Y-95224000D01*
X135688110Y-95224000D01*
X135729591Y-95228085D01*
X135729591Y-95228085D01*
G37*
G36*
X157479591Y-95228085D02*
G01*
X157513569Y-95238393D01*
X157544890Y-95255134D01*
X157572339Y-95277661D01*
X157594866Y-95305110D01*
X157611607Y-95336431D01*
X157621915Y-95370409D01*
X157626000Y-95411890D01*
X157626000Y-96013110D01*
X157621915Y-96054591D01*
X157611607Y-96088569D01*
X157594866Y-96119890D01*
X157572339Y-96147339D01*
X157544890Y-96169866D01*
X157513569Y-96186607D01*
X157479591Y-96196915D01*
X157438110Y-96201000D01*
X156761890Y-96201000D01*
X156720409Y-96196915D01*
X156686431Y-96186607D01*
X156655110Y-96169866D01*
X156627661Y-96147339D01*
X156605134Y-96119890D01*
X156588393Y-96088569D01*
X156578085Y-96054591D01*
X156574000Y-96013110D01*
X156574000Y-95411890D01*
X156578085Y-95370409D01*
X156588393Y-95336431D01*
X156605134Y-95305110D01*
X156627661Y-95277661D01*
X156655110Y-95255134D01*
X156686431Y-95238393D01*
X156720409Y-95228085D01*
X156761890Y-95224000D01*
X157438110Y-95224000D01*
X157479591Y-95228085D01*
X157479591Y-95228085D01*
G37*
G36*
X185781938Y-95421716D02*
G01*
X185802557Y-95427971D01*
X185821553Y-95438124D01*
X185838208Y-95451792D01*
X185851876Y-95468447D01*
X185862029Y-95487443D01*
X185868284Y-95508062D01*
X185871000Y-95535640D01*
X185871000Y-95994360D01*
X185868284Y-96021938D01*
X185862029Y-96042557D01*
X185851876Y-96061553D01*
X185838208Y-96078208D01*
X185821553Y-96091876D01*
X185802557Y-96102029D01*
X185781938Y-96108284D01*
X185754360Y-96111000D01*
X185245640Y-96111000D01*
X185218062Y-96108284D01*
X185197443Y-96102029D01*
X185178447Y-96091876D01*
X185161792Y-96078208D01*
X185148124Y-96061553D01*
X185137971Y-96042557D01*
X185131716Y-96021938D01*
X185129000Y-95994360D01*
X185129000Y-95535640D01*
X185131716Y-95508062D01*
X185137971Y-95487443D01*
X185148124Y-95468447D01*
X185161792Y-95451792D01*
X185178447Y-95438124D01*
X185197443Y-95427971D01*
X185218062Y-95421716D01*
X185245640Y-95419000D01*
X185754360Y-95419000D01*
X185781938Y-95421716D01*
X185781938Y-95421716D01*
G37*
G36*
X187281938Y-92141716D02*
G01*
X187302557Y-92147971D01*
X187321553Y-92158124D01*
X187338208Y-92171792D01*
X187351876Y-92188447D01*
X187362029Y-92207443D01*
X187368284Y-92228062D01*
X187371000Y-92255640D01*
X187371000Y-92714360D01*
X187368284Y-92741938D01*
X187362029Y-92762557D01*
X187351876Y-92781553D01*
X187338208Y-92798208D01*
X187321553Y-92811876D01*
X187302557Y-92822029D01*
X187281938Y-92828284D01*
X187254360Y-92831000D01*
X186745640Y-92831000D01*
X186718062Y-92828284D01*
X186697443Y-92822029D01*
X186678447Y-92811876D01*
X186661792Y-92798208D01*
X186648124Y-92781553D01*
X186637971Y-92762557D01*
X186631716Y-92741938D01*
X186629000Y-92714360D01*
X186629000Y-92255640D01*
X186631716Y-92228062D01*
X186637971Y-92207443D01*
X186648124Y-92188447D01*
X186661792Y-92171792D01*
X186678447Y-92158124D01*
X186697443Y-92147971D01*
X186718062Y-92141716D01*
X186745640Y-92139000D01*
X187254360Y-92139000D01*
X187281938Y-92141716D01*
X187281938Y-92141716D01*
G37*
G36*
X187281938Y-91171716D02*
G01*
X187302557Y-91177971D01*
X187321553Y-91188124D01*
X187338208Y-91201792D01*
X187351876Y-91218447D01*
X187362029Y-91237443D01*
X187368284Y-91258062D01*
X187371000Y-91285640D01*
X187371000Y-91744360D01*
X187368284Y-91771938D01*
X187362029Y-91792557D01*
X187351876Y-91811553D01*
X187338208Y-91828208D01*
X187321553Y-91841876D01*
X187302557Y-91852029D01*
X187281938Y-91858284D01*
X187254360Y-91861000D01*
X186745640Y-91861000D01*
X186718062Y-91858284D01*
X186697443Y-91852029D01*
X186678447Y-91841876D01*
X186661792Y-91828208D01*
X186648124Y-91811553D01*
X186637971Y-91792557D01*
X186631716Y-91771938D01*
X186629000Y-91744360D01*
X186629000Y-91285640D01*
X186631716Y-91258062D01*
X186637971Y-91237443D01*
X186648124Y-91218447D01*
X186661792Y-91201792D01*
X186678447Y-91188124D01*
X186697443Y-91177971D01*
X186718062Y-91171716D01*
X186745640Y-91169000D01*
X187254360Y-91169000D01*
X187281938Y-91171716D01*
X187281938Y-91171716D01*
G37*
G36*
X172149867Y-90782004D02*
G01*
X172173292Y-90789110D01*
X172194889Y-90800654D01*
X172213814Y-90816186D01*
X172229346Y-90835111D01*
X172240890Y-90856708D01*
X172247996Y-90880133D01*
X172251000Y-90910638D01*
X172251000Y-91399362D01*
X172247996Y-91429867D01*
X172240890Y-91453292D01*
X172229346Y-91474889D01*
X172213814Y-91493814D01*
X172194889Y-91509346D01*
X172173292Y-91520890D01*
X172149867Y-91527996D01*
X172119362Y-91531000D01*
X170305638Y-91531000D01*
X170275133Y-91527996D01*
X170251708Y-91520890D01*
X170230111Y-91509346D01*
X170211186Y-91493814D01*
X170195654Y-91474889D01*
X170184110Y-91453292D01*
X170177004Y-91429867D01*
X170174000Y-91399362D01*
X170174000Y-90910638D01*
X170177004Y-90880133D01*
X170184110Y-90856708D01*
X170195654Y-90835111D01*
X170211186Y-90816186D01*
X170230111Y-90800654D01*
X170251708Y-90789110D01*
X170275133Y-90782004D01*
X170305638Y-90779000D01*
X172119362Y-90779000D01*
X172149867Y-90782004D01*
X172149867Y-90782004D01*
G37*
G36*
X177224867Y-90782004D02*
G01*
X177248292Y-90789110D01*
X177269889Y-90800654D01*
X177288814Y-90816186D01*
X177304346Y-90835111D01*
X177315890Y-90856708D01*
X177322996Y-90880133D01*
X177326000Y-90910638D01*
X177326000Y-91399362D01*
X177322996Y-91429867D01*
X177315890Y-91453292D01*
X177304346Y-91474889D01*
X177288814Y-91493814D01*
X177269889Y-91509346D01*
X177248292Y-91520890D01*
X177224867Y-91527996D01*
X177194362Y-91531000D01*
X175380638Y-91531000D01*
X175350133Y-91527996D01*
X175326708Y-91520890D01*
X175305111Y-91509346D01*
X175286186Y-91493814D01*
X175270654Y-91474889D01*
X175259110Y-91453292D01*
X175252004Y-91429867D01*
X175249000Y-91399362D01*
X175249000Y-90910638D01*
X175252004Y-90880133D01*
X175259110Y-90856708D01*
X175270654Y-90835111D01*
X175286186Y-90816186D01*
X175305111Y-90800654D01*
X175326708Y-90789110D01*
X175350133Y-90782004D01*
X175380638Y-90779000D01*
X177194362Y-90779000D01*
X177224867Y-90782004D01*
X177224867Y-90782004D01*
G37*
G36*
X169281938Y-90661716D02*
G01*
X169302557Y-90667971D01*
X169321553Y-90678124D01*
X169338208Y-90691792D01*
X169351876Y-90708447D01*
X169362029Y-90727443D01*
X169368284Y-90748062D01*
X169371000Y-90775640D01*
X169371000Y-91234360D01*
X169368284Y-91261938D01*
X169362029Y-91282557D01*
X169351876Y-91301553D01*
X169338208Y-91318208D01*
X169321553Y-91331876D01*
X169302557Y-91342029D01*
X169281938Y-91348284D01*
X169254360Y-91351000D01*
X168745640Y-91351000D01*
X168718062Y-91348284D01*
X168697443Y-91342029D01*
X168678447Y-91331876D01*
X168661792Y-91318208D01*
X168648124Y-91301553D01*
X168637971Y-91282557D01*
X168631716Y-91261938D01*
X168629000Y-91234360D01*
X168629000Y-90775640D01*
X168631716Y-90748062D01*
X168637971Y-90727443D01*
X168648124Y-90708447D01*
X168661792Y-90691792D01*
X168678447Y-90678124D01*
X168697443Y-90667971D01*
X168718062Y-90661716D01*
X168745640Y-90659000D01*
X169254360Y-90659000D01*
X169281938Y-90661716D01*
X169281938Y-90661716D01*
G37*
G36*
X169281938Y-89691716D02*
G01*
X169302557Y-89697971D01*
X169321553Y-89708124D01*
X169338208Y-89721792D01*
X169351876Y-89738447D01*
X169362029Y-89757443D01*
X169368284Y-89778062D01*
X169371000Y-89805640D01*
X169371000Y-90264360D01*
X169368284Y-90291938D01*
X169362029Y-90312557D01*
X169351876Y-90331553D01*
X169338208Y-90348208D01*
X169321553Y-90361876D01*
X169302557Y-90372029D01*
X169281938Y-90378284D01*
X169254360Y-90381000D01*
X168745640Y-90381000D01*
X168718062Y-90378284D01*
X168697443Y-90372029D01*
X168678447Y-90361876D01*
X168661792Y-90348208D01*
X168648124Y-90331553D01*
X168637971Y-90312557D01*
X168631716Y-90291938D01*
X168629000Y-90264360D01*
X168629000Y-89805640D01*
X168631716Y-89778062D01*
X168637971Y-89757443D01*
X168648124Y-89738447D01*
X168661792Y-89721792D01*
X168678447Y-89708124D01*
X168697443Y-89697971D01*
X168718062Y-89691716D01*
X168745640Y-89689000D01*
X169254360Y-89689000D01*
X169281938Y-89691716D01*
X169281938Y-89691716D01*
G37*
G36*
X182781938Y-89641716D02*
G01*
X182802557Y-89647971D01*
X182821553Y-89658124D01*
X182838208Y-89671792D01*
X182851876Y-89688447D01*
X182862029Y-89707443D01*
X182868284Y-89728062D01*
X182871000Y-89755640D01*
X182871000Y-90214360D01*
X182868284Y-90241938D01*
X182862029Y-90262557D01*
X182851876Y-90281553D01*
X182838208Y-90298208D01*
X182821553Y-90311876D01*
X182802557Y-90322029D01*
X182781938Y-90328284D01*
X182754360Y-90331000D01*
X182245640Y-90331000D01*
X182218062Y-90328284D01*
X182197443Y-90322029D01*
X182178447Y-90311876D01*
X182161792Y-90298208D01*
X182148124Y-90281553D01*
X182137971Y-90262557D01*
X182131716Y-90241938D01*
X182129000Y-90214360D01*
X182129000Y-89755640D01*
X182131716Y-89728062D01*
X182137971Y-89707443D01*
X182148124Y-89688447D01*
X182161792Y-89671792D01*
X182178447Y-89658124D01*
X182197443Y-89647971D01*
X182218062Y-89641716D01*
X182245640Y-89639000D01*
X182754360Y-89639000D01*
X182781938Y-89641716D01*
X182781938Y-89641716D01*
G37*
G36*
X181281938Y-89641716D02*
G01*
X181302557Y-89647971D01*
X181321553Y-89658124D01*
X181338208Y-89671792D01*
X181351876Y-89688447D01*
X181362029Y-89707443D01*
X181368284Y-89728062D01*
X181371000Y-89755640D01*
X181371000Y-90214360D01*
X181368284Y-90241938D01*
X181362029Y-90262557D01*
X181351876Y-90281553D01*
X181338208Y-90298208D01*
X181321553Y-90311876D01*
X181302557Y-90322029D01*
X181281938Y-90328284D01*
X181254360Y-90331000D01*
X180745640Y-90331000D01*
X180718062Y-90328284D01*
X180697443Y-90322029D01*
X180678447Y-90311876D01*
X180661792Y-90298208D01*
X180648124Y-90281553D01*
X180637971Y-90262557D01*
X180631716Y-90241938D01*
X180629000Y-90214360D01*
X180629000Y-89755640D01*
X180631716Y-89728062D01*
X180637971Y-89707443D01*
X180648124Y-89688447D01*
X180661792Y-89671792D01*
X180678447Y-89658124D01*
X180697443Y-89647971D01*
X180718062Y-89641716D01*
X180745640Y-89639000D01*
X181254360Y-89639000D01*
X181281938Y-89641716D01*
X181281938Y-89641716D01*
G37*
G36*
X184281938Y-89641716D02*
G01*
X184302557Y-89647971D01*
X184321553Y-89658124D01*
X184338208Y-89671792D01*
X184351876Y-89688447D01*
X184362029Y-89707443D01*
X184368284Y-89728062D01*
X184371000Y-89755640D01*
X184371000Y-90214360D01*
X184368284Y-90241938D01*
X184362029Y-90262557D01*
X184351876Y-90281553D01*
X184338208Y-90298208D01*
X184321553Y-90311876D01*
X184302557Y-90322029D01*
X184281938Y-90328284D01*
X184254360Y-90331000D01*
X183745640Y-90331000D01*
X183718062Y-90328284D01*
X183697443Y-90322029D01*
X183678447Y-90311876D01*
X183661792Y-90298208D01*
X183648124Y-90281553D01*
X183637971Y-90262557D01*
X183631716Y-90241938D01*
X183629000Y-90214360D01*
X183629000Y-89755640D01*
X183631716Y-89728062D01*
X183637971Y-89707443D01*
X183648124Y-89688447D01*
X183661792Y-89671792D01*
X183678447Y-89658124D01*
X183697443Y-89647971D01*
X183718062Y-89641716D01*
X183745640Y-89639000D01*
X184254360Y-89639000D01*
X184281938Y-89641716D01*
X184281938Y-89641716D01*
G37*
G36*
X187281938Y-89641716D02*
G01*
X187302557Y-89647971D01*
X187321553Y-89658124D01*
X187338208Y-89671792D01*
X187351876Y-89688447D01*
X187362029Y-89707443D01*
X187368284Y-89728062D01*
X187371000Y-89755640D01*
X187371000Y-90214360D01*
X187368284Y-90241938D01*
X187362029Y-90262557D01*
X187351876Y-90281553D01*
X187338208Y-90298208D01*
X187321553Y-90311876D01*
X187302557Y-90322029D01*
X187281938Y-90328284D01*
X187254360Y-90331000D01*
X186745640Y-90331000D01*
X186718062Y-90328284D01*
X186697443Y-90322029D01*
X186678447Y-90311876D01*
X186661792Y-90298208D01*
X186648124Y-90281553D01*
X186637971Y-90262557D01*
X186631716Y-90241938D01*
X186629000Y-90214360D01*
X186629000Y-89755640D01*
X186631716Y-89728062D01*
X186637971Y-89707443D01*
X186648124Y-89688447D01*
X186661792Y-89671792D01*
X186678447Y-89658124D01*
X186697443Y-89647971D01*
X186718062Y-89641716D01*
X186745640Y-89639000D01*
X187254360Y-89639000D01*
X187281938Y-89641716D01*
X187281938Y-89641716D01*
G37*
G36*
X185781938Y-89641716D02*
G01*
X185802557Y-89647971D01*
X185821553Y-89658124D01*
X185838208Y-89671792D01*
X185851876Y-89688447D01*
X185862029Y-89707443D01*
X185868284Y-89728062D01*
X185871000Y-89755640D01*
X185871000Y-90214360D01*
X185868284Y-90241938D01*
X185862029Y-90262557D01*
X185851876Y-90281553D01*
X185838208Y-90298208D01*
X185821553Y-90311876D01*
X185802557Y-90322029D01*
X185781938Y-90328284D01*
X185754360Y-90331000D01*
X185245640Y-90331000D01*
X185218062Y-90328284D01*
X185197443Y-90322029D01*
X185178447Y-90311876D01*
X185161792Y-90298208D01*
X185148124Y-90281553D01*
X185137971Y-90262557D01*
X185131716Y-90241938D01*
X185129000Y-90214360D01*
X185129000Y-89755640D01*
X185131716Y-89728062D01*
X185137971Y-89707443D01*
X185148124Y-89688447D01*
X185161792Y-89671792D01*
X185178447Y-89658124D01*
X185197443Y-89647971D01*
X185218062Y-89641716D01*
X185245640Y-89639000D01*
X185754360Y-89639000D01*
X185781938Y-89641716D01*
X185781938Y-89641716D01*
G37*
G36*
X190587797Y-89710567D02*
G01*
X190630033Y-89728062D01*
X190642577Y-89733258D01*
X190691876Y-89766198D01*
X190733802Y-89808124D01*
X190766742Y-89857423D01*
X190766743Y-89857425D01*
X190789433Y-89912203D01*
X190801000Y-89970353D01*
X190801000Y-90029647D01*
X190789433Y-90087797D01*
X190780370Y-90109677D01*
X190766742Y-90142577D01*
X190733802Y-90191876D01*
X190691876Y-90233802D01*
X190642577Y-90266742D01*
X190642576Y-90266743D01*
X190642575Y-90266743D01*
X190587797Y-90289433D01*
X190529647Y-90301000D01*
X190470353Y-90301000D01*
X190412203Y-90289433D01*
X190357425Y-90266743D01*
X190357424Y-90266743D01*
X190357423Y-90266742D01*
X190308124Y-90233802D01*
X190266198Y-90191876D01*
X190233258Y-90142577D01*
X190219630Y-90109677D01*
X190210567Y-90087797D01*
X190199000Y-90029647D01*
X190199000Y-89970353D01*
X190210567Y-89912203D01*
X190233257Y-89857425D01*
X190233258Y-89857423D01*
X190266198Y-89808124D01*
X190308124Y-89766198D01*
X190357423Y-89733258D01*
X190369967Y-89728062D01*
X190412203Y-89710567D01*
X190470353Y-89699000D01*
X190529647Y-89699000D01*
X190587797Y-89710567D01*
X190587797Y-89710567D01*
G37*
G36*
X172149867Y-89512004D02*
G01*
X172173292Y-89519110D01*
X172194889Y-89530654D01*
X172213814Y-89546186D01*
X172229346Y-89565111D01*
X172240890Y-89586708D01*
X172247996Y-89610133D01*
X172251000Y-89640638D01*
X172251000Y-90129362D01*
X172247996Y-90159867D01*
X172240890Y-90183292D01*
X172229346Y-90204889D01*
X172213814Y-90223814D01*
X172194889Y-90239346D01*
X172173292Y-90250890D01*
X172149867Y-90257996D01*
X172119362Y-90261000D01*
X170305638Y-90261000D01*
X170275133Y-90257996D01*
X170251708Y-90250890D01*
X170230111Y-90239346D01*
X170211186Y-90223814D01*
X170195654Y-90204889D01*
X170184110Y-90183292D01*
X170177004Y-90159867D01*
X170174000Y-90129362D01*
X170174000Y-89640638D01*
X170177004Y-89610133D01*
X170184110Y-89586708D01*
X170195654Y-89565111D01*
X170211186Y-89546186D01*
X170230111Y-89530654D01*
X170251708Y-89519110D01*
X170275133Y-89512004D01*
X170305638Y-89509000D01*
X172119362Y-89509000D01*
X172149867Y-89512004D01*
X172149867Y-89512004D01*
G37*
G36*
X177224867Y-89512004D02*
G01*
X177248292Y-89519110D01*
X177269889Y-89530654D01*
X177288814Y-89546186D01*
X177304346Y-89565111D01*
X177315890Y-89586708D01*
X177322996Y-89610133D01*
X177326000Y-89640638D01*
X177326000Y-90129362D01*
X177322996Y-90159867D01*
X177315890Y-90183292D01*
X177304346Y-90204889D01*
X177288814Y-90223814D01*
X177269889Y-90239346D01*
X177248292Y-90250890D01*
X177224867Y-90257996D01*
X177194362Y-90261000D01*
X175380638Y-90261000D01*
X175350133Y-90257996D01*
X175326708Y-90250890D01*
X175305111Y-90239346D01*
X175286186Y-90223814D01*
X175270654Y-90204889D01*
X175259110Y-90183292D01*
X175252004Y-90159867D01*
X175249000Y-90129362D01*
X175249000Y-89640638D01*
X175252004Y-89610133D01*
X175259110Y-89586708D01*
X175270654Y-89565111D01*
X175286186Y-89546186D01*
X175305111Y-89530654D01*
X175326708Y-89519110D01*
X175350133Y-89512004D01*
X175380638Y-89509000D01*
X177194362Y-89509000D01*
X177224867Y-89512004D01*
X177224867Y-89512004D01*
G37*
G36*
X178781938Y-89391716D02*
G01*
X178802557Y-89397971D01*
X178821553Y-89408124D01*
X178838208Y-89421792D01*
X178851876Y-89438447D01*
X178862029Y-89457443D01*
X178868284Y-89478062D01*
X178871000Y-89505640D01*
X178871000Y-89964360D01*
X178868284Y-89991938D01*
X178862029Y-90012557D01*
X178851876Y-90031553D01*
X178838208Y-90048208D01*
X178821553Y-90061876D01*
X178802557Y-90072029D01*
X178781938Y-90078284D01*
X178754360Y-90081000D01*
X178245640Y-90081000D01*
X178218062Y-90078284D01*
X178197443Y-90072029D01*
X178178447Y-90061876D01*
X178161792Y-90048208D01*
X178148124Y-90031553D01*
X178137971Y-90012557D01*
X178131716Y-89991938D01*
X178129000Y-89964360D01*
X178129000Y-89505640D01*
X178131716Y-89478062D01*
X178137971Y-89457443D01*
X178148124Y-89438447D01*
X178161792Y-89421792D01*
X178178447Y-89408124D01*
X178197443Y-89397971D01*
X178218062Y-89391716D01*
X178245640Y-89389000D01*
X178754360Y-89389000D01*
X178781938Y-89391716D01*
X178781938Y-89391716D01*
G37*
G36*
X185781938Y-88671716D02*
G01*
X185802557Y-88677971D01*
X185821553Y-88688124D01*
X185838208Y-88701792D01*
X185851876Y-88718447D01*
X185862029Y-88737443D01*
X185868284Y-88758062D01*
X185871000Y-88785640D01*
X185871000Y-89244360D01*
X185868284Y-89271938D01*
X185862029Y-89292557D01*
X185851876Y-89311553D01*
X185838208Y-89328208D01*
X185821553Y-89341876D01*
X185802557Y-89352029D01*
X185781938Y-89358284D01*
X185754360Y-89361000D01*
X185245640Y-89361000D01*
X185218062Y-89358284D01*
X185197443Y-89352029D01*
X185178447Y-89341876D01*
X185161792Y-89328208D01*
X185148124Y-89311553D01*
X185137971Y-89292557D01*
X185131716Y-89271938D01*
X185129000Y-89244360D01*
X185129000Y-88785640D01*
X185131716Y-88758062D01*
X185137971Y-88737443D01*
X185148124Y-88718447D01*
X185161792Y-88701792D01*
X185178447Y-88688124D01*
X185197443Y-88677971D01*
X185218062Y-88671716D01*
X185245640Y-88669000D01*
X185754360Y-88669000D01*
X185781938Y-88671716D01*
X185781938Y-88671716D01*
G37*
G36*
X187281938Y-88671716D02*
G01*
X187302557Y-88677971D01*
X187321553Y-88688124D01*
X187338208Y-88701792D01*
X187351876Y-88718447D01*
X187362029Y-88737443D01*
X187368284Y-88758062D01*
X187371000Y-88785640D01*
X187371000Y-89244360D01*
X187368284Y-89271938D01*
X187362029Y-89292557D01*
X187351876Y-89311553D01*
X187338208Y-89328208D01*
X187321553Y-89341876D01*
X187302557Y-89352029D01*
X187281938Y-89358284D01*
X187254360Y-89361000D01*
X186745640Y-89361000D01*
X186718062Y-89358284D01*
X186697443Y-89352029D01*
X186678447Y-89341876D01*
X186661792Y-89328208D01*
X186648124Y-89311553D01*
X186637971Y-89292557D01*
X186631716Y-89271938D01*
X186629000Y-89244360D01*
X186629000Y-88785640D01*
X186631716Y-88758062D01*
X186637971Y-88737443D01*
X186648124Y-88718447D01*
X186661792Y-88701792D01*
X186678447Y-88688124D01*
X186697443Y-88677971D01*
X186718062Y-88671716D01*
X186745640Y-88669000D01*
X187254360Y-88669000D01*
X187281938Y-88671716D01*
X187281938Y-88671716D01*
G37*
G36*
X184281938Y-88671716D02*
G01*
X184302557Y-88677971D01*
X184321553Y-88688124D01*
X184338208Y-88701792D01*
X184351876Y-88718447D01*
X184362029Y-88737443D01*
X184368284Y-88758062D01*
X184371000Y-88785640D01*
X184371000Y-89244360D01*
X184368284Y-89271938D01*
X184362029Y-89292557D01*
X184351876Y-89311553D01*
X184338208Y-89328208D01*
X184321553Y-89341876D01*
X184302557Y-89352029D01*
X184281938Y-89358284D01*
X184254360Y-89361000D01*
X183745640Y-89361000D01*
X183718062Y-89358284D01*
X183697443Y-89352029D01*
X183678447Y-89341876D01*
X183661792Y-89328208D01*
X183648124Y-89311553D01*
X183637971Y-89292557D01*
X183631716Y-89271938D01*
X183629000Y-89244360D01*
X183629000Y-88785640D01*
X183631716Y-88758062D01*
X183637971Y-88737443D01*
X183648124Y-88718447D01*
X183661792Y-88701792D01*
X183678447Y-88688124D01*
X183697443Y-88677971D01*
X183718062Y-88671716D01*
X183745640Y-88669000D01*
X184254360Y-88669000D01*
X184281938Y-88671716D01*
X184281938Y-88671716D01*
G37*
G36*
X181281938Y-88671716D02*
G01*
X181302557Y-88677971D01*
X181321553Y-88688124D01*
X181338208Y-88701792D01*
X181351876Y-88718447D01*
X181362029Y-88737443D01*
X181368284Y-88758062D01*
X181371000Y-88785640D01*
X181371000Y-89244360D01*
X181368284Y-89271938D01*
X181362029Y-89292557D01*
X181351876Y-89311553D01*
X181338208Y-89328208D01*
X181321553Y-89341876D01*
X181302557Y-89352029D01*
X181281938Y-89358284D01*
X181254360Y-89361000D01*
X180745640Y-89361000D01*
X180718062Y-89358284D01*
X180697443Y-89352029D01*
X180678447Y-89341876D01*
X180661792Y-89328208D01*
X180648124Y-89311553D01*
X180637971Y-89292557D01*
X180631716Y-89271938D01*
X180629000Y-89244360D01*
X180629000Y-88785640D01*
X180631716Y-88758062D01*
X180637971Y-88737443D01*
X180648124Y-88718447D01*
X180661792Y-88701792D01*
X180678447Y-88688124D01*
X180697443Y-88677971D01*
X180718062Y-88671716D01*
X180745640Y-88669000D01*
X181254360Y-88669000D01*
X181281938Y-88671716D01*
X181281938Y-88671716D01*
G37*
G36*
X182781938Y-88671716D02*
G01*
X182802557Y-88677971D01*
X182821553Y-88688124D01*
X182838208Y-88701792D01*
X182851876Y-88718447D01*
X182862029Y-88737443D01*
X182868284Y-88758062D01*
X182871000Y-88785640D01*
X182871000Y-89244360D01*
X182868284Y-89271938D01*
X182862029Y-89292557D01*
X182851876Y-89311553D01*
X182838208Y-89328208D01*
X182821553Y-89341876D01*
X182802557Y-89352029D01*
X182781938Y-89358284D01*
X182754360Y-89361000D01*
X182245640Y-89361000D01*
X182218062Y-89358284D01*
X182197443Y-89352029D01*
X182178447Y-89341876D01*
X182161792Y-89328208D01*
X182148124Y-89311553D01*
X182137971Y-89292557D01*
X182131716Y-89271938D01*
X182129000Y-89244360D01*
X182129000Y-88785640D01*
X182131716Y-88758062D01*
X182137971Y-88737443D01*
X182148124Y-88718447D01*
X182161792Y-88701792D01*
X182178447Y-88688124D01*
X182197443Y-88677971D01*
X182218062Y-88671716D01*
X182245640Y-88669000D01*
X182754360Y-88669000D01*
X182781938Y-88671716D01*
X182781938Y-88671716D01*
G37*
G36*
X190587797Y-88710567D02*
G01*
X190642575Y-88733257D01*
X190642577Y-88733258D01*
X190691876Y-88766198D01*
X190733802Y-88808124D01*
X190766742Y-88857423D01*
X190766743Y-88857425D01*
X190789433Y-88912203D01*
X190801000Y-88970353D01*
X190801000Y-89029647D01*
X190789433Y-89087797D01*
X190779822Y-89111000D01*
X190766742Y-89142577D01*
X190733802Y-89191876D01*
X190691876Y-89233802D01*
X190642577Y-89266742D01*
X190642576Y-89266743D01*
X190642575Y-89266743D01*
X190587797Y-89289433D01*
X190529647Y-89301000D01*
X190470353Y-89301000D01*
X190412203Y-89289433D01*
X190357425Y-89266743D01*
X190357424Y-89266743D01*
X190357423Y-89266742D01*
X190308124Y-89233802D01*
X190266198Y-89191876D01*
X190233258Y-89142577D01*
X190220178Y-89111000D01*
X190210567Y-89087797D01*
X190199000Y-89029647D01*
X190199000Y-88970353D01*
X190210567Y-88912203D01*
X190233257Y-88857425D01*
X190233258Y-88857423D01*
X190266198Y-88808124D01*
X190308124Y-88766198D01*
X190357423Y-88733258D01*
X190357425Y-88733257D01*
X190412203Y-88710567D01*
X190470353Y-88699000D01*
X190529647Y-88699000D01*
X190587797Y-88710567D01*
X190587797Y-88710567D01*
G37*
G36*
X178781938Y-88421716D02*
G01*
X178802557Y-88427971D01*
X178821553Y-88438124D01*
X178838208Y-88451792D01*
X178851876Y-88468447D01*
X178862029Y-88487443D01*
X178868284Y-88508062D01*
X178871000Y-88535640D01*
X178871000Y-88994360D01*
X178868284Y-89021938D01*
X178862029Y-89042557D01*
X178851876Y-89061553D01*
X178838208Y-89078208D01*
X178821553Y-89091876D01*
X178802557Y-89102029D01*
X178781938Y-89108284D01*
X178754360Y-89111000D01*
X178245640Y-89111000D01*
X178218062Y-89108284D01*
X178197443Y-89102029D01*
X178178447Y-89091876D01*
X178161792Y-89078208D01*
X178148124Y-89061553D01*
X178137971Y-89042557D01*
X178131716Y-89021938D01*
X178129000Y-88994360D01*
X178129000Y-88535640D01*
X178131716Y-88508062D01*
X178137971Y-88487443D01*
X178148124Y-88468447D01*
X178161792Y-88451792D01*
X178178447Y-88438124D01*
X178197443Y-88427971D01*
X178218062Y-88421716D01*
X178245640Y-88419000D01*
X178754360Y-88419000D01*
X178781938Y-88421716D01*
X178781938Y-88421716D01*
G37*
G36*
X134301000Y-89051000D02*
G01*
X130199000Y-89051000D01*
X130199000Y-85949000D01*
X134301000Y-85949000D01*
X134301000Y-89051000D01*
X134301000Y-89051000D01*
G37*
G36*
X149551000Y-89051000D02*
G01*
X145449000Y-89051000D01*
X145449000Y-85949000D01*
X149551000Y-85949000D01*
X149551000Y-89051000D01*
X149551000Y-89051000D01*
G37*
G36*
X140801000Y-89051000D02*
G01*
X136699000Y-89051000D01*
X136699000Y-85949000D01*
X140801000Y-85949000D01*
X140801000Y-89051000D01*
X140801000Y-89051000D01*
G37*
G36*
X156051000Y-89051000D02*
G01*
X151949000Y-89051000D01*
X151949000Y-85949000D01*
X156051000Y-85949000D01*
X156051000Y-89051000D01*
X156051000Y-89051000D01*
G37*
G36*
X172149867Y-88242004D02*
G01*
X172173292Y-88249110D01*
X172194889Y-88260654D01*
X172213814Y-88276186D01*
X172229346Y-88295111D01*
X172240890Y-88316708D01*
X172247996Y-88340133D01*
X172251000Y-88370638D01*
X172251000Y-88859362D01*
X172247996Y-88889867D01*
X172240890Y-88913292D01*
X172229346Y-88934889D01*
X172213814Y-88953814D01*
X172194889Y-88969346D01*
X172173292Y-88980890D01*
X172149867Y-88987996D01*
X172119362Y-88991000D01*
X170305638Y-88991000D01*
X170275133Y-88987996D01*
X170251708Y-88980890D01*
X170230111Y-88969346D01*
X170211186Y-88953814D01*
X170195654Y-88934889D01*
X170184110Y-88913292D01*
X170177004Y-88889867D01*
X170174000Y-88859362D01*
X170174000Y-88370638D01*
X170177004Y-88340133D01*
X170184110Y-88316708D01*
X170195654Y-88295111D01*
X170211186Y-88276186D01*
X170230111Y-88260654D01*
X170251708Y-88249110D01*
X170275133Y-88242004D01*
X170305638Y-88239000D01*
X172119362Y-88239000D01*
X172149867Y-88242004D01*
X172149867Y-88242004D01*
G37*
G36*
X177224867Y-88242004D02*
G01*
X177248292Y-88249110D01*
X177269889Y-88260654D01*
X177288814Y-88276186D01*
X177304346Y-88295111D01*
X177315890Y-88316708D01*
X177322996Y-88340133D01*
X177326000Y-88370638D01*
X177326000Y-88859362D01*
X177322996Y-88889867D01*
X177315890Y-88913292D01*
X177304346Y-88934889D01*
X177288814Y-88953814D01*
X177269889Y-88969346D01*
X177248292Y-88980890D01*
X177224867Y-88987996D01*
X177194362Y-88991000D01*
X175380638Y-88991000D01*
X175350133Y-88987996D01*
X175326708Y-88980890D01*
X175305111Y-88969346D01*
X175286186Y-88953814D01*
X175270654Y-88934889D01*
X175259110Y-88913292D01*
X175252004Y-88889867D01*
X175249000Y-88859362D01*
X175249000Y-88370638D01*
X175252004Y-88340133D01*
X175259110Y-88316708D01*
X175270654Y-88295111D01*
X175286186Y-88276186D01*
X175305111Y-88260654D01*
X175326708Y-88249110D01*
X175350133Y-88242004D01*
X175380638Y-88239000D01*
X177194362Y-88239000D01*
X177224867Y-88242004D01*
X177224867Y-88242004D01*
G37*
G36*
X169281938Y-88121716D02*
G01*
X169302557Y-88127971D01*
X169321553Y-88138124D01*
X169338208Y-88151792D01*
X169351876Y-88168447D01*
X169362029Y-88187443D01*
X169368284Y-88208062D01*
X169371000Y-88235640D01*
X169371000Y-88694360D01*
X169368284Y-88721938D01*
X169362029Y-88742557D01*
X169351876Y-88761553D01*
X169338208Y-88778208D01*
X169321553Y-88791876D01*
X169302557Y-88802029D01*
X169281938Y-88808284D01*
X169254360Y-88811000D01*
X168745640Y-88811000D01*
X168718062Y-88808284D01*
X168697443Y-88802029D01*
X168678447Y-88791876D01*
X168661792Y-88778208D01*
X168648124Y-88761553D01*
X168637971Y-88742557D01*
X168631716Y-88721938D01*
X168629000Y-88694360D01*
X168629000Y-88235640D01*
X168631716Y-88208062D01*
X168637971Y-88187443D01*
X168648124Y-88168447D01*
X168661792Y-88151792D01*
X168678447Y-88138124D01*
X168697443Y-88127971D01*
X168718062Y-88121716D01*
X168745640Y-88119000D01*
X169254360Y-88119000D01*
X169281938Y-88121716D01*
X169281938Y-88121716D01*
G37*
G36*
X157479591Y-87803085D02*
G01*
X157513569Y-87813393D01*
X157544890Y-87830134D01*
X157572339Y-87852661D01*
X157594866Y-87880110D01*
X157611607Y-87911431D01*
X157621915Y-87945409D01*
X157626000Y-87986890D01*
X157626000Y-88588110D01*
X157621915Y-88629591D01*
X157611607Y-88663569D01*
X157594866Y-88694890D01*
X157572339Y-88722339D01*
X157544890Y-88744866D01*
X157513569Y-88761607D01*
X157479591Y-88771915D01*
X157438110Y-88776000D01*
X156761890Y-88776000D01*
X156720409Y-88771915D01*
X156686431Y-88761607D01*
X156655110Y-88744866D01*
X156627661Y-88722339D01*
X156605134Y-88694890D01*
X156588393Y-88663569D01*
X156578085Y-88629591D01*
X156574000Y-88588110D01*
X156574000Y-87986890D01*
X156578085Y-87945409D01*
X156588393Y-87911431D01*
X156605134Y-87880110D01*
X156627661Y-87852661D01*
X156655110Y-87830134D01*
X156686431Y-87813393D01*
X156720409Y-87803085D01*
X156761890Y-87799000D01*
X157438110Y-87799000D01*
X157479591Y-87803085D01*
X157479591Y-87803085D01*
G37*
G36*
X150979591Y-87803085D02*
G01*
X151013569Y-87813393D01*
X151044890Y-87830134D01*
X151072339Y-87852661D01*
X151094866Y-87880110D01*
X151111607Y-87911431D01*
X151121915Y-87945409D01*
X151126000Y-87986890D01*
X151126000Y-88588110D01*
X151121915Y-88629591D01*
X151111607Y-88663569D01*
X151094866Y-88694890D01*
X151072339Y-88722339D01*
X151044890Y-88744866D01*
X151013569Y-88761607D01*
X150979591Y-88771915D01*
X150938110Y-88776000D01*
X150261890Y-88776000D01*
X150220409Y-88771915D01*
X150186431Y-88761607D01*
X150155110Y-88744866D01*
X150127661Y-88722339D01*
X150105134Y-88694890D01*
X150088393Y-88663569D01*
X150078085Y-88629591D01*
X150074000Y-88588110D01*
X150074000Y-87986890D01*
X150078085Y-87945409D01*
X150088393Y-87911431D01*
X150105134Y-87880110D01*
X150127661Y-87852661D01*
X150155110Y-87830134D01*
X150186431Y-87813393D01*
X150220409Y-87803085D01*
X150261890Y-87799000D01*
X150938110Y-87799000D01*
X150979591Y-87803085D01*
X150979591Y-87803085D01*
G37*
G36*
X142054591Y-87728085D02*
G01*
X142088569Y-87738393D01*
X142119890Y-87755134D01*
X142147339Y-87777661D01*
X142169866Y-87805110D01*
X142186607Y-87836431D01*
X142196915Y-87870409D01*
X142201000Y-87911890D01*
X142201000Y-88588110D01*
X142196915Y-88629591D01*
X142186607Y-88663569D01*
X142169866Y-88694890D01*
X142147339Y-88722339D01*
X142119890Y-88744866D01*
X142088569Y-88761607D01*
X142054591Y-88771915D01*
X142013110Y-88776000D01*
X141411890Y-88776000D01*
X141370409Y-88771915D01*
X141336431Y-88761607D01*
X141305110Y-88744866D01*
X141277661Y-88722339D01*
X141255134Y-88694890D01*
X141238393Y-88663569D01*
X141228085Y-88629591D01*
X141224000Y-88588110D01*
X141224000Y-87911890D01*
X141228085Y-87870409D01*
X141238393Y-87836431D01*
X141255134Y-87805110D01*
X141277661Y-87777661D01*
X141305110Y-87755134D01*
X141336431Y-87738393D01*
X141370409Y-87728085D01*
X141411890Y-87724000D01*
X142013110Y-87724000D01*
X142054591Y-87728085D01*
X142054591Y-87728085D01*
G37*
G36*
X143629591Y-87728085D02*
G01*
X143663569Y-87738393D01*
X143694890Y-87755134D01*
X143722339Y-87777661D01*
X143744866Y-87805110D01*
X143761607Y-87836431D01*
X143771915Y-87870409D01*
X143776000Y-87911890D01*
X143776000Y-88588110D01*
X143771915Y-88629591D01*
X143761607Y-88663569D01*
X143744866Y-88694890D01*
X143722339Y-88722339D01*
X143694890Y-88744866D01*
X143663569Y-88761607D01*
X143629591Y-88771915D01*
X143588110Y-88776000D01*
X142986890Y-88776000D01*
X142945409Y-88771915D01*
X142911431Y-88761607D01*
X142880110Y-88744866D01*
X142852661Y-88722339D01*
X142830134Y-88694890D01*
X142813393Y-88663569D01*
X142803085Y-88629591D01*
X142799000Y-88588110D01*
X142799000Y-87911890D01*
X142803085Y-87870409D01*
X142813393Y-87836431D01*
X142830134Y-87805110D01*
X142852661Y-87777661D01*
X142880110Y-87755134D01*
X142911431Y-87738393D01*
X142945409Y-87728085D01*
X142986890Y-87724000D01*
X143588110Y-87724000D01*
X143629591Y-87728085D01*
X143629591Y-87728085D01*
G37*
G36*
X190587797Y-87710567D02*
G01*
X190642575Y-87733257D01*
X190642577Y-87733258D01*
X190691876Y-87766198D01*
X190733802Y-87808124D01*
X190763560Y-87852661D01*
X190766743Y-87857425D01*
X190789433Y-87912203D01*
X190801000Y-87970353D01*
X190801000Y-88029647D01*
X190789433Y-88087797D01*
X190766743Y-88142575D01*
X190766742Y-88142577D01*
X190733802Y-88191876D01*
X190691876Y-88233802D01*
X190642577Y-88266742D01*
X190642576Y-88266743D01*
X190642575Y-88266743D01*
X190587797Y-88289433D01*
X190529647Y-88301000D01*
X190470353Y-88301000D01*
X190412203Y-88289433D01*
X190357425Y-88266743D01*
X190357424Y-88266743D01*
X190357423Y-88266742D01*
X190308124Y-88233802D01*
X190266198Y-88191876D01*
X190233258Y-88142577D01*
X190233257Y-88142575D01*
X190210567Y-88087797D01*
X190199000Y-88029647D01*
X190199000Y-87970353D01*
X190210567Y-87912203D01*
X190233257Y-87857425D01*
X190236440Y-87852661D01*
X190266198Y-87808124D01*
X190308124Y-87766198D01*
X190357423Y-87733258D01*
X190357425Y-87733257D01*
X190412203Y-87710567D01*
X190470353Y-87699000D01*
X190529647Y-87699000D01*
X190587797Y-87710567D01*
X190587797Y-87710567D01*
G37*
G36*
X169281938Y-87151716D02*
G01*
X169302557Y-87157971D01*
X169321553Y-87168124D01*
X169338208Y-87181792D01*
X169351876Y-87198447D01*
X169362029Y-87217443D01*
X169368284Y-87238062D01*
X169371000Y-87265640D01*
X169371000Y-87724360D01*
X169368284Y-87751938D01*
X169362029Y-87772557D01*
X169351876Y-87791553D01*
X169338208Y-87808208D01*
X169321553Y-87821876D01*
X169302557Y-87832029D01*
X169281938Y-87838284D01*
X169254360Y-87841000D01*
X168745640Y-87841000D01*
X168718062Y-87838284D01*
X168697443Y-87832029D01*
X168678447Y-87821876D01*
X168661792Y-87808208D01*
X168648124Y-87791553D01*
X168637971Y-87772557D01*
X168631716Y-87751938D01*
X168629000Y-87724360D01*
X168629000Y-87265640D01*
X168631716Y-87238062D01*
X168637971Y-87217443D01*
X168648124Y-87198447D01*
X168661792Y-87181792D01*
X168678447Y-87168124D01*
X168697443Y-87157971D01*
X168718062Y-87151716D01*
X168745640Y-87149000D01*
X169254360Y-87149000D01*
X169281938Y-87151716D01*
X169281938Y-87151716D01*
G37*
G36*
X177224867Y-86972004D02*
G01*
X177248292Y-86979110D01*
X177269889Y-86990654D01*
X177288814Y-87006186D01*
X177304346Y-87025111D01*
X177315890Y-87046708D01*
X177322996Y-87070133D01*
X177326000Y-87100638D01*
X177326000Y-87589362D01*
X177322996Y-87619867D01*
X177315890Y-87643292D01*
X177304346Y-87664889D01*
X177288814Y-87683814D01*
X177269889Y-87699346D01*
X177248292Y-87710890D01*
X177224867Y-87717996D01*
X177194362Y-87721000D01*
X175380638Y-87721000D01*
X175350133Y-87717996D01*
X175326708Y-87710890D01*
X175305111Y-87699346D01*
X175286186Y-87683814D01*
X175270654Y-87664889D01*
X175259110Y-87643292D01*
X175252004Y-87619867D01*
X175249000Y-87589362D01*
X175249000Y-87100638D01*
X175252004Y-87070133D01*
X175259110Y-87046708D01*
X175270654Y-87025111D01*
X175286186Y-87006186D01*
X175305111Y-86990654D01*
X175326708Y-86979110D01*
X175350133Y-86972004D01*
X175380638Y-86969000D01*
X177194362Y-86969000D01*
X177224867Y-86972004D01*
X177224867Y-86972004D01*
G37*
G36*
X172149867Y-86972004D02*
G01*
X172173292Y-86979110D01*
X172194889Y-86990654D01*
X172213814Y-87006186D01*
X172229346Y-87025111D01*
X172240890Y-87046708D01*
X172247996Y-87070133D01*
X172251000Y-87100638D01*
X172251000Y-87589362D01*
X172247996Y-87619867D01*
X172240890Y-87643292D01*
X172229346Y-87664889D01*
X172213814Y-87683814D01*
X172194889Y-87699346D01*
X172173292Y-87710890D01*
X172149867Y-87717996D01*
X172119362Y-87721000D01*
X170305638Y-87721000D01*
X170275133Y-87717996D01*
X170251708Y-87710890D01*
X170230111Y-87699346D01*
X170211186Y-87683814D01*
X170195654Y-87664889D01*
X170184110Y-87643292D01*
X170177004Y-87619867D01*
X170174000Y-87589362D01*
X170174000Y-87100638D01*
X170177004Y-87070133D01*
X170184110Y-87046708D01*
X170195654Y-87025111D01*
X170211186Y-87006186D01*
X170230111Y-86990654D01*
X170251708Y-86979110D01*
X170275133Y-86972004D01*
X170305638Y-86969000D01*
X172119362Y-86969000D01*
X172149867Y-86972004D01*
X172149867Y-86972004D01*
G37*
G36*
X188327400Y-84711208D02*
G01*
X188437570Y-84744628D01*
X188539089Y-84798891D01*
X188628078Y-84871922D01*
X188701109Y-84960911D01*
X188755372Y-85062430D01*
X188788792Y-85172600D01*
X188800680Y-85293300D01*
X188800680Y-86706700D01*
X188788792Y-86827400D01*
X188755372Y-86937570D01*
X188701109Y-87039089D01*
X188628078Y-87128078D01*
X188539089Y-87201109D01*
X188437570Y-87255372D01*
X188327400Y-87288792D01*
X188206700Y-87300680D01*
X186793300Y-87300680D01*
X186672600Y-87288792D01*
X186562430Y-87255372D01*
X186460911Y-87201109D01*
X186371922Y-87128078D01*
X186298891Y-87039089D01*
X186244628Y-86937570D01*
X186211208Y-86827400D01*
X186199320Y-86706700D01*
X186199320Y-85293300D01*
X186211208Y-85172600D01*
X186244628Y-85062430D01*
X186298891Y-84960911D01*
X186371922Y-84871922D01*
X186460911Y-84798891D01*
X186562430Y-84744628D01*
X186672600Y-84711208D01*
X186793300Y-84699320D01*
X188206700Y-84699320D01*
X188327400Y-84711208D01*
X188327400Y-84711208D01*
G37*
G36*
X143629591Y-86228085D02*
G01*
X143663569Y-86238393D01*
X143694890Y-86255134D01*
X143722339Y-86277661D01*
X143744866Y-86305110D01*
X143761607Y-86336431D01*
X143771915Y-86370409D01*
X143776000Y-86411890D01*
X143776000Y-87088110D01*
X143771915Y-87129591D01*
X143761607Y-87163569D01*
X143744866Y-87194890D01*
X143722339Y-87222339D01*
X143694890Y-87244866D01*
X143663569Y-87261607D01*
X143629591Y-87271915D01*
X143588110Y-87276000D01*
X142986890Y-87276000D01*
X142945409Y-87271915D01*
X142911431Y-87261607D01*
X142880110Y-87244866D01*
X142852661Y-87222339D01*
X142830134Y-87194890D01*
X142813393Y-87163569D01*
X142803085Y-87129591D01*
X142799000Y-87088110D01*
X142799000Y-86411890D01*
X142803085Y-86370409D01*
X142813393Y-86336431D01*
X142830134Y-86305110D01*
X142852661Y-86277661D01*
X142880110Y-86255134D01*
X142911431Y-86238393D01*
X142945409Y-86228085D01*
X142986890Y-86224000D01*
X143588110Y-86224000D01*
X143629591Y-86228085D01*
X143629591Y-86228085D01*
G37*
G36*
X142054591Y-86228085D02*
G01*
X142088569Y-86238393D01*
X142119890Y-86255134D01*
X142147339Y-86277661D01*
X142169866Y-86305110D01*
X142186607Y-86336431D01*
X142196915Y-86370409D01*
X142201000Y-86411890D01*
X142201000Y-87088110D01*
X142196915Y-87129591D01*
X142186607Y-87163569D01*
X142169866Y-87194890D01*
X142147339Y-87222339D01*
X142119890Y-87244866D01*
X142088569Y-87261607D01*
X142054591Y-87271915D01*
X142013110Y-87276000D01*
X141411890Y-87276000D01*
X141370409Y-87271915D01*
X141336431Y-87261607D01*
X141305110Y-87244866D01*
X141277661Y-87222339D01*
X141255134Y-87194890D01*
X141238393Y-87163569D01*
X141228085Y-87129591D01*
X141224000Y-87088110D01*
X141224000Y-86411890D01*
X141228085Y-86370409D01*
X141238393Y-86336431D01*
X141255134Y-86305110D01*
X141277661Y-86277661D01*
X141305110Y-86255134D01*
X141336431Y-86238393D01*
X141370409Y-86228085D01*
X141411890Y-86224000D01*
X142013110Y-86224000D01*
X142054591Y-86228085D01*
X142054591Y-86228085D01*
G37*
G36*
X150979591Y-86228085D02*
G01*
X151013569Y-86238393D01*
X151044890Y-86255134D01*
X151072339Y-86277661D01*
X151094866Y-86305110D01*
X151111607Y-86336431D01*
X151121915Y-86370409D01*
X151126000Y-86411890D01*
X151126000Y-87013110D01*
X151121915Y-87054591D01*
X151111607Y-87088569D01*
X151094866Y-87119890D01*
X151072339Y-87147339D01*
X151044890Y-87169866D01*
X151013569Y-87186607D01*
X150979591Y-87196915D01*
X150938110Y-87201000D01*
X150261890Y-87201000D01*
X150220409Y-87196915D01*
X150186431Y-87186607D01*
X150155110Y-87169866D01*
X150127661Y-87147339D01*
X150105134Y-87119890D01*
X150088393Y-87088569D01*
X150078085Y-87054591D01*
X150074000Y-87013110D01*
X150074000Y-86411890D01*
X150078085Y-86370409D01*
X150088393Y-86336431D01*
X150105134Y-86305110D01*
X150127661Y-86277661D01*
X150155110Y-86255134D01*
X150186431Y-86238393D01*
X150220409Y-86228085D01*
X150261890Y-86224000D01*
X150938110Y-86224000D01*
X150979591Y-86228085D01*
X150979591Y-86228085D01*
G37*
G36*
X157479591Y-86228085D02*
G01*
X157513569Y-86238393D01*
X157544890Y-86255134D01*
X157572339Y-86277661D01*
X157594866Y-86305110D01*
X157611607Y-86336431D01*
X157621915Y-86370409D01*
X157626000Y-86411890D01*
X157626000Y-87013110D01*
X157621915Y-87054591D01*
X157611607Y-87088569D01*
X157594866Y-87119890D01*
X157572339Y-87147339D01*
X157544890Y-87169866D01*
X157513569Y-87186607D01*
X157479591Y-87196915D01*
X157438110Y-87201000D01*
X156761890Y-87201000D01*
X156720409Y-87196915D01*
X156686431Y-87186607D01*
X156655110Y-87169866D01*
X156627661Y-87147339D01*
X156605134Y-87119890D01*
X156588393Y-87088569D01*
X156578085Y-87054591D01*
X156574000Y-87013110D01*
X156574000Y-86411890D01*
X156578085Y-86370409D01*
X156588393Y-86336431D01*
X156605134Y-86305110D01*
X156627661Y-86277661D01*
X156655110Y-86255134D01*
X156686431Y-86238393D01*
X156720409Y-86228085D01*
X156761890Y-86224000D01*
X157438110Y-86224000D01*
X157479591Y-86228085D01*
X157479591Y-86228085D01*
G37*
G36*
X180538486Y-83374012D02*
G01*
X179388730Y-84523768D01*
X178238974Y-83374012D01*
X179388730Y-82224256D01*
X180538486Y-83374012D01*
X180538486Y-83374012D01*
G37*
G36*
X170761026Y-83374012D02*
G01*
X169611270Y-84523768D01*
X168461514Y-83374012D01*
X169611270Y-82224256D01*
X170761026Y-83374012D01*
X170761026Y-83374012D01*
G37*
G36*
X194327400Y-71211208D02*
G01*
X194437570Y-71244628D01*
X194539089Y-71298891D01*
X194628078Y-71371922D01*
X194701109Y-71460911D01*
X194755372Y-71562430D01*
X194788792Y-71672600D01*
X194800680Y-71793300D01*
X194800680Y-73206700D01*
X194788792Y-73327400D01*
X194755372Y-73437570D01*
X194701109Y-73539089D01*
X194628078Y-73628078D01*
X194539089Y-73701109D01*
X194437570Y-73755372D01*
X194327400Y-73788792D01*
X194206700Y-73800680D01*
X192793300Y-73800680D01*
X192672600Y-73788792D01*
X192562430Y-73755372D01*
X192460911Y-73701109D01*
X192371922Y-73628078D01*
X192298891Y-73539089D01*
X192244628Y-73437570D01*
X192211208Y-73327400D01*
X192199320Y-73206700D01*
X192199320Y-71793300D01*
X192211208Y-71672600D01*
X192244628Y-71562430D01*
X192298891Y-71460911D01*
X192371922Y-71371922D01*
X192460911Y-71298891D01*
X192562430Y-71244628D01*
X192672600Y-71211208D01*
X192793300Y-71199320D01*
X194206700Y-71199320D01*
X194327400Y-71211208D01*
X194327400Y-71211208D01*
G37*
G36*
X170761026Y-72625988D02*
G01*
X169611270Y-73775744D01*
X168461514Y-72625988D01*
X169611270Y-71476232D01*
X170761026Y-72625988D01*
X170761026Y-72625988D01*
G37*
G36*
X180538486Y-72625988D02*
G01*
X179388730Y-73775744D01*
X178238974Y-72625988D01*
X179388730Y-71476232D01*
X180538486Y-72625988D01*
X180538486Y-72625988D01*
G37*
M02*
