G04 #@! TF.GenerationSoftware,KiCad,Pcbnew,(5.1.0)-1*
G04 #@! TF.CreationDate,2019-04-03T23:27:00+02:00*
G04 #@! TF.ProjectId,BusinessSynth,42757369-6e65-4737-9353-796e74682e6b,rev?*
G04 #@! TF.SameCoordinates,Original*
G04 #@! TF.FileFunction,Soldermask,Bot*
G04 #@! TF.FilePolarity,Negative*
%FSLAX46Y46*%
G04 Gerber Fmt 4.6, Leading zero omitted, Abs format (unit mm)*
G04 Created by KiCad (PCBNEW (5.1.0)-1) date 2019-04-03 23:27:00*
%MOMM*%
%LPD*%
G04 APERTURE LIST*
%ADD10C,0.800000*%
%ADD11C,0.100000*%
G04 APERTURE END LIST*
D10*
X185622857Y-105821428D02*
X184980000Y-106035714D01*
X183908571Y-106035714D01*
X183480000Y-105821428D01*
X183265714Y-105607142D01*
X183051428Y-105178571D01*
X183051428Y-104750000D01*
X183265714Y-104321428D01*
X183480000Y-104107142D01*
X183908571Y-103892857D01*
X184765714Y-103678571D01*
X185194285Y-103464285D01*
X185408571Y-103250000D01*
X185622857Y-102821428D01*
X185622857Y-102392857D01*
X185408571Y-101964285D01*
X185194285Y-101750000D01*
X184765714Y-101535714D01*
X183694285Y-101535714D01*
X183051428Y-101750000D01*
X180480000Y-106035714D02*
X180908571Y-105821428D01*
X181122857Y-105607142D01*
X181337142Y-105178571D01*
X181337142Y-103892857D01*
X181122857Y-103464285D01*
X180908571Y-103250000D01*
X180480000Y-103035714D01*
X179837142Y-103035714D01*
X179408571Y-103250000D01*
X179194285Y-103464285D01*
X178980000Y-103892857D01*
X178980000Y-105178571D01*
X179194285Y-105607142D01*
X179408571Y-105821428D01*
X179837142Y-106035714D01*
X180480000Y-106035714D01*
X177051428Y-103035714D02*
X177051428Y-106035714D01*
X177051428Y-103464285D02*
X176837142Y-103250000D01*
X176408571Y-103035714D01*
X175765714Y-103035714D01*
X175337142Y-103250000D01*
X175122857Y-103678571D01*
X175122857Y-106035714D01*
X171051428Y-106035714D02*
X171051428Y-101535714D01*
X171051428Y-105821428D02*
X171480000Y-106035714D01*
X172337142Y-106035714D01*
X172765714Y-105821428D01*
X172980000Y-105607142D01*
X173194285Y-105178571D01*
X173194285Y-103892857D01*
X172980000Y-103464285D01*
X172765714Y-103250000D01*
X172337142Y-103035714D01*
X171480000Y-103035714D01*
X171051428Y-103250000D01*
X168908571Y-106035714D02*
X168908571Y-103035714D01*
X168908571Y-103892857D02*
X168694285Y-103464285D01*
X168480000Y-103250000D01*
X168051428Y-103035714D01*
X167622857Y-103035714D01*
X164408571Y-105821428D02*
X164837142Y-106035714D01*
X165694285Y-106035714D01*
X166122857Y-105821428D01*
X166337142Y-105392857D01*
X166337142Y-103678571D01*
X166122857Y-103250000D01*
X165694285Y-103035714D01*
X164837142Y-103035714D01*
X164408571Y-103250000D01*
X164194285Y-103678571D01*
X164194285Y-104107142D01*
X166337142Y-104535714D01*
X158837142Y-106035714D02*
X158837142Y-101535714D01*
X156265714Y-106035714D01*
X156265714Y-101535714D01*
X154122857Y-106035714D02*
X154122857Y-103035714D01*
X154122857Y-101535714D02*
X154337142Y-101750000D01*
X154122857Y-101964285D01*
X153908571Y-101750000D01*
X154122857Y-101535714D01*
X154122857Y-101964285D01*
X151980000Y-103035714D02*
X151980000Y-106035714D01*
X151980000Y-103464285D02*
X151765714Y-103250000D01*
X151337142Y-103035714D01*
X150694285Y-103035714D01*
X150265714Y-103250000D01*
X150051428Y-103678571D01*
X150051428Y-106035714D01*
X147908571Y-106035714D02*
X147908571Y-103035714D01*
X147908571Y-101535714D02*
X148122857Y-101750000D01*
X147908571Y-101964285D01*
X147694285Y-101750000D01*
X147908571Y-101535714D01*
X147908571Y-101964285D01*
X146194285Y-103035714D02*
X145122857Y-106035714D01*
X144051428Y-103035714D01*
X140622857Y-105821428D02*
X141051428Y-106035714D01*
X141908571Y-106035714D01*
X142337142Y-105821428D01*
X142551428Y-105392857D01*
X142551428Y-103678571D01*
X142337142Y-103250000D01*
X141908571Y-103035714D01*
X141051428Y-103035714D01*
X140622857Y-103250000D01*
X140408571Y-103678571D01*
X140408571Y-104107142D01*
X142551428Y-104535714D01*
X135265714Y-104750000D02*
X133122857Y-104750000D01*
X135694285Y-106035714D02*
X134194285Y-101535714D01*
X132694285Y-106035714D01*
X131194285Y-103035714D02*
X131194285Y-106035714D01*
X131194285Y-103464285D02*
X130980000Y-103250000D01*
X130551428Y-103035714D01*
X129908571Y-103035714D01*
X129480000Y-103250000D01*
X129265714Y-103678571D01*
X129265714Y-106035714D01*
X125194285Y-106035714D02*
X125194285Y-101535714D01*
X125194285Y-105821428D02*
X125622857Y-106035714D01*
X126480000Y-106035714D01*
X126908571Y-105821428D01*
X127122857Y-105607142D01*
X127337142Y-105178571D01*
X127337142Y-103892857D01*
X127122857Y-103464285D01*
X126908571Y-103250000D01*
X126480000Y-103035714D01*
X125622857Y-103035714D01*
X125194285Y-103250000D01*
X121337142Y-105821428D02*
X121765714Y-106035714D01*
X122622857Y-106035714D01*
X123051428Y-105821428D01*
X123265714Y-105392857D01*
X123265714Y-103678571D01*
X123051428Y-103250000D01*
X122622857Y-103035714D01*
X121765714Y-103035714D01*
X121337142Y-103250000D01*
X121122857Y-103678571D01*
X121122857Y-104107142D01*
X123265714Y-104535714D01*
X119194285Y-106035714D02*
X119194285Y-103035714D01*
X119194285Y-103892857D02*
X118980000Y-103464285D01*
X118765714Y-103250000D01*
X118337142Y-103035714D01*
X117908571Y-103035714D01*
X116622857Y-105821428D02*
X116194285Y-106035714D01*
X115337142Y-106035714D01*
X114908571Y-105821428D01*
X114694285Y-105392857D01*
X114694285Y-105178571D01*
X114908571Y-104750000D01*
X115337142Y-104535714D01*
X115980000Y-104535714D01*
X116408571Y-104321428D01*
X116622857Y-103892857D01*
X116622857Y-103678571D01*
X116408571Y-103250000D01*
X115980000Y-103035714D01*
X115337142Y-103035714D01*
X114908571Y-103250000D01*
X111051428Y-105821428D02*
X111480000Y-106035714D01*
X112337142Y-106035714D01*
X112765714Y-105821428D01*
X112980000Y-105392857D01*
X112980000Y-103678571D01*
X112765714Y-103250000D01*
X112337142Y-103035714D01*
X111480000Y-103035714D01*
X111051428Y-103250000D01*
X110837142Y-103678571D01*
X110837142Y-104107142D01*
X112980000Y-104535714D01*
X108908571Y-103035714D02*
X108908571Y-106035714D01*
X108908571Y-103464285D02*
X108694285Y-103250000D01*
X108265714Y-103035714D01*
X107622857Y-103035714D01*
X107194285Y-103250000D01*
X106980000Y-103678571D01*
X106980000Y-106035714D01*
D11*
G36*
X196000000Y-121000000D02*
G01*
X195000000Y-123000000D01*
X192000000Y-123000000D01*
X191000000Y-121000000D01*
X191000000Y-119000000D01*
X196000000Y-119000000D01*
X196000000Y-121000000D01*
X196000000Y-121000000D01*
G37*
G36*
X190587797Y-113710567D02*
G01*
X190642575Y-113733257D01*
X190642577Y-113733258D01*
X190691876Y-113766198D01*
X190733802Y-113808124D01*
X190766742Y-113857423D01*
X190766743Y-113857425D01*
X190789433Y-113912203D01*
X190801000Y-113970353D01*
X190801000Y-114029647D01*
X190789433Y-114087797D01*
X190766743Y-114142575D01*
X190766742Y-114142577D01*
X190733802Y-114191876D01*
X190691876Y-114233802D01*
X190642577Y-114266742D01*
X190642576Y-114266743D01*
X190642575Y-114266743D01*
X190587797Y-114289433D01*
X190529647Y-114301000D01*
X190470353Y-114301000D01*
X190412203Y-114289433D01*
X190357425Y-114266743D01*
X190357424Y-114266743D01*
X190357423Y-114266742D01*
X190308124Y-114233802D01*
X190266198Y-114191876D01*
X190233258Y-114142577D01*
X190233257Y-114142575D01*
X190210567Y-114087797D01*
X190199000Y-114029647D01*
X190199000Y-113970353D01*
X190210567Y-113912203D01*
X190233257Y-113857425D01*
X190233258Y-113857423D01*
X190266198Y-113808124D01*
X190308124Y-113766198D01*
X190357423Y-113733258D01*
X190357425Y-113733257D01*
X190412203Y-113710567D01*
X190470353Y-113699000D01*
X190529647Y-113699000D01*
X190587797Y-113710567D01*
X190587797Y-113710567D01*
G37*
G36*
X190587797Y-112710567D02*
G01*
X190642575Y-112733257D01*
X190642577Y-112733258D01*
X190691876Y-112766198D01*
X190733802Y-112808124D01*
X190766742Y-112857423D01*
X190766743Y-112857425D01*
X190789433Y-112912203D01*
X190801000Y-112970353D01*
X190801000Y-113029647D01*
X190789433Y-113087797D01*
X190766743Y-113142575D01*
X190766742Y-113142577D01*
X190733802Y-113191876D01*
X190691876Y-113233802D01*
X190642577Y-113266742D01*
X190642576Y-113266743D01*
X190642575Y-113266743D01*
X190587797Y-113289433D01*
X190529647Y-113301000D01*
X190470353Y-113301000D01*
X190412203Y-113289433D01*
X190357425Y-113266743D01*
X190357424Y-113266743D01*
X190357423Y-113266742D01*
X190308124Y-113233802D01*
X190266198Y-113191876D01*
X190233258Y-113142577D01*
X190233257Y-113142575D01*
X190210567Y-113087797D01*
X190199000Y-113029647D01*
X190199000Y-112970353D01*
X190210567Y-112912203D01*
X190233257Y-112857425D01*
X190233258Y-112857423D01*
X190266198Y-112808124D01*
X190308124Y-112766198D01*
X190357423Y-112733258D01*
X190357425Y-112733257D01*
X190412203Y-112710567D01*
X190470353Y-112699000D01*
X190529647Y-112699000D01*
X190587797Y-112710567D01*
X190587797Y-112710567D01*
G37*
G36*
X190587797Y-111710567D02*
G01*
X190642575Y-111733257D01*
X190642577Y-111733258D01*
X190691876Y-111766198D01*
X190733802Y-111808124D01*
X190766742Y-111857423D01*
X190766743Y-111857425D01*
X190789433Y-111912203D01*
X190801000Y-111970353D01*
X190801000Y-112029647D01*
X190789433Y-112087797D01*
X190766743Y-112142575D01*
X190766742Y-112142577D01*
X190733802Y-112191876D01*
X190691876Y-112233802D01*
X190642577Y-112266742D01*
X190642576Y-112266743D01*
X190642575Y-112266743D01*
X190587797Y-112289433D01*
X190529647Y-112301000D01*
X190470353Y-112301000D01*
X190412203Y-112289433D01*
X190357425Y-112266743D01*
X190357424Y-112266743D01*
X190357423Y-112266742D01*
X190308124Y-112233802D01*
X190266198Y-112191876D01*
X190233258Y-112142577D01*
X190233257Y-112142575D01*
X190210567Y-112087797D01*
X190199000Y-112029647D01*
X190199000Y-111970353D01*
X190210567Y-111912203D01*
X190233257Y-111857425D01*
X190233258Y-111857423D01*
X190266198Y-111808124D01*
X190308124Y-111766198D01*
X190357423Y-111733258D01*
X190357425Y-111733257D01*
X190412203Y-111710567D01*
X190470353Y-111699000D01*
X190529647Y-111699000D01*
X190587797Y-111710567D01*
X190587797Y-111710567D01*
G37*
G36*
X116901000Y-98651000D02*
G01*
X111799000Y-98651000D01*
X111799000Y-85549000D01*
X116901000Y-85549000D01*
X116901000Y-98651000D01*
X116901000Y-98651000D01*
G37*
G36*
X190587797Y-89710567D02*
G01*
X190642575Y-89733257D01*
X190642577Y-89733258D01*
X190691876Y-89766198D01*
X190733802Y-89808124D01*
X190766742Y-89857423D01*
X190766743Y-89857425D01*
X190789433Y-89912203D01*
X190801000Y-89970353D01*
X190801000Y-90029647D01*
X190789433Y-90087797D01*
X190766743Y-90142575D01*
X190766742Y-90142577D01*
X190733802Y-90191876D01*
X190691876Y-90233802D01*
X190642577Y-90266742D01*
X190642576Y-90266743D01*
X190642575Y-90266743D01*
X190587797Y-90289433D01*
X190529647Y-90301000D01*
X190470353Y-90301000D01*
X190412203Y-90289433D01*
X190357425Y-90266743D01*
X190357424Y-90266743D01*
X190357423Y-90266742D01*
X190308124Y-90233802D01*
X190266198Y-90191876D01*
X190233258Y-90142577D01*
X190233257Y-90142575D01*
X190210567Y-90087797D01*
X190199000Y-90029647D01*
X190199000Y-89970353D01*
X190210567Y-89912203D01*
X190233257Y-89857425D01*
X190233258Y-89857423D01*
X190266198Y-89808124D01*
X190308124Y-89766198D01*
X190357423Y-89733258D01*
X190357425Y-89733257D01*
X190412203Y-89710567D01*
X190470353Y-89699000D01*
X190529647Y-89699000D01*
X190587797Y-89710567D01*
X190587797Y-89710567D01*
G37*
G36*
X190587797Y-88710567D02*
G01*
X190642575Y-88733257D01*
X190642577Y-88733258D01*
X190691876Y-88766198D01*
X190733802Y-88808124D01*
X190766742Y-88857423D01*
X190766743Y-88857425D01*
X190789433Y-88912203D01*
X190801000Y-88970353D01*
X190801000Y-89029647D01*
X190789433Y-89087797D01*
X190766743Y-89142575D01*
X190766742Y-89142577D01*
X190733802Y-89191876D01*
X190691876Y-89233802D01*
X190642577Y-89266742D01*
X190642576Y-89266743D01*
X190642575Y-89266743D01*
X190587797Y-89289433D01*
X190529647Y-89301000D01*
X190470353Y-89301000D01*
X190412203Y-89289433D01*
X190357425Y-89266743D01*
X190357424Y-89266743D01*
X190357423Y-89266742D01*
X190308124Y-89233802D01*
X190266198Y-89191876D01*
X190233258Y-89142577D01*
X190233257Y-89142575D01*
X190210567Y-89087797D01*
X190199000Y-89029647D01*
X190199000Y-88970353D01*
X190210567Y-88912203D01*
X190233257Y-88857425D01*
X190233258Y-88857423D01*
X190266198Y-88808124D01*
X190308124Y-88766198D01*
X190357423Y-88733258D01*
X190357425Y-88733257D01*
X190412203Y-88710567D01*
X190470353Y-88699000D01*
X190529647Y-88699000D01*
X190587797Y-88710567D01*
X190587797Y-88710567D01*
G37*
G36*
X190587797Y-87710567D02*
G01*
X190642575Y-87733257D01*
X190642577Y-87733258D01*
X190691876Y-87766198D01*
X190733802Y-87808124D01*
X190766742Y-87857423D01*
X190766743Y-87857425D01*
X190789433Y-87912203D01*
X190801000Y-87970353D01*
X190801000Y-88029647D01*
X190789433Y-88087797D01*
X190766743Y-88142575D01*
X190766742Y-88142577D01*
X190733802Y-88191876D01*
X190691876Y-88233802D01*
X190642577Y-88266742D01*
X190642576Y-88266743D01*
X190642575Y-88266743D01*
X190587797Y-88289433D01*
X190529647Y-88301000D01*
X190470353Y-88301000D01*
X190412203Y-88289433D01*
X190357425Y-88266743D01*
X190357424Y-88266743D01*
X190357423Y-88266742D01*
X190308124Y-88233802D01*
X190266198Y-88191876D01*
X190233258Y-88142577D01*
X190233257Y-88142575D01*
X190210567Y-88087797D01*
X190199000Y-88029647D01*
X190199000Y-87970353D01*
X190210567Y-87912203D01*
X190233257Y-87857425D01*
X190233258Y-87857423D01*
X190266198Y-87808124D01*
X190308124Y-87766198D01*
X190357423Y-87733258D01*
X190357425Y-87733257D01*
X190412203Y-87710567D01*
X190470353Y-87699000D01*
X190529647Y-87699000D01*
X190587797Y-87710567D01*
X190587797Y-87710567D01*
G37*
G36*
X188327400Y-84711208D02*
G01*
X188437570Y-84744628D01*
X188539089Y-84798891D01*
X188628078Y-84871922D01*
X188701109Y-84960911D01*
X188755372Y-85062430D01*
X188788792Y-85172600D01*
X188800680Y-85293300D01*
X188800680Y-86706700D01*
X188788792Y-86827400D01*
X188755372Y-86937570D01*
X188701109Y-87039089D01*
X188628078Y-87128078D01*
X188539089Y-87201109D01*
X188437570Y-87255372D01*
X188327400Y-87288792D01*
X188206700Y-87300680D01*
X186793300Y-87300680D01*
X186672600Y-87288792D01*
X186562430Y-87255372D01*
X186460911Y-87201109D01*
X186371922Y-87128078D01*
X186298891Y-87039089D01*
X186244628Y-86937570D01*
X186211208Y-86827400D01*
X186199320Y-86706700D01*
X186199320Y-85293300D01*
X186211208Y-85172600D01*
X186244628Y-85062430D01*
X186298891Y-84960911D01*
X186371922Y-84871922D01*
X186460911Y-84798891D01*
X186562430Y-84744628D01*
X186672600Y-84711208D01*
X186793300Y-84699320D01*
X188206700Y-84699320D01*
X188327400Y-84711208D01*
X188327400Y-84711208D01*
G37*
G36*
X194327400Y-71211208D02*
G01*
X194437570Y-71244628D01*
X194539089Y-71298891D01*
X194628078Y-71371922D01*
X194701109Y-71460911D01*
X194755372Y-71562430D01*
X194788792Y-71672600D01*
X194800680Y-71793300D01*
X194800680Y-73206700D01*
X194788792Y-73327400D01*
X194755372Y-73437570D01*
X194701109Y-73539089D01*
X194628078Y-73628078D01*
X194539089Y-73701109D01*
X194437570Y-73755372D01*
X194327400Y-73788792D01*
X194206700Y-73800680D01*
X192793300Y-73800680D01*
X192672600Y-73788792D01*
X192562430Y-73755372D01*
X192460911Y-73701109D01*
X192371922Y-73628078D01*
X192298891Y-73539089D01*
X192244628Y-73437570D01*
X192211208Y-73327400D01*
X192199320Y-73206700D01*
X192199320Y-71793300D01*
X192211208Y-71672600D01*
X192244628Y-71562430D01*
X192298891Y-71460911D01*
X192371922Y-71371922D01*
X192460911Y-71298891D01*
X192562430Y-71244628D01*
X192672600Y-71211208D01*
X192793300Y-71199320D01*
X194206700Y-71199320D01*
X194327400Y-71211208D01*
X194327400Y-71211208D01*
G37*
M02*
